<svg xmlns="http://www.w3.org/2000/svg" xmlns:xlink="http://www.w3.org/1999/xlink" version="1.1" width="686.88pt" height="326.88pt" viewBox="0 0 686.88 326.88">
<defs>
<clipPath id="clip_1">
<path transform="matrix(1,0,0,-1,0,326.88)" d="M62.443574 57.427896H679.68008V292.58177H62.443574Z"/>
</clipPath>
<clipPath id="clip_2">
<path transform="matrix(1,0,0,-1,0,326.88)" d="M62.443574 57.427896H679.68008V292.58177H62.443574Z"/>
</clipPath>
<clipPath id="clip_3">
<path transform="matrix(1,0,0,-1,0,326.88)" d="M62.443574 57.427896H679.68008V292.58177H62.443574Z"/>
</clipPath>
<clipPath id="clip_4">
<path transform="matrix(1,0,0,-1,0,326.88)" d="M62.443574 57.427896H679.68008V292.58177H62.443574Z"/>
</clipPath>
<clipPath id="clip_5">
<path transform="matrix(1,0,0,-1,0,326.88)" d="M62.443574 57.427896H679.68008V292.58177H62.443574Z"/>
</clipPath>
<clipPath id="clip_6">
<path transform="matrix(1,0,0,-1,0,326.88)" d="M62.443574 57.427896H679.68008V292.58177H62.443574Z"/>
</clipPath>
<clipPath id="clip_7">
<path transform="matrix(1,0,0,-1,0,326.88)" d="M62.443574 57.427896H679.68008V292.58177H62.443574Z"/>
</clipPath>
<clipPath id="clip_8">
<path transform="matrix(1,0,0,-1,0,326.88)" d="M62.443574 57.427896H679.68008V292.58177H62.443574Z"/>
</clipPath>
<clipPath id="clip_9">
<path transform="matrix(1,0,0,-1,0,326.88)" d="M62.443574 57.427896H679.68008V292.58177H62.443574Z"/>
</clipPath>
<clipPath id="clip_10">
<path transform="matrix(1,0,0,-1,0,326.88)" d="M62.443574 57.427896H679.68008V292.58177H62.443574Z"/>
</clipPath>
<clipPath id="clip_11">
<path transform="matrix(1,0,0,-1,0,326.88)" d="M62.443574 57.427896H679.68008V292.58177H62.443574Z"/>
</clipPath>
<clipPath id="clip_12">
<path transform="matrix(1,0,0,-1,0,326.88)" d="M62.443574 57.427896H679.68008V292.58177H62.443574Z"/>
</clipPath>
<clipPath id="clip_13">
<path transform="matrix(1,0,0,-1,0,326.88)" d="M62.443574 57.427896H679.68008V292.58177H62.443574Z"/>
</clipPath>
<clipPath id="clip_14">
<path transform="matrix(1,0,0,-1,0,326.88)" d="M62.443574 57.427896H679.68008V292.58177H62.443574Z"/>
</clipPath>
<clipPath id="clip_15">
<path transform="matrix(1,0,0,-1,0,326.88)" d="M62.443574 57.427896H679.68008V292.58177H62.443574Z"/>
</clipPath>
<clipPath id="clip_16">
<path transform="matrix(1,0,0,-1,0,326.88)" d="M62.443574 57.427896H679.68008V292.58177H62.443574Z"/>
</clipPath>
<clipPath id="clip_17">
<path transform="matrix(1,0,0,-1,0,326.88)" d="M62.443574 57.427896H679.68008V292.58177H62.443574Z"/>
</clipPath>
<clipPath id="clip_18">
<path transform="matrix(1,0,0,-1,0,326.88)" d="M62.443574 57.427896H679.68008V292.58177H62.443574Z"/>
</clipPath>
<clipPath id="clip_19">
<path transform="matrix(1,0,0,-1,0,326.88)" d="M62.443574 57.427896H679.68008V292.58177H62.443574Z"/>
</clipPath>
<clipPath id="clip_20">
<path transform="matrix(1,0,0,-1,0,326.88)" d="M62.443574 57.427896H679.68008V292.58177H62.443574Z"/>
</clipPath>
<clipPath id="clip_21">
<path transform="matrix(1,0,0,-1,0,326.88)" d="M62.443574 57.427896H679.68008V292.58177H62.443574Z"/>
</clipPath>
<clipPath id="clip_22">
<path transform="matrix(1,0,0,-1,0,326.88)" d="M62.443574 57.427896H679.68008V292.58177H62.443574Z"/>
</clipPath>
<clipPath id="clip_23">
<path transform="matrix(1,0,0,-1,0,326.88)" d="M62.443574 57.427896H679.68008V292.58177H62.443574Z"/>
</clipPath>
<clipPath id="clip_24">
<path transform="matrix(1,0,0,-1,0,326.88)" d="M62.443574 57.427896H679.68008V292.58177H62.443574Z"/>
</clipPath>
<path id="font_25_50" d="M.41999818 .3212433C.41999818 .38223268 .4189911 .4861908 .3769989 .5661621 .33999635 .6361389 .2809906 .6611328 .22898865 .6611328 .18099976 .6611328 .11999512 .63912966 .08198547 .56715396 .041992189 .4921875 .037994386 .3992157 .037994386 .3212433 .037994386 .26426698 .038986207 .17730713 .069992069 .10133362 .11299133-.0016326904 .18998719-.015625 .22898865-.015625 .2749939-.015625 .34498597 .0033721924 .38598634 .09832764 .41600038 .16731262 .41999818 .24827576 .41999818 .3212433M.22898865 .00036621095C.16499329 .00036621095 .1269989 .055343629 .11299133 .13131714 .101989749 .19029236 .101989749 .27626039 .101989749 .33224488 .101989749 .4092102 .101989749 .4731903 .114990238 .5341644 .13398743 .6191406 .18998719 .64512637 .22898865 .64512637 .269989 .64512637 .32299806 .61813357 .34199525 .53616335 .35499574 .479187 .35598756 .4122162 .35598756 .33224488 .35598756 .26727296 .35598756 .18730164 .34399415 .12832642 .32299806 .019363404 .2639923 .00036621095 .22898865 .00036621095Z"/>
<path id="font_25_55" d="M.11399841 .58535769C.12399292 .5813446 .16499329 .5683594 .20698548 .5683594 .2999878 .5683594 .35099793 .61834719 .37998963 .64715579 .37998963 .65515139 .37998963 .66015627 .37399293 .66015627 .37298585 .66015627 .37098695 .66015627 .36299134 .6561432 .32798768 .6411438 .2869873 .62934878 .23699951 .62934878 .20698548 .62934878 .1619873 .6332855 .11299133 .65515139 .101989749 .66015627 .099990848 .66015627 .09899902 .66015627 .09399414 .66015627 .09298706 .65914919 .09298706 .63916018V.34931947C.09298706 .33129884 .09298706 .32629396 .102996829 .32629396 .10798645 .32629396 .10998535 .32829286 .114990238 .33529664 .14698792 .3803711 .19099427 .39941407 .24099732 .39941407 .27598573 .39941407 .35099793 .3773651 .35099793 .20610047 .35099793 .17408753 .35099793 .116119388 .32099916 .07022095 .29599 .029312134 .25698854 .008361816 .21398926 .008361816 .147995 .008361816 .08099365 .054260255 .06298828 .13108826 .066986087 .13009644 .07499695 .12809754 .07899475 .12809754 .09199524 .12809754 .116989139 .13510132 .116989139 .16609192 .116989139 .19309998 .09799194 .20410156 .07899475 .20410156 .055999757 .20410156 .040985109 .190094 .040985109 .16209412 .040985109 .07521057 .10998535-.015625 .21598816-.015625 .31900025-.015625 .4169922 .07322693 .4169922 .2020874 .4169922 .32228089 .33898927 .41540528 .24198914 .41540528 .19099427 .41540528 .147995 .39640809 .11399841 .3603363V.58535769Z"/>
<path id="font_25_51" d="M.2659912 .63912966C.2659912 .66012576 .2649994 .6611328 .25099183 .6611328 .21199036 .61424258 .15299988 .5993042 .09700012 .5973053 .09399414 .5973053 .08898926 .5973053 .08799744 .5953064 .08699036 .5933075 .08699036 .5913086 .08699036 .5703125 .117996219 .5703125 .16999817 .5763092 .20999146 .600296V.073013309C.20999146 .037994386 .20799256 .025985718 .12199402 .025985718H.09199524V0C.13999939 .0009918213 .18998719 .0019989014 .23799134 .0019989014 .28599549 .0019989014 .33599855 .0009918213 .38398744 0V.025985718H.35398866C.2679901 .025985718 .2659912 .037002565 .2659912 .073013309V.63912966Z"/>
<path id="font_25_52" d="M.4169922 .15492249H.39898683C.3889923 .083969119 .3809967 .07197571 .3769989 .06599426 .37199403 .057998659 .2999878 .057998659 .28599549 .057998659H.09399414C.12998963 .096969608 .19999695 .16792298 .2849884 .24986267 .34599305 .30781556 .4169922 .37576295 .4169922 .47473146 .4169922 .59298709 .32299806 .6611328 .21798706 .6611328 .10798645 .6611328 .040985109 .5639038 .040985109 .47373963 .040985109 .43473817 .069992069 .42973329 .08198547 .42973329 .09199524 .42973329 .12199402 .43572999 .12199402 .47073365 .12199402 .5017395 .09599304 .5107422 .08198547 .5107422 .07598877 .5107422 .069992069 .5097351 .06599426 .5077362 .084991458 .59298709 .14299011 .63513186 .20399475 .63513186 .29100038 .63513186 .34799195 .5659027 .34799195 .47473146 .34799195 .38775636 .29699708 .31282044 .23999024 .24786377L.040985109 .022994996V0H.3929901L.4169922 .15492249Z"/>
<path id="font_26_41" d="M.6179962 .12213135V.52337649C.6179962 .60643008 .6349945 .61143496 .7049866 .61442568 .71099856 .6204376 .71099856 .641449 .7049866 .64746096 .6639862 .64645388 .61299136 .6454468 .57499697 .6454468 .5379944 .6454468 .48999024 .64645388 .44599916 .64746096 .43998719 .641449 .43998719 .6204376 .44599916 .61442568 .5159912 .61143496 .5329895 .60643008 .5329895 .52337649V.36328126H.19099427V.52337649C.19099427 .60643008 .20799256 .61143496 .27799989 .61442568 .28399659 .6204376 .28399659 .641449 .27799989 .64746096 .23999024 .64645388 .19898987 .6454468 .147995 .6454468 .09799194 .6454468 .056991579 .64645388 .018997193 .64746096 .0129852299 .641449 .0129852299 .6204376 .018997193 .61442568 .08898926 .61143496 .10598755 .60643008 .10598755 .52337649V.12213135C.10598755 .0390625 .08898926 .034072877 .018997193 .031066895 .0129852299 .025054932 .0129852299 .004043579 .018997193-.001953125 .06298828-.0009613037 .11099243 .000045776369 .14898682 .000045776369 .18499756 .000045776369 .23399353-.0009613037 .27799989-.001953125 .28399659 .004043579 .28399659 .025054932 .27799989 .031066895 .20799256 .034072877 .19099427 .0390625 .19099427 .12213135V.3212738H.5329895V.12213135C.5329895 .0390625 .5159912 .034072877 .44599916 .031066895 .43998719 .025054932 .43998719 .004043579 .44599916-.001953125 .4909973-.0009613037 .5389862 .000045776369 .57598879 .000045776369 .61299136 .000045776369 .6609955-.0009613037 .7049866-.001953125 .71099856 .004043579 .71099856 .025054932 .7049866 .031066895 .6349945 .034072877 .6179962 .0390625 .6179962 .12213135Z"/>
<path id="font_26_66" d="M.29299928 .048233034C.29899598 .017227173 .30999757-.009765625 .3600006-.009765625 .397995-.009765625 .43399049 .007232666 .45498658 .02722168 .45298768 .039230348 .44898988 .048233034 .43798829 .054229738 .43099977 .048233034 .4139862 .038223268 .40098573 .038223268 .37199403 .038223268 .37098695 .07725525 .37098695 .12327576V.27037049C.37098695 .41244508 .29299928 .43945313 .21998596 .43945313 .13798523 .43945313 .054992677 .385437 .054992677 .32839967 .054992677 .30438233 .066986087 .29237367 .08999634 .29237367 .11898804 .29237367 .13699341 .313385 .13699341 .32640077 .13699341 .33340455 .13598633 .34040834 .13398743 .34440614 .1329956 .3474121 .13198853 .3534088 .13198853 .36442567 .13198853 .39544679 .17399597 .40644837 .21199036 .40644837 .24598694 .40644837 .29299928 .3894348 .29299928 .2763672 .29299928 .2693634 .2899933 .2653656 .2869873 .26435853L.20098877 .24334717C.10499573 .21932984 .035995485 .16630554 .035995485 .0982666 .035995485 .016220093 .09199524-.009765625 .1619873-.009765625 .19699097-.009765625 .22698975-.0017700195 .2709961 .032226564L.29100038 .048233034H.29299928M.29299928 .2333374V.10127258C.29299928 .088256839 .2869873 .08125305 .2789917 .07525635 .25299073 .054244996 .21899414 .031219483 .19099427 .031219483 .14099121 .031219483 .11898804 .071243289 .11898804 .102264408 .11898804 .14729309 .13999939 .19332886 .21398926 .21232605L.29299928 .2333374Z"/>
<path id="font_26_77" d="M.09498596 .12207031C.09498596 .03904724 .083999637 .03404236 .022994996 .031051636 .016998291 .025039673 .016998291 .004043579 .022994996-.001953125 .057998659-.0009613037 .09498596 .000045776369 .1349945 .000045776369 .1749878 .000045776369 .21299744-.0009613037 .24598694-.001953125 .2519989 .004043579 .2519989 .025039673 .24598694 .031051636 .18499756 .03404236 .17399597 .03904724 .17399597 .12207031V.5832062C.17399597 .6482239 .17799378 .6882324 .17799378 .6882324 .17799378 .6952362 .17399597 .6982422 .16499329 .6982422 .13999939 .6882324 .06498718 .67422488 .024993897 .67123416 .022994996 .66322329 .024993897 .6472168 .0309906 .6412201 .08898926 .6372223 .09498596 .6342163 .09498596 .5592041V.12207031Z"/>
<path id="font_26_71" d="M.1749878 .12193298V.38970948H.2679901C.2769928 .38970948 .29100038 .39370729 .29100038 .40270997V.42269898C.29100038 .42669679 .28799439 .42871095 .2829895 .42871095H.1749878V.48583985C.1749878 .6401825 .22099304 .66423037 .2539978 .66423037 .28399659 .66423037 .2999878 .6522064 .31399537 .61712649 .32199098 .5990906 .33299256 .5850525 .35398866 .5850525 .37098695 .5850525 .394989 .6061096 .394989 .6261444 .394989 .6431885 .38398744 .66122439 .36299134 .67723086 .33699037 .6952362 .31098939 .6982422 .272995 .6982422 .18899536 .6982422 .09599304 .6251526 .09599304 .46879579V.42871095H.04499817C.026992798 .42871095 .021987915 .41670228 .021987915 .40870667V.39570619C.021987915 .3907013 .022994996 .38970948 .026992798 .38970948H.09599304V.12193298C.09599304 .039001466 .07998657 .035003663 .025985718 .03100586 .019989014 .025009156 .019989014 .0040283205 .025985718-.001953125 .06098938-.0009613037 .09599304 .000030517579 .13598633 .000030517579 .17599488 .000030517579 .22399903-.0009613037 .25898744-.001953125 .2649994 .0040283205 .2649994 .025009156 .25898744 .03100586 .18099976 .035003663 .1749878 .039001466 .1749878 .12193298Z"/>
<path id="font_26_14" d="M.2709961 .22319031C.28399659 .22319031 .2979889 .2511902 .2979889 .26319886 .2979889 .27319337 .2939911 .28320313 .28399659 .28320313H.06498718C.052993776 .28320313 .039993287 .26019288 .039993287 .24220276 .039993287 .232193 .04598999 .22319031 .054992677 .22319031H.2709961Z"/>
<path id="font_26_45" d="M.14898682 0H.3619995C.3889923 0 .48098756-.0020141602 .48098756-.0020141602 .4909973 .04800415 .5009918 .11305237 .5069885 .16508484 .49699403 .17008972 .48599244 .17208863 .47399903 .17008972 .45399476 .09803772 .4169922 .038986207 .31098939 .038986207H.24798584C.20899964 .038986207 .19099427 .058013917 .19099427 .10903931V.5233612C.19099427 .60643008 .20799256 .61143496 .27799989 .61442568 .28399659 .6204376 .28399659 .641449 .27799989 .64746096 .23298645 .64645388 .18598938 .6454468 .147995 .6454468 .11199951 .6454468 .06498718 .64645388 .018997193 .64746096 .0129852299 .641449 .0129852299 .6204376 .018997193 .61442568 .08898926 .61143496 .10598755 .60643008 .10598755 .5233612V.12205505C.10598755 .038986207 .08898926 .033996583 .018997193 .0309906 .0129852299 .024993897 .0129852299 .0039978029 .018997193-.0020141602 .057998659-.0010070801 .114990238 0 .14898682 0Z"/>
<path id="font_26_74" d="M.18099976 .12213135V.32128907C.18099976 .37132264 .18499756 .43537904 .18499756 .43537904 .18499756 .43937684 .17999268 .4423828 .17199707 .4423828 .14399719 .43136598 .10398865 .42236329 .034988405 .4133606 .032989503 .40734864 .034988405 .39134217 .036987306 .3853302 .09199524 .38032533 .101989749 .3743286 .101989749 .317276V.12213135C.101989749 .03907776 .09098816 .036071779 .02999878 .031066895 .023986817 .025054932 .023986817 .004043579 .02999878-.001953125 .06298828-.0009613037 .101989749 .000045776369 .14199829 .000045776369 .18199158 .000045776369 .21998596-.0009613037 .25299073-.001953125 .25898744 .004043579 .25898744 .025054932 .25299073 .031066895 .19198609 .035064699 .18099976 .03907776 .18099976 .12213135M.08999634 .5994568C.08999634 .5734558 .11399841 .54745486 .13798523 .54745486 .1659851 .54745486 .18998719 .57444766 .18998719 .595459 .18998719 .6194458 .16899109 .64746096 .14199829 .64746096 .117996219 .64746096 .08999634 .6234436 .08999634 .5994415V.5994568Z"/>
<path id="font_26_70" d="M.38598634 .093185428C.34899903 .055221559 .31999208 .039230348 .2619934 .039230348 .22599793 .039230348 .18399048 .06021118 .15299988 .11117554 .1329956 .14414978 .12098694 .19012451 .12098694 .24809265L.3869934 .24609375C.39898683 .24609375 .4059906 .25209046 .4059906 .26309205 .4059906 .3467865 .37599183 .43652345 .23699951 .43652345 .1499939 .43652345 .036987306 .35375978 .036987306 .20211792 .036987306 .14614868 .050994874 .0921936 .083999637 .054214479 .117996219 .014221191 .16499329-.009765625 .23699951-.009765625 .31298829-.009765625 .36698915 .025222779 .40699769 .077194217 .4039917 .08718872 .397995 .0921936 .38598634 .093185428M.12399292 .28208924C.14299011 .39456178 .21299744 .40351869 .23699951 .40351869 .2749939 .40351869 .31999208 .38261415 .31999208 .2990265 .31999208 .29006959 .31599427 .28507997 .30499269 .28507997L.12399292 .28208924Z"/>
<path id="font_26_9" d="M.04399109 .25202943C.04399109 .20701599 .04798889-.023971558 .2559967-.20397949 .2659912-.20198059 .27398683-.1949768 .2769928-.1869812 .24398804-.14897156 .1269989-.010971069 .1269989 .25202943 .1269989 .5150299 .24499512 .6530304 .2769928 .6890259 .27398683 .6990204 .2669983 .70602419 .2559967 .70703127 .13699341 .60502627 .04399109 .4380188 .04399109 .25202943Z"/>
<path id="font_26_83" d="M.17599488 .35830689C.17399597 .39834596 .17298889 .42436219 .16799927 .43437196 .1659851 .43937684 .1639862 .4423828 .1559906 .4423828 .12799073 .43136598 .101989749 .42236329 .032989503 .4133606 .0309906 .40734864 .032989503 .39134217 .034988405 .3853302 .08898926 .38032533 .099990848 .37532044 .099990848 .317276V.12213135C.099990848 .03907776 .08799744 .035064699 .025985718 .031066895 .019989014 .025054932 .019989014 .004043579 .025985718-.001953125 .06098938-.0009613037 .099990848 .000045776369 .13999939 .000045776369 .17999268 .000045776369 .22599793-.0009613037 .26098634-.001953125 .2669983 .004043579 .2669983 .025054932 .26098634 .031066895 .19099427 .036071779 .1789856 .03907776 .1789856 .12213135V.26124574C.1789856 .28735353 .19099427 .31037904 .20298767 .32839967 .21398926 .34440614 .23699951 .3774414 .24899292 .3774414 .2579956 .3774414 .2669983 .3754425 .2749939 .36442567 .28199769 .3544464 .2939911 .34144593 .31098939 .34144593 .33499146 .34144593 .35798646 .36643983 .35798646 .39144898 .35798646 .41044618 .33999635 .43945313 .2979889 .43945313 .25099183 .43945313 .20999146 .39544679 .18699646 .35643006 .18099976 .3453064 .17599488 .35331727 .17599488 .35830689Z"/>
<path id="font_26_84" d="M.04798889 .13815308C.051986696 .08909607 .054992677 .042037965 .054992677 0 .06498718 .0019989014 .07499695 .0029907227 .07998657 .0029907227 .08699036 .0032196046 .09298706 .0032196046 .099990848 .0012207031 .1269989-.0057678224 .1539917-.009765625 .19099427-.009765625 .24699402-.009765625 .34999085 .017227173 .34999085 .11628723 .34999085 .18431092 .30099488 .22433472 .23298645 .24935913 .17298889 .27236939 .1329956 .28738404 .1329956 .34240724 .1329956 .3834381 .16899109 .40644837 .20298767 .40644837 .22499085 .40644837 .2829895 .3984375 .29599 .313385 .3019867 .3073883 .32199098 .3083954 .32798768 .3143921 .33099366 .35040284 .33299256 .38742066 .33399964 .42044068 .30299378 .42544557 .25498963 .43945313 .20298767 .43945313 .1289978 .43945313 .06199646 .39143373 .06199646 .32739259 .06199646 .254364 .09498596 .2233429 .17199707 .1913147 .25498963 .15730286 .27398683 .1362915 .27398683 .09326172 .27398683 .04423523 .22599793 .023223877 .18899536 .023223877 .1499939 .023223877 .12799073 .036239625 .117996219 .04724121 .09599304 .070251468 .084991458 .11427307 .07899475 .13929749 .07299805 .14515686 .053985597 .14414978 .04798889 .13815308Z"/>
<path id="font_26_73" d="M.16699219 .28634645C.16699219 .3073578 .17599488 .3193817 .18399048 .3283844 .22200012 .36541749 .272995 .38745118 .31199647 .38745118 .33198548 .38745118 .35299684 .37443543 .36499024 .3514099 .375 .33139039 .3769989 .3043518 .3769989 .2743225V.122161868C.3769989 .04008484 .36698915 .036071779 .31498719 .031066895 .30999757 .02507019 .30999757 .004043579 .31498719-.001953125 .34298707-.0009613037 .3769989 .000045776369 .4169922 .000045776369 .45700074 .000045776369 .48999024-.0009613037 .522995-.001953125 .5279999 .004043579 .5279999 .02507019 .522995 .031066895 .46699525 .036071779 .45599366 .04008484 .45599366 .122161868V.2713318C.45599366 .3263855 .45199586 .37542726 .42900086 .40544129 .4119873 .42744447 .3809967 .43945313 .34599305 .43945313 .29699708 .43945313 .23699951 .42645265 .17599488 .3584137 .17599488 .35742188 .1749878 .35742188 .17399597 .3564148 .17098999 .35240174 .1659851 .34640504 .1659851 .3584137L.16699219 .58332827C.16699219 .64826968 .17098999 .6882324 .17098999 .6882324 .17098999 .6952362 .16699219 .6982422 .1579895 .6982422 .1329956 .68859866 .057998659 .67459109 .017990113 .67160037 .015991211 .6635895 .017990113 .64759829 .023986817 .64160159 .026992798 .64160159 .02999878 .64160159 .032989503 .64160159 .07699585 .6385956 .08799744 .6385956 .08799744 .5595398V.122161868C.08799744 .03907776 .07598877 .035079957 .017990113 .031066895 .011993408 .02507019 .011993408 .004043579 .017990113-.001953125 .050994874-.0009613037 .08799744 .000045776369 .12799073 .000045776369 .1659851 .000045776369 .19898987-.0009613037 .22698975-.001953125 .23298645 .004043579 .23298645 .02507019 .22698975 .031066895 .17599488 .035079957 .16699219 .03907776 .16699219 .122161868V.28634645Z"/>
<path id="font_26_81" d="M.1559906 .36834718C.15499878 .3983612 .15299988 .42437745 .147995 .43437196 .1459961 .43937684 .14399719 .4423828 .13598633 .4423828 .10798645 .43136598 .08198547 .42236329 .0129852299 .4133606 .010986328 .4073639 .0129852299 .39135743 .01499939 .38536073 .068984989 .38035584 .07998657 .37535096 .07998657 .31733705V-.11004639C.07998657-.19326782 .068984989-.19828797 .0079956059-.20129395 .0019989014-.20730591 .0019989014-.22836304 .0079956059-.234375 .042999269-.23338318 .07998657-.2323761 .11999512-.2323761 .1599884-.2323761 .20799256-.23338318 .24099732-.234375 .24699402-.22836304 .24699402-.20730591 .24099732-.20129395 .16999817-.19728089 .15899658-.19326782 .15899658-.11004639V-.0017700195C.15899658 .011230469 .16299439 .010223389 .17298889 .006225586 .19799805-.003768921 .22799683-.009765625 .2599945-.009765625 .31599427-.009765625 .3659973 .007232666 .40699769 .04623413 .45399476 .09225464 .48098756 .15426636 .48098756 .23530579 .48098756 .3414154 .4059906 .43945313 .3039856 .43945313 .2579956 .43945313 .20698548 .4094391 .16699219 .36442567 .16099549 .35835267 .15699768 .35835267 .1559906 .36834718M.1749878 .33140565C.20098877 .36343385 .24699402 .39344789 .27598573 .39344789 .33999635 .39344789 .394989 .32141114 .394989 .2083435 .394989 .12628174 .3659973 .024230957 .2539978 .024230957 .23599243 .024230957 .20098877 .02923584 .18299866 .04524231 .16299439 .06324768 .15899658 .06925964 .15899658 .105270389V.28738404C.15899658 .3083954 .16299439 .31739808 .1749878 .33140565Z"/>
<path id="font_26_80" d="M.040985109 .20533753C.040985109 .103271488 .10899353-.009765625 .25099183-.009765625 .31498719-.009765625 .3639984 .01322937 .397995 .04623413 .44299317 .090270999 .46299745 .15330506 .46299745 .21434021 .46299745 .31840516 .4059906 .43945313 .25299073 .43945313 .18699646 .43945313 .1329956 .41244508 .09599304 .36943055 .05999756 .32640077 .040985109 .26837159 .040985109 .20533753M.23799134 .40444947C.32398988 .40444947 .3769989 .32640077 .3769989 .18231201 .3769989 .056243898 .31199647 .025222779 .2649994 .025222779 .16099549 .025222779 .1269989 .15130615 .1269989 .22834778 .1269989 .31539918 .147995 .40444947 .23799134 .40444947Z"/>
<path id="font_26_69" d="M.33399964 .050231935C.33898927 .054229738 .34799195 .056243898 .34899903 .049240114 .35198976 .025222779 .3600006-.009765625 .3600006-.009765625 .36799623-.012771606 .37298585-.011779785 .3789978-.009765625 .40098573 .008270264 .43598939 .023269654 .49699403 .030273438 .5029907 .03627014 .5029907 .05126953 .49699403 .057266237 .43299867 .06227112 .42399598 .08128357 .42399598 .13031006V.58332827C.42399598 .64826968 .42799378 .6882324 .42799378 .6882324 .42799378 .6952362 .42399598 .6982422 .4149933 .6982422 .3899994 .68859866 .31498719 .67459109 .2749939 .67160037 .272995 .6635895 .2749939 .64759829 .2809906 .64160159 .28399659 .64160159 .2869873 .64160159 .2899933 .64160159 .33399964 .6385956 .34498597 .6385956 .34498597 .5595398V.43144227C.34498597 .42443849 .34298707 .42243959 .33599855 .42243959 .33198548 .42243959 .29100038 .43945313 .2579956 .43945313 .19198609 .43945313 .147995 .41744996 .10798645 .37942506 .06498718 .33641053 .038986207 .27737428 .038986207 .20332337 .038986207 .08024597 .100997928-.009765625 .20899964-.009765625 .24798584-.009765625 .2849884 .010223389 .33399964 .050231935M.34498597 .12428284C.34498597 .105270389 .34298707 .09725952 .32899476 .085250858 .2919922 .053237916 .2599945 .037231447 .23498535 .037231447 .18099976 .037231447 .125 .0962677 .125 .221344 .125 .29338075 .13899231 .33340455 .1539917 .3544159 .18499756 .40144349 .22698975 .40444947 .24699402 .40444947 .2829895 .40444947 .30799867 .39143373 .32798768 .36842347 .34199525 .352417 .34498597 .3454132 .34498597 .3143921V.12428284Z"/>
<path id="font_26_10" d="M.2539978 .25239564C.2539978 .2973938 .25 .5283966 .041992189 .70840457 .03199768 .70640566 .023986817 .69940188 .020996094 .69140627 .053985597 .6533966 .17098999 .5153961 .17098999 .25239564 .17098999-.010604858 .052993776-.14860535 .020996094-.18460083 .023986817-.1946106 .0309906-.20159912 .041992189-.2026062 .16099549-.1006012 .2539978 .06639099 .2539978 .25239564Z"/>
<clipPath id="clip_27">
<path transform="matrix(1,0,0,-1,0,326.88)" d="M62.443574 57.427896H679.68008V292.58177H62.443574Z"/>
</clipPath>
<path id="font_28_59" d="M.18399048 .04798889C.18399048 .07699585 .1599884 .09700012 .13598633 .09700012 .10699463 .09700012 .08699036 .07299805 .08699036 .04899597 .08699036 .019989014 .11099243 0 .1349945 0 .1639862 0 .18399048 .023986817 .18399048 .04798889Z"/>
<path id="font_25_54" d="M.33599855 .64694216C.33599855 .66793826 .33499146 .6689453 .31698609 .6689453L.019989014 .1959076V.16992188H.27799989V.07196045C.27799989 .035980226 .27598573 .025985718 .20599365 .025985718H.18699646V0C.21899414 .0019989014 .272995 .0019989014 .30699159 .0019989014 .34098817 .0019989014 .394989 .0019989014 .4269867 0V.025985718H.4079895C.33799745 .025985718 .33599855 .035980226 .33599855 .07196045V.16992188H.43798829V.1959076H.33599855V.64694216M.2809906 .5809326V.1959076H.039993287L.2809906 .5809326Z"/>
<clipPath id="clip_29">
<path transform="matrix(1,0,0,-1,0,326.88)" d="M62.443574 57.427896H679.68008V292.58177H62.443574Z"/>
</clipPath>
<path id="font_25_56" d="M.10598755 .34527589C.10598755 .5844116 .21798706 .63812258 .2829895 .63812258 .3039856 .63812258 .35499574 .6341553 .375 .5954132 .35899354 .5954132 .32899476 .5954132 .32899476 .56040957 .32899476 .5334015 .35099793 .52441409 .36499024 .52441409 .37399293 .52441409 .40098573 .52841189 .40098573 .56240847 .40098573 .6252136 .35099793 .6611328 .28199769 .6611328 .16299439 .6611328 .037994386 .5373993 .037994386 .31628419 .037994386 .0443573 .15098572-.015625 .23098755-.015625 .32798768-.015625 .41999818 .0713501 .41999818 .20532227 .41999818 .33029176 .33898927 .42126466 .23699951 .42126466 .17599488 .42126466 .1309967 .38127137 .10598755 .31129457V.34527589M.23098755 .008361816C.10798645 .008361816 .10798645 .19232178 .10798645 .22930908 .10798645 .30130006 .14199829 .40527345 .23498535 .40527345 .2519989 .40527345 .30099488 .40527345 .33399964 .33628846 .35198976 .29730226 .35198976 .25630189 .35198976 .20631409 .35198976 .15232849 .35198976 .112335208 .33099366 .07235718 .30899049 .03135681 .2769928 .008361816 .23098755 .008361816Z"/>
<clipPath id="clip_30">
<path transform="matrix(1,0,0,-1,0,326.88)" d="M62.443574 57.427896H679.68008V292.58177H62.443574Z"/>
</clipPath>
<path id="font_25_58" d="M.27198792 .3602295C.33499146 .3922119 .39898683 .4402008 .39898683 .51716616 .39898683 .60813906 .31098939 .6611328 .22999573 .6611328 .13899231 .6611328 .05899048 .59513857 .05899048 .5041809 .05899048 .479187 .06498718 .436203 .10398865 .39822389 .11399841 .3882141 .1559906 .3582306 .18299866 .3392334 .13798523 .31625367 .032989503 .26127626 .032989503 .15130615 .032989503 .048355104 .1309967-.015625 .22799683-.015625 .33499146-.015625 .4249878 .061340333 .4249878 .16331482 .4249878 .25427247 .3639984 .2962494 .32398988 .3232422L.27198792 .3602295M.14099121 .4481964C.1329956 .4532013 .09298706 .48417665 .09298706 .53115847 .09298706 .5921478 .1559906 .63812258 .22799683 .63812258 .30699159 .63812258 .36499024 .5821533 .36499024 .51716616 .36499024 .4242096 .26098634 .37123109 .2559967 .37123109 .25498963 .37123109 .2539978 .37123109 .24598694 .37722779L.14099121 .4481964M.32499696 .24327088C.33999635 .23228455 .3880005 .19929505 .3880005 .13832093 .3880005 .06434631 .31399537 .008361816 .22999573 .008361816 .13899231 .008361816 .069992069 .073349 .069992069 .15231323 .069992069 .23127747 .1309967 .29725648 .19999695 .32824708L.32499696 .24327088Z"/>
<clipPath id="clip_31">
<path transform="matrix(1,0,0,-1,0,326.88)" d="M62.443574 57.427896H679.68008V292.58177H62.443574Z"/>
</clipPath>
<path id="font_26_37" d="M.147995 .6454468C.11199951 .6454468 .05899048 .64645388 .018997193 .64746096 .0129852299 .641449 .0129852299 .6204529 .018997193 .6144562 .08898926 .6114502 .10598755 .6064453 .10598755 .5233917V.12210083C.10598755 .03904724 .08898926 .03404236 .018997193 .031036377 .0129852299 .025039673 .0129852299 .004043579 .018997193-.001953125 .057998659-.0009613037 .11099243 .000045776369 .14898682 .000045776369 .18598938 .000045776369 .22799683-.001953125 .33099366-.001953125 .47200013-.001953125 .6579895 .062057496 .6579895 .3082428 .6579895 .4943695 .5049896 .64746096 .31298829 .64746096 .24198914 .64746096 .18699646 .6454468 .147995 .6454468M.19099427 .08407593V.5644226C.19099427 .5994415 .22599793 .6134491 .2749939 .6134491 .4909973 .6134491 .56199648 .43832398 .56199648 .28422547 .56199648 .08207703 .44099427 .032043458 .2999878 .032043458 .20199585 .032043458 .19099427 .05204773 .19099427 .08407593Z"/>
<path id="font_26_68" d="M.397995 .09126282C.3939972 .1002655 .38598634 .104263309 .3769989 .105270389 .34298707 .06123352 .2999878 .039230348 .25698854 .039230348 .18399048 .039230348 .12298584 .11326599 .12298584 .23034668 .12298584 .34040834 .17098999 .40644837 .23699951 .40644837 .29599 .40644837 .3039856 .37142945 .30799867 .33641053 .31098939 .3093872 .32499696 .30038453 .34599305 .30038453 .36698915 .30038453 .394989 .313385 .394989 .34440614 .394989 .39944459 .33799745 .43945313 .24198914 .43945313 .14299011 .43945313 .036987306 .3504181 .036987306 .20832825 .036987306 .07925415 .10899353-.009765625 .23498535-.009765625 .29499818-.009765625 .34799195 .009231567 .397995 .09126282Z"/>
<path id="font_26_90" d="M.20399475-.16043091C.21998596-.13243103 .23298645-.10441589 .24499512-.074417117 .32499696 .11860657 .36999513 .22163391 .42199708 .33364869 .44198609 .37565614 .45599366 .39164735 .5029907 .3976593 .5089874 .403656 .5089874 .4246521 .5029907 .43066407 .48298646 .42965699 .45999146 .4286499 .43199159 .4286499 .4019928 .4286499 .37098695 .42965699 .34098817 .43066407 .33499146 .4246521 .33499146 .403656 .34098817 .3976593 .37298585 .39465333 .40499879 .38865663 .3889923 .35264588L.2899933 .12361145C.2829895 .10760498 .27398683 .10461426 .2659912 .12461853L.1769867 .3326416C.15899658 .37464906 .1539917 .39364625 .20999146 .3976593 .21598816 .403656 .21598816 .4246521 .20999146 .43066407 .17298889 .42965699 .1329956 .4286499 .09700012 .4286499 .06298828 .4286499 .035995485 .42965699 .015991211 .43066407 .009994507 .4246521 .009994507 .403656 .015991211 .3976593 .055999757 .39265443 .068984989 .38365174 .09498596 .3226471L.20799256 .05960083C.21699524 .039596559 .23199463-.0064086916 .22200012-.03440857 .20999146-.06741333 .19799805-.09541321 .18299866-.12641907 .17199707-.14642334 .1579895-.15542603 .1329956-.15542603 .11898804-.15542603 .114990238-.1524353 .10398865-.1524353 .07499695-.1524353 .05999756-.18243408 .05999756-.19543457 .05999756-.21643067 .07998657-.23242188 .10699463-.23242188 .12799073-.23242188 .16799927-.22442627 .20399475-.16043091Z"/>
<path id="font_26_39" d="M.2829895 .32234193C.36799623 .32234193 .37098695 .2993927 .37399293 .25448609 .37998963 .24850464 .40098573 .24850464 .40699769 .25448609 .4059906 .2794342 .40499879 .30838014 .40499879 .3423462 .40499879 .37643434 .4059906 .40257264 .40699769 .42871095 .40098573 .4346161 .37998963 .4346161 .37399293 .42858888 .37098695 .37339784 .36799623 .36035157 .2829895 .36035157H.18998719V.54055789C.18998719 .5945282 .20199585 .6045227 .24598694 .6045227H.29100038C.39698792 .6045227 .42199708 .5645447 .44400025 .49557496 .45599366 .49557496 .46699525 .49757386 .47499085 .50057986 .46998597 .54200747 .45498658 .6383667 .45298768 .6463928 .45298768 .648407 .45199586 .64941409 .44898988 .64941409 .43199159 .6455231 .4269867 .64453127 .4019928 .64453127H.14698792C.114990238 .64453127 .057998659 .6455231 .017990113 .64653018 .011993408 .6405182 .011993408 .6195221 .017990113 .6135254 .08799744 .6105194 .10499573 .6055298 .10499573 .52256777V.121780399C.10499573 .03895569 .08799744 .033966066 .017990113 .030975342 .011993408 .024978638 .011993408 .0040283205 .017990113-.001953125 .052993776-.0009613037 .102996829 .000030517579 .147995 .000030517579 .19299317 .000030517579 .24198914-.0009613037 .2769928-.001953125 .2829895 .0040283205 .2829895 .024978638 .2769928 .030975342 .20698548 .033966066 .18998719 .03895569 .18998719 .121780399V.32234193H.2829895Z"/>
<path id="font_26_85" d="M.042999269 .42871095C.0289917 .42871095 .024993897 .41670228 .024993897 .40870667V.39570619C.024993897 .3907013 .025985718 .38970948 .02999878 .38970948H.08898926V.089157108C.08898926 .018234253 .11999512-.009765625 .1659851-.009765625 .21199036-.009765625 .2619934 .01222229 .30099488 .05621338 .29899598 .06619263 .29299928 .07218933 .2829895 .07318115 .25698854 .053207399 .22698975 .04522705 .20098877 .04522705 .17399597 .04522705 .16799927 .07518005 .16799927 .13708496V.38970948H.27198792C.28199769 .38970948 .29599 .39370729 .29599 .40270997V.42269898C.29599 .42669679 .29299928 .42871095 .28799439 .42871095H.16799927V.4677887C.16799927 .53292849 .17199707 .57302859 .17199707 .57302859 .17199707 .57902529 .16899109 .58203127 .1639862 .58203127 .1599884 .58203127 .15098572 .5780182 .14199829 .57302859 .1309967 .5670166 .12098694 .56199648 .10798645 .5589905 .09599304 .5549774 .085998538 .55197146 .085998538 .54496768 .085998538 .53292849 .08898926 .5399475 .08898926 .42871095H.042999269Z"/>
<path id="font_28_22" d="M.30899049 .62332156C.28399659 .69433596 .20498657 .69433596 .19198609 .69433596 .18598938 .69433596 .1749878 .69433596 .1749878 .6843262 .1749878 .67633059 .18099976 .6753235 .18598938 .67433169 .20098877 .67233279 .21299744 .67033389 .22898865 .6413269 .23899842 .62231448 .34199525 .3232727 .34199525 .3212738 .34199525 .32026673 .34098817 .3192749 .33299256 .3112793L.07299805 .048233034C.06098938 .036224367 .052993776 .02822876 .052993776 .0152282719 .052993776 .0012207031 .06498718-.010772705 .08099365-.010772705 .084991458-.010772705 .09599304-.008773804 .101989749-.0027770997 .117996219 .01222229 .26098634 .18725586 .35198976 .29527284 .37799073 .21725464 .4099884 .12524414 .44099427 .041229249 .44599916 .026229859 .45098878 .01222229 .46499635-.00077819827 .47499085-.009765625 .47698976-.009765625 .5049896-.009765625H.5239868C.5279999-.009765625 .5349884-.009765625 .5349884-.0017700195 .5349884 .0022277833 .5339966 .0032196046 .5299988 .007232666 .5209961 .018234253 .5139923 .036224367 .5099945 .048233034L.30899049 .62332156Z"/>
<clipPath id="clip_32">
<path transform="matrix(1,0,0,-1,0,326.88)" d="M62.443574 57.427896H679.68008V292.58177H62.443574Z"/>
</clipPath>
<clipPath id="clip_33">
<path transform="matrix(1,0,0,-1,0,326.88)" d="M62.443574 57.427896H679.68008V292.58177H62.443574Z"/>
</clipPath>
<path id="font_26_53" d="M.34999085 .1219635V.50361636C.34999085 .5675659 .3600006 .6055298 .3959961 .6055298H.41799928C.49299623 .6055298 .5399933 .57954409 .5569916 .5026245 .56799319 .5026245 .58200076 .50361636 .59098818 .50761416 .58399966 .55426028 .57899478 .60528567 .5779877 .65031436 .5779877 .65130618 .57598879 .6533203 .57499697 .6533203 .54100039 .6495209 .42999269 .64453127 .35099793 .64453127H.2649994C.18798828 .64530947 .069992069 .65031436 .03199768 .6533203 .02999878 .6533203 .027999878 .65130618 .027999878 .65031436 .023986817 .60528567 .01399231 .55326846 .0029907227 .505249 .0129852299 .50123599 .024993897 .50024417 .036987306 .50024417 .056991579 .57954409 .102996829 .6055298 .16899109 .6055298H.21798706C.25498963 .6055298 .2649994 .5675659 .2649994 .5066223V.1219635C.2649994 .039031984 .24798584 .03404236 .16799927 .031036377 .1619873 .025039673 .1619873 .004043579 .16799927-.001953125 .21699524-.0009613037 .2679901 .000045776369 .30799867 .000045776369 .34599305 .000045776369 .39698792-.0009613037 .44699098-.001953125 .45298768 .004043579 .45298768 .025039673 .44699098 .031036377 .36698915 .03404236 .34999085 .039031984 .34999085 .1219635Z"/>
<path id="font_26_56" d="M.80999758 .56544497 .6539917 .13131714 .651001 .13230896 .5130005 .5544281C.49598695 .6084442 .5309906 .6114502 .5649872 .6144562 .57099917 .6204529 .57099917 .641449 .5649872 .64746096 .5239868 .64645388 .47999574 .6454468 .43998719 .6454468 .40699769 .6454468 .37199403 .64645388 .33999635 .64746096 .33399964 .641449 .33399964 .6204529 .33999635 .6144562 .3929901 .6114502 .4149933 .58044436 .42399598 .5544281L.44699098 .48841859C.45098878 .4764099 .45399476 .4664154 .45399476 .45741273 .45399476 .44740296 .45298768 .43940736 .44499208 .4223938L.31599427 .12931824 .31098939 .13031006 .16499329 .5724335C.15299988 .6074524 .17999268 .6124573 .21499634 .6144562 .22099304 .6204529 .22099304 .641449 .21499634 .64746096 .18199158 .64645388 .13798523 .6454468 .09899902 .6454468 .06399536 .6454468 .034988405 .64645388 .005996704 .64746096 0 .641449 0 .6204529 .005996704 .6144562 .050994874 .6114502 .057998659 .6104584 .07699585 .55644229L.2649994 .015274048C.269989-.0007171631 .27598573-.01171875 .2869873-.01171875 .2999878-.01171875 .30599977-.0017242432 .31298829 .015274048L.46199037 .3503723C.47099305 .3703766 .47399903 .37538148 .47898866 .37538148 .48298646 .37538148 .4869995 .36437989 .49299623 .3473816L.60798647 .015274048C.6139984-.0017242432 .61898806-.01171875 .6309967-.01171875 .6419983-.01171875 .6489868-.0007171631 .6539917 .014282227L.8549957 .5534363C.8679962 .58843997 .8860016 .6114502 .94099429 .6144562 .94699099 .6204529 .94699099 .641449 .94099429 .64746096 .9119873 .64645388 .8799896 .6454468 .85398867 .6454468 .8279877 .6454468 .7839966 .64645388 .74398806 .64746096 .73799136 .641449 .73799136 .6204529 .74398806 .6144562 .7849884 .6114502 .82499697 .6084442 .80999758 .56544497Z"/>
<path id="font_26_34" d="M.15499878 .079071048 .20999146 .22418213C.21499634 .23719788 .22099304 .24119568 .24499512 .24119568H.45599366L.5139923 .07206726C.526001 .03804016 .48799134 .03404236 .43998719 .031036377 .43399049 .025039673 .43399049 .004043579 .43998719-.001953125 .47698976-.0009613037 .5319977 .000045776369 .57099917 .000045776369 .6119995 .000045776369 .6499939-.0009613037 .68499758-.001953125 .69099429 .004043579 .69099429 .025039673 .68499758 .031036377 .6459961 .03504944 .6119995 .03804016 .59498599 .08607483L.3889923 .6582031C.37399293 .64920046 .34700013 .63819888 .33399964 .63819888L.10699463 .10209656C.08099365 .040039064 .050994874 .03404236 .0069885256 .031036377 .0009918213 .025039673 .0009918213 .004043579 .0069885256-.001953125 .032989503-.0009613037 .06599426 .000045776369 .09599304 .000045776369 .13699341 .000045776369 .18699646-.0009613037 .22399903-.001953125 .22999573 .004043579 .22999573 .025039673 .22399903 .031036377 .18598938 .03404236 .13899231 .03804016 .15499878 .079071048M.2630005 .28320313C.24099732 .28320313 .23399353 .28619386 .23799134 .29618836L.33999635 .55519106H.34599305L.43998719 .28320313H.2630005Z"/>
<path id="font_26_49" d="M.10398865 .5233002V.12210083C.10398865 .03904724 .08699036 .03404236 .016998291 .031036377 .010986328 .025039673 .010986328 .004043579 .016998291-.001953125 .06199646-.0009613037 .11099243 .000045776369 .14698792 .000045776369 .18199158 .000045776369 .24099732-.0009613037 .29100038-.001953125 .29699708 .004043579 .29699708 .025039673 .29100038 .031036377 .21299744 .03504944 .18899536 .03904724 .18899536 .12210083V.29222108C.21099854 .2852173 .23498535 .28222657 .269989 .28222657 .45199586 .28222657 .5069885 .40124513 .5069885 .48628236 .5069885 .54530337 .46798707 .65234377 .2829895 .65234377 .24499512 .65234377 .18598938 .64533999 .1459961 .64533999 .10899353 .6454468 .056991579 .64645388 .016998291 .64746096 .010986328 .641449 .010986328 .6204376 .016998291 .61442568 .08699036 .6113281 .10398865 .6063385 .10398865 .5233002M.18899536 .55430606C.18899536 .58332827 .20399475 .6183319 .27598573 .6183319 .34498597 .6183319 .4139862 .59532168 .4139862 .46827699 .4139862 .3602295 .3619995 .31622315 .2649994 .31622315 .23999024 .31622315 .19999695 .31822206 .18899536 .32122804V.55430606Z"/>
<path id="font_26_27" d="M.069992069 .059829713C.069992069 .030822754 .09399414 .0068359377 .12298584 .0068359377 .1519928 .0068359377 .17599488 .030822754 .17599488 .059829713 .17599488 .08882141 .1519928 .11282349 .12298584 .11282349 .09399414 .11282349 .069992069 .08882141 .069992069 .059829713M.069992069 .35812379C.069992069 .32913209 .09399414 .30513 .12298584 .30513 .1519928 .30513 .17599488 .32913209 .17599488 .35812379 .17599488 .38713075 .1519928 .4111328 .12298584 .4111328 .09399414 .4111328 .069992069 .38713075 .069992069 .35812379Z"/>
<path id="font_25_63" d="M.6429901 .32128907C.6579895 .32128907 .6729889 .32128907 .6729889 .33828736 .6729889 .35627748 .6559906 .35627748 .6389923 .35627748H.07998657C.06298828 .35627748 .04598999 .35627748 .04598999 .33828736 .04598999 .32128907 .06098938 .32128907 .07598877 .32128907H.6429901M.6389923 .14273072C.6559906 .14273072 .6729889 .14273072 .6729889 .16072083 .6729889 .17773438 .6579895 .17773438 .6429901 .17773438H.07598877C.06098938 .17773438 .04598999 .17773438 .04598999 .16072083 .04598999 .14273072 .06298828 .14273072 .07998657 .14273072H.6389923Z"/>
<path id="font_34_51" d="M.28799439 .64105227C.28799439 .664032 .28799439 .66503909 .2679901 .66503909 .24398804 .6380615 .19400025 .6012573 .09098816 .6012573V.5722656C.11399841 .5722656 .1639862 .5722656 .21899414 .59825137V.07701111C.21899414 .041000368 .21598816 .0289917 .12799073 .0289917H.09700012V0C.12399292 .0019989014 .22099304 .0019989014 .2539978 .0019989014 .2869873 .0019989014 .3829956 .0019989014 .4099884 0V.0289917H.3789978C.29100038 .0289917 .28799439 .041000368 .28799439 .07701111V.64105227Z"/>
<path id="font_28_62" d="M.42900086 .71299746C.42900086 .71398928 .43499757 .72898867 .43499757 .73098757 .43499757 .7429962 .4249878 .75 .4169922 .75 .4119873 .75 .40299989 .75 .394989 .7279968L.05999756-.2130127C.05999756-.21400452 .053985597-.2290039 .053985597-.23100281 .053985597-.24301148 .06399536-.25 .07199097-.25 .07798767-.25 .08699036-.24900818 .09399414-.22801209L.42900086 .71299746Z"/>
<path id="font_28_105" d="M.2809906 .6693268C.28199769 .6733246 .28399659 .6793213 .28399659 .6843262 .28399659 .69433596 .27398683 .69433596 .27198792 .69433596 .2709961 .69433596 .22200012 .6903229 .21699524 .68933108 .19999695 .688324 .18499756 .6863251 .16699219 .68533328 .14199829 .68333438 .1349945 .6823273 .1349945 .6643219 .1349945 .6543274 .14299011 .6543274 .15699768 .6543274 .20599365 .6543274 .20698548 .6453247 .20698548 .6353302 .20698548 .6293335 .20498657 .6213379 .20399475 .61834719L.05899048 .039245607C.054992677 .024230957 .054992677 .022232056 .054992677 .016235352 .054992677-.0057678224 .07199097-.009765625 .08198547-.009765625 .09899902-.009765625 .11199951 .0032196046 .116989139 .014221191L.1619873 .19529724C.16699219 .21731568 .17298889 .23832703 .17799378 .2603302 .18899536 .3023529 .18899536 .30334474 .20799256 .33236695 .22698975 .3613739 .27198792 .42140199 .34899903 .42140199 .3889923 .42140199 .40299989 .39138795 .40299989 .35136415 .40299989 .29534913 .3639984 .18629456 .34199525 .12628174 .33299256 .102264408 .32798768 .089263919 .32798768 .071258548 .32798768 .026229859 .35899354-.009765625 .40699769-.009765625 .5-.009765625 .5349884 .13728333 .5349884 .14328003 .5349884 .14828491 .5309906 .15228272 .5249939 .15228272 .5159912 .15228272 .5149994 .14929199 .5099945 .13227844 .4869995 .052246095 .44999696 .010223389 .4099884 .010223389 .3999939 .010223389 .38398744 .011230469 .38398744 .04324341 .38398744 .069244388 .3959961 .101257327 .3999939 .11227417 .41799928 .16029358 .46299745 .27833558 .46299745 .33636476 .46299745 .39639283 .42799378 .44140626 .35198976 .44140626 .29499818 .44140626 .24499512 .4143982 .20399475 .36238099L.2809906 .6693268Z"/>
<path id="font_26_30" d="M.46398927 .30937196C.47698976 .30937196 .4909973 .33236695 .4909973 .34236146 .4909973 .3503723 .4869995 .359375 .47698976 .359375H.084991458C.07299805 .359375 .05999756 .34036256 .05999756 .32536317 .05999756 .31736756 .06599426 .30937196 .07499695 .30937196H.46398927M.46398927 .14335633C.47698976 .14335633 .4909973 .16635132 .4909973 .17634583 .4909973 .18435669 .4869995 .19335938 .47698976 .19335938H.084991458C.07299805 .19335938 .05999756 .17434693 .05999756 .15934754 .05999756 .15135193 .06599426 .14335633 .07499695 .14335633H.46398927Z"/>
<path id="font_35_50" d="M.5079956 .2711792C.45399476 .33917237 .44198609 .3541565 .41099549 .3791504 .35499574 .42414857 .29899598 .44215394 .24798584 .44215394 .1309967 .44215394 .054992677 .33216859 .054992677 .2151947 .054992677 .100234989 .1289978-.0107421879 .24398804-.0107421879 .35899354-.0107421879 .44198609 .08023071 .4909973 .16021729 .54499819 .09222412 .5569916 .07723999 .58799746 .052246095 .6439972 .007247925 .69999697-.0107421879 .7509918-.0107421879 .8679962-.0107421879 .94400027 .099227908 .94400027 .21620178 .94400027 .3311615 .8699951 .44215394 .7549896 .44215394 .6399994 .44215394 .5569916 .35116578 .5079956 .2711792M.5339966 .23719788C.57499697 .30917359 .6489868 .41015626 .7619934 .41015626 .8679962 .41015626 .9219971 .3061676 .9219971 .21620178 .9219971 .1182251 .8549957 .037246705 .7669983 .037246705 .70899966 .037246705 .6639862 .07923889 .6429901 .100234989 .6179962 .12722779 .59498599 .15821839 .5339966 .23719788M.46499635 .19419861C.42399598 .1222229 .34999085 .021255494 .23699951 .021255494 .1309967 .021255494 .07699585 .12522888 .07699585 .2151947 .07699585 .3131714 .14399719 .39414979 .23199463 .39414979 .2899933 .39414979 .33499146 .3521576 .35598756 .3311615 .3809967 .3041687 .4039917 .2731781 .46499635 .19419861Z"/>
<path id="font_26_18" d="M.28799439 .12210083V.46931459C.28799439 .52934268 .2889862 .5903778 .29100038 .60339358 .29100038 .60839846 .2889862 .60839846 .2849884 .60839846 .22999573 .57437136 .1769867 .5493622 .08898926 .5083313 .09098816 .4973297 .09498596 .48731996 .10398865 .48130799 .1499939 .50032046 .17199707 .5063324 .19099427 .5063324 .20799256 .5063324 .21099854 .48231507 .21099854 .44828797V.12210083C.21099854 .03904724 .18399048 .03404236 .11399841 .031036377 .10798645 .025039673 .10798645 .004043579 .11399841-.001953125 .16299439-.0009613037 .19898987 .000045776369 .25299073 .000045776369 .30099488 .000045776369 .32499696-.0009613037 .375-.001953125 .3809967 .004043579 .3809967 .025039673 .375 .031036377 .30499269 .03404236 .28799439 .03904724 .28799439 .12210083Z"/>
</defs>
<path transform="matrix(1,0,0,-1,0,326.88)" d="M0 0H686.88V326.88H0Z" fill="none"/>
<path transform="matrix(1,0,0,-1,0,326.88)" d="M62.44357 57.427896H679.68V292.58177H62.44357Z" fill="none"/>
<g clip-path="url(#clip_1)">
<path transform="matrix(1,0,0,-1,0,326.88)" d="M90.49977-94.28428H109.361087V95.35594H90.49977Z" fill="#2962ff" fill-opacity=".8"/>
</g>
<g clip-path="url(#clip_2)">
<path transform="matrix(1,0,0,-1,0,326.88)" d="M114.076419-94.28428H132.93773V173.90749H114.076419Z" fill="#2962ff" fill-opacity=".8"/>
</g>
<g clip-path="url(#clip_3)">
<path transform="matrix(1,0,0,-1,0,326.88)" d="M137.65305-94.28428H156.51436V206.75081H137.65305Z" fill="#2962ff" fill-opacity=".8"/>
</g>
<g clip-path="url(#clip_4)">
<path transform="matrix(1,0,0,-1,0,326.88)" d="M161.22969-94.28428H180.091V224.65128H161.22969Z" fill="#2962ff" fill-opacity=".8"/>
</g>
<g clip-path="url(#clip_5)">
<path transform="matrix(1,0,0,-1,0,326.88)" d="M184.80634-94.28428H203.66765V235.89852H184.80634Z" fill="#2962ff" fill-opacity=".8"/>
</g>
<g clip-path="url(#clip_6)">
<path transform="matrix(1,0,0,-1,0,326.88)" d="M208.38297-94.28428H227.24428V243.61618H208.38297Z" fill="#2962ff" fill-opacity=".8"/>
</g>
<g clip-path="url(#clip_7)">
<path transform="matrix(1,0,0,-1,0,326.88)" d="M231.95961-94.28428H250.82093V249.23899H231.95961Z" fill="#2962ff" fill-opacity=".8"/>
</g>
<g clip-path="url(#clip_8)">
<path transform="matrix(1,0,0,-1,0,326.88)" d="M255.53626-94.28428H274.39756V253.51741H255.53626Z" fill="#2962ff" fill-opacity=".8"/>
</g>
<g clip-path="url(#clip_9)">
<path transform="matrix(1,0,0,-1,0,326.88)" d="M279.11289-94.28428H297.9742V256.8819H279.11289Z" fill="#2962ff" fill-opacity=".8"/>
</g>
<g clip-path="url(#clip_10)">
<path transform="matrix(1,0,0,-1,0,326.88)" d="M302.68955-94.28428H321.55085V259.5969H302.68955Z" fill="#2962ff" fill-opacity=".8"/>
</g>
<g clip-path="url(#clip_11)">
<path transform="matrix(1,0,0,-1,0,326.88)" d="M326.26618-94.28428H345.12748V261.83384H326.26618Z" fill="#2962ff" fill-opacity=".8"/>
</g>
<g clip-path="url(#clip_12)">
<path transform="matrix(1,0,0,-1,0,326.88)" d="M349.8428-94.28428H368.70414V263.70878H349.8428Z" fill="#2962ff" fill-opacity=".8"/>
</g>
<g clip-path="url(#clip_13)">
<path transform="matrix(1,0,0,-1,0,326.88)" d="M373.41947-94.28428H392.28077V265.30299H373.41947Z" fill="#2962ff" fill-opacity=".8"/>
</g>
<g clip-path="url(#clip_14)">
<path transform="matrix(1,0,0,-1,0,326.88)" d="M396.9961-94.28428H415.8574V266.67509H396.9961Z" fill="#2962ff" fill-opacity=".8"/>
</g>
<g clip-path="url(#clip_15)">
<path transform="matrix(1,0,0,-1,0,326.88)" d="M420.57273-94.28428H439.43406V267.86848H420.57273Z" fill="#2962ff" fill-opacity=".8"/>
</g>
<g clip-path="url(#clip_16)">
<path transform="matrix(1,0,0,-1,0,326.88)" d="M444.14939-94.28428H463.01069V268.91593H444.14939Z" fill="#2962ff" fill-opacity=".8"/>
</g>
<g clip-path="url(#clip_17)">
<path transform="matrix(1,0,0,-1,0,326.88)" d="M467.726-94.28428H486.5873V269.84266H467.726Z" fill="#2962ff" fill-opacity=".8"/>
</g>
<g clip-path="url(#clip_18)">
<path transform="matrix(1,0,0,-1,0,326.88)" d="M491.30265-94.28428H510.16398V270.6684H491.30265Z" fill="#2962ff" fill-opacity=".8"/>
</g>
<g clip-path="url(#clip_19)">
<path transform="matrix(1,0,0,-1,0,326.88)" d="M514.8793-94.28428H533.7406V271.4088H514.8793Z" fill="#2962ff" fill-opacity=".8"/>
</g>
<g clip-path="url(#clip_20)">
<path transform="matrix(1,0,0,-1,0,326.88)" d="M538.45596-94.28428H557.31729V272.07649H538.45596Z" fill="#2962ff" fill-opacity=".8"/>
</g>
<g clip-path="url(#clip_21)">
<path transform="matrix(1,0,0,-1,0,326.88)" d="M562.0326-94.28428H580.89389V272.6816H562.0326Z" fill="#2962ff" fill-opacity=".8"/>
</g>
<g clip-path="url(#clip_22)">
<path transform="matrix(1,0,0,-1,0,326.88)" d="M585.6092-94.28428H604.4705V273.23258H585.6092Z" fill="#2962ff" fill-opacity=".8"/>
</g>
<g clip-path="url(#clip_23)">
<path transform="matrix(1,0,0,-1,0,326.88)" d="M609.18588-94.28428H628.0472V273.73637H609.18588Z" fill="#2962ff" fill-opacity=".8"/>
</g>
<g clip-path="url(#clip_24)">
<path transform="matrix(1,0,0,-1,0,326.88)" d="M632.7625-94.28428H651.6238V274.1988H632.7625Z" fill="#2962ff" fill-opacity=".8"/>
</g>
<path transform="matrix(1,0,0,-1,0,326.88)" d="M76.35379 57.427896V53.927896"/>
<path transform="matrix(1,0,0,-1,0,326.88)" stroke-width=".8" stroke-linecap="butt" stroke-linejoin="round" fill="none" stroke="#000000" d="M76.35379 57.427896V53.927896"/>
<use data-text="0" xlink:href="#font_25_50" transform="matrix(19.92528,0,0,-19.92528,71.784748,290.4297)"/>
<path transform="matrix(1,0,0,-1,0,326.88)" d="M194.23699 57.427896V53.927896"/>
<path transform="matrix(1,0,0,-1,0,326.88)" stroke-width=".8" stroke-linecap="butt" stroke-linejoin="round" fill="none" stroke="#000000" d="M194.23699 57.427896V53.927896"/>
<use data-text="5" xlink:href="#font_25_55" transform="matrix(19.92528,0,0,-19.92528,189.66794,290.4297)"/>
<path transform="matrix(1,0,0,-1,0,326.88)" d="M312.12019 57.427896V53.927896"/>
<path transform="matrix(1,0,0,-1,0,326.88)" stroke-width=".8" stroke-linecap="butt" stroke-linejoin="round" fill="none" stroke="#000000" d="M312.12019 57.427896V53.927896"/>
<use data-text="1" xlink:href="#font_25_51" transform="matrix(19.92528,0,0,-19.92528,302.9821,290.4297)"/>
<use data-text="0" xlink:href="#font_25_50" transform="matrix(19.92528,0,0,-19.92528,312.10789,290.4297)"/>
<path transform="matrix(1,0,0,-1,0,326.88)" d="M430.0034 57.427896V53.927896"/>
<path transform="matrix(1,0,0,-1,0,326.88)" stroke-width=".8" stroke-linecap="butt" stroke-linejoin="round" fill="none" stroke="#000000" d="M430.0034 57.427896V53.927896"/>
<use data-text="1" xlink:href="#font_25_51" transform="matrix(19.92528,0,0,-19.92528,420.8653,290.4297)"/>
<use data-text="5" xlink:href="#font_25_55" transform="matrix(19.92528,0,0,-19.92528,429.9911,290.4297)"/>
<path transform="matrix(1,0,0,-1,0,326.88)" d="M547.8866 57.427896V53.927896"/>
<path transform="matrix(1,0,0,-1,0,326.88)" stroke-width=".8" stroke-linecap="butt" stroke-linejoin="round" fill="none" stroke="#000000" d="M547.8866 57.427896V53.927896"/>
<use data-text="2" xlink:href="#font_25_52" transform="matrix(19.92528,0,0,-19.92528,538.7485,290.4297)"/>
<use data-text="0" xlink:href="#font_25_50" transform="matrix(19.92528,0,0,-19.92528,547.87429,290.4297)"/>
<path transform="matrix(1,0,0,-1,0,326.88)" d="M665.7698 57.427896V53.927896"/>
<path transform="matrix(1,0,0,-1,0,326.88)" stroke-width=".8" stroke-linecap="butt" stroke-linejoin="round" fill="none" stroke="#000000" d="M665.7698 57.427896V53.927896"/>
<use data-text="2" xlink:href="#font_25_52" transform="matrix(19.92528,0,0,-19.92528,656.6317,290.4297)"/>
<use data-text="5" xlink:href="#font_25_55" transform="matrix(19.92528,0,0,-19.92528,665.7575,290.4297)"/>
<use data-text="H" xlink:href="#font_26_41" transform="matrix(21.917809,0,0,-21.917809,254.52489,314.5074)"/>
<use data-text="a" xlink:href="#font_26_66" transform="matrix(21.917809,0,0,-21.917809,270.50297,314.5074)"/>
<use data-text="l" xlink:href="#font_26_77" transform="matrix(21.917809,0,0,-21.917809,280.49748,314.5074)"/>
<use data-text="f" xlink:href="#font_26_71" transform="matrix(21.917809,0,0,-21.917809,286.26185,314.5074)"/>
<use data-text="-" xlink:href="#font_26_14" transform="matrix(21.917809,0,0,-21.917809,293.05638,314.5074)"/>
<use data-text="L" xlink:href="#font_26_45" transform="matrix(21.917809,0,0,-21.917809,300.4646,314.5074)"/>
<use data-text="i" xlink:href="#font_26_74" transform="matrix(21.917809,0,0,-21.917809,312.0153,314.5074)"/>
<use data-text="f" xlink:href="#font_26_71" transform="matrix(21.917809,0,0,-21.917809,317.9331,314.5074)"/>
<use data-text="e" xlink:href="#font_26_70" transform="matrix(21.917809,0,0,-21.917809,324.72764,314.5074)"/>
<use data-text="(" xlink:href="#font_26_9" transform="matrix(21.917809,0,0,-21.917809,339.98243,314.5074)"/>
<use data-text="r" xlink:href="#font_26_83" transform="matrix(21.917809,0,0,-21.917809,346.51393,314.5074)"/>
<use data-text="e" xlink:href="#font_26_70" transform="matrix(21.917809,0,0,-21.917809,354.47007,314.5074)"/>
<use data-text="f" xlink:href="#font_26_71" transform="matrix(21.917809,0,0,-21.917809,364.2454,314.5074)"/>
<use data-text="r" xlink:href="#font_26_83" transform="matrix(21.917809,0,0,-21.917809,371.03993,314.5074)"/>
<use data-text="e" xlink:href="#font_26_70" transform="matrix(21.917809,0,0,-21.917809,378.99607,314.5074)"/>
<use data-text="s" xlink:href="#font_26_84" transform="matrix(21.917809,0,0,-21.917809,388.7714,314.5074)"/>
<use data-text="h" xlink:href="#font_26_73" transform="matrix(21.917809,0,0,-21.917809,397.31935,314.5074)"/>
<use data-text="p" xlink:href="#font_26_81" transform="matrix(21.917809,0,0,-21.917809,414.59059,314.5074)"/>
<use data-text="e" xlink:href="#font_26_70" transform="matrix(21.917809,0,0,-21.917809,426.11933,314.5074)"/>
<use data-text="r" xlink:href="#font_26_83" transform="matrix(21.917809,0,0,-21.917809,435.89466,314.5074)"/>
<use data-text="i" xlink:href="#font_26_74" transform="matrix(21.917809,0,0,-21.917809,444.02616,314.5074)"/>
<use data-text="o" xlink:href="#font_26_80" transform="matrix(21.917809,0,0,-21.917809,449.94398,314.5074)"/>
<use data-text="d" xlink:href="#font_26_69" transform="matrix(21.917809,0,0,-21.917809,461.12205,314.5074)"/>
<use data-text="s" xlink:href="#font_26_84" transform="matrix(21.917809,0,0,-21.917809,472.19053,314.5074)"/>
<use data-text=")" xlink:href="#font_26_10" transform="matrix(21.917809,0,0,-21.917809,480.73847,314.5074)"/>
<g clip-path="url(#clip_27)">
<path transform="matrix(1,0,0,-1,0,326.88)" stroke-width=".8" stroke-linecap="square" stroke-linejoin="round" fill="none" stroke="#b0b0b0" stroke-opacity=".3" d="M62.44357 57.427896H679.68"/>
</g>
<path transform="matrix(1,0,0,-1,0,326.88)" d="M62.44357 57.427896H58.94357"/>
<path transform="matrix(1,0,0,-1,0,326.88)" stroke-width=".8" stroke-linecap="butt" stroke-linejoin="round" fill="none" stroke="#000000" d="M62.44357 57.427896H58.94357"/>
<use data-text="0" xlink:href="#font_25_50" transform="matrix(19.92528,0,0,-19.92528,31.747946,276.44093)"/>
<use data-text="." xlink:href="#font_28_59" transform="matrix(19.92528,0,0,-19.92528,40.88604,276.44093)"/>
<use data-text="4" xlink:href="#font_25_54" transform="matrix(19.92528,0,0,-19.92528,46.305475,276.44093)"/>
<g clip-path="url(#clip_29)">
<path transform="matrix(1,0,0,-1,0,326.88)" stroke-width=".8" stroke-linecap="square" stroke-linejoin="round" fill="none" stroke="#b0b0b0" stroke-opacity=".3" d="M62.44357 133.28398H679.68"/>
</g>
<path transform="matrix(1,0,0,-1,0,326.88)" d="M62.44357 133.28398H58.94357"/>
<path transform="matrix(1,0,0,-1,0,326.88)" stroke-width=".8" stroke-linecap="butt" stroke-linejoin="round" fill="none" stroke="#000000" d="M62.44357 133.28398H58.94357"/>
<use data-text="0" xlink:href="#font_25_50" transform="matrix(19.92528,0,0,-19.92528,31.747946,200.58481)"/>
<use data-text="." xlink:href="#font_28_59" transform="matrix(19.92528,0,0,-19.92528,40.88604,200.58481)"/>
<use data-text="6" xlink:href="#font_25_56" transform="matrix(19.92528,0,0,-19.92528,46.305475,200.58481)"/>
<g clip-path="url(#clip_30)">
<path transform="matrix(1,0,0,-1,0,326.88)" stroke-width=".8" stroke-linecap="square" stroke-linejoin="round" fill="none" stroke="#b0b0b0" stroke-opacity=".3" d="M62.44357 209.14008H679.68"/>
</g>
<path transform="matrix(1,0,0,-1,0,326.88)" d="M62.44357 209.14008H58.94357"/>
<path transform="matrix(1,0,0,-1,0,326.88)" stroke-width=".8" stroke-linecap="butt" stroke-linejoin="round" fill="none" stroke="#000000" d="M62.44357 209.14008H58.94357"/>
<use data-text="0" xlink:href="#font_25_50" transform="matrix(19.92528,0,0,-19.92528,31.747946,124.72873)"/>
<use data-text="." xlink:href="#font_28_59" transform="matrix(19.92528,0,0,-19.92528,40.88604,124.72873)"/>
<use data-text="8" xlink:href="#font_25_58" transform="matrix(19.92528,0,0,-19.92528,46.305475,124.72873)"/>
<g clip-path="url(#clip_31)">
<path transform="matrix(1,0,0,-1,0,326.88)" stroke-width=".8" stroke-linecap="square" stroke-linejoin="round" fill="none" stroke="#b0b0b0" stroke-opacity=".3" d="M62.44357 284.99617H679.68"/>
</g>
<path transform="matrix(1,0,0,-1,0,326.88)" d="M62.44357 284.99617H58.94357"/>
<path transform="matrix(1,0,0,-1,0,326.88)" stroke-width=".8" stroke-linecap="butt" stroke-linejoin="round" fill="none" stroke="#000000" d="M62.44357 284.99617H58.94357"/>
<use data-text="1" xlink:href="#font_25_51" transform="matrix(19.92528,0,0,-19.92528,31.747946,48.87265)"/>
<use data-text="." xlink:href="#font_28_59" transform="matrix(19.92528,0,0,-19.92528,40.88604,48.87265)"/>
<use data-text="0" xlink:href="#font_25_50" transform="matrix(19.92528,0,0,-19.92528,46.305475,48.87265)"/>
<use data-text="D" xlink:href="#font_26_37" transform="matrix(0,-21.917809,-21.917809,-0,22.57534,226.22225)"/>
<use data-text="e" xlink:href="#font_26_70" transform="matrix(0,-21.917809,-21.917809,-0,22.57534,210.85785)"/>
<use data-text="c" xlink:href="#font_26_68" transform="matrix(0,-21.917809,-21.917809,-0,22.57534,200.9291)"/>
<use data-text="a" xlink:href="#font_26_66" transform="matrix(0,-21.917809,-21.917809,-0,22.57534,191.54827)"/>
<use data-text="y" xlink:href="#font_26_90" transform="matrix(0,-21.917809,-21.917809,-0,22.57534,181.55374)"/>
<use data-text="F" xlink:href="#font_26_39" transform="matrix(0,-21.917809,-21.917809,-0,22.57534,164.78662)"/>
<use data-text="a" xlink:href="#font_26_66" transform="matrix(0,-21.917809,-21.917809,-0,22.57534,154.1784)"/>
<use data-text="c" xlink:href="#font_26_68" transform="matrix(0,-21.917809,-21.917809,-0,22.57534,144.18389)"/>
<use data-text="t" xlink:href="#font_26_85" transform="matrix(0,-21.917809,-21.917809,-0,22.57534,134.80306)"/>
<use data-text="o" xlink:href="#font_26_80" transform="matrix(0,-21.917809,-21.917809,-0,22.57534,127.89894)"/>
<use data-text="r" xlink:href="#font_26_83" transform="matrix(0,-21.917809,-21.917809,-0,22.57534,116.87428)"/>
<use data-text="(" xlink:href="#font_26_9" transform="matrix(0,-21.917809,-21.917809,-0,22.57534,103.26332)"/>
<use data-text="&#x03bb;" xlink:href="#font_28_22" transform="matrix(0,-21.917809,-21.917809,-0,22.57534,96.57851)"/>
<use data-text=")" xlink:href="#font_26_10" transform="matrix(0,-21.917809,-21.917809,-0,22.57534,84.059619)"/>
<g clip-path="url(#clip_32)">
<path transform="matrix(1,0,0,-1,0,326.88)" stroke-width="1.5" stroke-linecap="butt" stroke-dasharray="5.55,2.4" stroke-linejoin="round" fill="none" stroke="#28a745" stroke-opacity=".5" d="M62.44357 284.99617H679.68"/>
</g>
<g clip-path="url(#clip_33)">
<path transform="matrix(1,0,0,-1,0,326.88)" stroke-width="1.5" stroke-linecap="butt" stroke-dasharray="5.55,2.4" stroke-linejoin="round" fill="none" stroke="#dc3545" stroke-opacity=".5" d="M62.44357 95.35594H679.68"/>
</g>
<path transform="matrix(1,0,0,-1,0,326.88)" stroke-width=".8" stroke-linecap="square" stroke-miterlimit="10" stroke-linejoin="miter" fill="none" stroke="#000000" d="M62.44357 57.427896V292.58177"/>
<path transform="matrix(1,0,0,-1,0,326.88)" stroke-width=".8" stroke-linecap="square" stroke-miterlimit="10" stroke-linejoin="miter" fill="none" stroke="#000000" d="M679.68 57.427896V292.58177"/>
<path transform="matrix(1,0,0,-1,0,326.88)" stroke-width=".8" stroke-linecap="square" stroke-miterlimit="10" stroke-linejoin="miter" fill="none" stroke="#000000" d="M62.44357 57.427896H679.68"/>
<path transform="matrix(1,0,0,-1,0,326.88)" stroke-width=".8" stroke-linecap="square" stroke-miterlimit="10" stroke-linejoin="miter" fill="none" stroke="#000000" d="M62.44357 292.58177H679.68"/>
<use data-text="T" xlink:href="#font_26_53" transform="matrix(23.910336,0,0,-23.910336,216.16529,28.298249)"/>
<use data-text="W" xlink:href="#font_26_56" transform="matrix(23.910336,0,0,-23.910336,231.01361,28.298249)"/>
<use data-text="A" xlink:href="#font_26_34" transform="matrix(23.910336,0,0,-23.910336,251.07436,28.298249)"/>
<use data-text="P" xlink:href="#font_26_49" transform="matrix(23.910336,0,0,-23.910336,267.66813,28.298249)"/>
<use data-text="D" xlink:href="#font_26_37" transform="matrix(23.910336,0,0,-23.910336,286.58119,28.298249)"/>
<use data-text="e" xlink:href="#font_26_70" transform="matrix(23.910336,0,0,-23.910336,303.34233,28.298249)"/>
<use data-text="c" xlink:href="#font_26_68" transform="matrix(23.910336,0,0,-23.910336,314.17369,28.298249)"/>
<use data-text="a" xlink:href="#font_26_66" transform="matrix(23.910336,0,0,-23.910336,324.4073,28.298249)"/>
<use data-text="y" xlink:href="#font_26_90" transform="matrix(23.910336,0,0,-23.910336,335.3104,28.298249)"/>
<use data-text="F" xlink:href="#font_26_39" transform="matrix(23.910336,0,0,-23.910336,353.60179,28.298249)"/>
<use data-text="a" xlink:href="#font_26_66" transform="matrix(23.910336,0,0,-23.910336,365.17439,28.298249)"/>
<use data-text="c" xlink:href="#font_26_68" transform="matrix(23.910336,0,0,-23.910336,376.07749,28.298249)"/>
<use data-text="t" xlink:href="#font_26_85" transform="matrix(23.910336,0,0,-23.910336,386.3111,28.298249)"/>
<use data-text="o" xlink:href="#font_26_80" transform="matrix(23.910336,0,0,-23.910336,393.84288,28.298249)"/>
<use data-text="r" xlink:href="#font_26_83" transform="matrix(23.910336,0,0,-23.910336,405.86976,28.298249)"/>
<use data-text=":" xlink:href="#font_26_27" transform="matrix(23.910336,0,0,-23.910336,414.74049,28.298249)"/>
<use data-text="&#x03bb;" xlink:href="#font_28_22" transform="matrix(23.910336,0,0,-23.910336,427.54933,28.298249)"/>
<use data-text="=" xlink:href="#font_25_63" transform="matrix(23.910336,0,0,-23.910336,447.84803,28.298249)"/>
<use data-text="0" xlink:href="#font_25_50" transform="matrix(23.910336,0,0,-23.910336,471.68128,28.298249)"/>
<use data-text="." xlink:href="#font_28_59" transform="matrix(23.910336,0,0,-23.910336,482.66703,28.298249)"/>
<use data-text="5" xlink:href="#font_25_55" transform="matrix(23.910336,0,0,-23.910336,489.17036,28.298249)"/>
<use data-text="1" xlink:href="#font_34_51" transform="matrix(16.737162,0,0,-16.737162,500.13609,19.621369)"/>
<use data-text="/" xlink:href="#font_28_62" transform="matrix(16.737162,0,0,-16.737162,508.33024,19.621369)"/>
<use data-text="h" xlink:href="#font_28_105" transform="matrix(16.737162,0,0,-16.737162,516.5147,19.621369)"/>
<g>
<path transform="matrix(1,0,0,-1,0,326.88)" d="M76.44357 219.17704H312.6535C315.32017 219.17704 316.6535 220.51036 316.6535 223.17704V278.58177C316.6535 281.24845 315.32017 282.58177 312.6535 282.58177H76.44357C73.7769 282.58177 72.44357 281.24845 72.44357 278.58177V223.17704C72.44357 220.51036 73.7769 219.17704 76.44357 219.17704Z" fill="#ffffff" fill-opacity=".8"/>
<path transform="matrix(1,0,0,-1,0,326.88)" stroke-width="1" stroke-linecap="butt" stroke-miterlimit="10" stroke-linejoin="miter" fill="none" stroke="#cccccc" stroke-opacity=".8" d="M76.44357 219.17704H312.6535C315.32017 219.17704 316.6535 220.51036 316.6535 223.17704V278.58177C316.6535 281.24845 315.32017 282.58177 312.6535 282.58177H76.44357C73.7769 282.58177 72.44357 281.24845 72.44357 278.58177V223.17704C72.44357 220.51036 73.7769 219.17704 76.44357 219.17704Z"/>
</g>
<path transform="matrix(1,0,0,-1,0,326.88)" stroke-width="1.5" stroke-linecap="butt" stroke-dasharray="5.55,2.4" stroke-linejoin="round" fill="none" stroke="#28a745" stroke-opacity=".5" d="M80.44357 267.58177H100.44357 120.44357"/>
<use data-text="&#x03bb;" xlink:href="#font_28_22" transform="matrix(19.92528,0,0,-19.92528,136.44358,66.29825)"/>
<use data-text="=" xlink:href="#font_25_63" transform="matrix(19.92528,0,0,-19.92528,153.35913,66.29825)"/>
<use data-text="1" xlink:href="#font_25_51" transform="matrix(19.92528,0,0,-19.92528,173.22016,66.29825)"/>
<use data-text="." xlink:href="#font_28_59" transform="matrix(19.92528,0,0,-19.92528,182.37493,66.29825)"/>
<use data-text="0" xlink:href="#font_25_50" transform="matrix(19.92528,0,0,-19.92528,187.79436,66.29825)"/>
<use data-text="(" xlink:href="#font_26_9" transform="matrix(19.92528,0,0,-19.92528,201.91378,66.29825)"/>
<use data-text="h" xlink:href="#font_26_73" transform="matrix(19.92528,0,0,-19.92528,208.09059,66.29825)"/>
<use data-text="a" xlink:href="#font_26_66" transform="matrix(19.92528,0,0,-19.92528,218.8104,66.29825)"/>
<use data-text="l" xlink:href="#font_26_77" transform="matrix(19.92528,0,0,-19.92528,227.89632,66.29825)"/>
<use data-text="f" xlink:href="#font_26_71" transform="matrix(19.92528,0,0,-19.92528,233.13666,66.29825)"/>
<use data-text="-" xlink:href="#font_26_14" transform="matrix(19.92528,0,0,-19.92528,239.31349,66.29825)"/>
<use data-text="l" xlink:href="#font_26_77" transform="matrix(19.92528,0,0,-19.92528,246.04824,66.29825)"/>
<use data-text="i" xlink:href="#font_26_74" transform="matrix(19.92528,0,0,-19.92528,251.28858,66.29825)"/>
<use data-text="f" xlink:href="#font_26_71" transform="matrix(19.92528,0,0,-19.92528,256.6684,66.29825)"/>
<use data-text="e" xlink:href="#font_26_70" transform="matrix(19.92528,0,0,-19.92528,262.84526,66.29825)"/>
<use data-text="=" xlink:href="#font_26_30" transform="matrix(19.92528,0,0,-19.92528,271.73194,66.29825)"/>
<use data-text="&#x221e;" xlink:href="#font_35_50" transform="matrix(19.92528,0,0,-19.92528,282.79045,66.29825)"/>
<use data-text=")" xlink:href="#font_26_10" transform="matrix(19.92528,0,0,-19.92528,302.71577,66.29825)"/>
<path transform="matrix(1,0,0,-1,0,326.88)" stroke-width="1.5" stroke-linecap="butt" stroke-dasharray="5.55,2.4" stroke-linejoin="round" fill="none" stroke="#dc3545" stroke-opacity=".5" d="M80.44357 238.8794H100.44357 120.44357"/>
<use data-text="&#x03bb;" xlink:href="#font_28_22" transform="matrix(19.92528,0,0,-19.92528,136.44358,95.00061)"/>
<use data-text="=" xlink:href="#font_25_63" transform="matrix(19.92528,0,0,-19.92528,153.35913,95.00061)"/>
<use data-text="0" xlink:href="#font_25_50" transform="matrix(19.92528,0,0,-19.92528,173.22016,95.00061)"/>
<use data-text="." xlink:href="#font_28_59" transform="matrix(19.92528,0,0,-19.92528,182.37493,95.00061)"/>
<use data-text="5" xlink:href="#font_25_55" transform="matrix(19.92528,0,0,-19.92528,187.79436,95.00061)"/>
<use data-text="(" xlink:href="#font_26_9" transform="matrix(19.92528,0,0,-19.92528,201.91378,95.00061)"/>
<use data-text="h" xlink:href="#font_26_73" transform="matrix(19.92528,0,0,-19.92528,208.09059,95.00061)"/>
<use data-text="a" xlink:href="#font_26_66" transform="matrix(19.92528,0,0,-19.92528,218.8104,95.00061)"/>
<use data-text="l" xlink:href="#font_26_77" transform="matrix(19.92528,0,0,-19.92528,227.89632,95.00061)"/>
<use data-text="f" xlink:href="#font_26_71" transform="matrix(19.92528,0,0,-19.92528,233.13666,95.00061)"/>
<use data-text="-" xlink:href="#font_26_14" transform="matrix(19.92528,0,0,-19.92528,239.31349,95.00061)"/>
<use data-text="l" xlink:href="#font_26_77" transform="matrix(19.92528,0,0,-19.92528,246.04824,95.00061)"/>
<use data-text="i" xlink:href="#font_26_74" transform="matrix(19.92528,0,0,-19.92528,251.28858,95.00061)"/>
<use data-text="f" xlink:href="#font_26_71" transform="matrix(19.92528,0,0,-19.92528,256.6684,95.00061)"/>
<use data-text="e" xlink:href="#font_26_70" transform="matrix(19.92528,0,0,-19.92528,262.84526,95.00061)"/>
<use data-text="=" xlink:href="#font_26_30" transform="matrix(19.92528,0,0,-19.92528,271.73194,95.00061)"/>
<use data-text="1" xlink:href="#font_26_18" transform="matrix(19.92528,0,0,-19.92528,282.69084,95.00061)"/>
<use data-text=")" xlink:href="#font_26_10" transform="matrix(19.92528,0,0,-19.92528,291.9561,95.00061)"/>
</svg>
