<svg xmlns="http://www.w3.org/2000/svg" xmlns:xlink="http://www.w3.org/1999/xlink" version="1.1" width="686.1147pt" height="398.88pt" viewBox="0 0 686.1147 398.88">
<defs>
<clipPath id="clip_1">
<path transform="matrix(1,0,0,-1,0,398.88)" d="M66.16223 57.427896H678.4134V368.9069H66.16223Z"/>
</clipPath>
<path id="font_2_50" d="M.41999818 .3212433C.41999818 .38223268 .4189911 .4861908 .3769989 .5661621 .33999635 .6361389 .2809906 .6611328 .22898865 .6611328 .18099976 .6611328 .11999512 .63912966 .08198547 .56715396 .041992189 .4921875 .037994386 .3992157 .037994386 .3212433 .037994386 .26426698 .038986207 .17730713 .069992069 .10133362 .11299133-.0016326904 .18998719-.015625 .22898865-.015625 .2749939-.015625 .34498597 .0033721924 .38598634 .09832764 .41600038 .16731262 .41999818 .24827576 .41999818 .3212433M.22898865 .00036621095C.16499329 .00036621095 .1269989 .055343629 .11299133 .13131714 .101989749 .19029236 .101989749 .27626039 .101989749 .33224488 .101989749 .4092102 .101989749 .4731903 .114990238 .5341644 .13398743 .6191406 .18998719 .64512637 .22898865 .64512637 .269989 .64512637 .32299806 .61813357 .34199525 .53616335 .35499574 .479187 .35598756 .4122162 .35598756 .33224488 .35598756 .26727296 .35598756 .18730164 .34399415 .12832642 .32299806 .019363404 .2639923 .00036621095 .22898865 .00036621095Z"/>
<clipPath id="clip_3">
<path transform="matrix(1,0,0,-1,0,398.88)" d="M66.16223 57.427896H678.4134V368.9069H66.16223Z"/>
</clipPath>
<path id="font_2_55" d="M.11399841 .58535769C.12399292 .5813446 .16499329 .5683594 .20698548 .5683594 .2999878 .5683594 .35099793 .61834719 .37998963 .64715579 .37998963 .65515139 .37998963 .66015627 .37399293 .66015627 .37298585 .66015627 .37098695 .66015627 .36299134 .6561432 .32798768 .6411438 .2869873 .62934878 .23699951 .62934878 .20698548 .62934878 .1619873 .6332855 .11299133 .65515139 .101989749 .66015627 .099990848 .66015627 .09899902 .66015627 .09399414 .66015627 .09298706 .65914919 .09298706 .63916018V.34931947C.09298706 .33129884 .09298706 .32629396 .102996829 .32629396 .10798645 .32629396 .10998535 .32829286 .114990238 .33529664 .14698792 .3803711 .19099427 .39941407 .24099732 .39941407 .27598573 .39941407 .35099793 .3773651 .35099793 .20610047 .35099793 .17408753 .35099793 .116119388 .32099916 .07022095 .29599 .029312134 .25698854 .008361816 .21398926 .008361816 .147995 .008361816 .08099365 .054260255 .06298828 .13108826 .066986087 .13009644 .07499695 .12809754 .07899475 .12809754 .09199524 .12809754 .116989139 .13510132 .116989139 .16609192 .116989139 .19309998 .09799194 .20410156 .07899475 .20410156 .055999757 .20410156 .040985109 .190094 .040985109 .16209412 .040985109 .07521057 .10998535-.015625 .21598816-.015625 .31900025-.015625 .4169922 .07322693 .4169922 .2020874 .4169922 .32228089 .33898927 .41540528 .24198914 .41540528 .19099427 .41540528 .147995 .39640809 .11399841 .3603363V.58535769Z"/>
<clipPath id="clip_4">
<path transform="matrix(1,0,0,-1,0,398.88)" d="M66.16223 57.427896H678.4134V368.9069H66.16223Z"/>
</clipPath>
<path id="font_2_51" d="M.2659912 .63912966C.2659912 .66012576 .2649994 .6611328 .25099183 .6611328 .21199036 .61424258 .15299988 .5993042 .09700012 .5973053 .09399414 .5973053 .08898926 .5973053 .08799744 .5953064 .08699036 .5933075 .08699036 .5913086 .08699036 .5703125 .117996219 .5703125 .16999817 .5763092 .20999146 .600296V.073013309C.20999146 .037994386 .20799256 .025985718 .12199402 .025985718H.09199524V0C.13999939 .0009918213 .18998719 .0019989014 .23799134 .0019989014 .28599549 .0019989014 .33599855 .0009918213 .38398744 0V.025985718H.35398866C.2679901 .025985718 .2659912 .037002565 .2659912 .073013309V.63912966Z"/>
<clipPath id="clip_5">
<path transform="matrix(1,0,0,-1,0,398.88)" d="M66.16223 57.427896H678.4134V368.9069H66.16223Z"/>
</clipPath>
<clipPath id="clip_6">
<path transform="matrix(1,0,0,-1,0,398.88)" d="M66.16223 57.427896H678.4134V368.9069H66.16223Z"/>
</clipPath>
<path id="font_2_52" d="M.4169922 .15492249H.39898683C.3889923 .083969119 .3809967 .07197571 .3769989 .06599426 .37199403 .057998659 .2999878 .057998659 .28599549 .057998659H.09399414C.12998963 .096969608 .19999695 .16792298 .2849884 .24986267 .34599305 .30781556 .4169922 .37576295 .4169922 .47473146 .4169922 .59298709 .32299806 .6611328 .21798706 .6611328 .10798645 .6611328 .040985109 .5639038 .040985109 .47373963 .040985109 .43473817 .069992069 .42973329 .08198547 .42973329 .09199524 .42973329 .12199402 .43572999 .12199402 .47073365 .12199402 .5017395 .09599304 .5107422 .08198547 .5107422 .07598877 .5107422 .069992069 .5097351 .06599426 .5077362 .084991458 .59298709 .14299011 .63513186 .20399475 .63513186 .29100038 .63513186 .34799195 .5659027 .34799195 .47473146 .34799195 .38775636 .29699708 .31282044 .23999024 .24786377L.040985109 .022994996V0H.3929901L.4169922 .15492249Z"/>
<clipPath id="clip_7">
<path transform="matrix(1,0,0,-1,0,398.88)" d="M66.16223 57.427896H678.4134V368.9069H66.16223Z"/>
</clipPath>
<clipPath id="clip_8">
<path transform="matrix(1,0,0,-1,0,398.88)" d="M66.16223 57.427896H678.4134V368.9069H66.16223Z"/>
</clipPath>
<path id="font_2_53" d="M.22099304 .34036256C.30999757 .34036256 .34899903 .2633667 .34899903 .17434693 .34899903 .054367067 .2849884 .008361816 .22698975 .008361816 .17399597 .008361816 .08799744 .034362794 .06098938 .11135864 .06599426 .10934448 .070999149 .10934448 .07598877 .10934448 .099990848 .10934448 .117996219 .12535095 .117996219 .15135193 .117996219 .18035889 .09599304 .19335938 .07598877 .19335938 .05899048 .19335938 .032989503 .18534851 .032989503 .14834595 .032989503 .056365968 .12298584-.015625 .22898865-.015625 .33999635-.015625 .4249878 .0713501 .4249878 .1733551 .4249878 .27035523 .34498597 .34036256 .25 .35136415 .32598878 .3673706 .39898683 .43536378 .39898683 .5263672 .39898683 .6042328 .31999208 .6611328 .22999573 .6611328 .13899231 .6611328 .05899048 .6052246 .05899048 .5253601 .05899048 .4903717 .084991458 .484375 .09799194 .484375 .11898804 .484375 .13699341 .49736024 .13699341 .5233612 .13699341 .5493622 .11898804 .5623627 .09799194 .5623627 .09399414 .5623627 .08898926 .5623627 .084991458 .56036379 .11399841 .62615969 .19299317 .63812258 .22799683 .63812258 .2630005 .63812258 .32899476 .6211853 .32899476 .5253601 .32899476 .49736024 .32499696 .44737245 .29100038 .4033661 .26098634 .36436463 .22698975 .36236573 .19400025 .359375 .18899536 .359375 .1659851 .35736085 .1619873 .35736085 .15499878 .35636903 .15098572 .35536195 .15098572 .3483734 .15098572 .34136964 .1519928 .34036256 .17199707 .34036256H.22099304Z"/>
<path id="font_9_51" d="M.18899536 .12220764V.29118348C.272995 .29118348 .2919922 .27618409 .30599977 .2531891L.41299439 .07922363C.44198609 .032226564 .4850006-.009765625 .54499819-.009765625 .55999758-.009765625 .57699587-.0077667238 .58699038-.0027770997 .59098818 .0042266848 .58999636 .01322937 .58599856 .021224976 .54100039 .021224976 .5159912 .055221559 .48999024 .098220828L.3639984 .30818177C.40699769 .32218934 .49699403 .37420655 .49699403 .4792633 .49699403 .5292969 .47999574 .5703125 .44400025 .60432437 .3959961 .64933779 .33399964 .65234377 .2709961 .65234377 .22399903 .65234377 .18199158 .64533999 .1459961 .64533999 .11099243 .6454468 .06399536 .64645388 .016998291 .64746096 .010986328 .641449 .010986328 .6204376 .016998291 .61442568 .08699036 .6114197 .10398865 .6064148 .10398865 .52334597V.12210083C.10398865 .0390625 .08699036 .034057619 .016998291 .031051636 .010986328 .025054932 .010986328 .004043579 .016998291-.001953125 .06199646-.0009613037 .10899353 .000045776369 .14698792 .000045776369 .18499756 .000045776369 .23199463-.0009613037 .27598573-.001953125 .28199769 .004043579 .28199769 .025054932 .27598573 .031051636 .20599365 .034225465 .18899536 .039230348 .18899536 .12220764M.27198792 .6183319C.33299256 .6183319 .40499879 .59632876 .40499879 .47827149 .40499879 .3531952 .33399964 .3251953 .23699951 .3251953H.18899536V.55430606C.18899536 .583313 .20098877 .6183319 .27198792 .6183319Z"/>
<path id="font_9_70" d="M.38598634 .093185428C.34899903 .055221559 .31999208 .039230348 .2619934 .039230348 .22599793 .039230348 .18399048 .06021118 .15299988 .11117554 .1329956 .14414978 .12098694 .19012451 .12098694 .24809265L.3869934 .24609375C.39898683 .24609375 .4059906 .25209046 .4059906 .26309205 .4059906 .3467865 .37599183 .43652345 .23699951 .43652345 .1499939 .43652345 .036987306 .35375978 .036987306 .20211792 .036987306 .14614868 .050994874 .0921936 .083999637 .054214479 .117996219 .014221191 .16499329-.009765625 .23699951-.009765625 .31298829-.009765625 .36698915 .025222779 .40699769 .077194217 .4039917 .08718872 .397995 .0921936 .38598634 .093185428M.12399292 .28208924C.14299011 .39456178 .21299744 .40351869 .23699951 .40351869 .2749939 .40351869 .31999208 .38261415 .31999208 .2990265 .31999208 .29006959 .31599427 .28507997 .30499269 .28507997L.12399292 .28208924Z"/>
<path id="font_9_71" d="M.1749878 .12193298V.38970948H.2679901C.2769928 .38970948 .29100038 .39370729 .29100038 .40270997V.42269898C.29100038 .42669679 .28799439 .42871095 .2829895 .42871095H.1749878V.48583985C.1749878 .6401825 .22099304 .66423037 .2539978 .66423037 .28399659 .66423037 .2999878 .6522064 .31399537 .61712649 .32199098 .5990906 .33299256 .5850525 .35398866 .5850525 .37098695 .5850525 .394989 .6061096 .394989 .6261444 .394989 .6431885 .38398744 .66122439 .36299134 .67723086 .33699037 .6952362 .31098939 .6982422 .272995 .6982422 .18899536 .6982422 .09599304 .6251526 .09599304 .46879579V.42871095H.04499817C.026992798 .42871095 .021987915 .41670228 .021987915 .40870667V.39570619C.021987915 .3907013 .022994996 .38970948 .026992798 .38970948H.09599304V.12193298C.09599304 .039001466 .07998657 .035003663 .025985718 .03100586 .019989014 .025009156 .019989014 .0040283205 .025985718-.001953125 .06098938-.0009613037 .09599304 .000030517579 .13598633 .000030517579 .17599488 .000030517579 .22399903-.0009613037 .25898744-.001953125 .2649994 .0040283205 .2649994 .025009156 .25898744 .03100586 .18099976 .035003663 .1749878 .039001466 .1749878 .12193298Z"/>
<path id="font_9_83" d="M.17599488 .35830689C.17399597 .39834596 .17298889 .42436219 .16799927 .43437196 .1659851 .43937684 .1639862 .4423828 .1559906 .4423828 .12799073 .43136598 .101989749 .42236329 .032989503 .4133606 .0309906 .40734864 .032989503 .39134217 .034988405 .3853302 .08898926 .38032533 .099990848 .37532044 .099990848 .317276V.12213135C.099990848 .03907776 .08799744 .035064699 .025985718 .031066895 .019989014 .025054932 .019989014 .004043579 .025985718-.001953125 .06098938-.0009613037 .099990848 .000045776369 .13999939 .000045776369 .17999268 .000045776369 .22599793-.0009613037 .26098634-.001953125 .2669983 .004043579 .2669983 .025054932 .26098634 .031066895 .19099427 .036071779 .1789856 .03907776 .1789856 .12213135V.26124574C.1789856 .28735353 .19099427 .31037904 .20298767 .32839967 .21398926 .34440614 .23699951 .3774414 .24899292 .3774414 .2579956 .3774414 .2669983 .3754425 .2749939 .36442567 .28199769 .3544464 .2939911 .34144593 .31098939 .34144593 .33499146 .34144593 .35798646 .36643983 .35798646 .39144898 .35798646 .41044618 .33999635 .43945313 .2979889 .43945313 .25099183 .43945313 .20999146 .39544679 .18699646 .35643006 .18099976 .3453064 .17599488 .35331727 .17599488 .35830689Z"/>
<path id="font_9_84" d="M.04798889 .13815308C.051986696 .08909607 .054992677 .042037965 .054992677 0 .06498718 .0019989014 .07499695 .0029907227 .07998657 .0029907227 .08699036 .0032196046 .09298706 .0032196046 .099990848 .0012207031 .1269989-.0057678224 .1539917-.009765625 .19099427-.009765625 .24699402-.009765625 .34999085 .017227173 .34999085 .11628723 .34999085 .18431092 .30099488 .22433472 .23298645 .24935913 .17298889 .27236939 .1329956 .28738404 .1329956 .34240724 .1329956 .3834381 .16899109 .40644837 .20298767 .40644837 .22499085 .40644837 .2829895 .3984375 .29599 .313385 .3019867 .3073883 .32199098 .3083954 .32798768 .3143921 .33099366 .35040284 .33299256 .38742066 .33399964 .42044068 .30299378 .42544557 .25498963 .43945313 .20298767 .43945313 .1289978 .43945313 .06199646 .39143373 .06199646 .32739259 .06199646 .254364 .09498596 .2233429 .17199707 .1913147 .25498963 .15730286 .27398683 .1362915 .27398683 .09326172 .27398683 .04423523 .22599793 .023223877 .18899536 .023223877 .1499939 .023223877 .12799073 .036239625 .117996219 .04724121 .09599304 .070251468 .084991458 .11427307 .07899475 .13929749 .07299805 .14515686 .053985597 .14414978 .04798889 .13815308Z"/>
<path id="font_9_73" d="M.16699219 .28634645C.16699219 .3073578 .17599488 .3193817 .18399048 .3283844 .22200012 .36541749 .272995 .38745118 .31199647 .38745118 .33198548 .38745118 .35299684 .37443543 .36499024 .3514099 .375 .33139039 .3769989 .3043518 .3769989 .2743225V.122161868C.3769989 .04008484 .36698915 .036071779 .31498719 .031066895 .30999757 .02507019 .30999757 .004043579 .31498719-.001953125 .34298707-.0009613037 .3769989 .000045776369 .4169922 .000045776369 .45700074 .000045776369 .48999024-.0009613037 .522995-.001953125 .5279999 .004043579 .5279999 .02507019 .522995 .031066895 .46699525 .036071779 .45599366 .04008484 .45599366 .122161868V.2713318C.45599366 .3263855 .45199586 .37542726 .42900086 .40544129 .4119873 .42744447 .3809967 .43945313 .34599305 .43945313 .29699708 .43945313 .23699951 .42645265 .17599488 .3584137 .17599488 .35742188 .1749878 .35742188 .17399597 .3564148 .17098999 .35240174 .1659851 .34640504 .1659851 .3584137L.16699219 .58332827C.16699219 .64826968 .17098999 .6882324 .17098999 .6882324 .17098999 .6952362 .16699219 .6982422 .1579895 .6982422 .1329956 .68859866 .057998659 .67459109 .017990113 .67160037 .015991211 .6635895 .017990113 .64759829 .023986817 .64160159 .026992798 .64160159 .02999878 .64160159 .032989503 .64160159 .07699585 .6385956 .08799744 .6385956 .08799744 .5595398V.122161868C.08799744 .03907776 .07598877 .035079957 .017990113 .031066895 .011993408 .02507019 .011993408 .004043579 .017990113-.001953125 .050994874-.0009613037 .08799744 .000045776369 .12799073 .000045776369 .1659851 .000045776369 .19898987-.0009613037 .22698975-.001953125 .23298645 .004043579 .23298645 .02507019 .22698975 .031066895 .17599488 .035079957 .16699219 .03907776 .16699219 .122161868V.28634645Z"/>
<path id="font_9_49" d="M.10398865 .5233002V.12210083C.10398865 .03904724 .08699036 .03404236 .016998291 .031036377 .010986328 .025039673 .010986328 .004043579 .016998291-.001953125 .06199646-.0009613037 .11099243 .000045776369 .14698792 .000045776369 .18199158 .000045776369 .24099732-.0009613037 .29100038-.001953125 .29699708 .004043579 .29699708 .025039673 .29100038 .031036377 .21299744 .03504944 .18899536 .03904724 .18899536 .12210083V.29222108C.21099854 .2852173 .23498535 .28222657 .269989 .28222657 .45199586 .28222657 .5069885 .40124513 .5069885 .48628236 .5069885 .54530337 .46798707 .65234377 .2829895 .65234377 .24499512 .65234377 .18598938 .64533999 .1459961 .64533999 .10899353 .6454468 .056991579 .64645388 .016998291 .64746096 .010986328 .641449 .010986328 .6204376 .016998291 .61442568 .08699036 .6113281 .10398865 .6063385 .10398865 .5233002M.18899536 .55430606C.18899536 .58332827 .20399475 .6183319 .27598573 .6183319 .34498597 .6183319 .4139862 .59532168 .4139862 .46827699 .4139862 .3602295 .3619995 .31622315 .2649994 .31622315 .23999024 .31622315 .19999695 .31822206 .18899536 .32122804V.55430606Z"/>
<path id="font_9_74" d="M.18099976 .12213135V.32128907C.18099976 .37132264 .18499756 .43537904 .18499756 .43537904 .18499756 .43937684 .17999268 .4423828 .17199707 .4423828 .14399719 .43136598 .10398865 .42236329 .034988405 .4133606 .032989503 .40734864 .034988405 .39134217 .036987306 .3853302 .09199524 .38032533 .101989749 .3743286 .101989749 .317276V.12213135C.101989749 .03907776 .09098816 .036071779 .02999878 .031066895 .023986817 .025054932 .023986817 .004043579 .02999878-.001953125 .06298828-.0009613037 .101989749 .000045776369 .14199829 .000045776369 .18199158 .000045776369 .21998596-.0009613037 .25299073-.001953125 .25898744 .004043579 .25898744 .025054932 .25299073 .031066895 .19198609 .035064699 .18099976 .03907776 .18099976 .12213135M.08999634 .5994568C.08999634 .5734558 .11399841 .54745486 .13798523 .54745486 .1659851 .54745486 .18998719 .57444766 .18998719 .595459 .18998719 .6194458 .16899109 .64746096 .14199829 .64746096 .117996219 .64746096 .08999634 .6234436 .08999634 .5994415V.5994568Z"/>
<path id="font_9_80" d="M.040985109 .20533753C.040985109 .103271488 .10899353-.009765625 .25099183-.009765625 .31498719-.009765625 .3639984 .01322937 .397995 .04623413 .44299317 .090270999 .46299745 .15330506 .46299745 .21434021 .46299745 .31840516 .4059906 .43945313 .25299073 .43945313 .18699646 .43945313 .1329956 .41244508 .09599304 .36943055 .05999756 .32640077 .040985109 .26837159 .040985109 .20533753M.23799134 .40444947C.32398988 .40444947 .3769989 .32640077 .3769989 .18231201 .3769989 .056243898 .31199647 .025222779 .2649994 .025222779 .16099549 .025222779 .1269989 .15130615 .1269989 .22834778 .1269989 .31539918 .147995 .40444947 .23799134 .40444947Z"/>
<path id="font_9_69" d="M.33399964 .050231935C.33898927 .054229738 .34799195 .056243898 .34899903 .049240114 .35198976 .025222779 .3600006-.009765625 .3600006-.009765625 .36799623-.012771606 .37298585-.011779785 .3789978-.009765625 .40098573 .008270264 .43598939 .023269654 .49699403 .030273438 .5029907 .03627014 .5029907 .05126953 .49699403 .057266237 .43299867 .06227112 .42399598 .08128357 .42399598 .13031006V.58332827C.42399598 .64826968 .42799378 .6882324 .42799378 .6882324 .42799378 .6952362 .42399598 .6982422 .4149933 .6982422 .3899994 .68859866 .31498719 .67459109 .2749939 .67160037 .272995 .6635895 .2749939 .64759829 .2809906 .64160159 .28399659 .64160159 .2869873 .64160159 .2899933 .64160159 .33399964 .6385956 .34498597 .6385956 .34498597 .5595398V.43144227C.34498597 .42443849 .34298707 .42243959 .33599855 .42243959 .33198548 .42243959 .29100038 .43945313 .2579956 .43945313 .19198609 .43945313 .147995 .41744996 .10798645 .37942506 .06498718 .33641053 .038986207 .27737428 .038986207 .20332337 .038986207 .08024597 .100997928-.009765625 .20899964-.009765625 .24798584-.009765625 .2849884 .010223389 .33399964 .050231935M.34498597 .12428284C.34498597 .105270389 .34298707 .09725952 .32899476 .085250858 .2919922 .053237916 .2599945 .037231447 .23498535 .037231447 .18099976 .037231447 .125 .0962677 .125 .221344 .125 .29338075 .13899231 .33340455 .1539917 .3544159 .18499756 .40144349 .22698975 .40444947 .24699402 .40444947 .2829895 .40444947 .30799867 .39143373 .32798768 .36842347 .34199525 .352417 .34498597 .3454132 .34498597 .3143921V.12428284Z"/>
<clipPath id="clip_10">
<path transform="matrix(1,0,0,-1,0,398.88)" d="M66.16223 57.427896H678.4134V368.9069H66.16223Z"/>
</clipPath>
<clipPath id="clip_11">
<path transform="matrix(1,0,0,-1,0,398.88)" d="M66.16223 57.427896H678.4134V368.9069H66.16223Z"/>
</clipPath>
<clipPath id="clip_12">
<path transform="matrix(1,0,0,-1,0,398.88)" d="M66.16223 57.427896H678.4134V368.9069H66.16223Z"/>
</clipPath>
<clipPath id="clip_13">
<path transform="matrix(1,0,0,-1,0,398.88)" d="M66.16223 57.427896H678.4134V368.9069H66.16223Z"/>
</clipPath>
<clipPath id="clip_14">
<path transform="matrix(1,0,0,-1,0,398.88)" d="M66.16223 57.427896H678.4134V368.9069H66.16223Z"/>
</clipPath>
<path id="font_2_54" d="M.33599855 .64694216C.33599855 .66793826 .33499146 .6689453 .31698609 .6689453L.019989014 .1959076V.16992188H.27799989V.07196045C.27799989 .035980226 .27598573 .025985718 .20599365 .025985718H.18699646V0C.21899414 .0019989014 .272995 .0019989014 .30699159 .0019989014 .34098817 .0019989014 .394989 .0019989014 .4269867 0V.025985718H.4079895C.33799745 .025985718 .33599855 .035980226 .33599855 .07196045V.16992188H.43798829V.1959076H.33599855V.64694216M.2809906 .5809326V.1959076H.039993287L.2809906 .5809326Z"/>
<clipPath id="clip_15">
<path transform="matrix(1,0,0,-1,0,398.88)" d="M66.16223 57.427896H678.4134V368.9069H66.16223Z"/>
</clipPath>
<path id="font_9_68" d="M.397995 .09126282C.3939972 .1002655 .38598634 .104263309 .3769989 .105270389 .34298707 .06123352 .2999878 .039230348 .25698854 .039230348 .18399048 .039230348 .12298584 .11326599 .12298584 .23034668 .12298584 .34040834 .17098999 .40644837 .23699951 .40644837 .29599 .40644837 .3039856 .37142945 .30799867 .33641053 .31098939 .3093872 .32499696 .30038453 .34599305 .30038453 .36698915 .30038453 .394989 .313385 .394989 .34440614 .394989 .39944459 .33799745 .43945313 .24198914 .43945313 .14299011 .43945313 .036987306 .3504181 .036987306 .20832825 .036987306 .07925415 .10899353-.009765625 .23498535-.009765625 .29499818-.009765625 .34799195 .009231567 .397995 .09126282Z"/>
<clipPath id="clip_16">
<path transform="matrix(1,0,0,-1,0,398.88)" d="M66.16223 57.427896H678.4134V368.9069H66.16223Z"/>
</clipPath>
<clipPath id="clip_17">
<path transform="matrix(1,0,0,-1,0,398.88)" d="M66.16223 57.427896H678.4134V368.9069H66.16223Z"/>
</clipPath>
<clipPath id="clip_18">
<path transform="matrix(1,0,0,-1,0,398.88)" d="M66.16223 57.427896H678.4134V368.9069H66.16223Z"/>
</clipPath>
<clipPath id="clip_19">
<path transform="matrix(1,0,0,-1,0,398.88)" d="M66.16223 57.427896H678.4134V368.9069H66.16223Z"/>
</clipPath>
<clipPath id="clip_20">
<path transform="matrix(1,0,0,-1,0,398.88)" d="M66.16223 57.427896H678.4134V368.9069H66.16223Z"/>
</clipPath>
<clipPath id="clip_21">
<path transform="matrix(1,0,0,-1,0,398.88)" d="M66.16223 57.427896H678.4134V368.9069H66.16223Z"/>
</clipPath>
<path id="font_9_53" d="M.34999085 .1219635V.50361636C.34999085 .5675659 .3600006 .6055298 .3959961 .6055298H.41799928C.49299623 .6055298 .5399933 .57954409 .5569916 .5026245 .56799319 .5026245 .58200076 .50361636 .59098818 .50761416 .58399966 .55426028 .57899478 .60528567 .5779877 .65031436 .5779877 .65130618 .57598879 .6533203 .57499697 .6533203 .54100039 .6495209 .42999269 .64453127 .35099793 .64453127H.2649994C.18798828 .64530947 .069992069 .65031436 .03199768 .6533203 .02999878 .6533203 .027999878 .65130618 .027999878 .65031436 .023986817 .60528567 .01399231 .55326846 .0029907227 .505249 .0129852299 .50123599 .024993897 .50024417 .036987306 .50024417 .056991579 .57954409 .102996829 .6055298 .16899109 .6055298H.21798706C.25498963 .6055298 .2649994 .5675659 .2649994 .5066223V.1219635C.2649994 .039031984 .24798584 .03404236 .16799927 .031036377 .1619873 .025039673 .1619873 .004043579 .16799927-.001953125 .21699524-.0009613037 .2679901 .000045776369 .30799867 .000045776369 .34599305 .000045776369 .39698792-.0009613037 .44699098-.001953125 .45298768 .004043579 .45298768 .025039673 .44699098 .031036377 .36698915 .03404236 .34999085 .039031984 .34999085 .1219635Z"/>
<path id="font_9_56" d="M.80999758 .56544497 .6539917 .13131714 .651001 .13230896 .5130005 .5544281C.49598695 .6084442 .5309906 .6114502 .5649872 .6144562 .57099917 .6204529 .57099917 .641449 .5649872 .64746096 .5239868 .64645388 .47999574 .6454468 .43998719 .6454468 .40699769 .6454468 .37199403 .64645388 .33999635 .64746096 .33399964 .641449 .33399964 .6204529 .33999635 .6144562 .3929901 .6114502 .4149933 .58044436 .42399598 .5544281L.44699098 .48841859C.45098878 .4764099 .45399476 .4664154 .45399476 .45741273 .45399476 .44740296 .45298768 .43940736 .44499208 .4223938L.31599427 .12931824 .31098939 .13031006 .16499329 .5724335C.15299988 .6074524 .17999268 .6124573 .21499634 .6144562 .22099304 .6204529 .22099304 .641449 .21499634 .64746096 .18199158 .64645388 .13798523 .6454468 .09899902 .6454468 .06399536 .6454468 .034988405 .64645388 .005996704 .64746096 0 .641449 0 .6204529 .005996704 .6144562 .050994874 .6114502 .057998659 .6104584 .07699585 .55644229L.2649994 .015274048C.269989-.0007171631 .27598573-.01171875 .2869873-.01171875 .2999878-.01171875 .30599977-.0017242432 .31298829 .015274048L.46199037 .3503723C.47099305 .3703766 .47399903 .37538148 .47898866 .37538148 .48298646 .37538148 .4869995 .36437989 .49299623 .3473816L.60798647 .015274048C.6139984-.0017242432 .61898806-.01171875 .6309967-.01171875 .6419983-.01171875 .6489868-.0007171631 .6539917 .014282227L.8549957 .5534363C.8679962 .58843997 .8860016 .6114502 .94099429 .6144562 .94699099 .6204529 .94699099 .641449 .94099429 .64746096 .9119873 .64645388 .8799896 .6454468 .85398867 .6454468 .8279877 .6454468 .7839966 .64645388 .74398806 .64746096 .73799136 .641449 .73799136 .6204529 .74398806 .6144562 .7849884 .6114502 .82499697 .6084442 .80999758 .56544497Z"/>
<path id="font_9_34" d="M.15499878 .079071048 .20999146 .22418213C.21499634 .23719788 .22099304 .24119568 .24499512 .24119568H.45599366L.5139923 .07206726C.526001 .03804016 .48799134 .03404236 .43998719 .031036377 .43399049 .025039673 .43399049 .004043579 .43998719-.001953125 .47698976-.0009613037 .5319977 .000045776369 .57099917 .000045776369 .6119995 .000045776369 .6499939-.0009613037 .68499758-.001953125 .69099429 .004043579 .69099429 .025039673 .68499758 .031036377 .6459961 .03504944 .6119995 .03804016 .59498599 .08607483L.3889923 .6582031C.37399293 .64920046 .34700013 .63819888 .33399964 .63819888L.10699463 .10209656C.08099365 .040039064 .050994874 .03404236 .0069885256 .031036377 .0009918213 .025039673 .0009918213 .004043579 .0069885256-.001953125 .032989503-.0009613037 .06599426 .000045776369 .09599304 .000045776369 .13699341 .000045776369 .18699646-.0009613037 .22399903-.001953125 .22999573 .004043579 .22999573 .025039673 .22399903 .031036377 .18598938 .03404236 .13899231 .03804016 .15499878 .079071048M.2630005 .28320313C.24099732 .28320313 .23399353 .28619386 .23799134 .29618836L.33999635 .55519106H.34599305L.43998719 .28320313H.2630005Z"/>
<path id="font_9_81" d="M.1559906 .36834718C.15499878 .3983612 .15299988 .42437745 .147995 .43437196 .1459961 .43937684 .14399719 .4423828 .13598633 .4423828 .10798645 .43136598 .08198547 .42236329 .0129852299 .4133606 .010986328 .4073639 .0129852299 .39135743 .01499939 .38536073 .068984989 .38035584 .07998657 .37535096 .07998657 .31733705V-.11004639C.07998657-.19326782 .068984989-.19828797 .0079956059-.20129395 .0019989014-.20730591 .0019989014-.22836304 .0079956059-.234375 .042999269-.23338318 .07998657-.2323761 .11999512-.2323761 .1599884-.2323761 .20799256-.23338318 .24099732-.234375 .24699402-.22836304 .24699402-.20730591 .24099732-.20129395 .16999817-.19728089 .15899658-.19326782 .15899658-.11004639V-.0017700195C.15899658 .011230469 .16299439 .010223389 .17298889 .006225586 .19799805-.003768921 .22799683-.009765625 .2599945-.009765625 .31599427-.009765625 .3659973 .007232666 .40699769 .04623413 .45399476 .09225464 .48098756 .15426636 .48098756 .23530579 .48098756 .3414154 .4059906 .43945313 .3039856 .43945313 .2579956 .43945313 .20698548 .4094391 .16699219 .36442567 .16099549 .35835267 .15699768 .35835267 .1559906 .36834718M.1749878 .33140565C.20098877 .36343385 .24699402 .39344789 .27598573 .39344789 .33999635 .39344789 .394989 .32141114 .394989 .2083435 .394989 .12628174 .3659973 .024230957 .2539978 .024230957 .23599243 .024230957 .20098877 .02923584 .18299866 .04524231 .16299439 .06324768 .15899658 .06925964 .15899658 .105270389V.28738404C.15899658 .3083954 .16299439 .31739808 .1749878 .33140565Z"/>
<path id="font_9_79" d="M.18399048 .35830689C.17799378 .3513031 .17199707 .3493042 .17199707 .35830689 .17098999 .3853302 .16899109 .42436219 .1639862 .43437196 .1619873 .43937684 .1599884 .4423828 .1519928 .4423828 .12399292 .43136598 .09799194 .42236329 .0289917 .4133606 .026992798 .40734864 .0289917 .39134217 .0309906 .3853302 .084991458 .38032533 .09599304 .37532044 .09599304 .317276V.12213135C.09599304 .04006958 .085998538 .036071779 .025985718 .031066895 .019989014 .025054932 .019989014 .004043579 .025985718-.001953125 .055999757-.0009613037 .09599304 .000045776369 .13598633 .000045776369 .17599488 .000045776369 .20599365-.0009613037 .23599243-.001953125 .24198914 .004043579 .24198914 .025054932 .23599243 .031066895 .18499756 .036071779 .1749878 .04006958 .1749878 .12213135V.28625489C.1749878 .3073578 .18399048 .3193817 .19198609 .3283844 .22999573 .36541749 .2749939 .38745118 .31399537 .38745118 .33399964 .38745118 .35499574 .37443543 .36698915 .3514099 .3769989 .33139039 .3789978 .3043518 .3789978 .2743225V.122161868C.3789978 .04008484 .36898805 .036071779 .31698609 .031066895 .31199647 .02507019 .31199647 .004043579 .31698609-.001953125 .34700013-.0009613037 .3789978 .000045776369 .4189911 .000045776369 .45899964 .000045776369 .49499513-.0009613037 .5249939-.001953125 .5299988 .004043579 .5299988 .02507019 .5249939 .031066895 .46899415 .036071779 .45799256 .04008484 .45799256 .122161868V.2713318C.45799256 .3263855 .45399476 .37443543 .43099977 .40544129 .4139862 .42744447 .3829956 .43945313 .34799195 .43945313 .29899598 .43945313 .24299622 .42645265 .18399048 .3584137V.35830689Z"/>
<path id="font_9_85" d="M.042999269 .42871095C.0289917 .42871095 .024993897 .41670228 .024993897 .40870667V.39570619C.024993897 .3907013 .025985718 .38970948 .02999878 .38970948H.08898926V.089157108C.08898926 .018234253 .11999512-.009765625 .1659851-.009765625 .21199036-.009765625 .2619934 .01222229 .30099488 .05621338 .29899598 .06619263 .29299928 .07218933 .2829895 .07318115 .25698854 .053207399 .22698975 .04522705 .20098877 .04522705 .17399597 .04522705 .16799927 .07518005 .16799927 .13708496V.38970948H.27198792C.28199769 .38970948 .29599 .39370729 .29599 .40270997V.42269898C.29599 .42669679 .29299928 .42871095 .28799439 .42871095H.16799927V.4677887C.16799927 .53292849 .17199707 .57302859 .17199707 .57302859 .17199707 .57902529 .16899109 .58203127 .1639862 .58203127 .1599884 .58203127 .15098572 .5780182 .14199829 .57302859 .1309967 .5670166 .12098694 .56199648 .10798645 .5589905 .09599304 .5549774 .085998538 .55197146 .085998538 .54496768 .085998538 .53292849 .08898926 .5399475 .08898926 .42871095H.042999269Z"/>
<path id="font_9_52" d="M.394989 .63119509C.33699037 .6391907 .33898927 .6582031 .24099732 .6582031 .13999939 .6582031 .050994874 .5912018 .050994874 .48519898 .050994874 .38020326 .13798523 .33221437 .22599793 .29821778 .28599549 .27520753 .3600006 .24720764 .3600006 .1492157 .3600006 .068222049 .31498719 .026229859 .23498535 .026229859 .14199829 .026229859 .08198547 .069229129 .05999756 .16821289 .04699707 .17196656 .036987306 .16996765 .026992798 .16496277 .0309906 .08796692 .034988405 .061965944 .04699707 .012954712 .10998535 .01322937 .13798523-.009765625 .22698975-.009765625 .27198792-.009765625 .31498719 .0012207031 .34999085 .023223877 .4079895 .05921936 .44400025 .120224 .44400025 .18421936 .44400025 .2902069 .3639984 .33720399 .28199769 .36820985 .22200012 .390213 .12199402 .4282074 .12199402 .5121918 .12199402 .5681915 .17298889 .6241913 .23199463 .6241913 .32899476 .6241913 .3600006 .5621948 .37998963 .49620057 .3909912 .49420167 .4039917 .49519349 .41299439 .50219729 .40899659 .5502014 .40499879 .5782013 .394989 .63119509Z"/>
<path id="font_9_76" d="M.085998538 .12200928C.085998538 .039031984 .07499695 .03503418 .018997193 .031036377 .0129852299 .025039673 .0129852299 .004043579 .018997193-.001953125 .051986696-.0009613037 .085998538 .000045776369 .12599182 .000045776369 .16099549 .000045776369 .19400025-.0009613037 .21699524-.001953125 .22299195 .004043579 .22299195 .025039673 .21699524 .031036377 .17599488 .03503418 .16499329 .039031984 .16499329 .12200928V.20898438C.18399048 .2079773 .19799805 .20697022 .20799256 .20397949 .21899414 .19598389 .22799683 .1869812 .23999024 .17098999L.31298829 .073028568C.34199525 .03404236 .35398866 .015045166 .35499574 .003036499 .35499574 .000045776369 .35598756-.001953125 .35899354-.001953125 .3789978-.0009613037 .40098573 .000045776369 .42099 .000045776369 .45199586 .000045776369 .48298646-.0009613037 .5029907-.001953125 .5089874 .004043579 .5089874 .025039673 .5029907 .031036377 .46899415 .03503418 .44400025 .039031984 .4169922 .073028568L.2849884 .2389679C.2809906 .24395752 .27799989 .24795532 .27799989 .25294496 .27799989 .2569275 .27799989 .2589264 .28199769 .2629242L.36999513 .3537445C.3999939 .38568116 .43499757 .3936615 .47499085 .3976593 .48098756 .403656 .48098756 .4246521 .47499085 .43066407 .45199586 .42965699 .42399598 .4286499 .3880005 .4286499 .34999085 .4286499 .31298829 .42965699 .2899933 .43066407 .28399659 .4246521 .28399659 .403656 .2899933 .3976593 .34599305 .3936615 .32199098 .35873414 .31298829 .34675599 .2899933 .31781007 .25898744 .2838745 .23298645 .2649231 .21099854 .24894715 .18399048 .236969 .16499329 .23397827V.58299258C.16499329 .6481476 .16899109 .6882324 .16899109 .6882324 .16899109 .6952362 .16499329 .6982422 .1559906 .6982422 .1309967 .6878967 .055999757 .67388918 .015991211 .67089846 .01399231 .6628876 .015991211 .64689639 .021987915 .6408844 .024993897 .6408844 .027999878 .6408844 .0309906 .6408844 .07499695 .6378937 .085998538 .6378937 .085998538 .5588074V.12200928Z"/>
<path id="font_9_9" d="M.04399109 .25202943C.04399109 .20701599 .04798889-.023971558 .2559967-.20397949 .2659912-.20198059 .27398683-.1949768 .2769928-.1869812 .24398804-.14897156 .1269989-.010971069 .1269989 .25202943 .1269989 .5150299 .24499512 .6530304 .2769928 .6890259 .27398683 .6990204 .2669983 .70602419 .2559967 .70703127 .13699341 .60502627 .04399109 .4380188 .04399109 .25202943Z"/>
<path id="font_9_18" d="M.28799439 .12210083V.46931459C.28799439 .52934268 .2889862 .5903778 .29100038 .60339358 .29100038 .60839846 .2889862 .60839846 .2849884 .60839846 .22999573 .57437136 .1769867 .5493622 .08898926 .5083313 .09098816 .4973297 .09498596 .48731996 .10398865 .48130799 .1499939 .50032046 .17199707 .5063324 .19099427 .5063324 .20799256 .5063324 .21099854 .48231507 .21099854 .44828797V.12210083C.21099854 .03904724 .18399048 .03404236 .11399841 .031036377 .10798645 .025039673 .10798645 .004043579 .11399841-.001953125 .16299439-.0009613037 .19898987 .000045776369 .25299073 .000045776369 .30099488 .000045776369 .32499696-.0009613037 .375-.001953125 .3809967 .004043579 .3809967 .025039673 .375 .031036377 .30499269 .03404236 .28799439 .03904724 .28799439 .12210083Z"/>
<path id="font_9_17" d="M.22799683-.009765625C.30499269-.009765625 .42199708 .068237308 .42199708 .3032837 .42199708 .40231324 .397995 .48731996 .35398866 .54533389 .32798768 .5803375 .28599549 .61035159 .23199463 .61035159 .1329956 .61035159 .038986207 .49232484 .038986207 .294281 .038986207 .18725586 .07199097 .0872345 .1269989 .032226564 .15499878 .0042266848 .18899536-.009765625 .22799683-.009765625M.23199463 .5753479C.24899292 .5753479 .2649994 .56933596 .2769928 .55833438 .30799867 .5323334 .33499146 .4563141 .33499146 .32229615 .33499146 .23027039 .33198548 .16725159 .31799317 .116241458 .29599 .034225465 .24699402 .025222779 .22898865 .025222779 .13598633 .025222779 .12599182 .19625855 .12599182 .28327943 .12599182 .5293274 .18699646 .5753479 .23199463 .5753479Z"/>
<path id="font_22_34" d="M.83399966 .23046875C.7789917 .1884613 .7519989 .14746094 .74398806 .13446045 .69898989 .065460208 .69099429 .002456665 .69099429 .0014648438 .69099429-.010543823 .7029877-.010543823 .71099856-.010543823 .7279968-.010543823 .72898867-.008544922 .73298647 .009460449 .7559967 .10746765 .8149872 .19146729 .9279938 .23745728 .9399872 .24145508 .94299319 .24345398 .94299319 .25045777 .94299319 .25746156 .93699648 .26046754 .93499758 .26145936 .8909912 .27845765 .769989 .3284607 .7319946 .49645997 .72898867 .5084686 .7279968 .51145938 .71099856 .51145938 .7029877 .51145938 .69099429 .51145938 .69099429 .49946595 .69099429 .49746705 .69999697 .4344635 .74198916 .36746217 .7619934 .33746339 .79100039 .30245973 .83399966 .27046205H.09098816C.07299805 .27046205 .054992677 .27046205 .054992677 .25045777 .054992677 .23046875 .07299805 .23046875 .09098816 .23046875H.83399966Z"/>
<path id="font_9_22" d="M.31900025 .18902588C.31900025 .09414673 .2689972 .024246216 .20899964 .024246216 .17098999 .024246216 .1579895 .049209596 .14299011 .06918335 .12998963 .08616638 .11299133 .10115051 .09199524 .10115051 .07299805 .10115051 .053985597 .08416748 .053985597 .064193729 .053985597 .023254395 .13899231-.0107421879 .19599915-.0107421879 .31999208-.0107421879 .4079895 .08117676 .4079895 .20700073 .4079895 .30386354 .34098817 .3908081 .22898865 .3908081 .18598938 .3908081 .14898682 .38180543 .1309967 .3748169L.15098572 .54159548C.18798828 .53759768 .21998596 .53260806 .2679901 .53260806 .2979889 .53260806 .33198548 .53460696 .37298585 .53860476L.3889923 .6074219 .38198854 .6114197C.32499696 .604599 .2709961 .5996094 .21798706 .5996094 .18099976 .5996094 .14498902 .6016083 .10998535 .604599L.07598877 .31684876C.1289978 .3368225 .16699219 .3408203 .20298767 .3408203 .2679901 .3408203 .31900025 .29786683 .31900025 .18902588Z"/>
<path id="font_9_10" d="M.2539978 .25239564C.2539978 .2973938 .25 .5283966 .041992189 .70840457 .03199768 .70640566 .023986817 .69940188 .020996094 .69140627 .053985597 .6533966 .17098999 .5153961 .17098999 .25239564 .17098999-.010604858 .052993776-.14860535 .020996094-.18460083 .023986817-.1946106 .0309906-.20159912 .041992189-.2026062 .16099549-.1006012 .2539978 .06639099 .2539978 .25239564Z"/>
<path id="font_9_41" d="M.6179962 .12213135V.52337649C.6179962 .60643008 .6349945 .61143496 .7049866 .61442568 .71099856 .6204376 .71099856 .641449 .7049866 .64746096 .6639862 .64645388 .61299136 .6454468 .57499697 .6454468 .5379944 .6454468 .48999024 .64645388 .44599916 .64746096 .43998719 .641449 .43998719 .6204376 .44599916 .61442568 .5159912 .61143496 .5329895 .60643008 .5329895 .52337649V.36328126H.19099427V.52337649C.19099427 .60643008 .20799256 .61143496 .27799989 .61442568 .28399659 .6204376 .28399659 .641449 .27799989 .64746096 .23999024 .64645388 .19898987 .6454468 .147995 .6454468 .09799194 .6454468 .056991579 .64645388 .018997193 .64746096 .0129852299 .641449 .0129852299 .6204376 .018997193 .61442568 .08898926 .61143496 .10598755 .60643008 .10598755 .52337649V.12213135C.10598755 .0390625 .08898926 .034072877 .018997193 .031066895 .0129852299 .025054932 .0129852299 .004043579 .018997193-.001953125 .06298828-.0009613037 .11099243 .000045776369 .14898682 .000045776369 .18499756 .000045776369 .23399353-.0009613037 .27799989-.001953125 .28399659 .004043579 .28399659 .025054932 .27799989 .031066895 .20799256 .034072877 .19099427 .0390625 .19099427 .12213135V.3212738H.5329895V.12213135C.5329895 .0390625 .5159912 .034072877 .44599916 .031066895 .43998719 .025054932 .43998719 .004043579 .44599916-.001953125 .4909973-.0009613037 .5389862 .000045776369 .57598879 .000045776369 .61299136 .000045776369 .6609955-.0009613037 .7049866-.001953125 .71099856 .004043579 .71099856 .025054932 .7049866 .031066895 .6349945 .034072877 .6179962 .0390625 .6179962 .12213135Z"/>
<path id="font_9_45" d="M.14898682 0H.3619995C.3889923 0 .48098756-.0020141602 .48098756-.0020141602 .4909973 .04800415 .5009918 .11305237 .5069885 .16508484 .49699403 .17008972 .48599244 .17208863 .47399903 .17008972 .45399476 .09803772 .4169922 .038986207 .31098939 .038986207H.24798584C.20899964 .038986207 .19099427 .058013917 .19099427 .10903931V.5233612C.19099427 .60643008 .20799256 .61143496 .27799989 .61442568 .28399659 .6204376 .28399659 .641449 .27799989 .64746096 .23298645 .64645388 .18598938 .6454468 .147995 .6454468 .11199951 .6454468 .06498718 .64645388 .018997193 .64746096 .0129852299 .641449 .0129852299 .6204376 .018997193 .61442568 .08898926 .61143496 .10598755 .60643008 .10598755 .5233612V.12205505C.10598755 .038986207 .08898926 .033996583 .018997193 .0309906 .0129852299 .024993897 .0129852299 .0039978029 .018997193-.0020141602 .057998659-.0010070801 .114990238 0 .14898682 0Z"/>
<path id="font_9_30" d="M.46398927 .30937196C.47698976 .30937196 .4909973 .33236695 .4909973 .34236146 .4909973 .3503723 .4869995 .359375 .47698976 .359375H.084991458C.07299805 .359375 .05999756 .34036256 .05999756 .32536317 .05999756 .31736756 .06599426 .30937196 .07499695 .30937196H.46398927M.46398927 .14335633C.47698976 .14335633 .4909973 .16635132 .4909973 .17634583 .4909973 .18435669 .4869995 .19335938 .47698976 .19335938H.084991458C.07299805 .19335938 .05999756 .17434693 .05999756 .15934754 .05999756 .15135193 .06599426 .14335633 .07499695 .14335633H.46398927Z"/>
<path id="font_9_19" d="M.06098938 .46827699C.06098938 .44725038 .07998657 .429245 .100997928 .429245 .117996219 .429245 .147995 .44725038 .147995 .4692688 .147995 .47727967 .1459961 .48327638 .14399719 .49028016 .14199829 .49728395 .13598633 .5063019 .13598633 .5142975 .13598633 .5393219 .1619873 .5753479 .23498535 .5753479 .2709961 .5753479 .32199098 .5503235 .32199098 .45425416 .32199098 .390213 .29899598 .33818055 .23999024 .2781372L.1659851 .20509339C.067993167 .105026248 .051986696 .056991579 .051986696-.0020141602 .051986696-.0020141602 .102996829 0 .1349945 0H.30999757C.34199525 0 .3880005-.0020141602 .3880005-.0020141602 .40098573 .050994874 .41099549 .1260376 .4119873 .15605164 .4059906 .16105652 .3929901 .16305542 .3829956 .16105652 .3659973 .0900116 .34899903 .06498718 .31298829 .06498718H.1349945C.1349945 .11302185 .20399475 .18107605 .20899964 .18608094L.30999757 .2831421C.36698915 .33818055 .4099884 .3822174 .4099884 .4582672 .4099884 .56632998 .32199098 .61035159 .24099732 .61035159 .12998963 .61035159 .06098938 .52830508 .06098938 .46827699Z"/>
<path id="font_23_22" d="M.30899049 .62332156C.28399659 .69433596 .20498657 .69433596 .19198609 .69433596 .18598938 .69433596 .1749878 .69433596 .1749878 .6843262 .1749878 .67633059 .18099976 .6753235 .18598938 .67433169 .20098877 .67233279 .21299744 .67033389 .22898865 .6413269 .23899842 .62231448 .34199525 .3232727 .34199525 .3212738 .34199525 .32026673 .34098817 .3192749 .33299256 .3112793L.07299805 .048233034C.06098938 .036224367 .052993776 .02822876 .052993776 .0152282719 .052993776 .0012207031 .06498718-.010772705 .08099365-.010772705 .084991458-.010772705 .09599304-.008773804 .101989749-.0027770997 .117996219 .01222229 .26098634 .18725586 .35198976 .29527284 .37799073 .21725464 .4099884 .12524414 .44099427 .041229249 .44599916 .026229859 .45098878 .01222229 .46499635-.00077819827 .47499085-.009765625 .47698976-.009765625 .5049896-.009765625H.5239868C.5279999-.009765625 .5349884-.009765625 .5349884-.0017700195 .5349884 .0022277833 .5339966 .0032196046 .5299988 .007232666 .5209961 .018234253 .5139923 .036224367 .5099945 .048233034L.30899049 .62332156Z"/>
<path id="font_9_15" d="M.056991579 .04322815C.056991579 .014221191 .08099365-.009765625 .10998535-.009765625 .13899231-.009765625 .16299439 .014221191 .16299439 .04322815 .16299439 .07221985 .13899231 .096221927 .10998535 .096221927 .08099365 .096221927 .056991579 .07221985 .056991579 .04322815Z"/>
<path id="font_9_24" d="M.16999817 .53460696H.34899903C.2709961 .3407898 .19198609 .14598084 .12399292-.005859375L.13198853-.012863159 .19999695-.009765625C.25698854 .16003418 .31199647 .32583619 .42399598 .5986023L.4079895 .6105957C.3909912 .6056061 .36898805 .5996094 .33099366 .5996094H.125C.09098816 .5996094 .09298706 .6096039 .07499695 .6136017 .07199097 .6136017 .070999149 .6136017 .070999149 .6105957 .069992069 .5626068 .05899048 .5026398 .050994874 .45069886 .06199646 .44770814 .07199097 .44670106 .08299255 .44770814 .10499573 .52760317 .13798523 .53460696 .16999817 .53460696Z"/>
<path id="font_9_23" d="M.14399719 .3432312C.17098999 .43421937 .23498535 .53523257 .36799623 .58522036 .36799623 .597229 .3639984 .6062317 .35598756 .6112213 .25498963 .58122256 .19299317 .53923037 .13699341 .4742279 .07499695 .40222169 .04399109 .31123353 .04399109 .23223877 .04399109 .029251099 .15899658-.0107421879 .23599243-.0107421879 .36698915-.0107421879 .42099 .116241458 .42099 .20223999 .42099 .28823854 .375 .36523438 .23899842 .36523438 .21299744 .36523438 .17399597 .3572235 .14399719 .3432312M.1349945 .30723573C.16799927 .32922364 .20098877 .3302307 .21798706 .3302307 .31599427 .3302307 .33799745 .23423767 .33799745 .18423462 .33799745 .07424927 .29599 .024246216 .24699402 .024246216 .18399048 .024246216 .1269989 .058242799 .1269989 .22923279 .1269989 .25222779 .1289978 .27822877 .1349945 .30723573Z"/>
<path id="font_9_25" d="M.3929901 .48532105C.3929901 .5573425 .33699037 .61035159 .23899842 .61035159 .13699341 .61035159 .070999149 .54933169 .070999149 .47232057 .070999149 .41630555 .09799194 .37530519 .15899658 .33729554L.18499756 .32128907C.1559906 .30628968 .1289978 .2882843 .10398865 .26628114 .06298828 .23027039 .04598999 .18525696 .04598999 .1462555 .04598999 .04423523 .117996219-.009765625 .22399903-.009765625 .35499574-.009765625 .4189911 .086242679 .4189911 .16226197 .4189911 .22026062 .3939972 .271286 .34098817 .3032837L.269989 .34629823C.31698609 .3692932 .3929901 .42131043 .3929901 .48532105M.22599793 .025222779C.18099976 .025222779 .11299133 .056228639 .11299133 .1462555 .11299133 .17625427 .12599182 .24627686 .21199036 .3032837L.25898744 .2752838C.32099916 .23727417 .34599305 .19026184 .34599305 .14225769 .34599305 .042236329 .2709961 .025222779 .22599793 .025222779M.23399353 .5753479C.29899598 .5753479 .32299806 .5323334 .32299806 .48632813 .32299806 .432312 .269989 .38729859 .24299622 .3672943L.21199036 .38630677C.14898682 .42730714 .14199829 .4603119 .14199829 .49131776 .14199829 .53733828 .17399597 .5753479 .23399353 .5753479Z"/>
<path id="font_9_26" d="M.32699586 .25636292C.2999878 .16534424 .23599243 .06430054 .102996829 .014282227 .102996829 .0022735596 .10699463-.006729126 .114990238-.01171875 .21598816 .01828003 .27799989 .060302736 .33399964 .12532044 .3959961 .19735718 .4269867 .2883606 .4269867 .36735536 .4269867 .570343 .31199647 .61035159 .23498535 .61035159 .10398865 .61035159 .049987794 .48335267 .049987794 .39735414 .049987794 .31137086 .09599304 .234375 .23199463 .234375 .2579956 .234375 .29699708 .2423706 .32699586 .25636292M.33599855 .2923584C.30299378 .27037049 .269989 .2693634 .25299073 .2693634 .15499878 .2693634 .1329956 .36535646 .1329956 .4153595 .1329956 .52534487 .1749878 .5753479 .22399903 .5753479 .2869873 .5753479 .34399415 .5413513 .34399415 .37036134 .34399415 .34835816 .34199525 .32136537 .33599855 .2923584Z"/>
<path id="font_9_21" d="M.42999269 .21887207H.34700013V.51123049C.34700013 .5612793 .34700013 .60032656 .34899903 .6083374L.34700013 .61035159H.31498719C.30799867 .61035159 .30299378 .6043396 .29899598 .5993347 .23599243 .52223208 .11999512 .3570404 .027999878 .21386719 .0309906 .1988678 .036987306 .171875 .066986087 .171875H.2709961V.07998657C.2709961 .03404236 .23298645 .03404236 .18998719 .031036377 .18399048 .025039673 .18399048 .004043579 .18998719-.001953125 .22200012-.0009613037 .2619934 .000045776369 .30799867 .000045776369 .34700013 .000045776369 .3849945-.0009613037 .4169922-.001953125 .4229889 .004043579 .4229889 .025039673 .4169922 .031036377 .36799623 .03503418 .34700013 .03303528 .34700013 .07998657V.171875H.41600038C.42999269 .171875 .44499208 .19087219 .44499208 .2028656 .44499208 .2128601 .44099427 .21887207 .42999269 .21887207M.2709961 .5072174V.21887207H.07998657C.1309967 .30096437 .20199585 .4131012 .2709961 .5072174Z"/>
</defs>
<path transform="matrix(1,0,0,-1,0,398.88)" d="M0 0H686.1147V398.88H0Z" fill="none"/>
<path transform="matrix(1,0,0,-1,0,398.88)" d="M66.16223 57.427896H678.4134V368.9069H66.16223Z" fill="none"/>
<g clip-path="url(#clip_1)">
<path transform="matrix(1,0,0,-1,0,398.88)" stroke-width=".8" stroke-linecap="square" stroke-linejoin="round" fill="none" stroke="#b0b0b0" stroke-opacity=".3" d="M93.99183 57.427896V368.9069"/>
</g>
<path transform="matrix(1,0,0,-1,0,398.88)" d="M93.99183 57.427896V53.927896"/>
<path transform="matrix(1,0,0,-1,0,398.88)" stroke-width=".8" stroke-linecap="butt" stroke-linejoin="round" fill="none" stroke="#000000" d="M93.99183 57.427896V53.927896"/>
<use data-text="0" xlink:href="#font_2_50" transform="matrix(19.92528,0,0,-19.92528,89.42278,362.4297)"/>
<g clip-path="url(#clip_3)">
<path transform="matrix(1,0,0,-1,0,398.88)" stroke-width=".8" stroke-linecap="square" stroke-linejoin="round" fill="none" stroke="#b0b0b0" stroke-opacity=".3" d="M189.95597 57.427896V368.9069"/>
</g>
<path transform="matrix(1,0,0,-1,0,398.88)" d="M189.95597 57.427896V53.927896"/>
<path transform="matrix(1,0,0,-1,0,398.88)" stroke-width=".8" stroke-linecap="butt" stroke-linejoin="round" fill="none" stroke="#000000" d="M189.95597 57.427896V53.927896"/>
<use data-text="5" xlink:href="#font_2_55" transform="matrix(19.92528,0,0,-19.92528,185.38692,362.4297)"/>
<g clip-path="url(#clip_4)">
<path transform="matrix(1,0,0,-1,0,398.88)" stroke-width=".8" stroke-linecap="square" stroke-linejoin="round" fill="none" stroke="#b0b0b0" stroke-opacity=".3" d="M285.92008 57.427896V368.9069"/>
</g>
<path transform="matrix(1,0,0,-1,0,398.88)" d="M285.92008 57.427896V53.927896"/>
<path transform="matrix(1,0,0,-1,0,398.88)" stroke-width=".8" stroke-linecap="butt" stroke-linejoin="round" fill="none" stroke="#000000" d="M285.92008 57.427896V53.927896"/>
<use data-text="1" xlink:href="#font_2_51" transform="matrix(19.92528,0,0,-19.92528,276.78199,362.4297)"/>
<use data-text="0" xlink:href="#font_2_50" transform="matrix(19.92528,0,0,-19.92528,285.90779,362.4297)"/>
<g clip-path="url(#clip_5)">
<path transform="matrix(1,0,0,-1,0,398.88)" stroke-width=".8" stroke-linecap="square" stroke-linejoin="round" fill="none" stroke="#b0b0b0" stroke-opacity=".3" d="M381.88423 57.427896V368.9069"/>
</g>
<path transform="matrix(1,0,0,-1,0,398.88)" d="M381.88423 57.427896V53.927896"/>
<path transform="matrix(1,0,0,-1,0,398.88)" stroke-width=".8" stroke-linecap="butt" stroke-linejoin="round" fill="none" stroke="#000000" d="M381.88423 57.427896V53.927896"/>
<use data-text="1" xlink:href="#font_2_51" transform="matrix(19.92528,0,0,-19.92528,372.74613,362.4297)"/>
<use data-text="5" xlink:href="#font_2_55" transform="matrix(19.92528,0,0,-19.92528,381.87193,362.4297)"/>
<g clip-path="url(#clip_6)">
<path transform="matrix(1,0,0,-1,0,398.88)" stroke-width=".8" stroke-linecap="square" stroke-linejoin="round" fill="none" stroke="#b0b0b0" stroke-opacity=".3" d="M477.84837 57.427896V368.9069"/>
</g>
<path transform="matrix(1,0,0,-1,0,398.88)" d="M477.84837 57.427896V53.927896"/>
<path transform="matrix(1,0,0,-1,0,398.88)" stroke-width=".8" stroke-linecap="butt" stroke-linejoin="round" fill="none" stroke="#000000" d="M477.84837 57.427896V53.927896"/>
<use data-text="2" xlink:href="#font_2_52" transform="matrix(19.92528,0,0,-19.92528,468.71028,362.4297)"/>
<use data-text="0" xlink:href="#font_2_50" transform="matrix(19.92528,0,0,-19.92528,477.83607,362.4297)"/>
<g clip-path="url(#clip_7)">
<path transform="matrix(1,0,0,-1,0,398.88)" stroke-width=".8" stroke-linecap="square" stroke-linejoin="round" fill="none" stroke="#b0b0b0" stroke-opacity=".3" d="M573.8125 57.427896V368.9069"/>
</g>
<path transform="matrix(1,0,0,-1,0,398.88)" d="M573.8125 57.427896V53.927896"/>
<path transform="matrix(1,0,0,-1,0,398.88)" stroke-width=".8" stroke-linecap="butt" stroke-linejoin="round" fill="none" stroke="#000000" d="M573.8125 57.427896V53.927896"/>
<use data-text="2" xlink:href="#font_2_52" transform="matrix(19.92528,0,0,-19.92528,564.6744,362.4297)"/>
<use data-text="5" xlink:href="#font_2_55" transform="matrix(19.92528,0,0,-19.92528,573.8002,362.4297)"/>
<g clip-path="url(#clip_8)">
<path transform="matrix(1,0,0,-1,0,398.88)" stroke-width=".8" stroke-linecap="square" stroke-linejoin="round" fill="none" stroke="#b0b0b0" stroke-opacity=".3" d="M669.7766 57.427896V368.9069"/>
</g>
<path transform="matrix(1,0,0,-1,0,398.88)" d="M669.7766 57.427896V53.927896"/>
<path transform="matrix(1,0,0,-1,0,398.88)" stroke-width=".8" stroke-linecap="butt" stroke-linejoin="round" fill="none" stroke="#000000" d="M669.7766 57.427896V53.927896"/>
<use data-text="3" xlink:href="#font_2_53" transform="matrix(19.92528,0,0,-19.92528,660.6385,362.4297)"/>
<use data-text="0" xlink:href="#font_2_50" transform="matrix(19.92528,0,0,-19.92528,669.7643,362.4297)"/>
<use data-text="R" xlink:href="#font_9_51" transform="matrix(21.917809,0,0,-21.917809,306.74266,386.5074)"/>
<use data-text="e" xlink:href="#font_9_70" transform="matrix(21.917809,0,0,-21.917809,319.5865,386.5074)"/>
<use data-text="f" xlink:href="#font_9_71" transform="matrix(21.917809,0,0,-21.917809,329.36183,386.5074)"/>
<use data-text="r" xlink:href="#font_9_83" transform="matrix(21.917809,0,0,-21.917809,336.15635,386.5074)"/>
<use data-text="e" xlink:href="#font_9_70" transform="matrix(21.917809,0,0,-21.917809,344.1125,386.5074)"/>
<use data-text="s" xlink:href="#font_9_84" transform="matrix(21.917809,0,0,-21.917809,353.88783,386.5074)"/>
<use data-text="h" xlink:href="#font_9_73" transform="matrix(21.917809,0,0,-21.917809,362.43577,386.5074)"/>
<use data-text="P" xlink:href="#font_9_49" transform="matrix(21.917809,0,0,-21.917809,379.707,386.5074)"/>
<use data-text="e" xlink:href="#font_9_70" transform="matrix(21.917809,0,0,-21.917809,391.56455,386.5074)"/>
<use data-text="r" xlink:href="#font_9_83" transform="matrix(21.917809,0,0,-21.917809,401.33988,386.5074)"/>
<use data-text="i" xlink:href="#font_9_74" transform="matrix(21.917809,0,0,-21.917809,409.47138,386.5074)"/>
<use data-text="o" xlink:href="#font_9_80" transform="matrix(21.917809,0,0,-21.917809,415.3892,386.5074)"/>
<use data-text="d" xlink:href="#font_9_69" transform="matrix(21.917809,0,0,-21.917809,426.56727,386.5074)"/>
<g clip-path="url(#clip_10)">
<path transform="matrix(1,0,0,-1,0,398.88)" stroke-width=".8" stroke-linecap="square" stroke-linejoin="round" fill="none" stroke="#b0b0b0" stroke-opacity=".3" d="M66.16223 83.384479H678.4134"/>
</g>
<path transform="matrix(1,0,0,-1,0,398.88)" d="M66.16223 83.384479H62.66223"/>
<path transform="matrix(1,0,0,-1,0,398.88)" stroke-width=".8" stroke-linecap="butt" stroke-linejoin="round" fill="none" stroke="#000000" d="M66.16223 83.384479H62.66223"/>
<use data-text="1" xlink:href="#font_2_51" transform="matrix(19.92528,0,0,-19.92528,31.747946,322.4843)"/>
<use data-text="0" xlink:href="#font_2_50" transform="matrix(19.92528,0,0,-19.92528,40.873727,322.4843)"/>
<use data-text="0" xlink:href="#font_2_50" transform="matrix(19.92528,0,0,-19.92528,49.999505,322.4843)"/>
<g clip-path="url(#clip_11)">
<path transform="matrix(1,0,0,-1,0,398.88)" stroke-width=".8" stroke-linecap="square" stroke-linejoin="round" fill="none" stroke="#b0b0b0" stroke-opacity=".3" d="M66.16223 135.29766H678.4134"/>
</g>
<path transform="matrix(1,0,0,-1,0,398.88)" d="M66.16223 135.29766H62.66223"/>
<path transform="matrix(1,0,0,-1,0,398.88)" stroke-width=".8" stroke-linecap="butt" stroke-linejoin="round" fill="none" stroke="#000000" d="M66.16223 135.29766H62.66223"/>
<use data-text="1" xlink:href="#font_2_51" transform="matrix(19.92528,0,0,-19.92528,31.747946,270.57118)"/>
<use data-text="1" xlink:href="#font_2_51" transform="matrix(19.92528,0,0,-19.92528,40.873727,270.57118)"/>
<use data-text="0" xlink:href="#font_2_50" transform="matrix(19.92528,0,0,-19.92528,49.999505,270.57118)"/>
<g clip-path="url(#clip_12)">
<path transform="matrix(1,0,0,-1,0,398.88)" stroke-width=".8" stroke-linecap="square" stroke-linejoin="round" fill="none" stroke="#b0b0b0" stroke-opacity=".3" d="M66.16223 187.21082H678.4134"/>
</g>
<path transform="matrix(1,0,0,-1,0,398.88)" d="M66.16223 187.21082H62.66223"/>
<path transform="matrix(1,0,0,-1,0,398.88)" stroke-width=".8" stroke-linecap="butt" stroke-linejoin="round" fill="none" stroke="#000000" d="M66.16223 187.21082H62.66223"/>
<use data-text="1" xlink:href="#font_2_51" transform="matrix(19.92528,0,0,-19.92528,31.747946,218.65799)"/>
<use data-text="2" xlink:href="#font_2_52" transform="matrix(19.92528,0,0,-19.92528,40.873727,218.65799)"/>
<use data-text="0" xlink:href="#font_2_50" transform="matrix(19.92528,0,0,-19.92528,49.999505,218.65799)"/>
<g clip-path="url(#clip_13)">
<path transform="matrix(1,0,0,-1,0,398.88)" stroke-width=".8" stroke-linecap="square" stroke-linejoin="round" fill="none" stroke="#b0b0b0" stroke-opacity=".3" d="M66.16223 239.12398H678.4134"/>
</g>
<path transform="matrix(1,0,0,-1,0,398.88)" d="M66.16223 239.12398H62.66223"/>
<path transform="matrix(1,0,0,-1,0,398.88)" stroke-width=".8" stroke-linecap="butt" stroke-linejoin="round" fill="none" stroke="#000000" d="M66.16223 239.12398H62.66223"/>
<use data-text="1" xlink:href="#font_2_51" transform="matrix(19.92528,0,0,-19.92528,31.747946,166.74481)"/>
<use data-text="3" xlink:href="#font_2_53" transform="matrix(19.92528,0,0,-19.92528,40.873727,166.74481)"/>
<use data-text="0" xlink:href="#font_2_50" transform="matrix(19.92528,0,0,-19.92528,49.999505,166.74481)"/>
<g clip-path="url(#clip_14)">
<path transform="matrix(1,0,0,-1,0,398.88)" stroke-width=".8" stroke-linecap="square" stroke-linejoin="round" fill="none" stroke="#b0b0b0" stroke-opacity=".3" d="M66.16223 291.03715H678.4134"/>
</g>
<path transform="matrix(1,0,0,-1,0,398.88)" d="M66.16223 291.03715H62.66223"/>
<path transform="matrix(1,0,0,-1,0,398.88)" stroke-width=".8" stroke-linecap="butt" stroke-linejoin="round" fill="none" stroke="#000000" d="M66.16223 291.03715H62.66223"/>
<use data-text="1" xlink:href="#font_2_51" transform="matrix(19.92528,0,0,-19.92528,31.747946,114.831638)"/>
<use data-text="4" xlink:href="#font_2_54" transform="matrix(19.92528,0,0,-19.92528,40.873727,114.831638)"/>
<use data-text="0" xlink:href="#font_2_50" transform="matrix(19.92528,0,0,-19.92528,49.999505,114.831638)"/>
<g clip-path="url(#clip_15)">
<path transform="matrix(1,0,0,-1,0,398.88)" stroke-width=".8" stroke-linecap="square" stroke-linejoin="round" fill="none" stroke="#b0b0b0" stroke-opacity=".3" d="M66.16223 342.95033H678.4134"/>
</g>
<path transform="matrix(1,0,0,-1,0,398.88)" d="M66.16223 342.95033H62.66223"/>
<path transform="matrix(1,0,0,-1,0,398.88)" stroke-width=".8" stroke-linecap="butt" stroke-linejoin="round" fill="none" stroke="#000000" d="M66.16223 342.95033H62.66223"/>
<use data-text="1" xlink:href="#font_2_51" transform="matrix(19.92528,0,0,-19.92528,31.747946,62.918489)"/>
<use data-text="5" xlink:href="#font_2_55" transform="matrix(19.92528,0,0,-19.92528,40.873727,62.918489)"/>
<use data-text="0" xlink:href="#font_2_50" transform="matrix(19.92528,0,0,-19.92528,49.999505,62.918489)"/>
<use data-text="P" xlink:href="#font_9_49" transform="matrix(0,-21.917809,-21.917809,-0,22.57534,208.27698)"/>
<use data-text="r" xlink:href="#font_9_83" transform="matrix(0,-21.917809,-21.917809,-0,22.57534,196.41945)"/>
<use data-text="i" xlink:href="#font_9_74" transform="matrix(0,-21.917809,-21.917809,-0,22.57534,188.28794)"/>
<use data-text="c" xlink:href="#font_9_68" transform="matrix(0,-21.917809,-21.917809,-0,22.57534,182.37012)"/>
<use data-text="e" xlink:href="#font_9_70" transform="matrix(0,-21.917809,-21.917809,-0,22.57534,172.98929)"/>
<g clip-path="url(#clip_16)">
<path transform="matrix(1,0,0,-1,0,398.88)" stroke-width="2" stroke-linecap="square" stroke-linejoin="round" fill="none" stroke="#dc3545" d="M93.99183 83.384479H113.184658 132.37749 151.57032 170.76314 189.95597L209.14879 159.40955 228.34162 213.1674 247.53444 251.17993 266.72727 278.05888 285.92008 297.06513 305.1129 310.50459 324.30574 320.00773 343.49858 326.72746 362.6914 331.479 381.88423 334.8389 401.07707 337.21467 420.26988 338.8946 439.4627 340.0825 458.65553 340.92247 477.84837 341.51643 497.04118 341.9364 516.234 342.23338 535.4268 342.44337 554.6196 342.59184 573.8125 342.69685 593.0053 342.7711 612.1981 342.82359 631.3909 342.8607 650.5838 342.88694"/>
</g>
<g clip-path="url(#clip_17)">
<path transform="matrix(1,0,0,-1,0,398.88)" stroke-width="2" stroke-linecap="square" stroke-linejoin="round" fill="none" stroke="#fd7e14" d="M93.99183 83.384479H113.184658 132.37749 151.57032 170.76314 189.95597L209.14879 111.703449 228.34162 136.93277 247.53444 159.40955 266.72727 179.43408 285.92008 197.27391 305.1129 213.1674 324.30574 227.32688 343.49858 239.94155 362.6914 251.17993 381.88423 261.1922 401.07707 270.11213 420.26988 278.05888 439.4627 285.1386 458.65553 291.44593 477.84837 297.06513 497.04118 302.07127 516.234 306.53123 535.4268 310.50459 554.6196 314.04447 573.8125 317.19813 593.0053 320.00773 612.1981 322.5108 631.3909 324.74076 650.5838 326.72746"/>
</g>
<g clip-path="url(#clip_18)">
<path transform="matrix(1,0,0,-1,0,398.88)" stroke-width="2" stroke-linecap="square" stroke-linejoin="round" fill="none" stroke="#28a745" d="M93.99183 83.384479H113.184658 132.37749 151.57032 170.76314 189.95597L209.14879 97.95279 228.34162 111.703449 247.53444 124.682338 266.72727 136.93277 285.92008 148.49565 305.1129 159.40955 324.30574 169.7109 343.49858 179.43408 362.6914 188.61154 381.88423 197.27391 401.07707 205.4501 420.26988 213.1674 439.4627 220.45156 458.65553 227.32688 477.84837 233.81633 497.04118 239.94155 516.234 245.72298 535.4268 251.17993 554.6196 256.3306 573.8125 261.1922 593.0053 265.78096 612.1981 270.11213 631.3909 274.2002 650.5838 278.05888"/>
</g>
<g clip-path="url(#clip_19)">
<path transform="matrix(1,0,0,-1,0,398.88)" stroke-width="2" stroke-linecap="square" stroke-linejoin="round" fill="none" stroke="#2962ff" d="M93.99183 83.384479H113.184658 132.37749 151.57032 170.76314 189.95597L209.14879 90.77381 228.34162 97.95279 247.53444 104.92739 266.72727 111.703449 285.92008 118.28659 305.1129 124.682338 324.30574 130.896 343.49858 136.93277 362.6914 142.7977 381.88423 148.49565 401.07707 154.0314 420.26988 159.40955 439.4627 164.6346 458.65553 169.7109 477.84837 174.6427 497.04118 179.43408 516.234 184.08908 535.4268 188.61154 554.6196 193.00528 573.8125 197.27391 593.0053 201.42104 612.1981 205.4501 631.3909 209.36447 650.5838 213.1674"/>
</g>
<g clip-path="url(#clip_20)">
<path transform="matrix(1,0,0,-1,0,398.88)" stroke-width="1.5" stroke-linecap="butt" stroke-dasharray="5.55,2.4" stroke-linejoin="round" fill="none" stroke="#000000" stroke-opacity=".7" d="M93.99183 83.384479H113.184658 132.37749 151.57032 170.76314 189.95597V342.95033H209.14879 228.34162 247.53444 266.72727 285.92008 305.1129 324.30574 343.49858 362.6914 381.88423 401.07707 420.26988 439.4627 458.65553 477.84837 497.04118 516.234 535.4268 554.6196 573.8125 593.0053 612.1981 631.3909 650.5838"/>
</g>
<g clip-path="url(#clip_21)">
<path transform="matrix(1,0,0,-1,0,398.88)" stroke-width="1.5" stroke-linecap="butt" stroke-dasharray="1.5,2.475" stroke-linejoin="round" fill="none" stroke="#808080" stroke-opacity=".5" d="M189.95597 57.427896V368.9069"/>
</g>
<path transform="matrix(1,0,0,-1,0,398.88)" stroke-width=".8" stroke-linecap="square" stroke-miterlimit="10" stroke-linejoin="miter" fill="none" stroke="#000000" d="M66.16223 57.427896V368.9069"/>
<path transform="matrix(1,0,0,-1,0,398.88)" stroke-width=".8" stroke-linecap="square" stroke-miterlimit="10" stroke-linejoin="miter" fill="none" stroke="#000000" d="M678.4134 57.427896V368.9069"/>
<path transform="matrix(1,0,0,-1,0,398.88)" stroke-width=".8" stroke-linecap="square" stroke-miterlimit="10" stroke-linejoin="miter" fill="none" stroke="#000000" d="M66.16223 57.427896H678.4134"/>
<path transform="matrix(1,0,0,-1,0,398.88)" stroke-width=".8" stroke-linecap="square" stroke-miterlimit="10" stroke-linejoin="miter" fill="none" stroke="#000000" d="M66.16223 368.9069H678.4134"/>
<use data-text="T" xlink:href="#font_9_53" transform="matrix(23.910336,0,0,-23.910336,156.8796,23.973114)"/>
<use data-text="W" xlink:href="#font_9_56" transform="matrix(23.910336,0,0,-23.910336,171.72792,23.973114)"/>
<use data-text="A" xlink:href="#font_9_34" transform="matrix(23.910336,0,0,-23.910336,191.78867,23.973114)"/>
<use data-text="P" xlink:href="#font_9_49" transform="matrix(23.910336,0,0,-23.910336,208.38245,23.973114)"/>
<use data-text="R" xlink:href="#font_9_51" transform="matrix(23.910336,0,0,-23.910336,227.29552,23.973114)"/>
<use data-text="e" xlink:href="#font_9_70" transform="matrix(23.910336,0,0,-23.910336,241.30698,23.973114)"/>
<use data-text="s" xlink:href="#font_9_84" transform="matrix(23.910336,0,0,-23.910336,251.971,23.973114)"/>
<use data-text="p" xlink:href="#font_9_81" transform="matrix(23.910336,0,0,-23.910336,261.29603,23.973114)"/>
<use data-text="o" xlink:href="#font_9_80" transform="matrix(23.910336,0,0,-23.910336,273.87284,23.973114)"/>
<use data-text="n" xlink:href="#font_9_79" transform="matrix(23.910336,0,0,-23.910336,285.89973,23.973114)"/>
<use data-text="s" xlink:href="#font_9_84" transform="matrix(23.910336,0,0,-23.910336,298.8352,23.973114)"/>
<use data-text="e" xlink:href="#font_9_70" transform="matrix(23.910336,0,0,-23.910336,308.16026,23.973114)"/>
<use data-text="t" xlink:href="#font_9_85" transform="matrix(23.910336,0,0,-23.910336,324.80183,23.973114)"/>
<use data-text="o" xlink:href="#font_9_80" transform="matrix(23.910336,0,0,-23.910336,332.3336,23.973114)"/>
<use data-text="P" xlink:href="#font_9_49" transform="matrix(23.910336,0,0,-23.910336,350.33805,23.973114)"/>
<use data-text="r" xlink:href="#font_9_83" transform="matrix(23.910336,0,0,-23.910336,363.27354,23.973114)"/>
<use data-text="i" xlink:href="#font_9_74" transform="matrix(23.910336,0,0,-23.910336,372.14427,23.973114)"/>
<use data-text="c" xlink:href="#font_9_68" transform="matrix(23.910336,0,0,-23.910336,378.60005,23.973114)"/>
<use data-text="e" xlink:href="#font_9_70" transform="matrix(23.910336,0,0,-23.910336,388.83366,23.973114)"/>
<use data-text="S" xlink:href="#font_9_52" transform="matrix(23.910336,0,0,-23.910336,405.47523,23.973114)"/>
<use data-text="h" xlink:href="#font_9_73" transform="matrix(23.910336,0,0,-23.910336,417.04783,23.973114)"/>
<use data-text="o" xlink:href="#font_9_80" transform="matrix(23.910336,0,0,-23.910336,429.9116,23.973114)"/>
<use data-text="c" xlink:href="#font_9_68" transform="matrix(23.910336,0,0,-23.910336,442.10585,23.973114)"/>
<use data-text="k" xlink:href="#font_9_76" transform="matrix(23.910336,0,0,-23.910336,452.33946,23.973114)"/>
<use data-text="(" xlink:href="#font_9_9" transform="matrix(23.910336,0,0,-23.910336,470.5591,23.973114)"/>
<use data-text="1" xlink:href="#font_9_18" transform="matrix(23.910336,0,0,-23.910336,477.6844,23.973114)"/>
<use data-text="0" xlink:href="#font_9_17" transform="matrix(23.910336,0,0,-23.910336,488.8027,23.973114)"/>
<use data-text="0" xlink:href="#font_9_17" transform="matrix(23.910336,0,0,-23.910336,499.92103,23.973114)"/>
<use data-text="&#x2192;" xlink:href="#font_22_34" transform="matrix(23.910336,0,0,-23.910336,517.3278,23.973114)"/>
<use data-text="1" xlink:href="#font_9_18" transform="matrix(23.910336,0,0,-23.910336,547.2158,23.973114)"/>
<use data-text="5" xlink:href="#font_9_22" transform="matrix(23.910336,0,0,-23.910336,558.3341,23.973114)"/>
<use data-text="0" xlink:href="#font_9_17" transform="matrix(23.910336,0,0,-23.910336,569.4524,23.973114)"/>
<use data-text=")" xlink:href="#font_9_10" transform="matrix(23.910336,0,0,-23.910336,580.5707,23.973114)"/>
<g>
<path transform="matrix(1,0,0,-1,0,398.88)" d="M465.21687 67.427898H664.4134C667.08 67.427898 668.4134 68.76123 668.4134 71.427898V212.93973C668.4134 215.6064 667.08 216.93973 664.4134 216.93973H465.21687C462.5502 216.93973 461.21687 215.6064 461.21687 212.93973V71.427898C461.21687 68.76123 462.5502 67.427898 465.21687 67.427898Z" fill="#ffffff" fill-opacity=".8"/>
<path transform="matrix(1,0,0,-1,0,398.88)" stroke-width="1" stroke-linecap="butt" stroke-miterlimit="10" stroke-linejoin="miter" fill="none" stroke="#cccccc" stroke-opacity=".8" d="M465.21687 67.427898H664.4134C667.08 67.427898 668.4134 68.76123 668.4134 71.427898V212.93973C668.4134 215.6064 667.08 216.93973 664.4134 216.93973H465.21687C462.5502 216.93973 461.21687 215.6064 461.21687 212.93973V71.427898C461.21687 68.76123 462.5502 67.427898 465.21687 67.427898Z"/>
</g>
<path transform="matrix(1,0,0,-1,0,398.88)" stroke-width="2" stroke-linecap="square" stroke-linejoin="round" fill="none" stroke="#dc3545" d="M469.21687 201.93973H489.21687 509.21687"/>
<use data-text="H" xlink:href="#font_9_41" transform="matrix(19.92528,0,0,-19.92528,525.21688,203.94028)"/>
<use data-text="L" xlink:href="#font_9_45" transform="matrix(19.92528,0,0,-19.92528,539.7424,203.94028)"/>
<use data-text="=" xlink:href="#font_9_30" transform="matrix(19.92528,0,0,-19.92528,550.243,203.94028)"/>
<use data-text="2" xlink:href="#font_9_19" transform="matrix(19.92528,0,0,-19.92528,561.2019,203.94028)"/>
<use data-text="(" xlink:href="#font_9_9" transform="matrix(19.92528,0,0,-19.92528,575.4485,203.94028)"/>
<use data-text="&#x03bb;" xlink:href="#font_23_22" transform="matrix(19.92528,0,0,-19.92528,581.4261,203.94028)"/>
<use data-text="=" xlink:href="#font_9_30" transform="matrix(19.92528,0,0,-19.92528,592.8069,203.94028)"/>
<use data-text="0" xlink:href="#font_9_17" transform="matrix(19.92528,0,0,-19.92528,603.7658,203.94028)"/>
<use data-text="." xlink:href="#font_9_15" transform="matrix(19.92528,0,0,-19.92528,613.03109,203.94028)"/>
<use data-text="7" xlink:href="#font_9_24" transform="matrix(19.92528,0,0,-19.92528,617.4146,203.94028)"/>
<use data-text="0" xlink:href="#font_9_17" transform="matrix(19.92528,0,0,-19.92528,626.6799,203.94028)"/>
<use data-text="7" xlink:href="#font_9_24" transform="matrix(19.92528,0,0,-19.92528,635.9451,203.94028)"/>
<use data-text=")" xlink:href="#font_9_10" transform="matrix(19.92528,0,0,-19.92528,645.2104,203.94028)"/>
<path transform="matrix(1,0,0,-1,0,398.88)" stroke-width="2" stroke-linecap="square" stroke-linejoin="round" fill="none" stroke="#fd7e14" d="M469.21687 173.23737H489.21687 509.21687"/>
<use data-text="H" xlink:href="#font_9_41" transform="matrix(19.92528,0,0,-19.92528,525.21688,232.64264)"/>
<use data-text="L" xlink:href="#font_9_45" transform="matrix(19.92528,0,0,-19.92528,539.7424,232.64264)"/>
<use data-text="=" xlink:href="#font_9_30" transform="matrix(19.92528,0,0,-19.92528,550.243,232.64264)"/>
<use data-text="6" xlink:href="#font_9_23" transform="matrix(19.92528,0,0,-19.92528,561.2019,232.64264)"/>
<use data-text="(" xlink:href="#font_9_9" transform="matrix(19.92528,0,0,-19.92528,575.4485,232.64264)"/>
<use data-text="&#x03bb;" xlink:href="#font_23_22" transform="matrix(19.92528,0,0,-19.92528,581.4261,232.64264)"/>
<use data-text="=" xlink:href="#font_9_30" transform="matrix(19.92528,0,0,-19.92528,592.8069,232.64264)"/>
<use data-text="0" xlink:href="#font_9_17" transform="matrix(19.92528,0,0,-19.92528,603.7658,232.64264)"/>
<use data-text="." xlink:href="#font_9_15" transform="matrix(19.92528,0,0,-19.92528,613.03109,232.64264)"/>
<use data-text="8" xlink:href="#font_9_25" transform="matrix(19.92528,0,0,-19.92528,617.4146,232.64264)"/>
<use data-text="9" xlink:href="#font_9_26" transform="matrix(19.92528,0,0,-19.92528,626.6799,232.64264)"/>
<use data-text="1" xlink:href="#font_9_18" transform="matrix(19.92528,0,0,-19.92528,635.9451,232.64264)"/>
<use data-text=")" xlink:href="#font_9_10" transform="matrix(19.92528,0,0,-19.92528,645.2104,232.64264)"/>
<path transform="matrix(1,0,0,-1,0,398.88)" stroke-width="2" stroke-linecap="square" stroke-linejoin="round" fill="none" stroke="#28a745" d="M469.21687 144.535H489.21687 509.21687"/>
<use data-text="H" xlink:href="#font_9_41" transform="matrix(19.92528,0,0,-19.92528,525.21688,261.345)"/>
<use data-text="L" xlink:href="#font_9_45" transform="matrix(19.92528,0,0,-19.92528,539.7424,261.345)"/>
<use data-text="=" xlink:href="#font_9_30" transform="matrix(19.92528,0,0,-19.92528,550.243,261.345)"/>
<use data-text="1" xlink:href="#font_9_18" transform="matrix(19.92528,0,0,-19.92528,561.2019,261.345)"/>
<use data-text="2" xlink:href="#font_9_19" transform="matrix(19.92528,0,0,-19.92528,570.46719,261.345)"/>
<use data-text="(" xlink:href="#font_9_9" transform="matrix(19.92528,0,0,-19.92528,584.71377,261.345)"/>
<use data-text="&#x03bb;" xlink:href="#font_23_22" transform="matrix(19.92528,0,0,-19.92528,590.69137,261.345)"/>
<use data-text="=" xlink:href="#font_9_30" transform="matrix(19.92528,0,0,-19.92528,602.07217,261.345)"/>
<use data-text="0" xlink:href="#font_9_17" transform="matrix(19.92528,0,0,-19.92528,613.03109,261.345)"/>
<use data-text="." xlink:href="#font_9_15" transform="matrix(19.92528,0,0,-19.92528,622.2963,261.345)"/>
<use data-text="9" xlink:href="#font_9_26" transform="matrix(19.92528,0,0,-19.92528,626.6799,261.345)"/>
<use data-text="4" xlink:href="#font_9_21" transform="matrix(19.92528,0,0,-19.92528,635.9451,261.345)"/>
<use data-text="4" xlink:href="#font_9_21" transform="matrix(19.92528,0,0,-19.92528,645.2104,261.345)"/>
<use data-text=")" xlink:href="#font_9_10" transform="matrix(19.92528,0,0,-19.92528,654.47567,261.345)"/>
<path transform="matrix(1,0,0,-1,0,398.88)" stroke-width="2" stroke-linecap="square" stroke-linejoin="round" fill="none" stroke="#2962ff" d="M469.21687 115.83263H489.21687 509.21687"/>
<use data-text="H" xlink:href="#font_9_41" transform="matrix(19.92528,0,0,-19.92528,525.21688,290.04737)"/>
<use data-text="L" xlink:href="#font_9_45" transform="matrix(19.92528,0,0,-19.92528,539.7424,290.04737)"/>
<use data-text="=" xlink:href="#font_9_30" transform="matrix(19.92528,0,0,-19.92528,550.243,290.04737)"/>
<use data-text="2" xlink:href="#font_9_19" transform="matrix(19.92528,0,0,-19.92528,561.2019,290.04737)"/>
<use data-text="4" xlink:href="#font_9_21" transform="matrix(19.92528,0,0,-19.92528,570.46719,290.04737)"/>
<use data-text="(" xlink:href="#font_9_9" transform="matrix(19.92528,0,0,-19.92528,584.71377,290.04737)"/>
<use data-text="&#x03bb;" xlink:href="#font_23_22" transform="matrix(19.92528,0,0,-19.92528,590.69137,290.04737)"/>
<use data-text="=" xlink:href="#font_9_30" transform="matrix(19.92528,0,0,-19.92528,602.07217,290.04737)"/>
<use data-text="0" xlink:href="#font_9_17" transform="matrix(19.92528,0,0,-19.92528,613.03109,290.04737)"/>
<use data-text="." xlink:href="#font_9_15" transform="matrix(19.92528,0,0,-19.92528,622.2963,290.04737)"/>
<use data-text="9" xlink:href="#font_9_26" transform="matrix(19.92528,0,0,-19.92528,626.6799,290.04737)"/>
<use data-text="7" xlink:href="#font_9_24" transform="matrix(19.92528,0,0,-19.92528,635.9451,290.04737)"/>
<use data-text="2" xlink:href="#font_9_19" transform="matrix(19.92528,0,0,-19.92528,645.2104,290.04737)"/>
<use data-text=")" xlink:href="#font_9_10" transform="matrix(19.92528,0,0,-19.92528,654.47567,290.04737)"/>
<path transform="matrix(1,0,0,-1,0,398.88)" stroke-width="1.5" stroke-linecap="butt" stroke-dasharray="5.55,2.4" stroke-linejoin="round" fill="none" stroke="#000000" stroke-opacity=".7" d="M469.21687 87.130268H489.21687 509.21687"/>
<use data-text="S" xlink:href="#font_9_52" transform="matrix(19.92528,0,0,-19.92528,525.21688,318.74977)"/>
<use data-text="p" xlink:href="#font_9_81" transform="matrix(19.92528,0,0,-19.92528,534.8607,318.74977)"/>
<use data-text="o" xlink:href="#font_9_80" transform="matrix(19.92528,0,0,-19.92528,545.34146,318.74977)"/>
<use data-text="t" xlink:href="#font_9_85" transform="matrix(19.92528,0,0,-19.92528,555.36386,318.74977)"/>
<use data-text="P" xlink:href="#font_9_49" transform="matrix(19.92528,0,0,-19.92528,566.62167,318.74977)"/>
<use data-text="r" xlink:href="#font_9_83" transform="matrix(19.92528,0,0,-19.92528,577.40127,318.74977)"/>
<use data-text="i" xlink:href="#font_9_74" transform="matrix(19.92528,0,0,-19.92528,584.7935,318.74977)"/>
<use data-text="c" xlink:href="#font_9_68" transform="matrix(19.92528,0,0,-19.92528,590.17337,318.74977)"/>
<use data-text="e" xlink:href="#font_9_70" transform="matrix(19.92528,0,0,-19.92528,598.70138,318.74977)"/>
</svg>
