<svg xmlns="http://www.w3.org/2000/svg" xmlns:xlink="http://www.w3.org/1999/xlink" version="1.1" width="686.06228pt" height="398.88pt" viewBox="0 0 686.06228 398.88">
<defs>
<clipPath id="clip_1">
<path transform="matrix(1,0,0,-1,0,398.88)" d="M62.443574 57.427896H678.4133V368.9069H62.443574Z"/>
</clipPath>
<path id="font_2_50" d="M.41999818 .3212433C.41999818 .38223268 .4189911 .4861908 .3769989 .5661621 .33999635 .6361389 .2809906 .6611328 .22898865 .6611328 .18099976 .6611328 .11999512 .63912966 .08198547 .56715396 .041992189 .4921875 .037994386 .3992157 .037994386 .3212433 .037994386 .26426698 .038986207 .17730713 .069992069 .10133362 .11299133-.0016326904 .18998719-.015625 .22898865-.015625 .2749939-.015625 .34498597 .0033721924 .38598634 .09832764 .41600038 .16731262 .41999818 .24827576 .41999818 .3212433M.22898865 .00036621095C.16499329 .00036621095 .1269989 .055343629 .11299133 .13131714 .101989749 .19029236 .101989749 .27626039 .101989749 .33224488 .101989749 .4092102 .101989749 .4731903 .114990238 .5341644 .13398743 .6191406 .18998719 .64512637 .22898865 .64512637 .269989 .64512637 .32299806 .61813357 .34199525 .53616335 .35499574 .479187 .35598756 .4122162 .35598756 .33224488 .35598756 .26727296 .35598756 .18730164 .34399415 .12832642 .32299806 .019363404 .2639923 .00036621095 .22898865 .00036621095Z"/>
<clipPath id="clip_3">
<path transform="matrix(1,0,0,-1,0,398.88)" d="M62.443574 57.427896H678.4133V368.9069H62.443574Z"/>
</clipPath>
<path id="font_2_55" d="M.11399841 .58535769C.12399292 .5813446 .16499329 .5683594 .20698548 .5683594 .2999878 .5683594 .35099793 .61834719 .37998963 .64715579 .37998963 .65515139 .37998963 .66015627 .37399293 .66015627 .37298585 .66015627 .37098695 .66015627 .36299134 .6561432 .32798768 .6411438 .2869873 .62934878 .23699951 .62934878 .20698548 .62934878 .1619873 .6332855 .11299133 .65515139 .101989749 .66015627 .099990848 .66015627 .09899902 .66015627 .09399414 .66015627 .09298706 .65914919 .09298706 .63916018V.34931947C.09298706 .33129884 .09298706 .32629396 .102996829 .32629396 .10798645 .32629396 .10998535 .32829286 .114990238 .33529664 .14698792 .3803711 .19099427 .39941407 .24099732 .39941407 .27598573 .39941407 .35099793 .3773651 .35099793 .20610047 .35099793 .17408753 .35099793 .116119388 .32099916 .07022095 .29599 .029312134 .25698854 .008361816 .21398926 .008361816 .147995 .008361816 .08099365 .054260255 .06298828 .13108826 .066986087 .13009644 .07499695 .12809754 .07899475 .12809754 .09199524 .12809754 .116989139 .13510132 .116989139 .16609192 .116989139 .19309998 .09799194 .20410156 .07899475 .20410156 .055999757 .20410156 .040985109 .190094 .040985109 .16209412 .040985109 .07521057 .10998535-.015625 .21598816-.015625 .31900025-.015625 .4169922 .07322693 .4169922 .2020874 .4169922 .32228089 .33898927 .41540528 .24198914 .41540528 .19099427 .41540528 .147995 .39640809 .11399841 .3603363V.58535769Z"/>
<clipPath id="clip_4">
<path transform="matrix(1,0,0,-1,0,398.88)" d="M62.443574 57.427896H678.4133V368.9069H62.443574Z"/>
</clipPath>
<path id="font_2_51" d="M.2659912 .63912966C.2659912 .66012576 .2649994 .6611328 .25099183 .6611328 .21199036 .61424258 .15299988 .5993042 .09700012 .5973053 .09399414 .5973053 .08898926 .5973053 .08799744 .5953064 .08699036 .5933075 .08699036 .5913086 .08699036 .5703125 .117996219 .5703125 .16999817 .5763092 .20999146 .600296V.073013309C.20999146 .037994386 .20799256 .025985718 .12199402 .025985718H.09199524V0C.13999939 .0009918213 .18998719 .0019989014 .23799134 .0019989014 .28599549 .0019989014 .33599855 .0009918213 .38398744 0V.025985718H.35398866C.2679901 .025985718 .2659912 .037002565 .2659912 .073013309V.63912966Z"/>
<clipPath id="clip_5">
<path transform="matrix(1,0,0,-1,0,398.88)" d="M62.443574 57.427896H678.4133V368.9069H62.443574Z"/>
</clipPath>
<clipPath id="clip_6">
<path transform="matrix(1,0,0,-1,0,398.88)" d="M62.443574 57.427896H678.4133V368.9069H62.443574Z"/>
</clipPath>
<path id="font_2_52" d="M.4169922 .15492249H.39898683C.3889923 .083969119 .3809967 .07197571 .3769989 .06599426 .37199403 .057998659 .2999878 .057998659 .28599549 .057998659H.09399414C.12998963 .096969608 .19999695 .16792298 .2849884 .24986267 .34599305 .30781556 .4169922 .37576295 .4169922 .47473146 .4169922 .59298709 .32299806 .6611328 .21798706 .6611328 .10798645 .6611328 .040985109 .5639038 .040985109 .47373963 .040985109 .43473817 .069992069 .42973329 .08198547 .42973329 .09199524 .42973329 .12199402 .43572999 .12199402 .47073365 .12199402 .5017395 .09599304 .5107422 .08198547 .5107422 .07598877 .5107422 .069992069 .5097351 .06599426 .5077362 .084991458 .59298709 .14299011 .63513186 .20399475 .63513186 .29100038 .63513186 .34799195 .5659027 .34799195 .47473146 .34799195 .38775636 .29699708 .31282044 .23999024 .24786377L.040985109 .022994996V0H.3929901L.4169922 .15492249Z"/>
<clipPath id="clip_7">
<path transform="matrix(1,0,0,-1,0,398.88)" d="M62.443574 57.427896H678.4133V368.9069H62.443574Z"/>
</clipPath>
<clipPath id="clip_8">
<path transform="matrix(1,0,0,-1,0,398.88)" d="M62.443574 57.427896H678.4133V368.9069H62.443574Z"/>
</clipPath>
<path id="font_2_53" d="M.22099304 .34036256C.30999757 .34036256 .34899903 .2633667 .34899903 .17434693 .34899903 .054367067 .2849884 .008361816 .22698975 .008361816 .17399597 .008361816 .08799744 .034362794 .06098938 .11135864 .06599426 .10934448 .070999149 .10934448 .07598877 .10934448 .099990848 .10934448 .117996219 .12535095 .117996219 .15135193 .117996219 .18035889 .09599304 .19335938 .07598877 .19335938 .05899048 .19335938 .032989503 .18534851 .032989503 .14834595 .032989503 .056365968 .12298584-.015625 .22898865-.015625 .33999635-.015625 .4249878 .0713501 .4249878 .1733551 .4249878 .27035523 .34498597 .34036256 .25 .35136415 .32598878 .3673706 .39898683 .43536378 .39898683 .5263672 .39898683 .6042328 .31999208 .6611328 .22999573 .6611328 .13899231 .6611328 .05899048 .6052246 .05899048 .5253601 .05899048 .4903717 .084991458 .484375 .09799194 .484375 .11898804 .484375 .13699341 .49736024 .13699341 .5233612 .13699341 .5493622 .11898804 .5623627 .09799194 .5623627 .09399414 .5623627 .08898926 .5623627 .084991458 .56036379 .11399841 .62615969 .19299317 .63812258 .22799683 .63812258 .2630005 .63812258 .32899476 .6211853 .32899476 .5253601 .32899476 .49736024 .32499696 .44737245 .29100038 .4033661 .26098634 .36436463 .22698975 .36236573 .19400025 .359375 .18899536 .359375 .1659851 .35736085 .1619873 .35736085 .15499878 .35636903 .15098572 .35536195 .15098572 .3483734 .15098572 .34136964 .1519928 .34036256 .17199707 .34036256H.22099304Z"/>
<path id="font_9_49" d="M.10398865 .5233002V.12210083C.10398865 .03904724 .08699036 .03404236 .016998291 .031036377 .010986328 .025039673 .010986328 .004043579 .016998291-.001953125 .06199646-.0009613037 .11099243 .000045776369 .14698792 .000045776369 .18199158 .000045776369 .24099732-.0009613037 .29100038-.001953125 .29699708 .004043579 .29699708 .025039673 .29100038 .031036377 .21299744 .03504944 .18899536 .03904724 .18899536 .12210083V.29222108C.21099854 .2852173 .23498535 .28222657 .269989 .28222657 .45199586 .28222657 .5069885 .40124513 .5069885 .48628236 .5069885 .54530337 .46798707 .65234377 .2829895 .65234377 .24499512 .65234377 .18598938 .64533999 .1459961 .64533999 .10899353 .6454468 .056991579 .64645388 .016998291 .64746096 .010986328 .641449 .010986328 .6204376 .016998291 .61442568 .08699036 .6113281 .10398865 .6063385 .10398865 .5233002M.18899536 .55430606C.18899536 .58332827 .20399475 .6183319 .27598573 .6183319 .34498597 .6183319 .4139862 .59532168 .4139862 .46827699 .4139862 .3602295 .3619995 .31622315 .2649994 .31622315 .23999024 .31622315 .19999695 .31822206 .18899536 .32122804V.55430606Z"/>
<path id="font_9_70" d="M.38598634 .093185428C.34899903 .055221559 .31999208 .039230348 .2619934 .039230348 .22599793 .039230348 .18399048 .06021118 .15299988 .11117554 .1329956 .14414978 .12098694 .19012451 .12098694 .24809265L.3869934 .24609375C.39898683 .24609375 .4059906 .25209046 .4059906 .26309205 .4059906 .3467865 .37599183 .43652345 .23699951 .43652345 .1499939 .43652345 .036987306 .35375978 .036987306 .20211792 .036987306 .14614868 .050994874 .0921936 .083999637 .054214479 .117996219 .014221191 .16499329-.009765625 .23699951-.009765625 .31298829-.009765625 .36698915 .025222779 .40699769 .077194217 .4039917 .08718872 .397995 .0921936 .38598634 .093185428M.12399292 .28208924C.14299011 .39456178 .21299744 .40351869 .23699951 .40351869 .2749939 .40351869 .31999208 .38261415 .31999208 .2990265 .31999208 .29006959 .31599427 .28507997 .30499269 .28507997L.12399292 .28208924Z"/>
<path id="font_9_83" d="M.17599488 .35830689C.17399597 .39834596 .17298889 .42436219 .16799927 .43437196 .1659851 .43937684 .1639862 .4423828 .1559906 .4423828 .12799073 .43136598 .101989749 .42236329 .032989503 .4133606 .0309906 .40734864 .032989503 .39134217 .034988405 .3853302 .08898926 .38032533 .099990848 .37532044 .099990848 .317276V.12213135C.099990848 .03907776 .08799744 .035064699 .025985718 .031066895 .019989014 .025054932 .019989014 .004043579 .025985718-.001953125 .06098938-.0009613037 .099990848 .000045776369 .13999939 .000045776369 .17999268 .000045776369 .22599793-.0009613037 .26098634-.001953125 .2669983 .004043579 .2669983 .025054932 .26098634 .031066895 .19099427 .036071779 .1789856 .03907776 .1789856 .12213135V.26124574C.1789856 .28735353 .19099427 .31037904 .20298767 .32839967 .21398926 .34440614 .23699951 .3774414 .24899292 .3774414 .2579956 .3774414 .2669983 .3754425 .2749939 .36442567 .28199769 .3544464 .2939911 .34144593 .31098939 .34144593 .33499146 .34144593 .35798646 .36643983 .35798646 .39144898 .35798646 .41044618 .33999635 .43945313 .2979889 .43945313 .25099183 .43945313 .20999146 .39544679 .18699646 .35643006 .18099976 .3453064 .17599488 .35331727 .17599488 .35830689Z"/>
<path id="font_9_74" d="M.18099976 .12213135V.32128907C.18099976 .37132264 .18499756 .43537904 .18499756 .43537904 .18499756 .43937684 .17999268 .4423828 .17199707 .4423828 .14399719 .43136598 .10398865 .42236329 .034988405 .4133606 .032989503 .40734864 .034988405 .39134217 .036987306 .3853302 .09199524 .38032533 .101989749 .3743286 .101989749 .317276V.12213135C.101989749 .03907776 .09098816 .036071779 .02999878 .031066895 .023986817 .025054932 .023986817 .004043579 .02999878-.001953125 .06298828-.0009613037 .101989749 .000045776369 .14199829 .000045776369 .18199158 .000045776369 .21998596-.0009613037 .25299073-.001953125 .25898744 .004043579 .25898744 .025054932 .25299073 .031066895 .19198609 .035064699 .18099976 .03907776 .18099976 .12213135M.08999634 .5994568C.08999634 .5734558 .11399841 .54745486 .13798523 .54745486 .1659851 .54745486 .18998719 .57444766 .18998719 .595459 .18998719 .6194458 .16899109 .64746096 .14199829 .64746096 .117996219 .64746096 .08999634 .6234436 .08999634 .5994415V.5994568Z"/>
<path id="font_9_80" d="M.040985109 .20533753C.040985109 .103271488 .10899353-.009765625 .25099183-.009765625 .31498719-.009765625 .3639984 .01322937 .397995 .04623413 .44299317 .090270999 .46299745 .15330506 .46299745 .21434021 .46299745 .31840516 .4059906 .43945313 .25299073 .43945313 .18699646 .43945313 .1329956 .41244508 .09599304 .36943055 .05999756 .32640077 .040985109 .26837159 .040985109 .20533753M.23799134 .40444947C.32398988 .40444947 .3769989 .32640077 .3769989 .18231201 .3769989 .056243898 .31199647 .025222779 .2649994 .025222779 .16099549 .025222779 .1269989 .15130615 .1269989 .22834778 .1269989 .31539918 .147995 .40444947 .23799134 .40444947Z"/>
<path id="font_9_69" d="M.33399964 .050231935C.33898927 .054229738 .34799195 .056243898 .34899903 .049240114 .35198976 .025222779 .3600006-.009765625 .3600006-.009765625 .36799623-.012771606 .37298585-.011779785 .3789978-.009765625 .40098573 .008270264 .43598939 .023269654 .49699403 .030273438 .5029907 .03627014 .5029907 .05126953 .49699403 .057266237 .43299867 .06227112 .42399598 .08128357 .42399598 .13031006V.58332827C.42399598 .64826968 .42799378 .6882324 .42799378 .6882324 .42799378 .6952362 .42399598 .6982422 .4149933 .6982422 .3899994 .68859866 .31498719 .67459109 .2749939 .67160037 .272995 .6635895 .2749939 .64759829 .2809906 .64160159 .28399659 .64160159 .2869873 .64160159 .2899933 .64160159 .33399964 .6385956 .34498597 .6385956 .34498597 .5595398V.43144227C.34498597 .42443849 .34298707 .42243959 .33599855 .42243959 .33198548 .42243959 .29100038 .43945313 .2579956 .43945313 .19198609 .43945313 .147995 .41744996 .10798645 .37942506 .06498718 .33641053 .038986207 .27737428 .038986207 .20332337 .038986207 .08024597 .100997928-.009765625 .20899964-.009765625 .24798584-.009765625 .2849884 .010223389 .33399964 .050231935M.34498597 .12428284C.34498597 .105270389 .34298707 .09725952 .32899476 .085250858 .2919922 .053237916 .2599945 .037231447 .23498535 .037231447 .18099976 .037231447 .125 .0962677 .125 .221344 .125 .29338075 .13899231 .33340455 .1539917 .3544159 .18499756 .40144349 .22698975 .40444947 .24699402 .40444947 .2829895 .40444947 .30799867 .39143373 .32798768 .36842347 .34199525 .352417 .34498597 .3454132 .34498597 .3143921V.12428284Z"/>
<path id="font_9_84" d="M.04798889 .13815308C.051986696 .08909607 .054992677 .042037965 .054992677 0 .06498718 .0019989014 .07499695 .0029907227 .07998657 .0029907227 .08699036 .0032196046 .09298706 .0032196046 .099990848 .0012207031 .1269989-.0057678224 .1539917-.009765625 .19099427-.009765625 .24699402-.009765625 .34999085 .017227173 .34999085 .11628723 .34999085 .18431092 .30099488 .22433472 .23298645 .24935913 .17298889 .27236939 .1329956 .28738404 .1329956 .34240724 .1329956 .3834381 .16899109 .40644837 .20298767 .40644837 .22499085 .40644837 .2829895 .3984375 .29599 .313385 .3019867 .3073883 .32199098 .3083954 .32798768 .3143921 .33099366 .35040284 .33299256 .38742066 .33399964 .42044068 .30299378 .42544557 .25498963 .43945313 .20298767 .43945313 .1289978 .43945313 .06199646 .39143373 .06199646 .32739259 .06199646 .254364 .09498596 .2233429 .17199707 .1913147 .25498963 .15730286 .27398683 .1362915 .27398683 .09326172 .27398683 .04423523 .22599793 .023223877 .18899536 .023223877 .1499939 .023223877 .12799073 .036239625 .117996219 .04724121 .09599304 .070251468 .084991458 .11427307 .07899475 .13929749 .07299805 .14515686 .053985597 .14414978 .04798889 .13815308Z"/>
<path id="font_9_34" d="M.15499878 .079071048 .20999146 .22418213C.21499634 .23719788 .22099304 .24119568 .24499512 .24119568H.45599366L.5139923 .07206726C.526001 .03804016 .48799134 .03404236 .43998719 .031036377 .43399049 .025039673 .43399049 .004043579 .43998719-.001953125 .47698976-.0009613037 .5319977 .000045776369 .57099917 .000045776369 .6119995 .000045776369 .6499939-.0009613037 .68499758-.001953125 .69099429 .004043579 .69099429 .025039673 .68499758 .031036377 .6459961 .03504944 .6119995 .03804016 .59498599 .08607483L.3889923 .6582031C.37399293 .64920046 .34700013 .63819888 .33399964 .63819888L.10699463 .10209656C.08099365 .040039064 .050994874 .03404236 .0069885256 .031036377 .0009918213 .025039673 .0009918213 .004043579 .0069885256-.001953125 .032989503-.0009613037 .06599426 .000045776369 .09599304 .000045776369 .13699341 .000045776369 .18699646-.0009613037 .22399903-.001953125 .22999573 .004043579 .22999573 .025039673 .22399903 .031036377 .18598938 .03404236 .13899231 .03804016 .15499878 .079071048M.2630005 .28320313C.24099732 .28320313 .23399353 .28619386 .23799134 .29618836L.33999635 .55519106H.34599305L.43998719 .28320313H.2630005Z"/>
<path id="font_9_2385" d="M.1749878 .38970948H.36898805V.089157108C.36898805 .018234253 .3999939-.009765625 .44599916-.009765625 .49198915-.009765625 .5419922 .01222229 .58099368 .05621338 .57899478 .06619263 .57299807 .07218933 .5629883 .07318115 .5369873 .053207399 .5069885 .04522705 .48098756 .04522705 .45399476 .04522705 .44799806 .07518005 .44799806 .13708496V.38970948H.5519867C.56199648 .38970948 .57598879 .39370729 .57598879 .40270997V.42269898C.57598879 .42669679 .57299807 .42871095 .56799319 .42871095H.44799806V.4677887C.44799806 .5329132 .45199586 .57299807 .45199586 .57299807 .45199586 .58000186 .44799806 .5830078 .43899537 .5830078L.3809967 .55696108C.37998963 .55596926 .37799073 .55496218 .37599183 .5539551 .37098695 .5519562 .36698915 .5489502 .36698915 .5439453 .36898805 .52189639 .36898805 .5128784 .36898805 .43972779 .36898805 .43571473 .36898805 .43270875 .36898805 .42871095H.1749878V.48582459C.1749878 .5028534 .1749878 .51989749 .1749878 .53492739 .17399597 .57699587 .17298889 .6090698 .1789856 .62612918 .18699646 .65019229 .20899964 .66423037 .22399903 .66423037 .2519989 .66423037 .2659912 .6471863 .27799989 .618103 .2849884 .60105898 .29699708 .59002688 .31698609 .59002688 .33599855 .59002688 .34999085 .60505679 .34999085 .62612918 .34999085 .64216616 .34098817 .65922549 .32099916 .6742401 .30099488 .6892395 .2709961 .6982422 .23298645 .6982422 .20399475 .6982422 .1579895 .6822357 .13398743 .65019229 .10398865 .6100769 .09599304 .55696108 .09599304 .46878053V.42871095H.04499817C.026992798 .42871095 .021987915 .41670228 .021987915 .40870667V.39570619C.021987915 .3907013 .022994996 .38970948 .026992798 .38970948H.09599304V.12211609C.09599304 .039001466 .084991458 .035003663 .0309906 .03100586 .024993897 .025009156 .024993897 .0040283205 .0309906-.001953125 .06498718-.0009613037 .100997928 .000030517579 .13598633 .000030517579 .17098999 .000030517579 .21398926-.0009613037 .2539978-.001953125 .2599945 .0040283205 .2599945 .025009156 .2539978 .03100586 .18598938 .035003663 .1749878 .039001466 .1749878 .12193298V.38970948Z"/>
<path id="font_9_52" d="M.394989 .63119509C.33699037 .6391907 .33898927 .6582031 .24099732 .6582031 .13999939 .6582031 .050994874 .5912018 .050994874 .48519898 .050994874 .38020326 .13798523 .33221437 .22599793 .29821778 .28599549 .27520753 .3600006 .24720764 .3600006 .1492157 .3600006 .068222049 .31498719 .026229859 .23498535 .026229859 .14199829 .026229859 .08198547 .069229129 .05999756 .16821289 .04699707 .17196656 .036987306 .16996765 .026992798 .16496277 .0309906 .08796692 .034988405 .061965944 .04699707 .012954712 .10998535 .01322937 .13798523-.009765625 .22698975-.009765625 .27198792-.009765625 .31498719 .0012207031 .34999085 .023223877 .4079895 .05921936 .44400025 .120224 .44400025 .18421936 .44400025 .2902069 .3639984 .33720399 .28199769 .36820985 .22200012 .390213 .12199402 .4282074 .12199402 .5121918 .12199402 .5681915 .17298889 .6241913 .23199463 .6241913 .32899476 .6241913 .3600006 .5621948 .37998963 .49620057 .3909912 .49420167 .4039917 .49519349 .41299439 .50219729 .40899659 .5502014 .40499879 .5782013 .394989 .63119509Z"/>
<path id="font_9_73" d="M.16699219 .28634645C.16699219 .3073578 .17599488 .3193817 .18399048 .3283844 .22200012 .36541749 .272995 .38745118 .31199647 .38745118 .33198548 .38745118 .35299684 .37443543 .36499024 .3514099 .375 .33139039 .3769989 .3043518 .3769989 .2743225V.122161868C.3769989 .04008484 .36698915 .036071779 .31498719 .031066895 .30999757 .02507019 .30999757 .004043579 .31498719-.001953125 .34298707-.0009613037 .3769989 .000045776369 .4169922 .000045776369 .45700074 .000045776369 .48999024-.0009613037 .522995-.001953125 .5279999 .004043579 .5279999 .02507019 .522995 .031066895 .46699525 .036071779 .45599366 .04008484 .45599366 .122161868V.2713318C.45599366 .3263855 .45199586 .37542726 .42900086 .40544129 .4119873 .42744447 .3809967 .43945313 .34599305 .43945313 .29699708 .43945313 .23699951 .42645265 .17599488 .3584137 .17599488 .35742188 .1749878 .35742188 .17399597 .3564148 .17098999 .35240174 .1659851 .34640504 .1659851 .3584137L.16699219 .58332827C.16699219 .64826968 .17098999 .6882324 .17098999 .6882324 .17098999 .6952362 .16699219 .6982422 .1579895 .6982422 .1329956 .68859866 .057998659 .67459109 .017990113 .67160037 .015991211 .6635895 .017990113 .64759829 .023986817 .64160159 .026992798 .64160159 .02999878 .64160159 .032989503 .64160159 .07699585 .6385956 .08799744 .6385956 .08799744 .5595398V.122161868C.08799744 .03907776 .07598877 .035079957 .017990113 .031066895 .011993408 .02507019 .011993408 .004043579 .017990113-.001953125 .050994874-.0009613037 .08799744 .000045776369 .12799073 .000045776369 .1659851 .000045776369 .19898987-.0009613037 .22698975-.001953125 .23298645 .004043579 .23298645 .02507019 .22698975 .031066895 .17599488 .035079957 .16699219 .03907776 .16699219 .122161868V.28634645Z"/>
<path id="font_9_68" d="M.397995 .09126282C.3939972 .1002655 .38598634 .104263309 .3769989 .105270389 .34298707 .06123352 .2999878 .039230348 .25698854 .039230348 .18399048 .039230348 .12298584 .11326599 .12298584 .23034668 .12298584 .34040834 .17098999 .40644837 .23699951 .40644837 .29599 .40644837 .3039856 .37142945 .30799867 .33641053 .31098939 .3093872 .32499696 .30038453 .34599305 .30038453 .36698915 .30038453 .394989 .313385 .394989 .34440614 .394989 .39944459 .33799745 .43945313 .24198914 .43945313 .14299011 .43945313 .036987306 .3504181 .036987306 .20832825 .036987306 .07925415 .10899353-.009765625 .23498535-.009765625 .29499818-.009765625 .34799195 .009231567 .397995 .09126282Z"/>
<path id="font_9_76" d="M.085998538 .12200928C.085998538 .039031984 .07499695 .03503418 .018997193 .031036377 .0129852299 .025039673 .0129852299 .004043579 .018997193-.001953125 .051986696-.0009613037 .085998538 .000045776369 .12599182 .000045776369 .16099549 .000045776369 .19400025-.0009613037 .21699524-.001953125 .22299195 .004043579 .22299195 .025039673 .21699524 .031036377 .17599488 .03503418 .16499329 .039031984 .16499329 .12200928V.20898438C.18399048 .2079773 .19799805 .20697022 .20799256 .20397949 .21899414 .19598389 .22799683 .1869812 .23999024 .17098999L.31298829 .073028568C.34199525 .03404236 .35398866 .015045166 .35499574 .003036499 .35499574 .000045776369 .35598756-.001953125 .35899354-.001953125 .3789978-.0009613037 .40098573 .000045776369 .42099 .000045776369 .45199586 .000045776369 .48298646-.0009613037 .5029907-.001953125 .5089874 .004043579 .5089874 .025039673 .5029907 .031036377 .46899415 .03503418 .44400025 .039031984 .4169922 .073028568L.2849884 .2389679C.2809906 .24395752 .27799989 .24795532 .27799989 .25294496 .27799989 .2569275 .27799989 .2589264 .28199769 .2629242L.36999513 .3537445C.3999939 .38568116 .43499757 .3936615 .47499085 .3976593 .48098756 .403656 .48098756 .4246521 .47499085 .43066407 .45199586 .42965699 .42399598 .4286499 .3880005 .4286499 .34999085 .4286499 .31298829 .42965699 .2899933 .43066407 .28399659 .4246521 .28399659 .403656 .2899933 .3976593 .34599305 .3936615 .32199098 .35873414 .31298829 .34675599 .2899933 .31781007 .25898744 .2838745 .23298645 .2649231 .21099854 .24894715 .18399048 .236969 .16499329 .23397827V.58299258C.16499329 .6481476 .16899109 .6882324 .16899109 .6882324 .16899109 .6952362 .16499329 .6982422 .1559906 .6982422 .1309967 .6878967 .055999757 .67388918 .015991211 .67089846 .01399231 .6628876 .015991211 .64689639 .021987915 .6408844 .024993897 .6408844 .027999878 .6408844 .0309906 .6408844 .07499695 .6378937 .085998538 .6378937 .085998538 .5588074V.12200928Z"/>
<clipPath id="clip_10">
<path transform="matrix(1,0,0,-1,0,398.88)" d="M62.443574 57.427896H678.4133V368.9069H62.443574Z"/>
</clipPath>
<path id="font_11_59" d="M.18399048 .04798889C.18399048 .07699585 .1599884 .09700012 .13598633 .09700012 .10699463 .09700012 .08699036 .07299805 .08699036 .04899597 .08699036 .019989014 .11099243 0 .1349945 0 .1639862 0 .18399048 .023986817 .18399048 .04798889Z"/>
<clipPath id="clip_12">
<path transform="matrix(1,0,0,-1,0,398.88)" d="M62.443574 57.427896H678.4133V368.9069H62.443574Z"/>
</clipPath>
<clipPath id="clip_13">
<path transform="matrix(1,0,0,-1,0,398.88)" d="M62.443574 57.427896H678.4133V368.9069H62.443574Z"/>
</clipPath>
<path id="font_2_54" d="M.33599855 .64694216C.33599855 .66793826 .33499146 .6689453 .31698609 .6689453L.019989014 .1959076V.16992188H.27799989V.07196045C.27799989 .035980226 .27598573 .025985718 .20599365 .025985718H.18699646V0C.21899414 .0019989014 .272995 .0019989014 .30699159 .0019989014 .34098817 .0019989014 .394989 .0019989014 .4269867 0V.025985718H.4079895C.33799745 .025985718 .33599855 .035980226 .33599855 .07196045V.16992188H.43798829V.1959076H.33599855V.64694216M.2809906 .5809326V.1959076H.039993287L.2809906 .5809326Z"/>
<clipPath id="clip_14">
<path transform="matrix(1,0,0,-1,0,398.88)" d="M62.443574 57.427896H678.4133V368.9069H62.443574Z"/>
</clipPath>
<path id="font_2_56" d="M.10598755 .34527589C.10598755 .5844116 .21798706 .63812258 .2829895 .63812258 .3039856 .63812258 .35499574 .6341553 .375 .5954132 .35899354 .5954132 .32899476 .5954132 .32899476 .56040957 .32899476 .5334015 .35099793 .52441409 .36499024 .52441409 .37399293 .52441409 .40098573 .52841189 .40098573 .56240847 .40098573 .6252136 .35099793 .6611328 .28199769 .6611328 .16299439 .6611328 .037994386 .5373993 .037994386 .31628419 .037994386 .0443573 .15098572-.015625 .23098755-.015625 .32798768-.015625 .41999818 .0713501 .41999818 .20532227 .41999818 .33029176 .33898927 .42126466 .23699951 .42126466 .17599488 .42126466 .1309967 .38127137 .10598755 .31129457V.34527589M.23098755 .008361816C.10798645 .008361816 .10798645 .19232178 .10798645 .22930908 .10798645 .30130006 .14199829 .40527345 .23498535 .40527345 .2519989 .40527345 .30099488 .40527345 .33399964 .33628846 .35198976 .29730226 .35198976 .25630189 .35198976 .20631409 .35198976 .15232849 .35198976 .112335208 .33099366 .07235718 .30899049 .03135681 .2769928 .008361816 .23098755 .008361816Z"/>
<clipPath id="clip_15">
<path transform="matrix(1,0,0,-1,0,398.88)" d="M62.443574 57.427896H678.4133V368.9069H62.443574Z"/>
</clipPath>
<path id="font_2_58" d="M.27198792 .3602295C.33499146 .3922119 .39898683 .4402008 .39898683 .51716616 .39898683 .60813906 .31098939 .6611328 .22999573 .6611328 .13899231 .6611328 .05899048 .59513857 .05899048 .5041809 .05899048 .479187 .06498718 .436203 .10398865 .39822389 .11399841 .3882141 .1559906 .3582306 .18299866 .3392334 .13798523 .31625367 .032989503 .26127626 .032989503 .15130615 .032989503 .048355104 .1309967-.015625 .22799683-.015625 .33499146-.015625 .4249878 .061340333 .4249878 .16331482 .4249878 .25427247 .3639984 .2962494 .32398988 .3232422L.27198792 .3602295M.14099121 .4481964C.1329956 .4532013 .09298706 .48417665 .09298706 .53115847 .09298706 .5921478 .1559906 .63812258 .22799683 .63812258 .30699159 .63812258 .36499024 .5821533 .36499024 .51716616 .36499024 .4242096 .26098634 .37123109 .2559967 .37123109 .25498963 .37123109 .2539978 .37123109 .24598694 .37722779L.14099121 .4481964M.32499696 .24327088C.33999635 .23228455 .3880005 .19929505 .3880005 .13832093 .3880005 .06434631 .31399537 .008361816 .22999573 .008361816 .13899231 .008361816 .069992069 .073349 .069992069 .15231323 .069992069 .23127747 .1309967 .29725648 .19999695 .32824708L.32499696 .24327088Z"/>
<clipPath id="clip_16">
<path transform="matrix(1,0,0,-1,0,398.88)" d="M62.443574 57.427896H678.4133V368.9069H62.443574Z"/>
</clipPath>
<path id="font_9_56" d="M.80999758 .56544497 .6539917 .13131714 .651001 .13230896 .5130005 .5544281C.49598695 .6084442 .5309906 .6114502 .5649872 .6144562 .57099917 .6204529 .57099917 .641449 .5649872 .64746096 .5239868 .64645388 .47999574 .6454468 .43998719 .6454468 .40699769 .6454468 .37199403 .64645388 .33999635 .64746096 .33399964 .641449 .33399964 .6204529 .33999635 .6144562 .3929901 .6114502 .4149933 .58044436 .42399598 .5544281L.44699098 .48841859C.45098878 .4764099 .45399476 .4664154 .45399476 .45741273 .45399476 .44740296 .45298768 .43940736 .44499208 .4223938L.31599427 .12931824 .31098939 .13031006 .16499329 .5724335C.15299988 .6074524 .17999268 .6124573 .21499634 .6144562 .22099304 .6204529 .22099304 .641449 .21499634 .64746096 .18199158 .64645388 .13798523 .6454468 .09899902 .6454468 .06399536 .6454468 .034988405 .64645388 .005996704 .64746096 0 .641449 0 .6204529 .005996704 .6144562 .050994874 .6114502 .057998659 .6104584 .07699585 .55644229L.2649994 .015274048C.269989-.0007171631 .27598573-.01171875 .2869873-.01171875 .2999878-.01171875 .30599977-.0017242432 .31298829 .015274048L.46199037 .3503723C.47099305 .3703766 .47399903 .37538148 .47898866 .37538148 .48298646 .37538148 .4869995 .36437989 .49299623 .3473816L.60798647 .015274048C.6139984-.0017242432 .61898806-.01171875 .6309967-.01171875 .6419983-.01171875 .6489868-.0007171631 .6539917 .014282227L.8549957 .5534363C.8679962 .58843997 .8860016 .6114502 .94099429 .6144562 .94699099 .6204529 .94699099 .641449 .94099429 .64746096 .9119873 .64645388 .8799896 .6454468 .85398867 .6454468 .8279877 .6454468 .7839966 .64645388 .74398806 .64746096 .73799136 .641449 .73799136 .6204529 .74398806 .6144562 .7849884 .6114502 .82499697 .6084442 .80999758 .56544497Z"/>
<path id="font_9_72" d="M.44400025 .38690187C.46299745 .38690187 .48098756 .40490724 .48098756 .4249115 .48098756 .4459076 .46199037 .46191407 .43499757 .46191407 .40899659 .46191407 .36099244 .4449005 .33499146 .41090394 .32299806 .41944886 .2899933 .43945313 .23098755 .43945313 .14199829 .43945313 .05999756 .37939454 .05999756 .2872162 .05999756 .23310852 .083999637 .20205689 .11199951 .17500305 .083999637 .15098572 .067993167 .10800171 .067993167 .074020389 .067993167 .03804016 .08799744 .010055542 .11399841-.0029296876 .05999756-.03479004 .03199768-.08093262 .03199768-.124053958 .03199768-.21128845 .11399841-.23828125 .19099427-.23828125 .32598878-.23828125 .47200013-.17320252 .47200013-.06488037 .47200013-.032791139 .45700074-.0077209474 .42799378 .016281128 .3889923 .04827881 .31900025 .04927063 .28199769 .04927063 .2639923 .04927063 .23899842 .04727173 .21499634 .044281007 .19999695 .043273927 .18998719 .042266847 .18499756 .042266847 .1559906 .042266847 .12098694 .056243898 .12098694 .099105838 .12098694 .11903381 .1269989 .13998413 .13899231 .15698242 .16299439 .14299011 .19099427 .13598633 .22999573 .13598633 .31799317 .13598633 .39898683 .19102478 .39898683 .28918458 .39898683 .3362732 .3849945 .36331178 .35598756 .39337159 .36299134 .40338136 .3829956 .41740418 .3959961 .41740418 .40299989 .41740418 .4099884 .4143982 .41600038 .4053955 .41999818 .39691163 .43299867 .38690187 .44400025 .38690187M.13198853-.009719849C.14299011-.01272583 .15899658-.01473999 .17199707-.01473999 .20298767-.01473999 .23098755-.01171875 .24499512-.01171875 .29499818-.01171875 .33699037-.01272583 .3659973-.028778077 .40499879-.050842287 .4169922-.06488037 .4169922-.09095764 .4169922-.16317749 .31098939-.20129395 .22099304-.20129395 .18499756-.20129395 .100997928-.17219544 .100997928-.104003909 .100997928-.06990051 .102996829-.044830324 .13198853-.009719849M.31900025 .27920533C.31900025 .1860199 .27198792 .16699219 .23498535 .16699219 .15098572 .16699219 .14199829 .2381134 .14199829 .3022461 .14199829 .3723755 .16699219 .40844728 .22200012 .40844728 .2849884 .40844728 .31900025 .36235047 .31900025 .27920533Z"/>
<path id="font_9_85" d="M.042999269 .42871095C.0289917 .42871095 .024993897 .41670228 .024993897 .40870667V.39570619C.024993897 .3907013 .025985718 .38970948 .02999878 .38970948H.08898926V.089157108C.08898926 .018234253 .11999512-.009765625 .1659851-.009765625 .21199036-.009765625 .2619934 .01222229 .30099488 .05621338 .29899598 .06619263 .29299928 .07218933 .2829895 .07318115 .25698854 .053207399 .22698975 .04522705 .20098877 .04522705 .17399597 .04522705 .16799927 .07518005 .16799927 .13708496V.38970948H.27198792C.28199769 .38970948 .29599 .39370729 .29599 .40270997V.42269898C.29599 .42669679 .29299928 .42871095 .28799439 .42871095H.16799927V.4677887C.16799927 .53292849 .17199707 .57302859 .17199707 .57302859 .17199707 .57902529 .16899109 .58203127 .1639862 .58203127 .1599884 .58203127 .15098572 .5780182 .14199829 .57302859 .1309967 .5670166 .12098694 .56199648 .10798645 .5589905 .09599304 .5549774 .085998538 .55197146 .085998538 .54496768 .085998538 .53292849 .08898926 .5399475 .08898926 .42871095H.042999269Z"/>
<path id="font_9_79" d="M.18399048 .35830689C.17799378 .3513031 .17199707 .3493042 .17199707 .35830689 .17098999 .3853302 .16899109 .42436219 .1639862 .43437196 .1619873 .43937684 .1599884 .4423828 .1519928 .4423828 .12399292 .43136598 .09799194 .42236329 .0289917 .4133606 .026992798 .40734864 .0289917 .39134217 .0309906 .3853302 .084991458 .38032533 .09599304 .37532044 .09599304 .317276V.12213135C.09599304 .04006958 .085998538 .036071779 .025985718 .031066895 .019989014 .025054932 .019989014 .004043579 .025985718-.001953125 .055999757-.0009613037 .09599304 .000045776369 .13598633 .000045776369 .17599488 .000045776369 .20599365-.0009613037 .23599243-.001953125 .24198914 .004043579 .24198914 .025054932 .23599243 .031066895 .18499756 .036071779 .1749878 .04006958 .1749878 .12213135V.28625489C.1749878 .3073578 .18399048 .3193817 .19198609 .3283844 .22999573 .36541749 .2749939 .38745118 .31399537 .38745118 .33399964 .38745118 .35499574 .37443543 .36698915 .3514099 .3769989 .33139039 .3789978 .3043518 .3789978 .2743225V.122161868C.3789978 .04008484 .36898805 .036071779 .31698609 .031066895 .31199647 .02507019 .31199647 .004043579 .31698609-.001953125 .34700013-.0009613037 .3789978 .000045776369 .4189911 .000045776369 .45899964 .000045776369 .49499513-.0009613037 .5249939-.001953125 .5299988 .004043579 .5299988 .02507019 .5249939 .031066895 .46899415 .036071779 .45799256 .04008484 .45799256 .122161868V.2713318C.45799256 .3263855 .45399476 .37443543 .43099977 .40544129 .4139862 .42744447 .3829956 .43945313 .34799195 .43945313 .29899598 .43945313 .24299622 .42645265 .18399048 .3584137V.35830689Z"/>
<path id="font_9_48" d="M.66600039 .32920838C.66600039 .53619387 .522995 .6582031 .34399415 .6582031 .1499939 .6582031 .036987306 .50419619 .036987306 .31021119 .036987306 .113220218 .17999268-.009765625 .34999085-.009765625 .46099855-.009765625 .548996 .038223268 .60398867 .1162262 .6439972 .17321778 .66600039 .24520874 .66600039 .32920838M.33099366 .6221924C.46299745 .6221924 .56999209 .5121918 .56999209 .31021119 .56999209 .13122559 .48399354 .026229859 .36999513 .026229859 .24798584 .026229859 .1329956 .13522339 .1329956 .32720948 .1329956 .5372009 .23199463 .6221924 .33099366 .6221924Z"/>
<path id="font_9_77" d="M.09498596 .12207031C.09498596 .03904724 .083999637 .03404236 .022994996 .031051636 .016998291 .025039673 .016998291 .004043579 .022994996-.001953125 .057998659-.0009613037 .09498596 .000045776369 .1349945 .000045776369 .1749878 .000045776369 .21299744-.0009613037 .24598694-.001953125 .2519989 .004043579 .2519989 .025039673 .24598694 .031051636 .18499756 .03404236 .17399597 .03904724 .17399597 .12207031V.5832062C.17399597 .6482239 .17799378 .6882324 .17799378 .6882324 .17799378 .6952362 .17399597 .6982422 .16499329 .6982422 .13999939 .6882324 .06498718 .67422488 .024993897 .67123416 .022994996 .66322329 .024993897 .6472168 .0309906 .6412201 .08898926 .6372223 .09498596 .6342163 .09498596 .5592041V.12207031Z"/>
<path id="font_9_55" d="M.44799806 .6144562C.5219879 .6094513 .5219879 .58244326 .5009918 .5284271L.34298707 .12731934H.33898927L.1789856 .5344238C.1559906 .5944519 .1619873 .6074524 .22999573 .6144562 .23599243 .6204529 .23599243 .641449 .22999573 .64746096 .18998719 .64645388 .14498902 .6454468 .10899353 .6454468 .07299805 .6454468 .037994386 .64645388 .004989624 .64746096-.0010070801 .641449 0 .6204529 .005996704 .6144562 .06098938 .6094513 .068984989 .592453 .09599304 .52342227L.29299928 .011276245C.29899598-.0047302248 .30599977-.01171875 .31599427-.01171875 .32699586-.01171875 .33399964-.0027313233 .33999635 .011276245L.5469971 .52142336C.56599429 .56843569 .58200076 .6074524 .644989 .6144562 .651001 .6204529 .651001 .641449 .644989 .64746096 .61499026 .64645388 .5799866 .6454468 .5569916 .6454468 .5339966 .6454468 .4889984 .64645388 .44799806 .64746096 .44198609 .641449 .44198609 .6204529 .44799806 .6144562Z"/>
<path id="font_9_66" d="M.29299928 .048233034C.29899598 .017227173 .30999757-.009765625 .3600006-.009765625 .397995-.009765625 .43399049 .007232666 .45498658 .02722168 .45298768 .039230348 .44898988 .048233034 .43798829 .054229738 .43099977 .048233034 .4139862 .038223268 .40098573 .038223268 .37199403 .038223268 .37098695 .07725525 .37098695 .12327576V.27037049C.37098695 .41244508 .29299928 .43945313 .21998596 .43945313 .13798523 .43945313 .054992677 .385437 .054992677 .32839967 .054992677 .30438233 .066986087 .29237367 .08999634 .29237367 .11898804 .29237367 .13699341 .313385 .13699341 .32640077 .13699341 .33340455 .13598633 .34040834 .13398743 .34440614 .1329956 .3474121 .13198853 .3534088 .13198853 .36442567 .13198853 .39544679 .17399597 .40644837 .21199036 .40644837 .24598694 .40644837 .29299928 .3894348 .29299928 .2763672 .29299928 .2693634 .2899933 .2653656 .2869873 .26435853L.20098877 .24334717C.10499573 .21932984 .035995485 .16630554 .035995485 .0982666 .035995485 .016220093 .09199524-.009765625 .1619873-.009765625 .19699097-.009765625 .22698975-.0017700195 .2709961 .032226564L.29100038 .048233034H.29299928M.29299928 .2333374V.10127258C.29299928 .088256839 .2869873 .08125305 .2789917 .07525635 .25299073 .054244996 .21899414 .031219483 .19099427 .031219483 .14099121 .031219483 .11898804 .071243289 .11898804 .102264408 .11898804 .14729309 .13999939 .19332886 .21398926 .21232605L.29299928 .2333374Z"/>
<path id="font_9_86" d="M.21699524-.009765625C.2559967-.009765625 .30299378 .010223389 .35198976 .050201417 .35699464 .05419922 .3659973 .05619812 .36698915 .049209596 .36999513 .024230957 .37799073-.009765625 .37799073-.009765625 .38598634-.012771606 .3909912-.011779785 .39698792-.009765625 .4189911 .008270264 .45399476 .023269654 .5149994 .030273438 .5209961 .03627014 .5209961 .05126953 .5149994 .057266237 .45098878 .06225586 .44198609 .081222537 .44198609 .13014221V.32183839C.44198609 .35179139 .44599916 .42466737 .44599916 .42466737 .44599916 .42765809 .44299317 .43066407 .43798829 .43066407 .43299867 .42965699 .41799928 .42866517 .40299989 .42866517 .37098695 .42866517 .33499146 .42965699 .30099488 .43066407 .29499818 .42466737 .29499818 .40370179 .30099488 .39772035 .34999085 .39471437 .36299134 .3827362 .36299134 .31684876V.12409973C.36299134 .10513306 .36099244 .09713745 .34700013 .0851593 .30999757 .053207399 .27198792 .037231447 .24699402 .037231447 .21699524 .037231447 .16699219 .051208497 .16699219 .14007569V.32180787C.16699219 .35177613 .17098999 .42466737 .17098999 .42466737 .17098999 .42765809 .16799927 .43066407 .16299439 .43066407 .1579895 .42965699 .14299011 .42866517 .12799073 .42866517 .09599304 .42866517 .05999756 .42965699 .025985718 .43066407 .019989014 .42466737 .019989014 .40370179 .025985718 .39770509 .07398987 .39370729 .08799744 .38272096 .08799744 .31782533V.12609864C.08799744 .0572052 .117996219-.009765625 .21699524-.009765625Z"/>
<clipPath id="clip_17">
<path transform="matrix(1,0,0,-1,0,398.88)" d="M62.443574 57.427896H678.4133V368.9069H62.443574Z"/>
</clipPath>
<clipPath id="clip_18">
<path transform="matrix(1,0,0,-1,0,398.88)" d="M62.443574 57.427896H678.4133V368.9069H62.443574Z"/>
</clipPath>
<clipPath id="clip_19">
<path transform="matrix(1,0,0,-1,0,398.88)" d="M62.443574 57.427896H678.4133V368.9069H62.443574Z"/>
</clipPath>
<clipPath id="clip_20">
<path transform="matrix(1,0,0,-1,0,398.88)" d="M62.443574 57.427896H678.4133V368.9069H62.443574Z"/>
</clipPath>
<clipPath id="clip_21">
<path transform="matrix(1,0,0,-1,0,398.88)" d="M62.443574 57.427896H678.4133V368.9069H62.443574Z"/>
</clipPath>
<path id="font_9_46" d="M.6629944 .116119388C.66799929 .035064699 .6639862 .034057619 .598999 .031066895 .59298709 .025054932 .59298709 .004043579 .598999-.001953125 .6359863-.0009613037 .6759949 .000045776369 .70599368 .000045776369 .73599246 .000045776369 .7819977-.0009613037 .8149872-.001953125 .82099917 .004043579 .82099917 .025054932 .8149872 .031066895 .746994 .034057619 .74398806 .03807068 .73799136 .12112427L.70799258 .5423889C.70399478 .5964203 .70899966 .61042788 .7769928 .6144409 .7829895 .6204376 .7829895 .641449 .7769928 .64746096L.6459961 .64546206 .43399049 .13812256C.42999269 .12812805 .4269867 .12411499 .4249878 .12411499 .4229889 .12411499 .41999818 .12911988 .4169922 .13713074L.21199036 .64546206 .066986087 .64746096C.06098938 .641449 .06098938 .6204376 .066986087 .6144409 .13598633 .61042788 .14199829 .60842898 .1349945 .53338626L.09498596 .12112427C.08898926 .061080934 .07699585 .03605652 .019989014 .031066895 .01399231 .025054932 .01399231 .004043579 .019989014-.001953125 .049987794-.0009613037 .08198547 .000045776369 .10598755 .000045776369 .12998963 .000045776369 .16999817-.0009613037 .19999695-.001953125 .20599365 .004043579 .20599365 .025054932 .19999695 .031066895 .13398743 .03605652 .1289978 .06707764 .13398743 .12312317L.17199707 .52445986H.17399597L.3809967 .0052337648C.38398744-.0017700195 .3899994-.009765625 .3959961-.009765625 .4019928-.009765625 .4059906-.0027770997 .4099884 .0052337648L.6349945 .53445437H.6369934L.6629944 .116119388Z"/>
<path id="font_9_78" d="M.16999817 .35830689C.16899109 .38833619 .16699219 .42436219 .1619873 .43437196 .1599884 .43937684 .1579895 .4423828 .1499939 .4423828 .12199402 .43136598 .09599304 .42236329 .026992798 .4133606 .024993897 .40734864 .026992798 .39134217 .0289917 .3853302 .08299255 .38032533 .09399414 .37532044 .09399414 .317276V.12213135C.09399414 .04006958 .08099365 .035064699 .025985718 .031066895 .019989014 .025054932 .019989014 .004043579 .025985718-.001953125 .055999757-.0009613037 .09399414 .000045776369 .13398743 .000045776369 .17399597 .000045776369 .20498657-.0009613037 .23498535-.001953125 .24099732 .004043579 .24099732 .025054932 .23498535 .031066895 .18399048 .036071779 .17298889 .04006958 .17298889 .12213135V.28625489C.17298889 .3073578 .18199158 .3193817 .18998719 .3283844 .22999573 .36743165 .2669983 .38745118 .2979889 .38745118 .33599855 .38745118 .3639984 .36341859 .3639984 .2963562V.122161868C.3639984 .04008484 .35598756 .035079957 .3019867 .031066895 .29699708 .02507019 .29699708 .004043579 .3019867-.001953125 .32699586-.0009613037 .3639984 .000045776369 .4039917 .000045776369 .44400025 .000045776369 .47698976-.0009613037 .5019989-.001953125 .5069885 .004043579 .5069885 .02507019 .5019989 .031066895 .45199586 .035079957 .44299317 .04008484 .44299317 .122161868V.28134156C.44299317 .29534913 .44299317 .3093567 .44198609 .32138063 .48999024 .37443543 .5349884 .38745118 .57398989 .38745118 .6119995 .38745118 .6339874 .36541749 .6339874 .2983551V.122161868C.6339874 .04008484 .6239929 .035079957 .57199099 .031066895 .5669861 .02507019 .5669861 .004043579 .57199099-.001953125 .5970001-.0009613037 .6339874 .000045776369 .673996 .000045776369 .71398928 .000045776369 .7489929-.0009613037 .7769928-.001953125 .7819977 .004043579 .7819977 .02507019 .7769928 .031066895 .7220001 .035079957 .71299746 .04008484 .71299746 .122161868V.28033448C.71299746 .36943055 .69799807 .43945313 .6100006 .43945313 .5589905 .43945313 .49699403 .42044068 .44499208 .36541749 .44198609 .36242677 .43598939 .35742188 .43399049 .36642457 .4249878 .4074402 .38598634 .43945313 .33399964 .43945313 .27598573 .43945313 .22399903 .40544129 .18199158 .3584137 .1769867 .35331727 .17098999 .34629823 .16999817 .35830689Z"/>
<path id="font_9_90" d="M.20399475-.16043091C.21998596-.13243103 .23298645-.10441589 .24499512-.074417117 .32499696 .11860657 .36999513 .22163391 .42199708 .33364869 .44198609 .37565614 .45599366 .39164735 .5029907 .3976593 .5089874 .403656 .5089874 .4246521 .5029907 .43066407 .48298646 .42965699 .45999146 .4286499 .43199159 .4286499 .4019928 .4286499 .37098695 .42965699 .34098817 .43066407 .33499146 .4246521 .33499146 .403656 .34098817 .3976593 .37298585 .39465333 .40499879 .38865663 .3889923 .35264588L.2899933 .12361145C.2829895 .10760498 .27398683 .10461426 .2659912 .12461853L.1769867 .3326416C.15899658 .37464906 .1539917 .39364625 .20999146 .3976593 .21598816 .403656 .21598816 .4246521 .20999146 .43066407 .17298889 .42965699 .1329956 .4286499 .09700012 .4286499 .06298828 .4286499 .035995485 .42965699 .015991211 .43066407 .009994507 .4246521 .009994507 .403656 .015991211 .3976593 .055999757 .39265443 .068984989 .38365174 .09498596 .3226471L.20799256 .05960083C.21699524 .039596559 .23199463-.0064086916 .22200012-.03440857 .20999146-.06741333 .19799805-.09541321 .18299866-.12641907 .17199707-.14642334 .1579895-.15542603 .1329956-.15542603 .11898804-.15542603 .114990238-.1524353 .10398865-.1524353 .07499695-.1524353 .05999756-.18243408 .05999756-.19543457 .05999756-.21643067 .07998657-.23242188 .10699463-.23242188 .12799073-.23242188 .16799927-.22442627 .20399475-.16043091Z"/>
<path id="font_9_37" d="M.147995 .6454468C.11199951 .6454468 .05899048 .64645388 .018997193 .64746096 .0129852299 .641449 .0129852299 .6204529 .018997193 .6144562 .08898926 .6114502 .10598755 .6064453 .10598755 .5233917V.12210083C.10598755 .03904724 .08898926 .03404236 .018997193 .031036377 .0129852299 .025039673 .0129852299 .004043579 .018997193-.001953125 .057998659-.0009613037 .11099243 .000045776369 .14898682 .000045776369 .18598938 .000045776369 .22799683-.001953125 .33099366-.001953125 .47200013-.001953125 .6579895 .062057496 .6579895 .3082428 .6579895 .4943695 .5049896 .64746096 .31298829 .64746096 .24198914 .64746096 .18699646 .6454468 .147995 .6454468M.19099427 .08407593V.5644226C.19099427 .5994415 .22599793 .6134491 .2749939 .6134491 .4909973 .6134491 .56199648 .43832398 .56199648 .28422547 .56199648 .08207703 .44099427 .032043458 .2999878 .032043458 .20199585 .032043458 .19099427 .05204773 .19099427 .08407593Z"/>
<path id="font_9_27" d="M.069992069 .059829713C.069992069 .030822754 .09399414 .0068359377 .12298584 .0068359377 .1519928 .0068359377 .17599488 .030822754 .17599488 .059829713 .17599488 .08882141 .1519928 .11282349 .12298584 .11282349 .09399414 .11282349 .069992069 .08882141 .069992069 .059829713M.069992069 .35812379C.069992069 .32913209 .09399414 .30513 .12298584 .30513 .1519928 .30513 .17599488 .32913209 .17599488 .35812379 .17599488 .38713075 .1519928 .4111328 .12298584 .4111328 .09399414 .4111328 .069992069 .38713075 .069992069 .35812379Z"/>
<path id="font_11_22" d="M.30899049 .62332156C.28399659 .69433596 .20498657 .69433596 .19198609 .69433596 .18598938 .69433596 .1749878 .69433596 .1749878 .6843262 .1749878 .67633059 .18099976 .6753235 .18598938 .67433169 .20098877 .67233279 .21299744 .67033389 .22898865 .6413269 .23899842 .62231448 .34199525 .3232727 .34199525 .3212738 .34199525 .32026673 .34098817 .3192749 .33299256 .3112793L.07299805 .048233034C.06098938 .036224367 .052993776 .02822876 .052993776 .0152282719 .052993776 .0012207031 .06498718-.010772705 .08099365-.010772705 .084991458-.010772705 .09599304-.008773804 .101989749-.0027770997 .117996219 .01222229 .26098634 .18725586 .35198976 .29527284 .37799073 .21725464 .4099884 .12524414 .44099427 .041229249 .44599916 .026229859 .45098878 .01222229 .46499635-.00077819827 .47499085-.009765625 .47698976-.009765625 .5049896-.009765625H.5239868C.5279999-.009765625 .5349884-.009765625 .5349884-.0017700195 .5349884 .0022277833 .5339966 .0032196046 .5299988 .007232666 .5209961 .018234253 .5139923 .036224367 .5099945 .048233034L.30899049 .62332156Z"/>
<path id="font_11_111" d="M.20599365 .29335023C.20799256 .29934693 .23298645 .34936524 .269989 .38137818 .29599 .4053955 .32998658 .42140199 .36898805 .42140199 .40899659 .42140199 .4229889 .39138795 .4229889 .35136415 .4229889 .29434205 .38198854 .18029785 .3619995 .12628174 .35299684 .102264408 .34799195 .089263919 .34799195 .071258548 .34799195 .026229859 .3789978-.009765625 .4269867-.009765625 .519989-.009765625 .5549927 .13728333 .5549927 .14328003 .5549927 .14828491 .5509949 .15228272 .54499819 .15228272 .5359955 .15228272 .5349884 .14929199 .5299988 .13227844 .5069885 .050247194 .46899415 .010223389 .42999269 .010223389 .41999818 .010223389 .4039917 .011230469 .4039917 .04324341 .4039917 .06825256 .4149933 .0982666 .42099 .11227417 .44099427 .16729737 .48298646 .27934266 .48298646 .33636476 .48298646 .39639283 .44799806 .44140626 .37199403 .44140626 .2829895 .44140626 .23599243 .37838746 .21798706 .35336305 .21499634 .4104004 .17399597 .44140626 .12998963 .44140626 .09799194 .44140626 .07598877 .4223938 .05899048 .38838197 .040985109 .35237123 .026992798 .29234315 .026992798 .28834535 .026992798 .28434754 .0309906 .27934266 .037994386 .27934266 .04598999 .27934266 .04699707 .28033448 .052993776 .30334474 .068984989 .36437989 .08699036 .42140199 .1269989 .42140199 .1499939 .42140199 .1579895 .4053955 .1579895 .37538148 .1579895 .35336305 .147995 .31436158 .14099121 .28334046L.11299133 .17529297C.10899353 .15628052 .09799194 .11126709 .09298706 .09326172 .085998538 .06724548 .07499695 .020233155 .07499695 .0152282719 .07499695 .0012207031 .085998538-.009765625 .100997928-.009765625 .11299133-.009765625 .1269989-.003768921 .1349945 .011230469 .13699341 .016235352 .1459961 .051239015 .15098572 .071258548L.17298889 .1612854 .20599365 .29335023Z"/>
<path id="font_9_9" d="M.04399109 .25202943C.04399109 .20701599 .04798889-.023971558 .2559967-.20397949 .2659912-.20198059 .27398683-.1949768 .2769928-.1869812 .24398804-.14897156 .1269989-.010971069 .1269989 .25202943 .1269989 .5150299 .24499512 .6530304 .2769928 .6890259 .27398683 .6990204 .2669983 .70602419 .2559967 .70703127 .13699341 .60502627 .04399109 .4380188 .04399109 .25202943Z"/>
<path id="font_9_88" d="M.20298767 .3976593C.20899964 .403656 .20899964 .4246521 .20298767 .43066407 .17298889 .42965699 .13798523 .4286499 .101989749 .4286499 .06399536 .4286499 .036987306 .42965699 .010986328 .43066407 .004989624 .4246521 .004989624 .403656 .010986328 .3976593 .057998659 .39266969 .068984989 .38267518 .08999634 .33076478L.22099304 .008239746C.22698975-.0057373049 .23498535-.01171875 .24499512-.01171875 .2539978-.01171875 .2619934-.0057373049 .2689972 .010238647L.36999513 .25587464 .47299195 .008239746C.47898866-.0057373049 .4869995-.01171875 .49699403-.01171875 .5059967-.01171875 .5139923-.0057373049 .519989 .009246826L.651001 .3257599C.6669922 .36669923 .6839905 .39466859 .7350006 .3976593 .7409973 .403656 .7409973 .4246521 .7350006 .43066407 .71499636 .42965699 .69299319 .4286499 .6629944 .4286499 .6329956 .4286499 .59098818 .42965699 .5609894 .43066407 .5549927 .4246521 .5549927 .403656 .5609894 .3976593 .6359863 .3936615 .6259918 .36470033 .6119995 .3297577L.5279999 .12207031C.5179901 .09710693 .5139923 .09710693 .5059967 .11807251L.41999818 .33674623C.40098573 .38368226 .40299989 .3936615 .45599366 .3976593 .46199037 .403656 .46199037 .4246521 .45599366 .43066407 .42599488 .42965699 .38598634 .4286499 .35598756 .4286499 .33099366 .4286499 .2979889 .42965699 .2679901 .43066407 .2619934 .4246521 .2619934 .403656 .2679901 .3976593 .31498719 .3936615 .32699586 .36470033 .34498597 .31977845L.35099793 .3038025 .2809906 .12705994C.2679901 .09411621 .2659912 .09310913 .25299073 .12506104L.17298889 .33076478C.1539917 .37869264 .15499878 .39466859 .20298767 .3976593Z"/>
<path id="font_9_81" d="M.1559906 .36834718C.15499878 .3983612 .15299988 .42437745 .147995 .43437196 .1459961 .43937684 .14399719 .4423828 .13598633 .4423828 .10798645 .43136598 .08198547 .42236329 .0129852299 .4133606 .010986328 .4073639 .0129852299 .39135743 .01499939 .38536073 .068984989 .38035584 .07998657 .37535096 .07998657 .31733705V-.11004639C.07998657-.19326782 .068984989-.19828797 .0079956059-.20129395 .0019989014-.20730591 .0019989014-.22836304 .0079956059-.234375 .042999269-.23338318 .07998657-.2323761 .11999512-.2323761 .1599884-.2323761 .20799256-.23338318 .24099732-.234375 .24699402-.22836304 .24699402-.20730591 .24099732-.20129395 .16999817-.19728089 .15899658-.19326782 .15899658-.11004639V-.0017700195C.15899658 .011230469 .16299439 .010223389 .17298889 .006225586 .19799805-.003768921 .22799683-.009765625 .2599945-.009765625 .31599427-.009765625 .3659973 .007232666 .40699769 .04623413 .45399476 .09225464 .48098756 .15426636 .48098756 .23530579 .48098756 .3414154 .4059906 .43945313 .3039856 .43945313 .2579956 .43945313 .20698548 .4094391 .16699219 .36442567 .16099549 .35835267 .15699768 .35835267 .1559906 .36834718M.1749878 .33140565C.20098877 .36343385 .24699402 .39344789 .27598573 .39344789 .33999635 .39344789 .394989 .32141114 .394989 .2083435 .394989 .12628174 .3659973 .024230957 .2539978 .024230957 .23599243 .024230957 .20098877 .02923584 .18299866 .04524231 .16299439 .06324768 .15899658 .06925964 .15899658 .105270389V.28738404C.15899658 .3083954 .16299439 .31739808 .1749878 .33140565Z"/>
<path id="font_9_14" d="M.2709961 .22319031C.28399659 .22319031 .2979889 .2511902 .2979889 .26319886 .2979889 .27319337 .2939911 .28320313 .28399659 .28320313H.06498718C.052993776 .28320313 .039993287 .26019288 .039993287 .24220276 .039993287 .232193 .04598999 .22319031 .054992677 .22319031H.2709961Z"/>
<path id="font_9_10" d="M.2539978 .25239564C.2539978 .2973938 .25 .5283966 .041992189 .70840457 .03199768 .70640566 .023986817 .69940188 .020996094 .69140627 .053985597 .6533966 .17098999 .5153961 .17098999 .25239564 .17098999-.010604858 .052993776-.14860535 .020996094-.18460083 .023986817-.1946106 .0309906-.20159912 .041992189-.2026062 .16099549-.1006012 .2539978 .06639099 .2539978 .25239564Z"/>
<path id="font_9_41" d="M.6179962 .12213135V.52337649C.6179962 .60643008 .6349945 .61143496 .7049866 .61442568 .71099856 .6204376 .71099856 .641449 .7049866 .64746096 .6639862 .64645388 .61299136 .6454468 .57499697 .6454468 .5379944 .6454468 .48999024 .64645388 .44599916 .64746096 .43998719 .641449 .43998719 .6204376 .44599916 .61442568 .5159912 .61143496 .5329895 .60643008 .5329895 .52337649V.36328126H.19099427V.52337649C.19099427 .60643008 .20799256 .61143496 .27799989 .61442568 .28399659 .6204376 .28399659 .641449 .27799989 .64746096 .23999024 .64645388 .19898987 .6454468 .147995 .6454468 .09799194 .6454468 .056991579 .64645388 .018997193 .64746096 .0129852299 .641449 .0129852299 .6204376 .018997193 .61442568 .08898926 .61143496 .10598755 .60643008 .10598755 .52337649V.12213135C.10598755 .0390625 .08898926 .034072877 .018997193 .031066895 .0129852299 .025054932 .0129852299 .004043579 .018997193-.001953125 .06298828-.0009613037 .11099243 .000045776369 .14898682 .000045776369 .18499756 .000045776369 .23399353-.0009613037 .27799989-.001953125 .28399659 .004043579 .28399659 .025054932 .27799989 .031066895 .20799256 .034072877 .19099427 .0390625 .19099427 .12213135V.3212738H.5329895V.12213135C.5329895 .0390625 .5159912 .034072877 .44599916 .031066895 .43998719 .025054932 .43998719 .004043579 .44599916-.001953125 .4909973-.0009613037 .5389862 .000045776369 .57598879 .000045776369 .61299136 .000045776369 .6609955-.0009613037 .7049866-.001953125 .71099856 .004043579 .71099856 .025054932 .7049866 .031066895 .6349945 .034072877 .6179962 .0390625 .6179962 .12213135Z"/>
<path id="font_9_45" d="M.14898682 0H.3619995C.3889923 0 .48098756-.0020141602 .48098756-.0020141602 .4909973 .04800415 .5009918 .11305237 .5069885 .16508484 .49699403 .17008972 .48599244 .17208863 .47399903 .17008972 .45399476 .09803772 .4169922 .038986207 .31098939 .038986207H.24798584C.20899964 .038986207 .19099427 .058013917 .19099427 .10903931V.5233612C.19099427 .60643008 .20799256 .61143496 .27799989 .61442568 .28399659 .6204376 .28399659 .641449 .27799989 .64746096 .23298645 .64645388 .18598938 .6454468 .147995 .6454468 .11199951 .6454468 .06498718 .64645388 .018997193 .64746096 .0129852299 .641449 .0129852299 .6204376 .018997193 .61442568 .08898926 .61143496 .10598755 .60643008 .10598755 .5233612V.12205505C.10598755 .038986207 .08898926 .033996583 .018997193 .0309906 .0129852299 .024993897 .0129852299 .0039978029 .018997193-.0020141602 .057998659-.0010070801 .114990238 0 .14898682 0Z"/>
<path id="font_9_30" d="M.46398927 .30937196C.47698976 .30937196 .4909973 .33236695 .4909973 .34236146 .4909973 .3503723 .4869995 .359375 .47698976 .359375H.084991458C.07299805 .359375 .05999756 .34036256 .05999756 .32536317 .05999756 .31736756 .06599426 .30937196 .07499695 .30937196H.46398927M.46398927 .14335633C.47698976 .14335633 .4909973 .16635132 .4909973 .17634583 .4909973 .18435669 .4869995 .19335938 .47698976 .19335938H.084991458C.07299805 .19335938 .05999756 .17434693 .05999756 .15934754 .05999756 .15135193 .06599426 .14335633 .07499695 .14335633H.46398927Z"/>
<path id="font_9_19" d="M.06098938 .46827699C.06098938 .44725038 .07998657 .429245 .100997928 .429245 .117996219 .429245 .147995 .44725038 .147995 .4692688 .147995 .47727967 .1459961 .48327638 .14399719 .49028016 .14199829 .49728395 .13598633 .5063019 .13598633 .5142975 .13598633 .5393219 .1619873 .5753479 .23498535 .5753479 .2709961 .5753479 .32199098 .5503235 .32199098 .45425416 .32199098 .390213 .29899598 .33818055 .23999024 .2781372L.1659851 .20509339C.067993167 .105026248 .051986696 .056991579 .051986696-.0020141602 .051986696-.0020141602 .102996829 0 .1349945 0H.30999757C.34199525 0 .3880005-.0020141602 .3880005-.0020141602 .40098573 .050994874 .41099549 .1260376 .4119873 .15605164 .4059906 .16105652 .3929901 .16305542 .3829956 .16105652 .3659973 .0900116 .34899903 .06498718 .31298829 .06498718H.1349945C.1349945 .11302185 .20399475 .18107605 .20899964 .18608094L.30999757 .2831421C.36698915 .33818055 .4099884 .3822174 .4099884 .4582672 .4099884 .56632998 .32199098 .61035159 .24099732 .61035159 .12998963 .61035159 .06098938 .52830508 .06098938 .46827699Z"/>
<path id="font_9_23" d="M.14399719 .3432312C.17098999 .43421937 .23498535 .53523257 .36799623 .58522036 .36799623 .597229 .3639984 .6062317 .35598756 .6112213 .25498963 .58122256 .19299317 .53923037 .13699341 .4742279 .07499695 .40222169 .04399109 .31123353 .04399109 .23223877 .04399109 .029251099 .15899658-.0107421879 .23599243-.0107421879 .36698915-.0107421879 .42099 .116241458 .42099 .20223999 .42099 .28823854 .375 .36523438 .23899842 .36523438 .21299744 .36523438 .17399597 .3572235 .14399719 .3432312M.1349945 .30723573C.16799927 .32922364 .20098877 .3302307 .21798706 .3302307 .31599427 .3302307 .33799745 .23423767 .33799745 .18423462 .33799745 .07424927 .29599 .024246216 .24699402 .024246216 .18399048 .024246216 .1269989 .058242799 .1269989 .22923279 .1269989 .25222779 .1289978 .27822877 .1349945 .30723573Z"/>
<path id="font_9_18" d="M.28799439 .12210083V.46931459C.28799439 .52934268 .2889862 .5903778 .29100038 .60339358 .29100038 .60839846 .2889862 .60839846 .2849884 .60839846 .22999573 .57437136 .1769867 .5493622 .08898926 .5083313 .09098816 .4973297 .09498596 .48731996 .10398865 .48130799 .1499939 .50032046 .17199707 .5063324 .19099427 .5063324 .20799256 .5063324 .21099854 .48231507 .21099854 .44828797V.12210083C.21099854 .03904724 .18399048 .03404236 .11399841 .031036377 .10798645 .025039673 .10798645 .004043579 .11399841-.001953125 .16299439-.0009613037 .19898987 .000045776369 .25299073 .000045776369 .30099488 .000045776369 .32499696-.0009613037 .375-.001953125 .3809967 .004043579 .3809967 .025039673 .375 .031036377 .30499269 .03404236 .28799439 .03904724 .28799439 .12210083Z"/>
<path id="font_9_21" d="M.42999269 .21887207H.34700013V.51123049C.34700013 .5612793 .34700013 .60032656 .34899903 .6083374L.34700013 .61035159H.31498719C.30799867 .61035159 .30299378 .6043396 .29899598 .5993347 .23599243 .52223208 .11999512 .3570404 .027999878 .21386719 .0309906 .1988678 .036987306 .171875 .066986087 .171875H.2709961V.07998657C.2709961 .03404236 .23298645 .03404236 .18998719 .031036377 .18399048 .025039673 .18399048 .004043579 .18998719-.001953125 .22200012-.0009613037 .2619934 .000045776369 .30799867 .000045776369 .34700013 .000045776369 .3849945-.0009613037 .4169922-.001953125 .4229889 .004043579 .4229889 .025039673 .4169922 .031036377 .36799623 .03503418 .34700013 .03303528 .34700013 .07998657V.171875H.41600038C.42999269 .171875 .44499208 .19087219 .44499208 .2028656 .44499208 .2128601 .44099427 .21887207 .42999269 .21887207M.2709961 .5072174V.21887207H.07998657C.1309967 .30096437 .20199585 .4131012 .2709961 .5072174Z"/>
</defs>
<path transform="matrix(1,0,0,-1,0,398.88)" d="M0 0H686.06228V398.88H0Z" fill="none"/>
<path transform="matrix(1,0,0,-1,0,398.88)" d="M62.44357 57.427896H678.4134V368.9069H62.44357Z" fill="none"/>
<g clip-path="url(#clip_1)">
<path transform="matrix(1,0,0,-1,0,398.88)" stroke-width=".8" stroke-linecap="square" stroke-linejoin="round" fill="none" stroke="#b0b0b0" stroke-opacity=".3" d="M90.4422 57.427896V368.9069"/>
</g>
<path transform="matrix(1,0,0,-1,0,398.88)" d="M90.4422 57.427896V53.927896"/>
<path transform="matrix(1,0,0,-1,0,398.88)" stroke-width=".8" stroke-linecap="butt" stroke-linejoin="round" fill="none" stroke="#000000" d="M90.4422 57.427896V53.927896"/>
<use data-text="0" xlink:href="#font_2_50" transform="matrix(19.92528,0,0,-19.92528,85.87315,362.4297)"/>
<g clip-path="url(#clip_3)">
<path transform="matrix(1,0,0,-1,0,398.88)" stroke-width=".8" stroke-linecap="square" stroke-linejoin="round" fill="none" stroke="#b0b0b0" stroke-opacity=".3" d="M186.9892 57.427896V368.9069"/>
</g>
<path transform="matrix(1,0,0,-1,0,398.88)" d="M186.9892 57.427896V53.927896"/>
<path transform="matrix(1,0,0,-1,0,398.88)" stroke-width=".8" stroke-linecap="butt" stroke-linejoin="round" fill="none" stroke="#000000" d="M186.9892 57.427896V53.927896"/>
<use data-text="5" xlink:href="#font_2_55" transform="matrix(19.92528,0,0,-19.92528,182.42014,362.4297)"/>
<g clip-path="url(#clip_4)">
<path transform="matrix(1,0,0,-1,0,398.88)" stroke-width=".8" stroke-linecap="square" stroke-linejoin="round" fill="none" stroke="#b0b0b0" stroke-opacity=".3" d="M283.5362 57.427896V368.9069"/>
</g>
<path transform="matrix(1,0,0,-1,0,398.88)" d="M283.5362 57.427896V53.927896"/>
<path transform="matrix(1,0,0,-1,0,398.88)" stroke-width=".8" stroke-linecap="butt" stroke-linejoin="round" fill="none" stroke="#000000" d="M283.5362 57.427896V53.927896"/>
<use data-text="1" xlink:href="#font_2_51" transform="matrix(19.92528,0,0,-19.92528,274.39808,362.4297)"/>
<use data-text="0" xlink:href="#font_2_50" transform="matrix(19.92528,0,0,-19.92528,283.52388,362.4297)"/>
<g clip-path="url(#clip_5)">
<path transform="matrix(1,0,0,-1,0,398.88)" stroke-width=".8" stroke-linecap="square" stroke-linejoin="round" fill="none" stroke="#b0b0b0" stroke-opacity=".3" d="M380.08317 57.427896V368.9069"/>
</g>
<path transform="matrix(1,0,0,-1,0,398.88)" d="M380.08317 57.427896V53.927896"/>
<path transform="matrix(1,0,0,-1,0,398.88)" stroke-width=".8" stroke-linecap="butt" stroke-linejoin="round" fill="none" stroke="#000000" d="M380.08317 57.427896V53.927896"/>
<use data-text="1" xlink:href="#font_2_51" transform="matrix(19.92528,0,0,-19.92528,370.94508,362.4297)"/>
<use data-text="5" xlink:href="#font_2_55" transform="matrix(19.92528,0,0,-19.92528,380.07087,362.4297)"/>
<g clip-path="url(#clip_6)">
<path transform="matrix(1,0,0,-1,0,398.88)" stroke-width=".8" stroke-linecap="square" stroke-linejoin="round" fill="none" stroke="#b0b0b0" stroke-opacity=".3" d="M476.63017 57.427896V368.9069"/>
</g>
<path transform="matrix(1,0,0,-1,0,398.88)" d="M476.63017 57.427896V53.927896"/>
<path transform="matrix(1,0,0,-1,0,398.88)" stroke-width=".8" stroke-linecap="butt" stroke-linejoin="round" fill="none" stroke="#000000" d="M476.63017 57.427896V53.927896"/>
<use data-text="2" xlink:href="#font_2_52" transform="matrix(19.92528,0,0,-19.92528,467.49208,362.4297)"/>
<use data-text="0" xlink:href="#font_2_50" transform="matrix(19.92528,0,0,-19.92528,476.61787,362.4297)"/>
<g clip-path="url(#clip_7)">
<path transform="matrix(1,0,0,-1,0,398.88)" stroke-width=".8" stroke-linecap="square" stroke-linejoin="round" fill="none" stroke="#b0b0b0" stroke-opacity=".3" d="M573.1772 57.427896V368.9069"/>
</g>
<path transform="matrix(1,0,0,-1,0,398.88)" d="M573.1772 57.427896V53.927896"/>
<path transform="matrix(1,0,0,-1,0,398.88)" stroke-width=".8" stroke-linecap="butt" stroke-linejoin="round" fill="none" stroke="#000000" d="M573.1772 57.427896V53.927896"/>
<use data-text="2" xlink:href="#font_2_52" transform="matrix(19.92528,0,0,-19.92528,564.03909,362.4297)"/>
<use data-text="5" xlink:href="#font_2_55" transform="matrix(19.92528,0,0,-19.92528,573.16488,362.4297)"/>
<g clip-path="url(#clip_8)">
<path transform="matrix(1,0,0,-1,0,398.88)" stroke-width=".8" stroke-linecap="square" stroke-linejoin="round" fill="none" stroke="#b0b0b0" stroke-opacity=".3" d="M669.7241 57.427896V368.9069"/>
</g>
<path transform="matrix(1,0,0,-1,0,398.88)" d="M669.7241 57.427896V53.927896"/>
<path transform="matrix(1,0,0,-1,0,398.88)" stroke-width=".8" stroke-linecap="butt" stroke-linejoin="round" fill="none" stroke="#000000" d="M669.7241 57.427896V53.927896"/>
<use data-text="3" xlink:href="#font_2_53" transform="matrix(19.92528,0,0,-19.92528,660.58609,362.4297)"/>
<use data-text="0" xlink:href="#font_2_50" transform="matrix(19.92528,0,0,-19.92528,669.71188,362.4297)"/>
<use data-text="P" xlink:href="#font_9_49" transform="matrix(21.917809,0,0,-21.917809,281.42036,386.5074)"/>
<use data-text="e" xlink:href="#font_9_70" transform="matrix(21.917809,0,0,-21.917809,293.2779,386.5074)"/>
<use data-text="r" xlink:href="#font_9_83" transform="matrix(21.917809,0,0,-21.917809,303.05323,386.5074)"/>
<use data-text="i" xlink:href="#font_9_74" transform="matrix(21.917809,0,0,-21.917809,311.18473,386.5074)"/>
<use data-text="o" xlink:href="#font_9_80" transform="matrix(21.917809,0,0,-21.917809,317.10255,386.5074)"/>
<use data-text="d" xlink:href="#font_9_69" transform="matrix(21.917809,0,0,-21.917809,328.2806,386.5074)"/>
<use data-text="s" xlink:href="#font_9_84" transform="matrix(21.917809,0,0,-21.917809,339.3491,386.5074)"/>
<use data-text="A" xlink:href="#font_9_34" transform="matrix(21.917809,0,0,-21.917809,353.3765,386.5074)"/>
<use data-text="f" xlink:href="#font_9_2385" transform="matrix(21.917809,0,0,-21.917809,368.58747,386.5074)"/>
<use data-text="e" xlink:href="#font_9_70" transform="matrix(21.917809,0,0,-21.917809,381.62858,386.5074)"/>
<use data-text="r" xlink:href="#font_9_83" transform="matrix(21.917809,0,0,-21.917809,391.4039,386.5074)"/>
<use data-text="S" xlink:href="#font_9_52" transform="matrix(21.917809,0,0,-21.917809,405.01487,386.5074)"/>
<use data-text="h" xlink:href="#font_9_73" transform="matrix(21.917809,0,0,-21.917809,415.62309,386.5074)"/>
<use data-text="o" xlink:href="#font_9_80" transform="matrix(21.917809,0,0,-21.917809,427.41487,386.5074)"/>
<use data-text="c" xlink:href="#font_9_68" transform="matrix(21.917809,0,0,-21.917809,438.59294,386.5074)"/>
<use data-text="k" xlink:href="#font_9_76" transform="matrix(21.917809,0,0,-21.917809,447.97377,386.5074)"/>
<g clip-path="url(#clip_10)">
<path transform="matrix(1,0,0,-1,0,398.88)" stroke-width=".8" stroke-linecap="square" stroke-linejoin="round" fill="none" stroke="#b0b0b0" stroke-opacity=".3" d="M62.44357 71.573818H678.4134"/>
</g>
<path transform="matrix(1,0,0,-1,0,398.88)" d="M62.44357 71.573818H58.94357"/>
<path transform="matrix(1,0,0,-1,0,398.88)" stroke-width=".8" stroke-linecap="butt" stroke-linejoin="round" fill="none" stroke="#000000" d="M62.44357 71.573818H58.94357"/>
<use data-text="0" xlink:href="#font_2_50" transform="matrix(19.92528,0,0,-19.92528,31.747946,334.29499)"/>
<use data-text="." xlink:href="#font_11_59" transform="matrix(19.92528,0,0,-19.92528,40.88604,334.29499)"/>
<use data-text="0" xlink:href="#font_2_50" transform="matrix(19.92528,0,0,-19.92528,46.305475,334.29499)"/>
<g clip-path="url(#clip_12)">
<path transform="matrix(1,0,0,-1,0,398.88)" stroke-width=".8" stroke-linecap="square" stroke-linejoin="round" fill="none" stroke="#b0b0b0" stroke-opacity=".3" d="M62.44357 128.2088H678.4134"/>
</g>
<path transform="matrix(1,0,0,-1,0,398.88)" d="M62.44357 128.2088H58.94357"/>
<path transform="matrix(1,0,0,-1,0,398.88)" stroke-width=".8" stroke-linecap="butt" stroke-linejoin="round" fill="none" stroke="#000000" d="M62.44357 128.2088H58.94357"/>
<use data-text="0" xlink:href="#font_2_50" transform="matrix(19.92528,0,0,-19.92528,31.747946,277.66)"/>
<use data-text="." xlink:href="#font_11_59" transform="matrix(19.92528,0,0,-19.92528,40.88604,277.66)"/>
<use data-text="2" xlink:href="#font_2_52" transform="matrix(19.92528,0,0,-19.92528,46.305475,277.66)"/>
<g clip-path="url(#clip_13)">
<path transform="matrix(1,0,0,-1,0,398.88)" stroke-width=".8" stroke-linecap="square" stroke-linejoin="round" fill="none" stroke="#b0b0b0" stroke-opacity=".3" d="M62.44357 184.8438H678.4134"/>
</g>
<path transform="matrix(1,0,0,-1,0,398.88)" d="M62.44357 184.8438H58.94357"/>
<path transform="matrix(1,0,0,-1,0,398.88)" stroke-width=".8" stroke-linecap="butt" stroke-linejoin="round" fill="none" stroke="#000000" d="M62.44357 184.8438H58.94357"/>
<use data-text="0" xlink:href="#font_2_50" transform="matrix(19.92528,0,0,-19.92528,31.747946,221.02501)"/>
<use data-text="." xlink:href="#font_11_59" transform="matrix(19.92528,0,0,-19.92528,40.88604,221.02501)"/>
<use data-text="4" xlink:href="#font_2_54" transform="matrix(19.92528,0,0,-19.92528,46.305475,221.02501)"/>
<g clip-path="url(#clip_14)">
<path transform="matrix(1,0,0,-1,0,398.88)" stroke-width=".8" stroke-linecap="square" stroke-linejoin="round" fill="none" stroke="#b0b0b0" stroke-opacity=".3" d="M62.44357 241.47879H678.4134"/>
</g>
<path transform="matrix(1,0,0,-1,0,398.88)" d="M62.44357 241.47879H58.94357"/>
<path transform="matrix(1,0,0,-1,0,398.88)" stroke-width=".8" stroke-linecap="butt" stroke-linejoin="round" fill="none" stroke="#000000" d="M62.44357 241.47879H58.94357"/>
<use data-text="0" xlink:href="#font_2_50" transform="matrix(19.92528,0,0,-19.92528,31.747946,164.39002)"/>
<use data-text="." xlink:href="#font_11_59" transform="matrix(19.92528,0,0,-19.92528,40.88604,164.39002)"/>
<use data-text="6" xlink:href="#font_2_56" transform="matrix(19.92528,0,0,-19.92528,46.305475,164.39002)"/>
<g clip-path="url(#clip_15)">
<path transform="matrix(1,0,0,-1,0,398.88)" stroke-width=".8" stroke-linecap="square" stroke-linejoin="round" fill="none" stroke="#b0b0b0" stroke-opacity=".3" d="M62.44357 298.11378H678.4134"/>
</g>
<path transform="matrix(1,0,0,-1,0,398.88)" d="M62.44357 298.11378H58.94357"/>
<path transform="matrix(1,0,0,-1,0,398.88)" stroke-width=".8" stroke-linecap="butt" stroke-linejoin="round" fill="none" stroke="#000000" d="M62.44357 298.11378H58.94357"/>
<use data-text="0" xlink:href="#font_2_50" transform="matrix(19.92528,0,0,-19.92528,31.747946,107.755039)"/>
<use data-text="." xlink:href="#font_11_59" transform="matrix(19.92528,0,0,-19.92528,40.88604,107.755039)"/>
<use data-text="8" xlink:href="#font_2_58" transform="matrix(19.92528,0,0,-19.92528,46.305475,107.755039)"/>
<g clip-path="url(#clip_16)">
<path transform="matrix(1,0,0,-1,0,398.88)" stroke-width=".8" stroke-linecap="square" stroke-linejoin="round" fill="none" stroke="#b0b0b0" stroke-opacity=".3" d="M62.44357 354.74876H678.4134"/>
</g>
<path transform="matrix(1,0,0,-1,0,398.88)" d="M62.44357 354.74876H58.94357"/>
<path transform="matrix(1,0,0,-1,0,398.88)" stroke-width=".8" stroke-linecap="butt" stroke-linejoin="round" fill="none" stroke="#000000" d="M62.44357 354.74876H58.94357"/>
<use data-text="1" xlink:href="#font_2_51" transform="matrix(19.92528,0,0,-19.92528,31.747946,51.120027)"/>
<use data-text="." xlink:href="#font_11_59" transform="matrix(19.92528,0,0,-19.92528,40.88604,51.120027)"/>
<use data-text="0" xlink:href="#font_2_50" transform="matrix(19.92528,0,0,-19.92528,46.305475,51.120027)"/>
<use data-text="W" xlink:href="#font_9_56" transform="matrix(0,-21.917809,-21.917809,-0,22.57534,278.88514)"/>
<use data-text="e" xlink:href="#font_9_70" transform="matrix(0,-21.917809,-21.917809,-0,22.57534,259.79475)"/>
<use data-text="i" xlink:href="#font_9_74" transform="matrix(0,-21.917809,-21.917809,-0,22.57534,250.0194)"/>
<use data-text="g" xlink:href="#font_9_72" transform="matrix(0,-21.917809,-21.917809,-0,22.57534,244.1016)"/>
<use data-text="h" xlink:href="#font_9_73" transform="matrix(0,-21.917809,-21.917809,-0,22.57534,233.14269)"/>
<use data-text="t" xlink:href="#font_9_85" transform="matrix(0,-21.917809,-21.917809,-0,22.57534,221.3509)"/>
<use data-text="o" xlink:href="#font_9_80" transform="matrix(0,-21.917809,-21.917809,-0,22.57534,208.96735)"/>
<use data-text="n" xlink:href="#font_9_79" transform="matrix(0,-21.917809,-21.917809,-0,22.57534,197.94269)"/>
<use data-text="O" xlink:href="#font_9_48" transform="matrix(0,-21.917809,-21.917809,-0,22.57534,180.60572)"/>
<use data-text="l" xlink:href="#font_9_77" transform="matrix(0,-21.917809,-21.917809,-0,22.57534,165.24134)"/>
<use data-text="d" xlink:href="#font_9_69" transform="matrix(0,-21.917809,-21.917809,-0,22.57534,159.47695)"/>
<use data-text="V" xlink:href="#font_9_55" transform="matrix(0,-21.917809,-21.917809,-0,22.57534,142.929)"/>
<use data-text="a" xlink:href="#font_9_66" transform="matrix(0,-21.917809,-21.917809,-0,22.57534,129.95368)"/>
<use data-text="l" xlink:href="#font_9_77" transform="matrix(0,-21.917809,-21.917809,-0,22.57534,119.95917)"/>
<use data-text="u" xlink:href="#font_9_86" transform="matrix(0,-21.917809,-21.917809,-0,22.57534,114.19479)"/>
<use data-text="e" xlink:href="#font_9_70" transform="matrix(0,-21.917809,-21.917809,-0,22.57534,102.55643)"/>
<g clip-path="url(#clip_17)">
<path transform="matrix(1,0,0,-1,0,398.88)" stroke-width="2" stroke-linecap="square" stroke-linejoin="round" fill="none" stroke="#dc3545" d="M90.4422 354.74876 109.751598 271.80876 129.06099 213.16129 148.37039 171.69127 167.6798 142.36756 186.9892 121.632549 206.29859 106.97068 225.60799 96.60318 244.91739 89.27225 264.22679 84.08849 283.5362 80.42303 302.84559 77.831157 322.15498 75.99842 341.4644 74.702487 360.77378 73.78612 380.08317 73.138149 399.39259 72.67996 418.70198 72.35598 438.01139 72.126888 457.32078 71.9649 476.63017 71.85035 495.93959 71.769359 515.24899 71.71208 534.55838 71.671588 553.86776 71.642948 573.1772 71.622699 592.4866 71.608379 611.79598 71.59825 631.10537 71.591098 650.41476 71.58603"/>
</g>
<g clip-path="url(#clip_18)">
<path transform="matrix(1,0,0,-1,0,398.88)" stroke-width="2" stroke-linecap="square" stroke-linejoin="round" fill="none" stroke="#fd7e14" d="M90.4422 354.74876 109.751598 323.854 129.06099 296.32994 148.37039 271.80876 167.6798 249.96286 186.9892 230.50038 206.29859 213.16129 225.60799 197.71392 244.91739 183.95186 264.22679 171.69127 283.5362 160.76833 302.84559 151.0371 322.15498 142.36756 341.4644 134.64386 360.77378 127.76284 380.08317 121.632549 399.39259 116.171077 418.70198 111.30545 438.01139 106.97068 457.32078 103.10883 476.63017 99.66833 495.93959 96.60318 515.24899 93.872447 534.55838 91.43963 553.86776 89.27225 573.1772 87.341327 592.4866 85.62106 611.79598 84.08849 631.10537 82.72313 650.41476 81.50672"/>
</g>
<g clip-path="url(#clip_19)">
<path transform="matrix(1,0,0,-1,0,398.88)" stroke-width="2" stroke-linecap="square" stroke-linejoin="round" fill="none" stroke="#28a745" d="M90.4422 354.74876 109.751598 338.85539 129.06099 323.854 148.37039 309.6946 167.6798 296.32994 186.9892 283.71534 206.29859 271.80876 225.60799 260.5704 244.91739 249.96286 264.22679 239.95064 283.5362 230.50038 302.84559 221.58052 322.15498 213.16129 341.4644 205.2146 360.77378 197.71392 380.08317 190.63422 399.39259 183.95186 418.70198 177.64458 438.01139 171.69127 457.32078 166.07212 476.63017 160.76833 495.93959 155.76222 515.24899 151.0371 534.55838 146.57717 553.86776 142.36756 573.1772 138.3942 592.4866 134.64386 611.79598 131.104 631.10537 127.76284 650.41476 124.60919"/>
</g>
<g clip-path="url(#clip_20)">
<path transform="matrix(1,0,0,-1,0,398.88)" stroke-width="2" stroke-linecap="square" stroke-linejoin="round" fill="none" stroke="#2962ff" d="M90.4422 354.74876 109.751598 346.68733 129.06099 338.85539 148.37039 331.2464 167.6798 323.854 186.9892 316.6721 206.29859 309.6946 225.60799 302.91578 244.91739 296.32994 264.22679 289.93156 283.5362 283.71534 302.84559 277.6761 322.15498 271.80876 341.4644 266.10844 360.77378 260.5704 380.08317 255.19005 399.39259 249.96286 418.70198 244.88446 438.01139 239.95064 457.32078 235.15729 476.63017 230.50038 495.93959 225.97605 515.24899 221.58052 534.55838 217.31012 553.86776 213.16129 573.1772 209.13057 592.4866 205.2146 611.79598 201.4101 631.10537 197.71392 650.41476 194.12296"/>
</g>
<g clip-path="url(#clip_21)">
<path transform="matrix(1,0,0,-1,0,398.88)" stroke-width="1.5" stroke-linecap="butt" stroke-dasharray="5.55,2.4" stroke-linejoin="round" fill="none" stroke="#808080" stroke-opacity=".5" d="M62.44357 213.16129H678.4134"/>
</g>
<path transform="matrix(1,0,0,-1,0,398.88)" stroke-width=".8" stroke-linecap="square" stroke-miterlimit="10" stroke-linejoin="miter" fill="none" stroke="#000000" d="M62.44357 57.427896V368.9069"/>
<path transform="matrix(1,0,0,-1,0,398.88)" stroke-width=".8" stroke-linecap="square" stroke-miterlimit="10" stroke-linejoin="miter" fill="none" stroke="#000000" d="M678.4134 57.427896V368.9069"/>
<path transform="matrix(1,0,0,-1,0,398.88)" stroke-width=".8" stroke-linecap="square" stroke-miterlimit="10" stroke-linejoin="miter" fill="none" stroke="#000000" d="M62.44357 57.427896H678.4134"/>
<path transform="matrix(1,0,0,-1,0,398.88)" stroke-width=".8" stroke-linecap="square" stroke-miterlimit="10" stroke-linejoin="miter" fill="none" stroke="#000000" d="M62.44357 368.9069H678.4134"/>
<use data-text="M" xlink:href="#font_9_46" transform="matrix(23.910336,0,0,-23.910336,139.2653,23.973114)"/>
<use data-text="e" xlink:href="#font_9_70" transform="matrix(23.910336,0,0,-23.910336,159.30217,23.973114)"/>
<use data-text="m" xlink:href="#font_9_78" transform="matrix(23.910336,0,0,-23.910336,169.96619,23.973114)"/>
<use data-text="o" xlink:href="#font_9_80" transform="matrix(23.910336,0,0,-23.910336,188.83144,23.973114)"/>
<use data-text="r" xlink:href="#font_9_83" transform="matrix(23.910336,0,0,-23.910336,200.85834,23.973114)"/>
<use data-text="y" xlink:href="#font_9_90" transform="matrix(23.910336,0,0,-23.910336,210.08773,23.973114)"/>
<use data-text="D" xlink:href="#font_9_37" transform="matrix(23.910336,0,0,-23.910336,228.37914,23.973114)"/>
<use data-text="e" xlink:href="#font_9_70" transform="matrix(23.910336,0,0,-23.910336,245.14029,23.973114)"/>
<use data-text="c" xlink:href="#font_9_68" transform="matrix(23.910336,0,0,-23.910336,255.97168,23.973114)"/>
<use data-text="a" xlink:href="#font_9_66" transform="matrix(23.910336,0,0,-23.910336,266.2053,23.973114)"/>
<use data-text="y" xlink:href="#font_9_90" transform="matrix(23.910336,0,0,-23.910336,277.1084,23.973114)"/>
<use data-text=":" xlink:href="#font_9_27" transform="matrix(23.910336,0,0,-23.910336,289.4222,23.973114)"/>
<use data-text="&#x03bb;" xlink:href="#font_11_22" transform="matrix(23.910336,0,0,-23.910336,302.207,23.973114)"/>
<use data-text="n" xlink:href="#font_11_111" transform="matrix(16.737162,0,0,-16.737162,315.86399,15.296234)"/>
<use data-text="(" xlink:href="#font_9_9" transform="matrix(23.910336,0,0,-23.910336,332.12229,23.973114)"/>
<use data-text="w" xlink:href="#font_9_88" transform="matrix(23.910336,0,0,-23.910336,338.84107,23.973114)"/>
<use data-text="e" xlink:href="#font_9_70" transform="matrix(23.910336,0,0,-23.910336,356.48689,23.973114)"/>
<use data-text="i" xlink:href="#font_9_74" transform="matrix(23.910336,0,0,-23.910336,367.15089,23.973114)"/>
<use data-text="g" xlink:href="#font_9_72" transform="matrix(23.910336,0,0,-23.910336,373.60667,23.973114)"/>
<use data-text="h" xlink:href="#font_9_73" transform="matrix(23.910336,0,0,-23.910336,385.56184,23.973114)"/>
<use data-text="t" xlink:href="#font_9_85" transform="matrix(23.910336,0,0,-23.910336,398.4256,23.973114)"/>
<use data-text="o" xlink:href="#font_9_80" transform="matrix(23.910336,0,0,-23.910336,411.93495,23.973114)"/>
<use data-text="n" xlink:href="#font_9_79" transform="matrix(23.910336,0,0,-23.910336,423.96183,23.973114)"/>
<use data-text="p" xlink:href="#font_9_81" transform="matrix(23.910336,0,0,-23.910336,442.87489,23.973114)"/>
<use data-text="r" xlink:href="#font_9_83" transform="matrix(23.910336,0,0,-23.910336,455.28434,23.973114)"/>
<use data-text="e" xlink:href="#font_9_70" transform="matrix(23.910336,0,0,-23.910336,463.96379,23.973114)"/>
<use data-text="-" xlink:href="#font_9_14" transform="matrix(23.910336,0,0,-23.910336,474.62779,23.973114)"/>
<use data-text="s" xlink:href="#font_9_84" transform="matrix(23.910336,0,0,-23.910336,482.70948,23.973114)"/>
<use data-text="h" xlink:href="#font_9_73" transform="matrix(23.910336,0,0,-23.910336,492.03453,23.973114)"/>
<use data-text="o" xlink:href="#font_9_80" transform="matrix(23.910336,0,0,-23.910336,504.8983,23.973114)"/>
<use data-text="c" xlink:href="#font_9_68" transform="matrix(23.910336,0,0,-23.910336,517.0925,23.973114)"/>
<use data-text="k" xlink:href="#font_9_76" transform="matrix(23.910336,0,0,-23.910336,527.3262,23.973114)"/>
<use data-text="p" xlink:href="#font_9_81" transform="matrix(23.910336,0,0,-23.910336,545.54586,23.973114)"/>
<use data-text="r" xlink:href="#font_9_83" transform="matrix(23.910336,0,0,-23.910336,557.9553,23.973114)"/>
<use data-text="i" xlink:href="#font_9_74" transform="matrix(23.910336,0,0,-23.910336,566.82608,23.973114)"/>
<use data-text="c" xlink:href="#font_9_68" transform="matrix(23.910336,0,0,-23.910336,573.28189,23.973114)"/>
<use data-text="e" xlink:href="#font_9_70" transform="matrix(23.910336,0,0,-23.910336,583.5155,23.973114)"/>
<use data-text=")" xlink:href="#font_9_10" transform="matrix(23.910336,0,0,-23.910336,594.1795,23.973114)"/>
<g>
<path transform="matrix(1,0,0,-1,0,398.88)" d="M545.858 238.09743H664.4134C667.08 238.09743 668.4134 239.43077 668.4134 242.09743V354.9069C668.4134 357.57359 667.08 358.9069 664.4134 358.9069H545.858C543.1913 358.9069 541.858 357.57359 541.858 354.9069V242.09743C541.858 239.43077 543.1913 238.09743 545.858 238.09743Z" fill="#ffffff" fill-opacity=".8"/>
<path transform="matrix(1,0,0,-1,0,398.88)" stroke-width="1" stroke-linecap="butt" stroke-miterlimit="10" stroke-linejoin="miter" fill="none" stroke="#cccccc" stroke-opacity=".8" d="M545.858 238.09743H664.4134C667.08 238.09743 668.4134 239.43077 668.4134 242.09743V354.9069C668.4134 357.57359 667.08 358.9069 664.4134 358.9069H545.858C543.1913 358.9069 541.858 357.57359 541.858 354.9069V242.09743C541.858 239.43077 543.1913 238.09743 545.858 238.09743Z"/>
</g>
<path transform="matrix(1,0,0,-1,0,398.88)" stroke-width="2" stroke-linecap="square" stroke-linejoin="round" fill="none" stroke="#dc3545" d="M549.858 343.9069H569.858 589.858"/>
<use data-text="H" xlink:href="#font_9_41" transform="matrix(19.92528,0,0,-19.92528,605.858,61.973115)"/>
<use data-text="L" xlink:href="#font_9_45" transform="matrix(19.92528,0,0,-19.92528,620.3835,61.973115)"/>
<use data-text="=" xlink:href="#font_9_30" transform="matrix(19.92528,0,0,-19.92528,630.8841,61.973115)"/>
<use data-text="2" xlink:href="#font_9_19" transform="matrix(19.92528,0,0,-19.92528,641.843,61.973115)"/>
<path transform="matrix(1,0,0,-1,0,398.88)" stroke-width="2" stroke-linecap="square" stroke-linejoin="round" fill="none" stroke="#fd7e14" d="M549.858 315.20454H569.858 589.858"/>
<use data-text="H" xlink:href="#font_9_41" transform="matrix(19.92528,0,0,-19.92528,605.858,90.675479)"/>
<use data-text="L" xlink:href="#font_9_45" transform="matrix(19.92528,0,0,-19.92528,620.3835,90.675479)"/>
<use data-text="=" xlink:href="#font_9_30" transform="matrix(19.92528,0,0,-19.92528,630.8841,90.675479)"/>
<use data-text="6" xlink:href="#font_9_23" transform="matrix(19.92528,0,0,-19.92528,641.843,90.675479)"/>
<path transform="matrix(1,0,0,-1,0,398.88)" stroke-width="2" stroke-linecap="square" stroke-linejoin="round" fill="none" stroke="#28a745" d="M549.858 286.50218H569.858 589.858"/>
<use data-text="H" xlink:href="#font_9_41" transform="matrix(19.92528,0,0,-19.92528,605.858,119.37784)"/>
<use data-text="L" xlink:href="#font_9_45" transform="matrix(19.92528,0,0,-19.92528,620.3835,119.37784)"/>
<use data-text="=" xlink:href="#font_9_30" transform="matrix(19.92528,0,0,-19.92528,630.8841,119.37784)"/>
<use data-text="1" xlink:href="#font_9_18" transform="matrix(19.92528,0,0,-19.92528,641.843,119.37784)"/>
<use data-text="2" xlink:href="#font_9_19" transform="matrix(19.92528,0,0,-19.92528,651.1083,119.37784)"/>
<path transform="matrix(1,0,0,-1,0,398.88)" stroke-width="2" stroke-linecap="square" stroke-linejoin="round" fill="none" stroke="#2962ff" d="M549.858 257.7998H569.858 589.858"/>
<use data-text="H" xlink:href="#font_9_41" transform="matrix(19.92528,0,0,-19.92528,605.858,148.0802)"/>
<use data-text="L" xlink:href="#font_9_45" transform="matrix(19.92528,0,0,-19.92528,620.3835,148.0802)"/>
<use data-text="=" xlink:href="#font_9_30" transform="matrix(19.92528,0,0,-19.92528,630.8841,148.0802)"/>
<use data-text="2" xlink:href="#font_9_19" transform="matrix(19.92528,0,0,-19.92528,641.843,148.0802)"/>
<use data-text="4" xlink:href="#font_9_21" transform="matrix(19.92528,0,0,-19.92528,651.1083,148.0802)"/>
</svg>
