<svg xmlns="http://www.w3.org/2000/svg" xmlns:xlink="http://www.w3.org/1999/xlink" version="1.1" width="686.88pt" height="399.9761pt" viewBox="0 0 686.88 399.9761">
<defs>
<clipPath id="clip_1">
<path transform="matrix(1,0,0,-1,0,399.9761)" d="M57.024137 57.427896H679.68V365.95353H57.024137Z"/>
</clipPath>
<path id="font_2_51" d="M.2659912 .63912966C.2659912 .66012576 .2649994 .6611328 .25099183 .6611328 .21199036 .61424258 .15299988 .5993042 .09700012 .5973053 .09399414 .5973053 .08898926 .5973053 .08799744 .5953064 .08699036 .5933075 .08699036 .5913086 .08699036 .5703125 .117996219 .5703125 .16999817 .5763092 .20999146 .600296V.073013309C.20999146 .037994386 .20799256 .025985718 .12199402 .025985718H.09199524V0C.13999939 .0009918213 .18998719 .0019989014 .23799134 .0019989014 .28599549 .0019989014 .33599855 .0009918213 .38398744 0V.025985718H.35398866C.2679901 .025985718 .2659912 .037002565 .2659912 .073013309V.63912966Z"/>
<path id="font_2_50" d="M.41999818 .3212433C.41999818 .38223268 .4189911 .4861908 .3769989 .5661621 .33999635 .6361389 .2809906 .6611328 .22898865 .6611328 .18099976 .6611328 .11999512 .63912966 .08198547 .56715396 .041992189 .4921875 .037994386 .3992157 .037994386 .3212433 .037994386 .26426698 .038986207 .17730713 .069992069 .10133362 .11299133-.0016326904 .18998719-.015625 .22898865-.015625 .2749939-.015625 .34498597 .0033721924 .38598634 .09832764 .41600038 .16731262 .41999818 .24827576 .41999818 .3212433M.22898865 .00036621095C.16499329 .00036621095 .1269989 .055343629 .11299133 .13131714 .101989749 .19029236 .101989749 .27626039 .101989749 .33224488 .101989749 .4092102 .101989749 .4731903 .114990238 .5341644 .13398743 .6191406 .18998719 .64512637 .22898865 .64512637 .269989 .64512637 .32299806 .61813357 .34199525 .53616335 .35499574 .479187 .35598756 .4122162 .35598756 .33224488 .35598756 .26727296 .35598756 .18730164 .34399415 .12832642 .32299806 .019363404 .2639923 .00036621095 .22898865 .00036621095Z"/>
<path id="font_3_1" d="M.6589966 .23046875C.6759949 .23046875 .69400027 .23046875 .69400027 .25045777 .69400027 .27046205 .6759949 .27046205 .6589966 .27046205H.117996219C.100997928 .27046205 .08299255 .27046205 .08299255 .25045777 .08299255 .23046875 .100997928 .23046875 .117996219 .23046875H.6589966Z"/>
<path id="font_4_52" d="M.43998719 .16790772H.41799928C.4149933 .15092469 .40699769 .09597778 .39698792 .07998657 .3899994 .070999149 .33299256 .070999149 .30299378 .070999149H.117996219C.14498902 .09397888 .20599365 .15792847 .23199463 .18190003 .38398744 .3217926 .43998719 .37374879 .43998719 .47270204 .43998719 .5878906 .34899903 .66503909 .23298645 .66503909 .116989139 .66503909 .04899597 .5658264 .04899597 .4797058 .04899597 .42871095 .09298706 .42871095 .09599304 .42871095 .116989139 .42871095 .14299011 .44371034 .14299011 .475708 .14299011 .5037079 .12399292 .5227051 .09599304 .5227051 .08699036 .5227051 .084991458 .5227051 .08198547 .521698 .100997928 .5899048 .15499878 .6360321 .21998596 .6360321 .30499269 .6360321 .35699464 .56481936 .35699464 .47270204 .35699464 .3877411 .30799867 .313797 .25099183 .24984741L.04899597 .023986817V0H.4139862L.43998719 .16790772Z"/>
<clipPath id="clip_5">
<path transform="matrix(1,0,0,-1,0,399.9761)" d="M57.024137 57.427896H679.68V365.95353H57.024137Z"/>
</clipPath>
<path id="font_4_50" d="M.44799806 .31976319C.44799806 .40283204 .44299317 .48390199 .40699769 .55996707 .3659973 .64302065 .2939911 .66503909 .24499512 .66503909 .18699646 .66503909 .115997318 .63601687 .07899475 .552948 .050994874 .48989869 .040985109 .42785646 .040985109 .31976319 .040985109 .22268677 .04798889 .14962769 .083999637 .078567508 .12298584 .0025177003 .19198609-.021484375 .24398804-.021484375 .33099366-.021484375 .3809967 .030532837 .4099884 .08857727 .44599916 .16363526 .44799806 .26171876 .44799806 .31976319M.24398804-.0014953613C.21199036-.0014953613 .14698792 .016525269 .12799073 .12561035 .116989139 .18565369 .116989139 .26171876 .116989139 .33177186 .116989139 .41384889 .116989139 .48789979 .1329956 .5469513 .1499939 .6139984 .20098877 .6450348 .24398804 .6450348 .28199769 .6450348 .33999635 .6220093 .35899354 .53593447 .37199403 .4788971 .37199403 .39982606 .37199403 .33177186 .37199403 .26472474 .37199403 .18865967 .36099244 .12760926 .34199525 .01751709 .2789917-.0014953613 .24398804-.0014953613Z"/>
<clipPath id="clip_6">
<path transform="matrix(1,0,0,-1,0,399.9761)" d="M57.024137 57.427896H679.68V365.95353H57.024137Z"/>
</clipPath>
<clipPath id="clip_7">
<path transform="matrix(1,0,0,-1,0,399.9761)" d="M57.024137 57.427896H679.68V365.95353H57.024137Z"/>
</clipPath>
<path id="font_4_54" d="M.36099244 .6508026C.36099244 .6697998 .36099244 .6748047 .34700013 .6748047 .33898927 .6748047 .33599855 .6748047 .32798768 .662796L.026992798 .19598389V.16699219H.2899933V.07598877C.2899933 .038986207 .28799439 .0289917 .21499634 .0289917H.19499207V0C.21798706 .0019989014 .29699708 .0019989014 .32499696 .0019989014 .35299684 .0019989014 .43299867 .0019989014 .45599366 0V.0289917H.43598939C.3639984 .0289917 .36099244 .038986207 .36099244 .07598877V.16699219H.46199037V.19598389H.36099244V.6508026M.29499818 .5728302V.19598389H.051986696L.29499818 .5728302Z"/>
<clipPath id="clip_8">
<path transform="matrix(1,0,0,-1,0,399.9761)" d="M57.024137 57.427896H679.68V365.95353H57.024137Z"/>
</clipPath>
<path id="font_4_56" d="M.12298584 .34773255C.12298584 .60061648 .24598694 .641037 .2999878 .641037 .33599855 .641037 .37199403 .62991335 .3909912 .5996094 .3789978 .5996094 .34098817 .5996094 .34098817 .558609 .34098817 .53660586 .35598756 .51760867 .38198854 .51760867 .40699769 .51760867 .42399598 .53260806 .42399598 .56159976 .42399598 .6137543 .38598634 .66503909 .29899598 .66503909 .17298889 .66503909 .040985109 .53559878 .040985109 .31570436 .040985109 .040527345 .16099549-.021484375 .24598694-.021484375 .35499574-.021484375 .44799806 .07354736 .44799806 .2036438 .44799806 .33673097 .35499574 .42578126 .25498963 .42578126 .1659851 .42578126 .1329956 .34873963 .12298584 .32070924V.34773255M.24598694 .005508423C.18299866 .005508423 .15299988 .061538698 .14399719 .08256531 .1349945 .10858154 .125 .15760803 .125 .22766114 .125 .30670167 .16099549 .40577699 .25099183 .40577699 .30599977 .40577699 .33499146 .3687439 .34999085 .33473207 .3659973 .29769898 .3659973 .2476654 .3659973 .20463562 .3659973 .15361023 .3659973 .10858154 .34700013 .07055664 .32199098 .022521973 .28599549 .005508423 .24598694 .005508423Z"/>
<path id="font_9_53" d="M.34999085 .1219635V.50361636C.34999085 .5675659 .3600006 .6055298 .3959961 .6055298H.41799928C.49299623 .6055298 .5399933 .57954409 .5569916 .5026245 .56799319 .5026245 .58200076 .50361636 .59098818 .50761416 .58399966 .55426028 .57899478 .60528567 .5779877 .65031436 .5779877 .65130618 .57598879 .6533203 .57499697 .6533203 .54100039 .6495209 .42999269 .64453127 .35099793 .64453127H.2649994C.18798828 .64530947 .069992069 .65031436 .03199768 .6533203 .02999878 .6533203 .027999878 .65130618 .027999878 .65031436 .023986817 .60528567 .01399231 .55326846 .0029907227 .505249 .0129852299 .50123599 .024993897 .50024417 .036987306 .50024417 .056991579 .57954409 .102996829 .6055298 .16899109 .6055298H.21798706C.25498963 .6055298 .2649994 .5675659 .2649994 .5066223V.1219635C.2649994 .039031984 .24798584 .03404236 .16799927 .031036377 .1619873 .025039673 .1619873 .004043579 .16799927-.001953125 .21699524-.0009613037 .2679901 .000045776369 .30799867 .000045776369 .34599305 .000045776369 .39698792-.0009613037 .44699098-.001953125 .45298768 .004043579 .45298768 .025039673 .44699098 .031036377 .36698915 .03404236 .34999085 .039031984 .34999085 .1219635Z"/>
<path id="font_9_83" d="M.17599488 .35830689C.17399597 .39834596 .17298889 .42436219 .16799927 .43437196 .1659851 .43937684 .1639862 .4423828 .1559906 .4423828 .12799073 .43136598 .101989749 .42236329 .032989503 .4133606 .0309906 .40734864 .032989503 .39134217 .034988405 .3853302 .08898926 .38032533 .099990848 .37532044 .099990848 .317276V.12213135C.099990848 .03907776 .08799744 .035064699 .025985718 .031066895 .019989014 .025054932 .019989014 .004043579 .025985718-.001953125 .06098938-.0009613037 .099990848 .000045776369 .13999939 .000045776369 .17999268 .000045776369 .22599793-.0009613037 .26098634-.001953125 .2669983 .004043579 .2669983 .025054932 .26098634 .031066895 .19099427 .036071779 .1789856 .03907776 .1789856 .12213135V.26124574C.1789856 .28735353 .19099427 .31037904 .20298767 .32839967 .21398926 .34440614 .23699951 .3774414 .24899292 .3774414 .2579956 .3774414 .2669983 .3754425 .2749939 .36442567 .28199769 .3544464 .2939911 .34144593 .31098939 .34144593 .33499146 .34144593 .35798646 .36643983 .35798646 .39144898 .35798646 .41044618 .33999635 .43945313 .2979889 .43945313 .25099183 .43945313 .20999146 .39544679 .18699646 .35643006 .18099976 .3453064 .17599488 .35331727 .17599488 .35830689Z"/>
<path id="font_9_66" d="M.29299928 .048233034C.29899598 .017227173 .30999757-.009765625 .3600006-.009765625 .397995-.009765625 .43399049 .007232666 .45498658 .02722168 .45298768 .039230348 .44898988 .048233034 .43798829 .054229738 .43099977 .048233034 .4139862 .038223268 .40098573 .038223268 .37199403 .038223268 .37098695 .07725525 .37098695 .12327576V.27037049C.37098695 .41244508 .29299928 .43945313 .21998596 .43945313 .13798523 .43945313 .054992677 .385437 .054992677 .32839967 .054992677 .30438233 .066986087 .29237367 .08999634 .29237367 .11898804 .29237367 .13699341 .313385 .13699341 .32640077 .13699341 .33340455 .13598633 .34040834 .13398743 .34440614 .1329956 .3474121 .13198853 .3534088 .13198853 .36442567 .13198853 .39544679 .17399597 .40644837 .21199036 .40644837 .24598694 .40644837 .29299928 .3894348 .29299928 .2763672 .29299928 .2693634 .2899933 .2653656 .2869873 .26435853L.20098877 .24334717C.10499573 .21932984 .035995485 .16630554 .035995485 .0982666 .035995485 .016220093 .09199524-.009765625 .1619873-.009765625 .19699097-.009765625 .22698975-.0017700195 .2709961 .032226564L.29100038 .048233034H.29299928M.29299928 .2333374V.10127258C.29299928 .088256839 .2869873 .08125305 .2789917 .07525635 .25299073 .054244996 .21899414 .031219483 .19099427 .031219483 .14099121 .031219483 .11898804 .071243289 .11898804 .102264408 .11898804 .14729309 .13999939 .19332886 .21398926 .21232605L.29299928 .2333374Z"/>
<path id="font_9_69" d="M.33399964 .050231935C.33898927 .054229738 .34799195 .056243898 .34899903 .049240114 .35198976 .025222779 .3600006-.009765625 .3600006-.009765625 .36799623-.012771606 .37298585-.011779785 .3789978-.009765625 .40098573 .008270264 .43598939 .023269654 .49699403 .030273438 .5029907 .03627014 .5029907 .05126953 .49699403 .057266237 .43299867 .06227112 .42399598 .08128357 .42399598 .13031006V.58332827C.42399598 .64826968 .42799378 .6882324 .42799378 .6882324 .42799378 .6952362 .42399598 .6982422 .4149933 .6982422 .3899994 .68859866 .31498719 .67459109 .2749939 .67160037 .272995 .6635895 .2749939 .64759829 .2809906 .64160159 .28399659 .64160159 .2869873 .64160159 .2899933 .64160159 .33399964 .6385956 .34498597 .6385956 .34498597 .5595398V.43144227C.34498597 .42443849 .34298707 .42243959 .33599855 .42243959 .33198548 .42243959 .29100038 .43945313 .2579956 .43945313 .19198609 .43945313 .147995 .41744996 .10798645 .37942506 .06498718 .33641053 .038986207 .27737428 .038986207 .20332337 .038986207 .08024597 .100997928-.009765625 .20899964-.009765625 .24798584-.009765625 .2849884 .010223389 .33399964 .050231935M.34498597 .12428284C.34498597 .105270389 .34298707 .09725952 .32899476 .085250858 .2919922 .053237916 .2599945 .037231447 .23498535 .037231447 .18099976 .037231447 .125 .0962677 .125 .221344 .125 .29338075 .13899231 .33340455 .1539917 .3544159 .18499756 .40144349 .22698975 .40444947 .24699402 .40444947 .2829895 .40444947 .30799867 .39143373 .32798768 .36842347 .34199525 .352417 .34498597 .3454132 .34498597 .3143921V.12428284Z"/>
<path id="font_9_70" d="M.38598634 .093185428C.34899903 .055221559 .31999208 .039230348 .2619934 .039230348 .22599793 .039230348 .18399048 .06021118 .15299988 .11117554 .1329956 .14414978 .12098694 .19012451 .12098694 .24809265L.3869934 .24609375C.39898683 .24609375 .4059906 .25209046 .4059906 .26309205 .4059906 .3467865 .37599183 .43652345 .23699951 .43652345 .1499939 .43652345 .036987306 .35375978 .036987306 .20211792 .036987306 .14614868 .050994874 .0921936 .083999637 .054214479 .117996219 .014221191 .16499329-.009765625 .23699951-.009765625 .31298829-.009765625 .36698915 .025222779 .40699769 .077194217 .4039917 .08718872 .397995 .0921936 .38598634 .093185428M.12399292 .28208924C.14299011 .39456178 .21299744 .40351869 .23699951 .40351869 .2749939 .40351869 .31999208 .38261415 .31999208 .2990265 .31999208 .29006959 .31599427 .28507997 .30499269 .28507997L.12399292 .28208924Z"/>
<path id="font_9_34" d="M.15499878 .079071048 .20999146 .22418213C.21499634 .23719788 .22099304 .24119568 .24499512 .24119568H.45599366L.5139923 .07206726C.526001 .03804016 .48799134 .03404236 .43998719 .031036377 .43399049 .025039673 .43399049 .004043579 .43998719-.001953125 .47698976-.0009613037 .5319977 .000045776369 .57099917 .000045776369 .6119995 .000045776369 .6499939-.0009613037 .68499758-.001953125 .69099429 .004043579 .69099429 .025039673 .68499758 .031036377 .6459961 .03504944 .6119995 .03804016 .59498599 .08607483L.3889923 .6582031C.37399293 .64920046 .34700013 .63819888 .33399964 .63819888L.10699463 .10209656C.08099365 .040039064 .050994874 .03404236 .0069885256 .031036377 .0009918213 .025039673 .0009918213 .004043579 .0069885256-.001953125 .032989503-.0009613037 .06599426 .000045776369 .09599304 .000045776369 .13699341 .000045776369 .18699646-.0009613037 .22399903-.001953125 .22999573 .004043579 .22999573 .025039673 .22399903 .031036377 .18598938 .03404236 .13899231 .03804016 .15499878 .079071048M.2630005 .28320313C.24099732 .28320313 .23399353 .28619386 .23799134 .29618836L.33999635 .55519106H.34599305L.43998719 .28320313H.2630005Z"/>
<path id="font_9_78" d="M.16999817 .35830689C.16899109 .38833619 .16699219 .42436219 .1619873 .43437196 .1599884 .43937684 .1579895 .4423828 .1499939 .4423828 .12199402 .43136598 .09599304 .42236329 .026992798 .4133606 .024993897 .40734864 .026992798 .39134217 .0289917 .3853302 .08299255 .38032533 .09399414 .37532044 .09399414 .317276V.12213135C.09399414 .04006958 .08099365 .035064699 .025985718 .031066895 .019989014 .025054932 .019989014 .004043579 .025985718-.001953125 .055999757-.0009613037 .09399414 .000045776369 .13398743 .000045776369 .17399597 .000045776369 .20498657-.0009613037 .23498535-.001953125 .24099732 .004043579 .24099732 .025054932 .23498535 .031066895 .18399048 .036071779 .17298889 .04006958 .17298889 .12213135V.28625489C.17298889 .3073578 .18199158 .3193817 .18998719 .3283844 .22999573 .36743165 .2669983 .38745118 .2979889 .38745118 .33599855 .38745118 .3639984 .36341859 .3639984 .2963562V.122161868C.3639984 .04008484 .35598756 .035079957 .3019867 .031066895 .29699708 .02507019 .29699708 .004043579 .3019867-.001953125 .32699586-.0009613037 .3639984 .000045776369 .4039917 .000045776369 .44400025 .000045776369 .47698976-.0009613037 .5019989-.001953125 .5069885 .004043579 .5069885 .02507019 .5019989 .031066895 .45199586 .035079957 .44299317 .04008484 .44299317 .122161868V.28134156C.44299317 .29534913 .44299317 .3093567 .44198609 .32138063 .48999024 .37443543 .5349884 .38745118 .57398989 .38745118 .6119995 .38745118 .6339874 .36541749 .6339874 .2983551V.122161868C.6339874 .04008484 .6239929 .035079957 .57199099 .031066895 .5669861 .02507019 .5669861 .004043579 .57199099-.001953125 .5970001-.0009613037 .6339874 .000045776369 .673996 .000045776369 .71398928 .000045776369 .7489929-.0009613037 .7769928-.001953125 .7819977 .004043579 .7819977 .02507019 .7769928 .031066895 .7220001 .035079957 .71299746 .04008484 .71299746 .122161868V.28033448C.71299746 .36943055 .69799807 .43945313 .6100006 .43945313 .5589905 .43945313 .49699403 .42044068 .44499208 .36541749 .44198609 .36242677 .43598939 .35742188 .43399049 .36642457 .4249878 .4074402 .38598634 .43945313 .33399964 .43945313 .27598573 .43945313 .22399903 .40544129 .18199158 .3584137 .1769867 .35331727 .17098999 .34629823 .16999817 .35830689Z"/>
<path id="font_9_80" d="M.040985109 .20533753C.040985109 .103271488 .10899353-.009765625 .25099183-.009765625 .31498719-.009765625 .3639984 .01322937 .397995 .04623413 .44299317 .090270999 .46299745 .15330506 .46299745 .21434021 .46299745 .31840516 .4059906 .43945313 .25299073 .43945313 .18699646 .43945313 .1329956 .41244508 .09599304 .36943055 .05999756 .32640077 .040985109 .26837159 .040985109 .20533753M.23799134 .40444947C.32398988 .40444947 .3769989 .32640077 .3769989 .18231201 .3769989 .056243898 .31199647 .025222779 .2649994 .025222779 .16099549 .025222779 .1269989 .15130615 .1269989 .22834778 .1269989 .31539918 .147995 .40444947 .23799134 .40444947Z"/>
<path id="font_9_86" d="M.21699524-.009765625C.2559967-.009765625 .30299378 .010223389 .35198976 .050201417 .35699464 .05419922 .3659973 .05619812 .36698915 .049209596 .36999513 .024230957 .37799073-.009765625 .37799073-.009765625 .38598634-.012771606 .3909912-.011779785 .39698792-.009765625 .4189911 .008270264 .45399476 .023269654 .5149994 .030273438 .5209961 .03627014 .5209961 .05126953 .5149994 .057266237 .45098878 .06225586 .44198609 .081222537 .44198609 .13014221V.32183839C.44198609 .35179139 .44599916 .42466737 .44599916 .42466737 .44599916 .42765809 .44299317 .43066407 .43798829 .43066407 .43299867 .42965699 .41799928 .42866517 .40299989 .42866517 .37098695 .42866517 .33499146 .42965699 .30099488 .43066407 .29499818 .42466737 .29499818 .40370179 .30099488 .39772035 .34999085 .39471437 .36299134 .3827362 .36299134 .31684876V.12409973C.36299134 .10513306 .36099244 .09713745 .34700013 .0851593 .30999757 .053207399 .27198792 .037231447 .24699402 .037231447 .21699524 .037231447 .16699219 .051208497 .16699219 .14007569V.32180787C.16699219 .35177613 .17098999 .42466737 .17098999 .42466737 .17098999 .42765809 .16799927 .43066407 .16299439 .43066407 .1579895 .42965699 .14299011 .42866517 .12799073 .42866517 .09599304 .42866517 .05999756 .42965699 .025985718 .43066407 .019989014 .42466737 .019989014 .40370179 .025985718 .39770509 .07398987 .39370729 .08799744 .38272096 .08799744 .31782533V.12609864C.08799744 .0572052 .117996219-.009765625 .21699524-.009765625Z"/>
<path id="font_9_79" d="M.18399048 .35830689C.17799378 .3513031 .17199707 .3493042 .17199707 .35830689 .17098999 .3853302 .16899109 .42436219 .1639862 .43437196 .1619873 .43937684 .1599884 .4423828 .1519928 .4423828 .12399292 .43136598 .09799194 .42236329 .0289917 .4133606 .026992798 .40734864 .0289917 .39134217 .0309906 .3853302 .084991458 .38032533 .09599304 .37532044 .09599304 .317276V.12213135C.09599304 .04006958 .085998538 .036071779 .025985718 .031066895 .019989014 .025054932 .019989014 .004043579 .025985718-.001953125 .055999757-.0009613037 .09599304 .000045776369 .13598633 .000045776369 .17599488 .000045776369 .20599365-.0009613037 .23599243-.001953125 .24198914 .004043579 .24198914 .025054932 .23599243 .031066895 .18499756 .036071779 .1749878 .04006958 .1749878 .12213135V.28625489C.1749878 .3073578 .18399048 .3193817 .19198609 .3283844 .22999573 .36541749 .2749939 .38745118 .31399537 .38745118 .33399964 .38745118 .35499574 .37443543 .36698915 .3514099 .3769989 .33139039 .3789978 .3043518 .3789978 .2743225V.122161868C.3789978 .04008484 .36898805 .036071779 .31698609 .031066895 .31199647 .02507019 .31199647 .004043579 .31698609-.001953125 .34700013-.0009613037 .3789978 .000045776369 .4189911 .000045776369 .45899964 .000045776369 .49499513-.0009613037 .5249939-.001953125 .5299988 .004043579 .5299988 .02507019 .5249939 .031066895 .46899415 .036071779 .45799256 .04008484 .45799256 .122161868V.2713318C.45799256 .3263855 .45399476 .37443543 .43099977 .40544129 .4139862 .42744447 .3829956 .43945313 .34799195 .43945313 .29899598 .43945313 .24299622 .42645265 .18399048 .3584137V.35830689Z"/>
<path id="font_9_85" d="M.042999269 .42871095C.0289917 .42871095 .024993897 .41670228 .024993897 .40870667V.39570619C.024993897 .3907013 .025985718 .38970948 .02999878 .38970948H.08898926V.089157108C.08898926 .018234253 .11999512-.009765625 .1659851-.009765625 .21199036-.009765625 .2619934 .01222229 .30099488 .05621338 .29899598 .06619263 .29299928 .07218933 .2829895 .07318115 .25698854 .053207399 .22698975 .04522705 .20098877 .04522705 .17399597 .04522705 .16799927 .07518005 .16799927 .13708496V.38970948H.27198792C.28199769 .38970948 .29599 .39370729 .29599 .40270997V.42269898C.29599 .42669679 .29299928 .42871095 .28799439 .42871095H.16799927V.4677887C.16799927 .53292849 .17199707 .57302859 .17199707 .57302859 .17199707 .57902529 .16899109 .58203127 .1639862 .58203127 .1599884 .58203127 .15098572 .5780182 .14199829 .57302859 .1309967 .5670166 .12098694 .56199648 .10798645 .5589905 .09599304 .5549774 .085998538 .55197146 .085998538 .54496768 .085998538 .53292849 .08898926 .5399475 .08898926 .42871095H.042999269Z"/>
<path id="font_9_9" d="M.04399109 .25202943C.04399109 .20701599 .04798889-.023971558 .2559967-.20397949 .2659912-.20198059 .27398683-.1949768 .2769928-.1869812 .24398804-.14897156 .1269989-.010971069 .1269989 .25202943 .1269989 .5150299 .24499512 .6530304 .2769928 .6890259 .27398683 .6990204 .2669983 .70602419 .2559967 .70703127 .13699341 .60502627 .04399109 .4380188 .04399109 .25202943Z"/>
<path id="font_9_74" d="M.18099976 .12213135V.32128907C.18099976 .37132264 .18499756 .43537904 .18499756 .43537904 .18499756 .43937684 .17999268 .4423828 .17199707 .4423828 .14399719 .43136598 .10398865 .42236329 .034988405 .4133606 .032989503 .40734864 .034988405 .39134217 .036987306 .3853302 .09199524 .38032533 .101989749 .3743286 .101989749 .317276V.12213135C.101989749 .03907776 .09098816 .036071779 .02999878 .031066895 .023986817 .025054932 .023986817 .004043579 .02999878-.001953125 .06298828-.0009613037 .101989749 .000045776369 .14199829 .000045776369 .18199158 .000045776369 .21998596-.0009613037 .25299073-.001953125 .25898744 .004043579 .25898744 .025054932 .25299073 .031066895 .19198609 .035064699 .18099976 .03907776 .18099976 .12213135M.08999634 .5994568C.08999634 .5734558 .11399841 .54745486 .13798523 .54745486 .1659851 .54745486 .18998719 .57444766 .18998719 .595459 .18998719 .6194458 .16899109 .64746096 .14199829 .64746096 .117996219 .64746096 .08999634 .6234436 .08999634 .5994415V.5994568Z"/>
<path id="font_9_84" d="M.04798889 .13815308C.051986696 .08909607 .054992677 .042037965 .054992677 0 .06498718 .0019989014 .07499695 .0029907227 .07998657 .0029907227 .08699036 .0032196046 .09298706 .0032196046 .099990848 .0012207031 .1269989-.0057678224 .1539917-.009765625 .19099427-.009765625 .24699402-.009765625 .34999085 .017227173 .34999085 .11628723 .34999085 .18431092 .30099488 .22433472 .23298645 .24935913 .17298889 .27236939 .1329956 .28738404 .1329956 .34240724 .1329956 .3834381 .16899109 .40644837 .20298767 .40644837 .22499085 .40644837 .2829895 .3984375 .29599 .313385 .3019867 .3073883 .32199098 .3083954 .32798768 .3143921 .33099366 .35040284 .33299256 .38742066 .33399964 .42044068 .30299378 .42544557 .25498963 .43945313 .20298767 .43945313 .1289978 .43945313 .06199646 .39143373 .06199646 .32739259 .06199646 .254364 .09498596 .2233429 .17199707 .1913147 .25498963 .15730286 .27398683 .1362915 .27398683 .09326172 .27398683 .04423523 .22599793 .023223877 .18899536 .023223877 .1499939 .023223877 .12799073 .036239625 .117996219 .04724121 .09599304 .070251468 .084991458 .11427307 .07899475 .13929749 .07299805 .14515686 .053985597 .14414978 .04798889 .13815308Z"/>
<path id="font_9_10" d="M.2539978 .25239564C.2539978 .2973938 .25 .5283966 .041992189 .70840457 .03199768 .70640566 .023986817 .69940188 .020996094 .69140627 .053985597 .6533966 .17098999 .5153961 .17098999 .25239564 .17098999-.010604858 .052993776-.14860535 .020996094-.18460083 .023986817-.1946106 .0309906-.20159912 .041992189-.2026062 .16099549-.1006012 .2539978 .06639099 .2539978 .25239564Z"/>
<clipPath id="clip_10">
<path transform="matrix(1,0,0,-1,0,399.9761)" d="M57.024137 57.427896H679.68V365.95353H57.024137Z"/>
</clipPath>
<path id="font_2_55" d="M.11399841 .58535769C.12399292 .5813446 .16499329 .5683594 .20698548 .5683594 .2999878 .5683594 .35099793 .61834719 .37998963 .64715579 .37998963 .65515139 .37998963 .66015627 .37399293 .66015627 .37298585 .66015627 .37098695 .66015627 .36299134 .6561432 .32798768 .6411438 .2869873 .62934878 .23699951 .62934878 .20698548 .62934878 .1619873 .6332855 .11299133 .65515139 .101989749 .66015627 .099990848 .66015627 .09899902 .66015627 .09399414 .66015627 .09298706 .65914919 .09298706 .63916018V.34931947C.09298706 .33129884 .09298706 .32629396 .102996829 .32629396 .10798645 .32629396 .10998535 .32829286 .114990238 .33529664 .14698792 .3803711 .19099427 .39941407 .24099732 .39941407 .27598573 .39941407 .35099793 .3773651 .35099793 .20610047 .35099793 .17408753 .35099793 .116119388 .32099916 .07022095 .29599 .029312134 .25698854 .008361816 .21398926 .008361816 .147995 .008361816 .08099365 .054260255 .06298828 .13108826 .066986087 .13009644 .07499695 .12809754 .07899475 .12809754 .09199524 .12809754 .116989139 .13510132 .116989139 .16609192 .116989139 .19309998 .09799194 .20410156 .07899475 .20410156 .055999757 .20410156 .040985109 .190094 .040985109 .16209412 .040985109 .07521057 .10998535-.015625 .21598816-.015625 .31900025-.015625 .4169922 .07322693 .4169922 .2020874 .4169922 .32228089 .33898927 .41540528 .24198914 .41540528 .19099427 .41540528 .147995 .39640809 .11399841 .3603363V.58535769Z"/>
<clipPath id="clip_11">
<path transform="matrix(1,0,0,-1,0,399.9761)" d="M57.024137 57.427896H679.68V365.95353H57.024137Z"/>
</clipPath>
<clipPath id="clip_12">
<path transform="matrix(1,0,0,-1,0,399.9761)" d="M57.024137 57.427896H679.68V365.95353H57.024137Z"/>
</clipPath>
<clipPath id="clip_13">
<path transform="matrix(1,0,0,-1,0,399.9761)" d="M57.024137 57.427896H679.68V365.95353H57.024137Z"/>
</clipPath>
<path id="font_2_52" d="M.4169922 .15492249H.39898683C.3889923 .083969119 .3809967 .07197571 .3769989 .06599426 .37199403 .057998659 .2999878 .057998659 .28599549 .057998659H.09399414C.12998963 .096969608 .19999695 .16792298 .2849884 .24986267 .34599305 .30781556 .4169922 .37576295 .4169922 .47473146 .4169922 .59298709 .32299806 .6611328 .21798706 .6611328 .10798645 .6611328 .040985109 .5639038 .040985109 .47373963 .040985109 .43473817 .069992069 .42973329 .08198547 .42973329 .09199524 .42973329 .12199402 .43572999 .12199402 .47073365 .12199402 .5017395 .09599304 .5107422 .08198547 .5107422 .07598877 .5107422 .069992069 .5097351 .06599426 .5077362 .084991458 .59298709 .14299011 .63513186 .20399475 .63513186 .29100038 .63513186 .34799195 .5659027 .34799195 .47473146 .34799195 .38775636 .29699708 .31282044 .23999024 .24786377L.040985109 .022994996V0H.3929901L.4169922 .15492249Z"/>
<clipPath id="clip_14">
<path transform="matrix(1,0,0,-1,0,399.9761)" d="M57.024137 57.427896H679.68V365.95353H57.024137Z"/>
</clipPath>
<clipPath id="clip_15">
<path transform="matrix(1,0,0,-1,0,399.9761)" d="M57.024137 57.427896H679.68V365.95353H57.024137Z"/>
</clipPath>
<path id="font_2_53" d="M.22099304 .34036256C.30999757 .34036256 .34899903 .2633667 .34899903 .17434693 .34899903 .054367067 .2849884 .008361816 .22698975 .008361816 .17399597 .008361816 .08799744 .034362794 .06098938 .11135864 .06599426 .10934448 .070999149 .10934448 .07598877 .10934448 .099990848 .10934448 .117996219 .12535095 .117996219 .15135193 .117996219 .18035889 .09599304 .19335938 .07598877 .19335938 .05899048 .19335938 .032989503 .18534851 .032989503 .14834595 .032989503 .056365968 .12298584-.015625 .22898865-.015625 .33999635-.015625 .4249878 .0713501 .4249878 .1733551 .4249878 .27035523 .34498597 .34036256 .25 .35136415 .32598878 .3673706 .39898683 .43536378 .39898683 .5263672 .39898683 .6042328 .31999208 .6611328 .22999573 .6611328 .13899231 .6611328 .05899048 .6052246 .05899048 .5253601 .05899048 .4903717 .084991458 .484375 .09799194 .484375 .11898804 .484375 .13699341 .49736024 .13699341 .5233612 .13699341 .5493622 .11898804 .5623627 .09799194 .5623627 .09399414 .5623627 .08898926 .5623627 .084991458 .56036379 .11399841 .62615969 .19299317 .63812258 .22799683 .63812258 .2630005 .63812258 .32899476 .6211853 .32899476 .5253601 .32899476 .49736024 .32499696 .44737245 .29100038 .4033661 .26098634 .36436463 .22698975 .36236573 .19400025 .359375 .18899536 .359375 .1659851 .35736085 .1619873 .35736085 .15499878 .35636903 .15098572 .35536195 .15098572 .3483734 .15098572 .34136964 .1519928 .34036256 .17199707 .34036256H.22099304Z"/>
<path id="font_9_52" d="M.394989 .63119509C.33699037 .6391907 .33898927 .6582031 .24099732 .6582031 .13999939 .6582031 .050994874 .5912018 .050994874 .48519898 .050994874 .38020326 .13798523 .33221437 .22599793 .29821778 .28599549 .27520753 .3600006 .24720764 .3600006 .1492157 .3600006 .068222049 .31498719 .026229859 .23498535 .026229859 .14199829 .026229859 .08198547 .069229129 .05999756 .16821289 .04699707 .17196656 .036987306 .16996765 .026992798 .16496277 .0309906 .08796692 .034988405 .061965944 .04699707 .012954712 .10998535 .01322937 .13798523-.009765625 .22698975-.009765625 .27198792-.009765625 .31498719 .0012207031 .34999085 .023223877 .4079895 .05921936 .44400025 .120224 .44400025 .18421936 .44400025 .2902069 .3639984 .33720399 .28199769 .36820985 .22200012 .390213 .12199402 .4282074 .12199402 .5121918 .12199402 .5681915 .17298889 .6241913 .23199463 .6241913 .32899476 .6241913 .3600006 .5621948 .37998963 .49620057 .3909912 .49420167 .4039917 .49519349 .41299439 .50219729 .40899659 .5502014 .40499879 .5782013 .394989 .63119509Z"/>
<path id="font_9_81" d="M.1559906 .36834718C.15499878 .3983612 .15299988 .42437745 .147995 .43437196 .1459961 .43937684 .14399719 .4423828 .13598633 .4423828 .10798645 .43136598 .08198547 .42236329 .0129852299 .4133606 .010986328 .4073639 .0129852299 .39135743 .01499939 .38536073 .068984989 .38035584 .07998657 .37535096 .07998657 .31733705V-.11004639C.07998657-.19326782 .068984989-.19828797 .0079956059-.20129395 .0019989014-.20730591 .0019989014-.22836304 .0079956059-.234375 .042999269-.23338318 .07998657-.2323761 .11999512-.2323761 .1599884-.2323761 .20799256-.23338318 .24099732-.234375 .24699402-.22836304 .24699402-.20730591 .24099732-.20129395 .16999817-.19728089 .15899658-.19326782 .15899658-.11004639V-.0017700195C.15899658 .011230469 .16299439 .010223389 .17298889 .006225586 .19799805-.003768921 .22799683-.009765625 .2599945-.009765625 .31599427-.009765625 .3659973 .007232666 .40699769 .04623413 .45399476 .09225464 .48098756 .15426636 .48098756 .23530579 .48098756 .3414154 .4059906 .43945313 .3039856 .43945313 .2579956 .43945313 .20698548 .4094391 .16699219 .36442567 .16099549 .35835267 .15699768 .35835267 .1559906 .36834718M.1749878 .33140565C.20098877 .36343385 .24699402 .39344789 .27598573 .39344789 .33999635 .39344789 .394989 .32141114 .394989 .2083435 .394989 .12628174 .3659973 .024230957 .2539978 .024230957 .23599243 .024230957 .20098877 .02923584 .18299866 .04524231 .16299439 .06324768 .15899658 .06925964 .15899658 .105270389V.28738404C.15899658 .3083954 .16299439 .31739808 .1749878 .33140565Z"/>
<path id="font_9_6" d="M.3639984 .5213623C.34599305 .5213623 .31098939 .5213623 .25698854 .54637148 .24699402 .5582886 .21798706 .57128909 .18998719 .57128909 .117996219 .57128909 .056991579 .5003662 .056991579 .41218568 .056991579 .36105348 .08699036 .30297853 .14898682 .30297853 .23298645 .30297853 .2769928 .41618348 .2769928 .48036195 .2769928 .48936463 .27598573 .4983673 .27398683 .5053711 .29299928 .4943695 .33099366 .484375 .35398866 .484375 .38398744 .484375 .4229889 .4883728 .46099855 .5033722L.101989749 .0032806397 .13598633-.01171875 .54599 .55937197 .5139923 .57536318C.48298646 .533371 .4059906 .5213623 .3639984 .5213623M.37799073 .09838867C.37799073 .045318605 .4099884-.01171875 .47099305-.01171875 .55400088-.01171875 .59799197 .09838867 .59799197 .16549683 .59799197 .23857117 .5519867 .25657655 .5119934 .25657655 .43798829 .25657655 .37799073 .18051148 .37799073 .09838867M.11099243 .39814759C.11099243 .45629884 .1519928 .5402832 .20098877 .5402832 .21899414 .5402832 .24398804 .5293274 .24398804 .47935487 .24398804 .4212036 .20999146 .33398438 .15499878 .33398438 .13699341 .33398438 .11099243 .3460083 .11099243 .39814759M.43299867 .08337402C.43299867 .14144898 .47399903 .22558594 .522995 .22558594 .5369873 .22558594 .5649872 .216568 .5649872 .16448975 .5649872 .10839844 .5319977 .01927185 .47698976 .01927185 .45799256 .01927185 .43299867 .031295778 .43299867 .08337402Z"/>
<clipPath id="clip_16">
<path transform="matrix(1,0,0,-1,0,399.9761)" d="M57.024137 57.427896H679.68V365.95353H57.024137Z"/>
</clipPath>
<clipPath id="clip_17">
<path transform="matrix(1,0,0,-1,0,399.9761)" d="M57.024137 57.427896H679.68V365.95353H57.024137Z"/>
</clipPath>
<path id="font_9_19" d="M.06098938 .46827699C.06098938 .44725038 .07998657 .429245 .100997928 .429245 .117996219 .429245 .147995 .44725038 .147995 .4692688 .147995 .47727967 .1459961 .48327638 .14399719 .49028016 .14199829 .49728395 .13598633 .5063019 .13598633 .5142975 .13598633 .5393219 .1619873 .5753479 .23498535 .5753479 .2709961 .5753479 .32199098 .5503235 .32199098 .45425416 .32199098 .390213 .29899598 .33818055 .23999024 .2781372L.1659851 .20509339C.067993167 .105026248 .051986696 .056991579 .051986696-.0020141602 .051986696-.0020141602 .102996829 0 .1349945 0H.30999757C.34199525 0 .3880005-.0020141602 .3880005-.0020141602 .40098573 .050994874 .41099549 .1260376 .4119873 .15605164 .4059906 .16105652 .3929901 .16305542 .3829956 .16105652 .3659973 .0900116 .34899903 .06498718 .31298829 .06498718H.1349945C.1349945 .11302185 .20399475 .18107605 .20899964 .18608094L.30999757 .2831421C.36698915 .33818055 .4099884 .3822174 .4099884 .4582672 .4099884 .56632998 .32199098 .61035159 .24099732 .61035159 .12998963 .61035159 .06098938 .52830508 .06098938 .46827699Z"/>
<path id="font_9_15" d="M.056991579 .04322815C.056991579 .014221191 .08099365-.009765625 .10998535-.009765625 .13899231-.009765625 .16299439 .014221191 .16299439 .04322815 .16299439 .07221985 .13899231 .096221927 .10998535 .096221927 .08099365 .096221927 .056991579 .07221985 .056991579 .04322815Z"/>
<path id="font_9_17" d="M.22799683-.009765625C.30499269-.009765625 .42199708 .068237308 .42199708 .3032837 .42199708 .40231324 .397995 .48731996 .35398866 .54533389 .32798768 .5803375 .28599549 .61035159 .23199463 .61035159 .1329956 .61035159 .038986207 .49232484 .038986207 .294281 .038986207 .18725586 .07199097 .0872345 .1269989 .032226564 .15499878 .0042266848 .18899536-.009765625 .22799683-.009765625M.23199463 .5753479C.24899292 .5753479 .2649994 .56933596 .2769928 .55833438 .30799867 .5323334 .33499146 .4563141 .33499146 .32229615 .33499146 .23027039 .33198548 .16725159 .31799317 .116241458 .29599 .034225465 .24699402 .025222779 .22898865 .025222779 .13598633 .025222779 .12599182 .19625855 .12599182 .28327943 .12599182 .5293274 .18699646 .5753479 .23199463 .5753479Z"/>
<path id="font_9_18" d="M.28799439 .12210083V.46931459C.28799439 .52934268 .2889862 .5903778 .29100038 .60339358 .29100038 .60839846 .2889862 .60839846 .2849884 .60839846 .22999573 .57437136 .1769867 .5493622 .08898926 .5083313 .09098816 .4973297 .09498596 .48731996 .10398865 .48130799 .1499939 .50032046 .17199707 .5063324 .19099427 .5063324 .20799256 .5063324 .21099854 .48231507 .21099854 .44828797V.12210083C.21099854 .03904724 .18399048 .03404236 .11399841 .031036377 .10798645 .025039673 .10798645 .004043579 .11399841-.001953125 .16299439-.0009613037 .19898987 .000045776369 .25299073 .000045776369 .30099488 .000045776369 .32499696-.0009613037 .375-.001953125 .3809967 .004043579 .3809967 .025039673 .375 .031036377 .30499269 .03404236 .28799439 .03904724 .28799439 .12210083Z"/>
<path id="font_9_25" d="M.3929901 .48532105C.3929901 .5573425 .33699037 .61035159 .23899842 .61035159 .13699341 .61035159 .070999149 .54933169 .070999149 .47232057 .070999149 .41630555 .09799194 .37530519 .15899658 .33729554L.18499756 .32128907C.1559906 .30628968 .1289978 .2882843 .10398865 .26628114 .06298828 .23027039 .04598999 .18525696 .04598999 .1462555 .04598999 .04423523 .117996219-.009765625 .22399903-.009765625 .35499574-.009765625 .4189911 .086242679 .4189911 .16226197 .4189911 .22026062 .3939972 .271286 .34098817 .3032837L.269989 .34629823C.31698609 .3692932 .3929901 .42131043 .3929901 .48532105M.22599793 .025222779C.18099976 .025222779 .11299133 .056228639 .11299133 .1462555 .11299133 .17625427 .12599182 .24627686 .21199036 .3032837L.25898744 .2752838C.32099916 .23727417 .34599305 .19026184 .34599305 .14225769 .34599305 .042236329 .2709961 .025222779 .22599793 .025222779M.23399353 .5753479C.29899598 .5753479 .32299806 .5323334 .32299806 .48632813 .32299806 .432312 .269989 .38729859 .24299622 .3672943L.21199036 .38630677C.14898682 .42730714 .14199829 .4603119 .14199829 .49131776 .14199829 .53733828 .17399597 .5753479 .23399353 .5753479Z"/>
<path id="font_9_20" d="M.21499634 .5753479C.2579956 .5753479 .2979889 .54933169 .2979889 .48532105 .2979889 .435318 .23999024 .35829164 .14099121 .34429933L.1459961 .31228639C.16299439 .31428529 .18099976 .31428529 .19400025 .31428529 .25099183 .31428529 .32499696 .2982788 .32499696 .18525696 .32499696 .052230836 .23599243 .025222779 .20098877 .025222779 .1499939 .025222779 .14099121 .048233034 .1289978 .0662384 .11898804 .08024597 .10598755 .09223938 .085998538 .09223938 .06498718 .09223938 .04399109 .07324219 .04399109 .057235719 .04399109 .017227173 .12799073-.009765625 .18798828-.009765625 .30699159-.009765625 .41299439 .067230228 .41299439 .19926453 .41299439 .30828858 .33099366 .34729005 .27198792 .3572998L.2709961 .3592987C.35299684 .39830018 .37599183 .4393158 .37599183 .49232484 .37599183 .52233889 .36898805 .54634097 .34498597 .57133486 .32299806 .593338 .28799439 .61035159 .23599243 .61035159 .08898926 .61035159 .04699707 .514328 .04699707 .48132325 .04699707 .46731568 .056991579 .4473114 .08099365 .4473114 .115997318 .4473114 .11999512 .48031617 .11999512 .4993286 .11999512 .56333926 .18899536 .5753479 .21499634 .5753479Z"/>
<path id="font_9_23" d="M.14399719 .3432312C.17098999 .43421937 .23498535 .53523257 .36799623 .58522036 .36799623 .597229 .3639984 .6062317 .35598756 .6112213 .25498963 .58122256 .19299317 .53923037 .13699341 .4742279 .07499695 .40222169 .04399109 .31123353 .04399109 .23223877 .04399109 .029251099 .15899658-.0107421879 .23599243-.0107421879 .36698915-.0107421879 .42099 .116241458 .42099 .20223999 .42099 .28823854 .375 .36523438 .23899842 .36523438 .21299744 .36523438 .17399597 .3572235 .14399719 .3432312M.1349945 .30723573C.16799927 .32922364 .20098877 .3302307 .21798706 .3302307 .31599427 .3302307 .33799745 .23423767 .33799745 .18423462 .33799745 .07424927 .29599 .024246216 .24699402 .024246216 .18399048 .024246216 .1269989 .058242799 .1269989 .22923279 .1269989 .25222779 .1289978 .27822877 .1349945 .30723573Z"/>
<path id="font_9_38" d="M.2809906 .36035157H.18998719V.54055789C.18998719 .5845337 .20199585 .6045227 .2559967 .6045227H.33099366C.4059906 .6045227 .42199708 .5645447 .44400025 .49557496 .45599366 .49357606 .46699525 .49557496 .47698976 .50057986 .47200013 .54200747 .45700074 .6383667 .45498658 .6463928 .45498658 .648407 .45399476 .64941409 .45098878 .64941409 .43399049 .6455231 .42599488 .64453127 .4019928 .64453127H.14698792C.116989139 .64453127 .057998659 .6455231 .017990113 .64653018 .011993408 .6405182 .011993408 .6195221 .017990113 .6135254 .08799744 .6105194 .10499573 .6055298 .10499573 .5226135V.12181091C.10499573 .038986207 .08799744 .033996583 .017990113 .0309906 .011993408 .024993897 .011993408 .0039978029 .017990113-.0020141602 .054992677-.0010070801 .114990238 0 .147995 0H.36299134C.41099549 0 .4909973-.0020141602 .4909973-.0020141602 .5049896 .047973634 .519989 .11381531 .5279999 .16470337 .5179901 .17068482 .5059967 .17268372 .49299623 .169693 .47299195 .097854617 .43798829 .038986207 .3619995 .038986207H.24598694C.20399475 .038986207 .18998719 .05496216 .18998719 .10185242V.32234193H.2809906C.3659973 .32234193 .36898805 .2993927 .37199403 .25450135 .37799073 .2485199 .39898683 .2485199 .40499879 .25450135 .4039917 .28044129 .40299989 .30838014 .40299989 .3423462 .40299989 .37039186 .4039917 .40457154 .40499879 .42871095 .39898683 .4346161 .37799073 .4346161 .37199403 .42858888 .36898805 .37339784 .3659973 .36035157 .2809906 .36035157Z"/>
<path id="font_9_2360" d="M.44699098 .12193298V.38970948H.5389862C.548996 .38970948 .5629883 .39370729 .5629883 .40270997V.42269898C.5629883 .42669679 .55999758 .42871095 .5549927 .42871095H.44699098V.48182679C.44699098 .5018616 .44799806 .54696658 .45399476 .5810547 .46798707 .6542206 .49398805 .6632385 .5159912 .6632385 .5399933 .6632385 .5609894 .64920046 .56999209 .6291504 .5799866 .6081085 .58999636 .58906558 .61698916 .58906558 .6369934 .58906558 .6519928 .60409548 .6519928 .6241455 .6519928 .6652374 .60598757 .6982422 .5319977 .6982422 .49499513 .6982422 .43798829 .676239 .4039917 .6231384 .3909912 .6473541 .34599305 .68136599 .2659912 .68136599 .23899842 .68136599 .21299744 .6743622 .19198609 .6623535 .12298584 .6222687 .08999634 .5510559 .08999634 .42871095H.040985109C.022994996 .42871095 .017990113 .41670228 .017990113 .40870667V.39570619C.017990113 .3907013 .018997193 .38970948 .022994996 .38970948H.08999634V.12193298C.08999634 .039001466 .07899475 .035003663 .024993897 .03100586 .018997193 .025009156 .018997193 .0040283205 .024993897-.001953125 .057998659-.0009613037 .09399414 .000030517579 .12998963 .000030517579 .1619873 .000030517579 .19599915-.0009613037 .22799683-.001953125 .23399353 .0040283205 .23399353 .025009156 .22799683 .03100586 .18199158 .035003663 .16899109 .039001466 .16899109 .12193298V.38970948H.36799623V.12193298C.36799623 .039001466 .35699464 .035003663 .31298829 .03100586 .30699159 .025009156 .30699159 .0040283205 .31298829-.001953125 .34199525-.0009613037 .37399293 .000030517579 .4079895 .000030517579 .43998719 .000030517579 .48298646-.0009613037 .526001-.001953125 .5319977 .0040283205 .5319977 .025009156 .526001 .03100586 .45799256 .035003663 .44699098 .039001466 .44699098 .12193298M.37799073 .5640106C.36898805 .5279236 .36799623 .48884584 .36799623 .46879579V.42871095H.16899109V.43772889C.16899109 .50593569 .1769867 .5410309 .18299866 .5600891 .20399475 .6403198 .24899292 .6513672 .2639923 .6513672 .29899598 .6513672 .31698609 .6272888 .32798768 .6022186 .33699037 .5821533 .34599305 .5621033 .37199403 .5621033 .37399293 .5620117 .3769989 .56300356 .37799073 .5640106Z"/>
<path id="font_9_68" d="M.397995 .09126282C.3939972 .1002655 .38598634 .104263309 .3769989 .105270389 .34298707 .06123352 .2999878 .039230348 .25698854 .039230348 .18399048 .039230348 .12298584 .11326599 .12298584 .23034668 .12298584 .34040834 .17098999 .40644837 .23699951 .40644837 .29599 .40644837 .3039856 .37142945 .30799867 .33641053 .31098939 .3093872 .32499696 .30038453 .34599305 .30038453 .36698915 .30038453 .394989 .313385 .394989 .34440614 .394989 .39944459 .33799745 .43945313 .24198914 .43945313 .14299011 .43945313 .036987306 .3504181 .036987306 .20832825 .036987306 .07925415 .10899353-.009765625 .23498535-.009765625 .29499818-.009765625 .34799195 .009231567 .397995 .09126282Z"/>
<path id="font_9_87" d="M.32499696 .3976593C.3789978 .3936615 .3849945 .38168336 .3639984 .33076478L.2829895 .13505554C.2669983 .09611511 .2619934 .09611511 .24598694 .13804627L.17399597 .33076478C.1559906 .37869264 .1519928 .39067079 .20498657 .3976593 .21099854 .403656 .21099854 .4246521 .20498657 .43066407 .17199707 .42965699 .13699341 .4286499 .10398865 .4286499 .070999149 .4286499 .040985109 .42965699 .010986328 .43066407 .004989624 .4246521 .004989624 .403656 .010986328 .3976593 .06399536 .3916626 .070999149 .37568666 .09098816 .32476808L.21899414 .009246826C.22499085-.0057373049 .23098755-.01171875 .24398804-.01171875 .2539978-.01171875 .26098634-.0057373049 .2679901 .011245728L.40098573 .32377626C.41999818 .3677063 .43099977 .39266969 .4869995 .3976593 .49299623 .403656 .49299623 .4246521 .4869995 .43066407 .46699525 .42965699 .44299317 .4286499 .4169922 .4286499 .38398744 .4286499 .34999085 .42965699 .32499696 .43066407 .31900025 .4246521 .31900025 .403656 .32499696 .3976593Z"/>
<path id="font_9_49" d="M.10398865 .5233002V.12210083C.10398865 .03904724 .08699036 .03404236 .016998291 .031036377 .010986328 .025039673 .010986328 .004043579 .016998291-.001953125 .06199646-.0009613037 .11099243 .000045776369 .14698792 .000045776369 .18199158 .000045776369 .24099732-.0009613037 .29100038-.001953125 .29699708 .004043579 .29699708 .025039673 .29100038 .031036377 .21299744 .03504944 .18899536 .03904724 .18899536 .12210083V.29222108C.21099854 .2852173 .23498535 .28222657 .269989 .28222657 .45199586 .28222657 .5069885 .40124513 .5069885 .48628236 .5069885 .54530337 .46798707 .65234377 .2829895 .65234377 .24499512 .65234377 .18598938 .64533999 .1459961 .64533999 .10899353 .6454468 .056991579 .64645388 .016998291 .64746096 .010986328 .641449 .010986328 .6204376 .016998291 .61442568 .08699036 .6113281 .10398865 .6063385 .10398865 .5233002M.18899536 .55430606C.18899536 .58332827 .20399475 .6183319 .27598573 .6183319 .34498597 .6183319 .4139862 .59532168 .4139862 .46827699 .4139862 .3602295 .3619995 .31622315 .2649994 .31622315 .23999024 .31622315 .19999695 .31822206 .18899536 .32122804V.55430606Z"/>
<path id="font_9_91" d="M.070999149 .43948365C.068984989 .43948365 .06498718 .43548585 .06498718 .43348695 .06399536 .3884735 .05899048 .35342408 .049987794 .3043518 .05899048 .300354 .070999149 .2983551 .08299255 .30136109 .102996829 .37445069 .13398743 .3914795 .1639862 .3924713L.2919922 .3954773C.22399903 .2813263 .12399292 .13713074 .04598999 .03199768 .036987306 .019989014 .036987306 .016998291 .036987306 .011993408 .036987306 .004989624 .04499817 0 .05999756 0L.37199403-.0029296876C.38398744 .031097413 .39698792 .08314514 .4039917 .13320923 .397995 .13720703 .38598634 .13920594 .37399293 .13920594L.3600006 .11009216C.33499146 .057022096 .31399537 .034988405 .2619934 .033996583H.1289978C.20298767 .1281128 .30699159 .28533937 .36898805 .38746644 .38398744 .4124756 .3869934 .42048646 .3869934 .42448426 .3869934 .42848207 .38198854 .43147279 .375 .43147279 .36999513 .43147279 .34199525 .42947389 .31298829 .42947389H.12998963C.09799194 .42947389 .085998538 .43447877 .070999149 .43948365Z"/>
<clipPath id="clip_18">
<path transform="matrix(1,0,0,-1,0,399.9761)" d="M57.024137 57.427896H679.68V365.95353H57.024137Z"/>
</clipPath>
<clipPath id="clip_19">
<path transform="matrix(1,0,0,-1,85.326679,328.52375)" d="M-8.162277-8.162277H8.162277V8.162277H-8.162277Z"/>
</clipPath>
<clipPath id="clip_20">
<path transform="matrix(1,0,0,-1,274.01026,327.9711)" d="M-8.162277-8.162277H8.162277V8.162277H-8.162277Z"/>
</clipPath>
<clipPath id="clip_21">
<path transform="matrix(1,0,0,-1,462.69386,241.92694)" d="M-8.162277-8.162277H8.162277V8.162277H-8.162277Z"/>
</clipPath>
<clipPath id="clip_22">
<path transform="matrix(1,0,0,-1,651.37747,48.046434)" d="M-8.162277-8.162277H8.162277V8.162277H-8.162277Z"/>
</clipPath>
<path id="font_9_35" d="M.147995 .6454468C.11199951 .6454468 .057998659 .64645388 .018997193 .64746096 .0129852299 .641449 .0129852299 .6204529 .018997193 .6144562 .08898926 .6114502 .10598755 .6064453 .10598755 .5233612V.12208557C.10598755 .03904724 .08898926 .03404236 .018997193 .031036377 .0129852299 .025039673 .0129852299 .004043579 .018997193-.001953125 .057998659-.0009613037 .11199951 .000045776369 .14898682 .000045776369 .18499756 .000045776369 .21099854-.001953125 .29499818-.001953125 .49398805-.001953125 .5469971 .09806824 .5469971 .18412781 .5469971 .28016664 .47999574 .33520509 .3929901 .36019898V.36219789C.44299317 .3872223 .48799134 .43927003 .48799134 .4933319 .48799134 .5603943 .45899964 .64746096 .272995 .64746096 .23799134 .64746096 .18399048 .6454468 .147995 .6454468M.19099427 .3321991H.2599945C.39698792 .3321991 .45399476 .25515748 .45399476 .16511536 .45399476 .09207153 .42599488 .031036377 .27398683 .031036377 .20399475 .031036377 .19099427 .057052614 .19099427 .11808777V.3321991M.19099427 .5503845C.19099427 .60343936 .19099427 .6134491 .27799989 .6134491 .33399964 .6134491 .40699769 .5834198 .40699769 .48132325 .40699769 .39624024 .34799195 .36621095 .2649994 .36621095H.19099427V.5503845Z"/>
</defs>
<path transform="matrix(1,0,0,-1,0,399.9761)" d="M0 0H686.88V399.9761H0Z" fill="none"/>
<path transform="matrix(1,0,0,-1,0,399.9761)" d="M57.024137 57.427896H679.68V365.95356H57.024137Z" fill="none"/>
<g clip-path="url(#clip_1)">
<path transform="matrix(1,0,0,-1,0,399.9761)" stroke-width=".8" stroke-linecap="square" stroke-linejoin="round" fill="none" stroke="#b0b0b0" stroke-opacity=".3" d="M148.2212 57.427896V365.95356"/>
</g>
<path transform="matrix(1,0,0,-1,0,399.9761)" d="M148.2212 57.427896V53.927896"/>
<path transform="matrix(1,0,0,-1,0,399.9761)" stroke-width=".8" stroke-linecap="butt" stroke-linejoin="round" fill="none" stroke="#000000" d="M148.2212 57.427896V53.927896"/>
<use data-text="1" xlink:href="#font_2_51" transform="matrix(19.92528,0,0,-19.92528,130.24478,363.5258)"/>
<use data-text="0" xlink:href="#font_2_50" transform="matrix(19.92528,0,0,-19.92528,139.37056,363.5258)"/>
<use data-text="&#x2212;" xlink:href="#font_3_1" transform="matrix(13.947636,0,0,-13.947636,148.52097,356.29508)"/>
<use data-text="2" xlink:href="#font_4_52" transform="matrix(13.947636,0,0,-13.947636,159.36916,356.29508)"/>
<g clip-path="url(#clip_5)">
<path transform="matrix(1,0,0,-1,0,399.9761)" stroke-width=".8" stroke-linecap="square" stroke-linejoin="round" fill="none" stroke="#b0b0b0" stroke-opacity=".3" d="M274.01029 57.427896V365.95356"/>
</g>
<path transform="matrix(1,0,0,-1,0,399.9761)" d="M274.01029 57.427896V53.927896"/>
<path transform="matrix(1,0,0,-1,0,399.9761)" stroke-width=".8" stroke-linecap="butt" stroke-linejoin="round" fill="none" stroke="#000000" d="M274.01029 57.427896V53.927896"/>
<use data-text="1" xlink:href="#font_2_51" transform="matrix(19.92528,0,0,-19.92528,261.45796,363.5258)"/>
<use data-text="0" xlink:href="#font_2_50" transform="matrix(19.92528,0,0,-19.92528,270.58375,363.5258)"/>
<use data-text="0" xlink:href="#font_4_50" transform="matrix(13.947636,0,0,-13.947636,279.73414,356.29508)"/>
<g clip-path="url(#clip_6)">
<path transform="matrix(1,0,0,-1,0,399.9761)" stroke-width=".8" stroke-linecap="square" stroke-linejoin="round" fill="none" stroke="#b0b0b0" stroke-opacity=".3" d="M399.79936 57.427896V365.95356"/>
</g>
<path transform="matrix(1,0,0,-1,0,399.9761)" d="M399.79936 57.427896V53.927896"/>
<path transform="matrix(1,0,0,-1,0,399.9761)" stroke-width=".8" stroke-linecap="butt" stroke-linejoin="round" fill="none" stroke="#000000" d="M399.79936 57.427896V53.927896"/>
<use data-text="1" xlink:href="#font_2_51" transform="matrix(19.92528,0,0,-19.92528,387.247,363.5258)"/>
<use data-text="0" xlink:href="#font_2_50" transform="matrix(19.92528,0,0,-19.92528,396.3728,363.5258)"/>
<use data-text="2" xlink:href="#font_4_52" transform="matrix(13.947636,0,0,-13.947636,405.5232,356.29508)"/>
<g clip-path="url(#clip_7)">
<path transform="matrix(1,0,0,-1,0,399.9761)" stroke-width=".8" stroke-linecap="square" stroke-linejoin="round" fill="none" stroke="#b0b0b0" stroke-opacity=".3" d="M525.5884 57.427896V365.95356"/>
</g>
<path transform="matrix(1,0,0,-1,0,399.9761)" d="M525.5884 57.427896V53.927896"/>
<path transform="matrix(1,0,0,-1,0,399.9761)" stroke-width=".8" stroke-linecap="butt" stroke-linejoin="round" fill="none" stroke="#000000" d="M525.5884 57.427896V53.927896"/>
<use data-text="1" xlink:href="#font_2_51" transform="matrix(19.92528,0,0,-19.92528,513.0361,363.5258)"/>
<use data-text="0" xlink:href="#font_2_50" transform="matrix(19.92528,0,0,-19.92528,522.16189,363.5258)"/>
<use data-text="4" xlink:href="#font_4_54" transform="matrix(13.947636,0,0,-13.947636,531.31228,356.29508)"/>
<g clip-path="url(#clip_8)">
<path transform="matrix(1,0,0,-1,0,399.9761)" stroke-width=".8" stroke-linecap="square" stroke-linejoin="round" fill="none" stroke="#b0b0b0" stroke-opacity=".3" d="M651.37747 57.427896V365.95356"/>
</g>
<path transform="matrix(1,0,0,-1,0,399.9761)" d="M651.37747 57.427896V53.927896"/>
<path transform="matrix(1,0,0,-1,0,399.9761)" stroke-width=".8" stroke-linecap="butt" stroke-linejoin="round" fill="none" stroke="#000000" d="M651.37747 57.427896V53.927896"/>
<use data-text="1" xlink:href="#font_2_51" transform="matrix(19.92528,0,0,-19.92528,638.82516,363.5258)"/>
<use data-text="0" xlink:href="#font_2_50" transform="matrix(19.92528,0,0,-19.92528,647.9509,363.5258)"/>
<use data-text="6" xlink:href="#font_4_56" transform="matrix(13.947636,0,0,-13.947636,657.1013,356.29508)"/>
<use data-text="T" xlink:href="#font_9_53" transform="matrix(21.917809,0,0,-21.917809,271.00419,387.60353)"/>
<use data-text="r" xlink:href="#font_9_83" transform="matrix(21.917809,0,0,-21.917809,283.65074,387.60353)"/>
<use data-text="a" xlink:href="#font_9_66" transform="matrix(21.917809,0,0,-21.917809,291.78224,387.60353)"/>
<use data-text="d" xlink:href="#font_9_69" transform="matrix(21.917809,0,0,-21.917809,301.77674,387.60353)"/>
<use data-text="e" xlink:href="#font_9_70" transform="matrix(21.917809,0,0,-21.917809,312.8452,387.60353)"/>
<use data-text="A" xlink:href="#font_9_34" transform="matrix(21.917809,0,0,-21.917809,328.1,387.60353)"/>
<use data-text="m" xlink:href="#font_9_78" transform="matrix(21.917809,0,0,-21.917809,343.31098,387.60353)"/>
<use data-text="o" xlink:href="#font_9_80" transform="matrix(21.917809,0,0,-21.917809,360.60414,387.60353)"/>
<use data-text="u" xlink:href="#font_9_86" transform="matrix(21.917809,0,0,-21.917809,371.62879,387.60353)"/>
<use data-text="n" xlink:href="#font_9_79" transform="matrix(21.917809,0,0,-21.917809,383.26716,387.60353)"/>
<use data-text="t" xlink:href="#font_9_85" transform="matrix(21.917809,0,0,-21.917809,395.1247,387.60353)"/>
<use data-text="(" xlink:href="#font_9_9" transform="matrix(21.917809,0,0,-21.917809,407.50828,387.60353)"/>
<use data-text="u" xlink:href="#font_9_86" transform="matrix(21.917809,0,0,-21.917809,414.03977,387.60353)"/>
<use data-text="n" xlink:href="#font_9_79" transform="matrix(21.917809,0,0,-21.917809,425.67814,387.60353)"/>
<use data-text="i" xlink:href="#font_9_74" transform="matrix(21.917809,0,0,-21.917809,437.53569,387.60353)"/>
<use data-text="t" xlink:href="#font_9_85" transform="matrix(21.917809,0,0,-21.917809,443.4535,387.60353)"/>
<use data-text="s" xlink:href="#font_9_84" transform="matrix(21.917809,0,0,-21.917809,450.3576,387.60353)"/>
<use data-text=")" xlink:href="#font_9_10" transform="matrix(21.917809,0,0,-21.917809,458.90556,387.60353)"/>
<g clip-path="url(#clip_10)">
<path transform="matrix(1,0,0,-1,0,399.9761)" stroke-width=".8" stroke-linecap="square" stroke-linejoin="round" fill="none" stroke="#b0b0b0" stroke-opacity=".3" d="M57.024137 100.8977H679.68"/>
</g>
<path transform="matrix(1,0,0,-1,0,399.9761)" d="M57.024137 100.8977H53.524137"/>
<path transform="matrix(1,0,0,-1,0,399.9761)" stroke-width=".8" stroke-linecap="butt" stroke-linejoin="round" fill="none" stroke="#000000" d="M57.024137 100.8977H53.524137"/>
<use data-text="5" xlink:href="#font_2_55" transform="matrix(19.92528,0,0,-19.92528,40.88604,306.0672)"/>
<g clip-path="url(#clip_11)">
<path transform="matrix(1,0,0,-1,0,399.9761)" stroke-width=".8" stroke-linecap="square" stroke-linejoin="round" fill="none" stroke="#b0b0b0" stroke-opacity=".3" d="M57.024137 149.97422H679.68"/>
</g>
<path transform="matrix(1,0,0,-1,0,399.9761)" d="M57.024137 149.97422H53.524137"/>
<path transform="matrix(1,0,0,-1,0,399.9761)" stroke-width=".8" stroke-linecap="butt" stroke-linejoin="round" fill="none" stroke="#000000" d="M57.024137 149.97422H53.524137"/>
<use data-text="1" xlink:href="#font_2_51" transform="matrix(19.92528,0,0,-19.92528,31.747946,256.9907)"/>
<use data-text="0" xlink:href="#font_2_50" transform="matrix(19.92528,0,0,-19.92528,40.873727,256.9907)"/>
<g clip-path="url(#clip_12)">
<path transform="matrix(1,0,0,-1,0,399.9761)" stroke-width=".8" stroke-linecap="square" stroke-linejoin="round" fill="none" stroke="#b0b0b0" stroke-opacity=".3" d="M57.024137 199.05072H679.68"/>
</g>
<path transform="matrix(1,0,0,-1,0,399.9761)" d="M57.024137 199.05072H53.524137"/>
<path transform="matrix(1,0,0,-1,0,399.9761)" stroke-width=".8" stroke-linecap="butt" stroke-linejoin="round" fill="none" stroke="#000000" d="M57.024137 199.05072H53.524137"/>
<use data-text="1" xlink:href="#font_2_51" transform="matrix(19.92528,0,0,-19.92528,31.747946,207.91417)"/>
<use data-text="5" xlink:href="#font_2_55" transform="matrix(19.92528,0,0,-19.92528,40.873727,207.91417)"/>
<g clip-path="url(#clip_13)">
<path transform="matrix(1,0,0,-1,0,399.9761)" stroke-width=".8" stroke-linecap="square" stroke-linejoin="round" fill="none" stroke="#b0b0b0" stroke-opacity=".3" d="M57.024137 248.12725H679.68"/>
</g>
<path transform="matrix(1,0,0,-1,0,399.9761)" d="M57.024137 248.12725H53.524137"/>
<path transform="matrix(1,0,0,-1,0,399.9761)" stroke-width=".8" stroke-linecap="butt" stroke-linejoin="round" fill="none" stroke="#000000" d="M57.024137 248.12725H53.524137"/>
<use data-text="2" xlink:href="#font_2_52" transform="matrix(19.92528,0,0,-19.92528,31.747946,158.83766)"/>
<use data-text="0" xlink:href="#font_2_50" transform="matrix(19.92528,0,0,-19.92528,40.873727,158.83766)"/>
<g clip-path="url(#clip_14)">
<path transform="matrix(1,0,0,-1,0,399.9761)" stroke-width=".8" stroke-linecap="square" stroke-linejoin="round" fill="none" stroke="#b0b0b0" stroke-opacity=".3" d="M57.024137 297.20378H679.68"/>
</g>
<path transform="matrix(1,0,0,-1,0,399.9761)" d="M57.024137 297.20378H53.524137"/>
<path transform="matrix(1,0,0,-1,0,399.9761)" stroke-width=".8" stroke-linecap="butt" stroke-linejoin="round" fill="none" stroke="#000000" d="M57.024137 297.20378H53.524137"/>
<use data-text="2" xlink:href="#font_2_52" transform="matrix(19.92528,0,0,-19.92528,31.747946,109.76114)"/>
<use data-text="5" xlink:href="#font_2_55" transform="matrix(19.92528,0,0,-19.92528,40.873727,109.76114)"/>
<g clip-path="url(#clip_15)">
<path transform="matrix(1,0,0,-1,0,399.9761)" stroke-width=".8" stroke-linecap="square" stroke-linejoin="round" fill="none" stroke="#b0b0b0" stroke-opacity=".3" d="M57.024137 346.28028H679.68"/>
</g>
<path transform="matrix(1,0,0,-1,0,399.9761)" d="M57.024137 346.28028H53.524137"/>
<path transform="matrix(1,0,0,-1,0,399.9761)" stroke-width=".8" stroke-linecap="butt" stroke-linejoin="round" fill="none" stroke="#000000" d="M57.024137 346.28028H53.524137"/>
<use data-text="3" xlink:href="#font_2_53" transform="matrix(19.92528,0,0,-19.92528,31.747946,60.68463)"/>
<use data-text="0" xlink:href="#font_2_50" transform="matrix(19.92528,0,0,-19.92528,40.873727,60.68463)"/>
<use data-text="S" xlink:href="#font_9_52" transform="matrix(0,-21.917809,-21.917809,-0,22.57534,234.98123)"/>
<use data-text="p" xlink:href="#font_9_81" transform="matrix(0,-21.917809,-21.917809,-0,22.57534,224.37302)"/>
<use data-text="r" xlink:href="#font_9_83" transform="matrix(0,-21.917809,-21.917809,-0,22.57534,212.99768)"/>
<use data-text="e" xlink:href="#font_9_70" transform="matrix(0,-21.917809,-21.917809,-0,22.57534,205.04154)"/>
<use data-text="a" xlink:href="#font_9_66" transform="matrix(0,-21.917809,-21.917809,-0,22.57534,195.26619)"/>
<use data-text="d" xlink:href="#font_9_69" transform="matrix(0,-21.917809,-21.917809,-0,22.57534,185.27167)"/>
<use data-text="(" xlink:href="#font_9_9" transform="matrix(0,-21.917809,-21.917809,-0,22.57534,168.72373)"/>
<use data-text="%" xlink:href="#font_9_6" transform="matrix(0,-21.917809,-21.917809,-0,22.57534,162.19222)"/>
<use data-text=")" xlink:href="#font_9_10" transform="matrix(0,-21.917809,-21.917809,-0,22.57534,148.23058)"/>
<g clip-path="url(#clip_16)">
<path transform="matrix(1,0,0,-1,0,399.9761)" stroke-width="2" stroke-linecap="square" stroke-linejoin="round" fill="none" stroke="#2962ff" d="M85.326679 71.452358 229.39171 71.562168 261.15409 71.803379 280.43836 72.15958 295.18519 72.65557 306.5289 73.25591 315.60386 73.93647 323.54444 74.72785 331.48506 75.75281 338.29127 76.86002 345.09748 78.21996 350.76933 79.5763 356.4412 81.161128 362.11305 82.9973 367.78489 85.105098 373.45674 87.500888 379.1286 90.19591 384.80046 93.19536 390.4723 96.497989 396.14414 100.09616 401.81599 103.97654 407.48786 108.12108 414.29408 113.41288 421.10029 119.013408 429.0409 125.8818 436.98149 133.04969 446.05644 141.5345 457.40016 152.47386 471.01258 165.9445 488.02815 183.11605 511.8499 207.49393 551.55288 248.48096 651.37747 351.92967"/>
</g>
<g clip-path="url(#clip_17)">
<path transform="matrix(1,0,0,-1,0,399.9761)" stroke-width="1.5" stroke-linecap="butt" stroke-dasharray="5.55,2.4" stroke-linejoin="round" fill="none" stroke="#808080" d="M57.024137 71.45179H679.68"/>
</g>
<path transform="matrix(1,0,0,-1,0,399.9761)" stroke-width=".8" stroke-linecap="square" stroke-miterlimit="10" stroke-linejoin="miter" fill="none" stroke="#000000" d="M57.024137 57.427896V365.95356"/>
<path transform="matrix(1,0,0,-1,0,399.9761)" stroke-width=".8" stroke-linecap="square" stroke-miterlimit="10" stroke-linejoin="miter" fill="none" stroke="#000000" d="M679.68 57.427896V365.95356"/>
<path transform="matrix(1,0,0,-1,0,399.9761)" stroke-width=".8" stroke-linecap="square" stroke-miterlimit="10" stroke-linejoin="miter" fill="none" stroke="#000000" d="M57.024137 57.427896H679.68"/>
<path transform="matrix(1,0,0,-1,0,399.9761)" stroke-width=".8" stroke-linecap="square" stroke-miterlimit="10" stroke-linejoin="miter" fill="none" stroke="#000000" d="M57.024137 365.95356H679.68"/>
<use data-text="2" xlink:href="#font_9_19" transform="matrix(21.917809,0,0,-21.917809,65.743129,318.52375)"/>
<use data-text="." xlink:href="#font_9_15" transform="matrix(21.917809,0,0,-21.917809,75.934909,318.52375)"/>
<use data-text="0" xlink:href="#font_9_17" transform="matrix(21.917809,0,0,-21.917809,80.75682,318.52375)"/>
<use data-text="%" xlink:href="#font_9_6" transform="matrix(21.917809,0,0,-21.917809,90.9486,318.52375)"/>
<use data-text="2" xlink:href="#font_9_19" transform="matrix(21.917809,0,0,-21.917809,254.0486,317.97114)"/>
<use data-text="." xlink:href="#font_9_15" transform="matrix(21.917809,0,0,-21.917809,264.2404,317.97114)"/>
<use data-text="1" xlink:href="#font_9_18" transform="matrix(21.917809,0,0,-21.917809,269.06233,317.97114)"/>
<use data-text="%" xlink:href="#font_9_6" transform="matrix(21.917809,0,0,-21.917809,279.2541,317.97114)"/>
<use data-text="1" xlink:href="#font_9_18" transform="matrix(15.498231,-15.498231,-15.498231,-15.498231,449.2282,236.44199)"/>
<use data-text="0" xlink:href="#font_9_17" transform="matrix(15.498231,-15.498231,-15.498231,-15.498231,456.43489,229.2353)"/>
<use data-text="." xlink:href="#font_9_15" transform="matrix(15.498231,-15.498231,-15.498231,-15.498231,463.64155,222.02863)"/>
<use data-text="8" xlink:href="#font_9_25" transform="matrix(15.498231,-15.498231,-15.498231,-15.498231,467.05116,218.61902)"/>
<use data-text="%" xlink:href="#font_9_6" transform="matrix(15.498231,-15.498231,-15.498231,-15.498231,474.2578,211.41234)"/>
<use data-text="3" xlink:href="#font_9_20" transform="matrix(14.088496,-16.790017,-16.790017,-14.088496,629.4217,54.894166)"/>
<use data-text="0" xlink:href="#font_9_17" transform="matrix(14.088496,-16.790017,-16.790017,-14.088496,635.97286,47.086824)"/>
<use data-text="." xlink:href="#font_9_15" transform="matrix(14.088496,-16.790017,-16.790017,-14.088496,642.524,39.27945)"/>
<use data-text="6" xlink:href="#font_9_23" transform="matrix(14.088496,-16.790017,-16.790017,-14.088496,645.6235,35.585634)"/>
<use data-text="%" xlink:href="#font_9_6" transform="matrix(14.088496,-16.790017,-16.790017,-14.088496,652.1746,27.77829)"/>
<use data-text="E" xlink:href="#font_9_38" transform="matrix(23.910336,0,0,-23.910336,182.68848,28.022553)"/>
<use data-text="f" xlink:href="#font_9_2360" transform="matrix(23.910336,0,0,-23.910336,196.00653,28.022553)"/>
<use data-text="e" xlink:href="#font_9_70" transform="matrix(23.910336,0,0,-23.910336,209.89844,28.022553)"/>
<use data-text="c" xlink:href="#font_9_68" transform="matrix(23.910336,0,0,-23.910336,220.72983,28.022553)"/>
<use data-text="t" xlink:href="#font_9_85" transform="matrix(23.910336,0,0,-23.910336,230.96346,28.022553)"/>
<use data-text="i" xlink:href="#font_9_74" transform="matrix(23.910336,0,0,-23.910336,238.49521,28.022553)"/>
<use data-text="v" xlink:href="#font_9_87" transform="matrix(23.910336,0,0,-23.910336,244.951,28.022553)"/>
<use data-text="e" xlink:href="#font_9_70" transform="matrix(23.910336,0,0,-23.910336,256.61924,28.022553)"/>
<use data-text="S" xlink:href="#font_9_52" transform="matrix(23.910336,0,0,-23.910336,273.2608,28.022553)"/>
<use data-text="p" xlink:href="#font_9_81" transform="matrix(23.910336,0,0,-23.910336,284.8334,28.022553)"/>
<use data-text="r" xlink:href="#font_9_83" transform="matrix(23.910336,0,0,-23.910336,297.24287,28.022553)"/>
<use data-text="e" xlink:href="#font_9_70" transform="matrix(23.910336,0,0,-23.910336,305.9223,28.022553)"/>
<use data-text="a" xlink:href="#font_9_66" transform="matrix(23.910336,0,0,-23.910336,316.5863,28.022553)"/>
<use data-text="d" xlink:href="#font_9_69" transform="matrix(23.910336,0,0,-23.910336,327.4894,28.022553)"/>
<use data-text="P" xlink:href="#font_9_49" transform="matrix(23.910336,0,0,-23.910336,345.5417,28.022553)"/>
<use data-text="e" xlink:href="#font_9_70" transform="matrix(23.910336,0,0,-23.910336,358.47718,28.022553)"/>
<use data-text="r" xlink:href="#font_9_83" transform="matrix(23.910336,0,0,-23.910336,369.14118,28.022553)"/>
<use data-text="c" xlink:href="#font_9_68" transform="matrix(23.910336,0,0,-23.910336,377.82063,28.022553)"/>
<use data-text="e" xlink:href="#font_9_70" transform="matrix(23.910336,0,0,-23.910336,388.05424,28.022553)"/>
<use data-text="n" xlink:href="#font_9_79" transform="matrix(23.910336,0,0,-23.910336,398.71824,28.022553)"/>
<use data-text="t" xlink:href="#font_9_85" transform="matrix(23.910336,0,0,-23.910336,411.65373,28.022553)"/>
<use data-text="v" xlink:href="#font_9_87" transform="matrix(23.910336,0,0,-23.910336,425.16307,28.022553)"/>
<use data-text="s" xlink:href="#font_9_84" transform="matrix(23.910336,0,0,-23.910336,437.02259,28.022553)"/>
<use data-text="T" xlink:href="#font_9_53" transform="matrix(23.910336,0,0,-23.910336,452.3252,28.022553)"/>
<use data-text="r" xlink:href="#font_9_83" transform="matrix(23.910336,0,0,-23.910336,466.12147,28.022553)"/>
<use data-text="a" xlink:href="#font_9_66" transform="matrix(23.910336,0,0,-23.910336,474.9922,28.022553)"/>
<use data-text="d" xlink:href="#font_9_69" transform="matrix(23.910336,0,0,-23.910336,485.8953,28.022553)"/>
<use data-text="e" xlink:href="#font_9_70" transform="matrix(23.910336,0,0,-23.910336,497.97,28.022553)"/>
<use data-text="S" xlink:href="#font_9_52" transform="matrix(23.910336,0,0,-23.910336,514.6116,28.022553)"/>
<use data-text="i" xlink:href="#font_9_74" transform="matrix(23.910336,0,0,-23.910336,526.1842,28.022553)"/>
<use data-text="z" xlink:href="#font_9_91" transform="matrix(23.910336,0,0,-23.910336,532.64,28.022553)"/>
<use data-text="e" xlink:href="#font_9_70" transform="matrix(23.910336,0,0,-23.910336,542.7541,28.022553)"/>
<g clip-path="url(#clip_18)">
<g clip-path="url(#clip_19)">
<path transform="matrix(1,0,0,-1,85.326679,328.52375)" d="M0-3.162278C.838646-3.162278 1.643056-2.82908 2.236068-2.236068 2.82908-1.643056 3.162278-.838646 3.162278 0 3.162278 .838646 2.82908 1.643056 2.236068 2.236068 1.643056 2.82908 .838646 3.162278 0 3.162278-.838646 3.162278-1.643056 2.82908-2.236068 2.236068-2.82908 1.643056-3.162278 .838646-3.162278 0-3.162278-.838646-2.82908-1.643056-2.236068-2.236068-1.643056-2.82908-.838646-3.162278 0-3.162278Z" fill="#2962ff"/>
<path transform="matrix(1,0,0,-1,85.326679,328.52375)" stroke-width="1" stroke-linecap="butt" stroke-linejoin="round" fill="none" stroke="#2962ff" d="M0-3.162278C.838646-3.162278 1.643056-2.82908 2.236068-2.236068 2.82908-1.643056 3.162278-.838646 3.162278 0 3.162278 .838646 2.82908 1.643056 2.236068 2.236068 1.643056 2.82908 .838646 3.162278 0 3.162278-.838646 3.162278-1.643056 2.82908-2.236068 2.236068-2.82908 1.643056-3.162278 .838646-3.162278 0-3.162278-.838646-2.82908-1.643056-2.236068-2.236068-1.643056-2.82908-.838646-3.162278 0-3.162278Z"/>
</g>
<g clip-path="url(#clip_20)">
<path transform="matrix(1,0,0,-1,274.01026,327.9711)" d="M0-3.162278C.838646-3.162278 1.643056-2.82908 2.236068-2.236068 2.82908-1.643056 3.162278-.838646 3.162278 0 3.162278 .838646 2.82908 1.643056 2.236068 2.236068 1.643056 2.82908 .838646 3.162278 0 3.162278-.838646 3.162278-1.643056 2.82908-2.236068 2.236068-2.82908 1.643056-3.162278 .838646-3.162278 0-3.162278-.838646-2.82908-1.643056-2.236068-2.236068-1.643056-2.82908-.838646-3.162278 0-3.162278Z" fill="#2962ff"/>
<path transform="matrix(1,0,0,-1,274.01026,327.9711)" stroke-width="1" stroke-linecap="butt" stroke-linejoin="round" fill="none" stroke="#2962ff" d="M0-3.162278C.838646-3.162278 1.643056-2.82908 2.236068-2.236068 2.82908-1.643056 3.162278-.838646 3.162278 0 3.162278 .838646 2.82908 1.643056 2.236068 2.236068 1.643056 2.82908 .838646 3.162278 0 3.162278-.838646 3.162278-1.643056 2.82908-2.236068 2.236068-2.82908 1.643056-3.162278 .838646-3.162278 0-3.162278-.838646-2.82908-1.643056-2.236068-2.236068-1.643056-2.82908-.838646-3.162278 0-3.162278Z"/>
</g>
<g clip-path="url(#clip_21)">
<path transform="matrix(1,0,0,-1,462.69386,241.92694)" d="M0-3.162278C.838646-3.162278 1.643056-2.82908 2.236068-2.236068 2.82908-1.643056 3.162278-.838646 3.162278 0 3.162278 .838646 2.82908 1.643056 2.236068 2.236068 1.643056 2.82908 .838646 3.162278 0 3.162278-.838646 3.162278-1.643056 2.82908-2.236068 2.236068-2.82908 1.643056-3.162278 .838646-3.162278 0-3.162278-.838646-2.82908-1.643056-2.236068-2.236068-1.643056-2.82908-.838646-3.162278 0-3.162278Z" fill="#2962ff"/>
<path transform="matrix(1,0,0,-1,462.69386,241.92694)" stroke-width="1" stroke-linecap="butt" stroke-linejoin="round" fill="none" stroke="#2962ff" d="M0-3.162278C.838646-3.162278 1.643056-2.82908 2.236068-2.236068 2.82908-1.643056 3.162278-.838646 3.162278 0 3.162278 .838646 2.82908 1.643056 2.236068 2.236068 1.643056 2.82908 .838646 3.162278 0 3.162278-.838646 3.162278-1.643056 2.82908-2.236068 2.236068-2.82908 1.643056-3.162278 .838646-3.162278 0-3.162278-.838646-2.82908-1.643056-2.236068-2.236068-1.643056-2.82908-.838646-3.162278 0-3.162278Z"/>
</g>
<g clip-path="url(#clip_22)">
<path transform="matrix(1,0,0,-1,651.37747,48.046434)" d="M0-3.162278C.838646-3.162278 1.643056-2.82908 2.236068-2.236068 2.82908-1.643056 3.162278-.838646 3.162278 0 3.162278 .838646 2.82908 1.643056 2.236068 2.236068 1.643056 2.82908 .838646 3.162278 0 3.162278-.838646 3.162278-1.643056 2.82908-2.236068 2.236068-2.82908 1.643056-3.162278 .838646-3.162278 0-3.162278-.838646-2.82908-1.643056-2.236068-2.236068-1.643056-2.82908-.838646-3.162278 0-3.162278Z" fill="#2962ff"/>
<path transform="matrix(1,0,0,-1,651.37747,48.046434)" stroke-width="1" stroke-linecap="butt" stroke-linejoin="round" fill="none" stroke="#2962ff" d="M0-3.162278C.838646-3.162278 1.643056-2.82908 2.236068-2.236068 2.82908-1.643056 3.162278-.838646 3.162278 0 3.162278 .838646 2.82908 1.643056 2.236068 2.236068 1.643056 2.82908 .838646 3.162278 0 3.162278-.838646 3.162278-1.643056 2.82908-2.236068 2.236068-2.82908 1.643056-3.162278 .838646-3.162278 0-3.162278-.838646-2.82908-1.643056-2.236068-2.236068-1.643056-2.82908-.838646-3.162278 0-3.162278Z"/>
</g>
</g>
<g>
<path transform="matrix(1,0,0,-1,0,399.9761)" d="M71.02414 292.5488H285.32038C287.98707 292.5488 289.32038 293.88215 289.32038 296.5488V351.95356C289.32038 354.6202 287.98707 355.95356 285.32038 355.95356H71.02414C68.35747 355.95356 67.02414 354.6202 67.02414 351.95356V296.5488C67.02414 293.88215 68.35747 292.5488 71.02414 292.5488Z" fill="#ffffff" fill-opacity=".8"/>
<path transform="matrix(1,0,0,-1,0,399.9761)" stroke-width="1" stroke-linecap="butt" stroke-miterlimit="10" stroke-linejoin="miter" fill="none" stroke="#cccccc" stroke-opacity=".8" d="M71.02414 292.5488H285.32038C287.98707 292.5488 289.32038 293.88215 289.32038 296.5488V351.95356C289.32038 354.6202 287.98707 355.95356 285.32038 355.95356H71.02414C68.35747 355.95356 67.02414 354.6202 67.02414 351.95356V296.5488C67.02414 293.88215 68.35747 292.5488 71.02414 292.5488Z"/>
</g>
<path transform="matrix(1,0,0,-1,0,399.9761)" stroke-width="2" stroke-linecap="square" stroke-linejoin="round" fill="none" stroke="#2962ff" d="M75.02414 340.95356H95.02414 115.02414"/>
<use data-text="E" xlink:href="#font_9_38" transform="matrix(19.92528,0,0,-19.92528,131.02414,66.02255)"/>
<use data-text="f" xlink:href="#font_9_2360" transform="matrix(19.92528,0,0,-19.92528,142.12253,66.02255)"/>
<use data-text="e" xlink:href="#font_9_70" transform="matrix(19.92528,0,0,-19.92528,153.69911,66.02255)"/>
<use data-text="c" xlink:href="#font_9_68" transform="matrix(19.92528,0,0,-19.92528,162.72527,66.02255)"/>
<use data-text="t" xlink:href="#font_9_85" transform="matrix(19.92528,0,0,-19.92528,171.25328,66.02255)"/>
<use data-text="i" xlink:href="#font_9_74" transform="matrix(19.92528,0,0,-19.92528,177.52974,66.02255)"/>
<use data-text="v" xlink:href="#font_9_87" transform="matrix(19.92528,0,0,-19.92528,182.90956,66.02255)"/>
<use data-text="e" xlink:href="#font_9_70" transform="matrix(19.92528,0,0,-19.92528,192.63307,66.02255)"/>
<use data-text="S" xlink:href="#font_9_52" transform="matrix(19.92528,0,0,-19.92528,206.50107,66.02255)"/>
<use data-text="p" xlink:href="#font_9_81" transform="matrix(19.92528,0,0,-19.92528,216.1449,66.02255)"/>
<use data-text="r" xlink:href="#font_9_83" transform="matrix(19.92528,0,0,-19.92528,226.48612,66.02255)"/>
<use data-text="e" xlink:href="#font_9_70" transform="matrix(19.92528,0,0,-19.92528,233.71897,66.02255)"/>
<use data-text="a" xlink:href="#font_9_66" transform="matrix(19.92528,0,0,-19.92528,242.60564,66.02255)"/>
<use data-text="d" xlink:href="#font_9_69" transform="matrix(19.92528,0,0,-19.92528,251.69156,66.02255)"/>
<use data-text="%" xlink:href="#font_9_6" transform="matrix(19.92528,0,0,-19.92528,266.73515,66.02255)"/>
<path transform="matrix(1,0,0,-1,0,399.9761)" stroke-width="1.5" stroke-linecap="butt" stroke-dasharray="5.55,2.4" stroke-linejoin="round" fill="none" stroke="#808080" d="M75.02414 312.2512H95.02414 115.02414"/>
<use data-text="B" xlink:href="#font_9_35" transform="matrix(19.92528,0,0,-19.92528,131.02414,94.724918)"/>
<use data-text="a" xlink:href="#font_9_66" transform="matrix(19.92528,0,0,-19.92528,142.7402,94.724918)"/>
<use data-text="s" xlink:href="#font_9_84" transform="matrix(19.92528,0,0,-19.92528,151.82613,94.724918)"/>
<use data-text="e" xlink:href="#font_9_70" transform="matrix(19.92528,0,0,-19.92528,159.59699,94.724918)"/>
<use data-text="S" xlink:href="#font_9_52" transform="matrix(19.92528,0,0,-19.92528,173.46498,94.724918)"/>
<use data-text="p" xlink:href="#font_9_81" transform="matrix(19.92528,0,0,-19.92528,183.10881,94.724918)"/>
<use data-text="r" xlink:href="#font_9_83" transform="matrix(19.92528,0,0,-19.92528,193.45003,94.724918)"/>
<use data-text="e" xlink:href="#font_9_70" transform="matrix(19.92528,0,0,-19.92528,200.68288,94.724918)"/>
<use data-text="a" xlink:href="#font_9_66" transform="matrix(19.92528,0,0,-19.92528,209.56955,94.724918)"/>
<use data-text="d" xlink:href="#font_9_69" transform="matrix(19.92528,0,0,-19.92528,218.65547,94.724918)"/>
<use data-text="(" xlink:href="#font_9_9" transform="matrix(19.92528,0,0,-19.92528,233.69907,94.724918)"/>
<use data-text="2" xlink:href="#font_9_19" transform="matrix(19.92528,0,0,-19.92528,239.6368,94.724918)"/>
<use data-text="." xlink:href="#font_9_15" transform="matrix(19.92528,0,0,-19.92528,248.90206,94.724918)"/>
<use data-text="0" xlink:href="#font_9_17" transform="matrix(19.92528,0,0,-19.92528,253.28562,94.724918)"/>
<use data-text="%" xlink:href="#font_9_6" transform="matrix(19.92528,0,0,-19.92528,262.55088,94.724918)"/>
<use data-text=")" xlink:href="#font_9_10" transform="matrix(19.92528,0,0,-19.92528,275.2433,94.724918)"/>
</svg>
