<svg xmlns="http://www.w3.org/2000/svg" xmlns:xlink="http://www.w3.org/1999/xlink" version="1.1" width="701.4375pt" height="399.95988pt" viewBox="0 0 701.4375 399.95988">
<defs>
<clipPath id="clip_1">
<path transform="matrix(1,0,0,-1,0,399.95988)" d="M72.91347 57.427896H694.2375V366.311H72.91347Z"/>
</clipPath>
<path id="font_2_51" d="M.2659912 .63912966C.2659912 .66012576 .2649994 .6611328 .25099183 .6611328 .21199036 .61424258 .15299988 .5993042 .09700012 .5973053 .09399414 .5973053 .08898926 .5973053 .08799744 .5953064 .08699036 .5933075 .08699036 .5913086 .08699036 .5703125 .117996219 .5703125 .16999817 .5763092 .20999146 .600296V.073013309C.20999146 .037994386 .20799256 .025985718 .12199402 .025985718H.09199524V0C.13999939 .0009918213 .18998719 .0019989014 .23799134 .0019989014 .28599549 .0019989014 .33599855 .0009918213 .38398744 0V.025985718H.35398866C.2679901 .025985718 .2659912 .037002565 .2659912 .073013309V.63912966Z"/>
<path id="font_2_50" d="M.41999818 .3212433C.41999818 .38223268 .4189911 .4861908 .3769989 .5661621 .33999635 .6361389 .2809906 .6611328 .22898865 .6611328 .18099976 .6611328 .11999512 .63912966 .08198547 .56715396 .041992189 .4921875 .037994386 .3992157 .037994386 .3212433 .037994386 .26426698 .038986207 .17730713 .069992069 .10133362 .11299133-.0016326904 .18998719-.015625 .22898865-.015625 .2749939-.015625 .34498597 .0033721924 .38598634 .09832764 .41600038 .16731262 .41999818 .24827576 .41999818 .3212433M.22898865 .00036621095C.16499329 .00036621095 .1269989 .055343629 .11299133 .13131714 .101989749 .19029236 .101989749 .27626039 .101989749 .33224488 .101989749 .4092102 .101989749 .4731903 .114990238 .5341644 .13398743 .6191406 .18998719 .64512637 .22898865 .64512637 .269989 .64512637 .32299806 .61813357 .34199525 .53616335 .35499574 .479187 .35598756 .4122162 .35598756 .33224488 .35598756 .26727296 .35598756 .18730164 .34399415 .12832642 .32299806 .019363404 .2639923 .00036621095 .22898865 .00036621095Z"/>
<path id="font_3_1" d="M.6589966 .23046875C.6759949 .23046875 .69400027 .23046875 .69400027 .25045777 .69400027 .27046205 .6759949 .27046205 .6589966 .27046205H.117996219C.100997928 .27046205 .08299255 .27046205 .08299255 .25045777 .08299255 .23046875 .100997928 .23046875 .117996219 .23046875H.6589966Z"/>
<path id="font_4_52" d="M.43998719 .16790772H.41799928C.4149933 .15092469 .40699769 .09597778 .39698792 .07998657 .3899994 .070999149 .33299256 .070999149 .30299378 .070999149H.117996219C.14498902 .09397888 .20599365 .15792847 .23199463 .18190003 .38398744 .3217926 .43998719 .37374879 .43998719 .47270204 .43998719 .5878906 .34899903 .66503909 .23298645 .66503909 .116989139 .66503909 .04899597 .5658264 .04899597 .4797058 .04899597 .42871095 .09298706 .42871095 .09599304 .42871095 .116989139 .42871095 .14299011 .44371034 .14299011 .475708 .14299011 .5037079 .12399292 .5227051 .09599304 .5227051 .08699036 .5227051 .084991458 .5227051 .08198547 .521698 .100997928 .5899048 .15499878 .6360321 .21998596 .6360321 .30499269 .6360321 .35699464 .56481936 .35699464 .47270204 .35699464 .3877411 .30799867 .313797 .25099183 .24984741L.04899597 .023986817V0H.4139862L.43998719 .16790772Z"/>
<clipPath id="clip_5">
<path transform="matrix(1,0,0,-1,0,399.95988)" d="M72.91347 57.427896H694.2375V366.311H72.91347Z"/>
</clipPath>
<path id="font_4_50" d="M.44799806 .31976319C.44799806 .40283204 .44299317 .48390199 .40699769 .55996707 .3659973 .64302065 .2939911 .66503909 .24499512 .66503909 .18699646 .66503909 .115997318 .63601687 .07899475 .552948 .050994874 .48989869 .040985109 .42785646 .040985109 .31976319 .040985109 .22268677 .04798889 .14962769 .083999637 .078567508 .12298584 .0025177003 .19198609-.021484375 .24398804-.021484375 .33099366-.021484375 .3809967 .030532837 .4099884 .08857727 .44599916 .16363526 .44799806 .26171876 .44799806 .31976319M.24398804-.0014953613C.21199036-.0014953613 .14698792 .016525269 .12799073 .12561035 .116989139 .18565369 .116989139 .26171876 .116989139 .33177186 .116989139 .41384889 .116989139 .48789979 .1329956 .5469513 .1499939 .6139984 .20098877 .6450348 .24398804 .6450348 .28199769 .6450348 .33999635 .6220093 .35899354 .53593447 .37199403 .4788971 .37199403 .39982606 .37199403 .33177186 .37199403 .26472474 .37199403 .18865967 .36099244 .12760926 .34199525 .01751709 .2789917-.0014953613 .24398804-.0014953613Z"/>
<clipPath id="clip_6">
<path transform="matrix(1,0,0,-1,0,399.95988)" d="M72.91347 57.427896H694.2375V366.311H72.91347Z"/>
</clipPath>
<clipPath id="clip_7">
<path transform="matrix(1,0,0,-1,0,399.95988)" d="M72.91347 57.427896H694.2375V366.311H72.91347Z"/>
</clipPath>
<path id="font_4_54" d="M.36099244 .6508026C.36099244 .6697998 .36099244 .6748047 .34700013 .6748047 .33898927 .6748047 .33599855 .6748047 .32798768 .662796L.026992798 .19598389V.16699219H.2899933V.07598877C.2899933 .038986207 .28799439 .0289917 .21499634 .0289917H.19499207V0C.21798706 .0019989014 .29699708 .0019989014 .32499696 .0019989014 .35299684 .0019989014 .43299867 .0019989014 .45599366 0V.0289917H.43598939C.3639984 .0289917 .36099244 .038986207 .36099244 .07598877V.16699219H.46199037V.19598389H.36099244V.6508026M.29499818 .5728302V.19598389H.051986696L.29499818 .5728302Z"/>
<clipPath id="clip_8">
<path transform="matrix(1,0,0,-1,0,399.95988)" d="M72.91347 57.427896H694.2375V366.311H72.91347Z"/>
</clipPath>
<path id="font_4_56" d="M.12298584 .34773255C.12298584 .60061648 .24598694 .641037 .2999878 .641037 .33599855 .641037 .37199403 .62991335 .3909912 .5996094 .3789978 .5996094 .34098817 .5996094 .34098817 .558609 .34098817 .53660586 .35598756 .51760867 .38198854 .51760867 .40699769 .51760867 .42399598 .53260806 .42399598 .56159976 .42399598 .6137543 .38598634 .66503909 .29899598 .66503909 .17298889 .66503909 .040985109 .53559878 .040985109 .31570436 .040985109 .040527345 .16099549-.021484375 .24598694-.021484375 .35499574-.021484375 .44799806 .07354736 .44799806 .2036438 .44799806 .33673097 .35499574 .42578126 .25498963 .42578126 .1659851 .42578126 .1329956 .34873963 .12298584 .32070924V.34773255M.24598694 .005508423C.18299866 .005508423 .15299988 .061538698 .14399719 .08256531 .1349945 .10858154 .125 .15760803 .125 .22766114 .125 .30670167 .16099549 .40577699 .25099183 .40577699 .30599977 .40577699 .33499146 .3687439 .34999085 .33473207 .3659973 .29769898 .3659973 .2476654 .3659973 .20463562 .3659973 .15361023 .3659973 .10858154 .34700013 .07055664 .32199098 .022521973 .28599549 .005508423 .24598694 .005508423Z"/>
<path id="font_9_53" d="M.34999085 .1219635V.50361636C.34999085 .5675659 .3600006 .6055298 .3959961 .6055298H.41799928C.49299623 .6055298 .5399933 .57954409 .5569916 .5026245 .56799319 .5026245 .58200076 .50361636 .59098818 .50761416 .58399966 .55426028 .57899478 .60528567 .5779877 .65031436 .5779877 .65130618 .57598879 .6533203 .57499697 .6533203 .54100039 .6495209 .42999269 .64453127 .35099793 .64453127H.2649994C.18798828 .64530947 .069992069 .65031436 .03199768 .6533203 .02999878 .6533203 .027999878 .65130618 .027999878 .65031436 .023986817 .60528567 .01399231 .55326846 .0029907227 .505249 .0129852299 .50123599 .024993897 .50024417 .036987306 .50024417 .056991579 .57954409 .102996829 .6055298 .16899109 .6055298H.21798706C.25498963 .6055298 .2649994 .5675659 .2649994 .5066223V.1219635C.2649994 .039031984 .24798584 .03404236 .16799927 .031036377 .1619873 .025039673 .1619873 .004043579 .16799927-.001953125 .21699524-.0009613037 .2679901 .000045776369 .30799867 .000045776369 .34599305 .000045776369 .39698792-.0009613037 .44699098-.001953125 .45298768 .004043579 .45298768 .025039673 .44699098 .031036377 .36698915 .03404236 .34999085 .039031984 .34999085 .1219635Z"/>
<path id="font_9_83" d="M.17599488 .35830689C.17399597 .39834596 .17298889 .42436219 .16799927 .43437196 .1659851 .43937684 .1639862 .4423828 .1559906 .4423828 .12799073 .43136598 .101989749 .42236329 .032989503 .4133606 .0309906 .40734864 .032989503 .39134217 .034988405 .3853302 .08898926 .38032533 .099990848 .37532044 .099990848 .317276V.12213135C.099990848 .03907776 .08799744 .035064699 .025985718 .031066895 .019989014 .025054932 .019989014 .004043579 .025985718-.001953125 .06098938-.0009613037 .099990848 .000045776369 .13999939 .000045776369 .17999268 .000045776369 .22599793-.0009613037 .26098634-.001953125 .2669983 .004043579 .2669983 .025054932 .26098634 .031066895 .19099427 .036071779 .1789856 .03907776 .1789856 .12213135V.26124574C.1789856 .28735353 .19099427 .31037904 .20298767 .32839967 .21398926 .34440614 .23699951 .3774414 .24899292 .3774414 .2579956 .3774414 .2669983 .3754425 .2749939 .36442567 .28199769 .3544464 .2939911 .34144593 .31098939 .34144593 .33499146 .34144593 .35798646 .36643983 .35798646 .39144898 .35798646 .41044618 .33999635 .43945313 .2979889 .43945313 .25099183 .43945313 .20999146 .39544679 .18699646 .35643006 .18099976 .3453064 .17599488 .35331727 .17599488 .35830689Z"/>
<path id="font_9_66" d="M.29299928 .048233034C.29899598 .017227173 .30999757-.009765625 .3600006-.009765625 .397995-.009765625 .43399049 .007232666 .45498658 .02722168 .45298768 .039230348 .44898988 .048233034 .43798829 .054229738 .43099977 .048233034 .4139862 .038223268 .40098573 .038223268 .37199403 .038223268 .37098695 .07725525 .37098695 .12327576V.27037049C.37098695 .41244508 .29299928 .43945313 .21998596 .43945313 .13798523 .43945313 .054992677 .385437 .054992677 .32839967 .054992677 .30438233 .066986087 .29237367 .08999634 .29237367 .11898804 .29237367 .13699341 .313385 .13699341 .32640077 .13699341 .33340455 .13598633 .34040834 .13398743 .34440614 .1329956 .3474121 .13198853 .3534088 .13198853 .36442567 .13198853 .39544679 .17399597 .40644837 .21199036 .40644837 .24598694 .40644837 .29299928 .3894348 .29299928 .2763672 .29299928 .2693634 .2899933 .2653656 .2869873 .26435853L.20098877 .24334717C.10499573 .21932984 .035995485 .16630554 .035995485 .0982666 .035995485 .016220093 .09199524-.009765625 .1619873-.009765625 .19699097-.009765625 .22698975-.0017700195 .2709961 .032226564L.29100038 .048233034H.29299928M.29299928 .2333374V.10127258C.29299928 .088256839 .2869873 .08125305 .2789917 .07525635 .25299073 .054244996 .21899414 .031219483 .19099427 .031219483 .14099121 .031219483 .11898804 .071243289 .11898804 .102264408 .11898804 .14729309 .13999939 .19332886 .21398926 .21232605L.29299928 .2333374Z"/>
<path id="font_9_69" d="M.33399964 .050231935C.33898927 .054229738 .34799195 .056243898 .34899903 .049240114 .35198976 .025222779 .3600006-.009765625 .3600006-.009765625 .36799623-.012771606 .37298585-.011779785 .3789978-.009765625 .40098573 .008270264 .43598939 .023269654 .49699403 .030273438 .5029907 .03627014 .5029907 .05126953 .49699403 .057266237 .43299867 .06227112 .42399598 .08128357 .42399598 .13031006V.58332827C.42399598 .64826968 .42799378 .6882324 .42799378 .6882324 .42799378 .6952362 .42399598 .6982422 .4149933 .6982422 .3899994 .68859866 .31498719 .67459109 .2749939 .67160037 .272995 .6635895 .2749939 .64759829 .2809906 .64160159 .28399659 .64160159 .2869873 .64160159 .2899933 .64160159 .33399964 .6385956 .34498597 .6385956 .34498597 .5595398V.43144227C.34498597 .42443849 .34298707 .42243959 .33599855 .42243959 .33198548 .42243959 .29100038 .43945313 .2579956 .43945313 .19198609 .43945313 .147995 .41744996 .10798645 .37942506 .06498718 .33641053 .038986207 .27737428 .038986207 .20332337 .038986207 .08024597 .100997928-.009765625 .20899964-.009765625 .24798584-.009765625 .2849884 .010223389 .33399964 .050231935M.34498597 .12428284C.34498597 .105270389 .34298707 .09725952 .32899476 .085250858 .2919922 .053237916 .2599945 .037231447 .23498535 .037231447 .18099976 .037231447 .125 .0962677 .125 .221344 .125 .29338075 .13899231 .33340455 .1539917 .3544159 .18499756 .40144349 .22698975 .40444947 .24699402 .40444947 .2829895 .40444947 .30799867 .39143373 .32798768 .36842347 .34199525 .352417 .34498597 .3454132 .34498597 .3143921V.12428284Z"/>
<path id="font_9_70" d="M.38598634 .093185428C.34899903 .055221559 .31999208 .039230348 .2619934 .039230348 .22599793 .039230348 .18399048 .06021118 .15299988 .11117554 .1329956 .14414978 .12098694 .19012451 .12098694 .24809265L.3869934 .24609375C.39898683 .24609375 .4059906 .25209046 .4059906 .26309205 .4059906 .3467865 .37599183 .43652345 .23699951 .43652345 .1499939 .43652345 .036987306 .35375978 .036987306 .20211792 .036987306 .14614868 .050994874 .0921936 .083999637 .054214479 .117996219 .014221191 .16499329-.009765625 .23699951-.009765625 .31298829-.009765625 .36698915 .025222779 .40699769 .077194217 .4039917 .08718872 .397995 .0921936 .38598634 .093185428M.12399292 .28208924C.14299011 .39456178 .21299744 .40351869 .23699951 .40351869 .2749939 .40351869 .31999208 .38261415 .31999208 .2990265 .31999208 .29006959 .31599427 .28507997 .30499269 .28507997L.12399292 .28208924Z"/>
<path id="font_9_34" d="M.15499878 .079071048 .20999146 .22418213C.21499634 .23719788 .22099304 .24119568 .24499512 .24119568H.45599366L.5139923 .07206726C.526001 .03804016 .48799134 .03404236 .43998719 .031036377 .43399049 .025039673 .43399049 .004043579 .43998719-.001953125 .47698976-.0009613037 .5319977 .000045776369 .57099917 .000045776369 .6119995 .000045776369 .6499939-.0009613037 .68499758-.001953125 .69099429 .004043579 .69099429 .025039673 .68499758 .031036377 .6459961 .03504944 .6119995 .03804016 .59498599 .08607483L.3889923 .6582031C.37399293 .64920046 .34700013 .63819888 .33399964 .63819888L.10699463 .10209656C.08099365 .040039064 .050994874 .03404236 .0069885256 .031036377 .0009918213 .025039673 .0009918213 .004043579 .0069885256-.001953125 .032989503-.0009613037 .06599426 .000045776369 .09599304 .000045776369 .13699341 .000045776369 .18699646-.0009613037 .22399903-.001953125 .22999573 .004043579 .22999573 .025039673 .22399903 .031036377 .18598938 .03404236 .13899231 .03804016 .15499878 .079071048M.2630005 .28320313C.24099732 .28320313 .23399353 .28619386 .23799134 .29618836L.33999635 .55519106H.34599305L.43998719 .28320313H.2630005Z"/>
<path id="font_9_78" d="M.16999817 .35830689C.16899109 .38833619 .16699219 .42436219 .1619873 .43437196 .1599884 .43937684 .1579895 .4423828 .1499939 .4423828 .12199402 .43136598 .09599304 .42236329 .026992798 .4133606 .024993897 .40734864 .026992798 .39134217 .0289917 .3853302 .08299255 .38032533 .09399414 .37532044 .09399414 .317276V.12213135C.09399414 .04006958 .08099365 .035064699 .025985718 .031066895 .019989014 .025054932 .019989014 .004043579 .025985718-.001953125 .055999757-.0009613037 .09399414 .000045776369 .13398743 .000045776369 .17399597 .000045776369 .20498657-.0009613037 .23498535-.001953125 .24099732 .004043579 .24099732 .025054932 .23498535 .031066895 .18399048 .036071779 .17298889 .04006958 .17298889 .12213135V.28625489C.17298889 .3073578 .18199158 .3193817 .18998719 .3283844 .22999573 .36743165 .2669983 .38745118 .2979889 .38745118 .33599855 .38745118 .3639984 .36341859 .3639984 .2963562V.122161868C.3639984 .04008484 .35598756 .035079957 .3019867 .031066895 .29699708 .02507019 .29699708 .004043579 .3019867-.001953125 .32699586-.0009613037 .3639984 .000045776369 .4039917 .000045776369 .44400025 .000045776369 .47698976-.0009613037 .5019989-.001953125 .5069885 .004043579 .5069885 .02507019 .5019989 .031066895 .45199586 .035079957 .44299317 .04008484 .44299317 .122161868V.28134156C.44299317 .29534913 .44299317 .3093567 .44198609 .32138063 .48999024 .37443543 .5349884 .38745118 .57398989 .38745118 .6119995 .38745118 .6339874 .36541749 .6339874 .2983551V.122161868C.6339874 .04008484 .6239929 .035079957 .57199099 .031066895 .5669861 .02507019 .5669861 .004043579 .57199099-.001953125 .5970001-.0009613037 .6339874 .000045776369 .673996 .000045776369 .71398928 .000045776369 .7489929-.0009613037 .7769928-.001953125 .7819977 .004043579 .7819977 .02507019 .7769928 .031066895 .7220001 .035079957 .71299746 .04008484 .71299746 .122161868V.28033448C.71299746 .36943055 .69799807 .43945313 .6100006 .43945313 .5589905 .43945313 .49699403 .42044068 .44499208 .36541749 .44198609 .36242677 .43598939 .35742188 .43399049 .36642457 .4249878 .4074402 .38598634 .43945313 .33399964 .43945313 .27598573 .43945313 .22399903 .40544129 .18199158 .3584137 .1769867 .35331727 .17098999 .34629823 .16999817 .35830689Z"/>
<path id="font_9_80" d="M.040985109 .20533753C.040985109 .103271488 .10899353-.009765625 .25099183-.009765625 .31498719-.009765625 .3639984 .01322937 .397995 .04623413 .44299317 .090270999 .46299745 .15330506 .46299745 .21434021 .46299745 .31840516 .4059906 .43945313 .25299073 .43945313 .18699646 .43945313 .1329956 .41244508 .09599304 .36943055 .05999756 .32640077 .040985109 .26837159 .040985109 .20533753M.23799134 .40444947C.32398988 .40444947 .3769989 .32640077 .3769989 .18231201 .3769989 .056243898 .31199647 .025222779 .2649994 .025222779 .16099549 .025222779 .1269989 .15130615 .1269989 .22834778 .1269989 .31539918 .147995 .40444947 .23799134 .40444947Z"/>
<path id="font_9_86" d="M.21699524-.009765625C.2559967-.009765625 .30299378 .010223389 .35198976 .050201417 .35699464 .05419922 .3659973 .05619812 .36698915 .049209596 .36999513 .024230957 .37799073-.009765625 .37799073-.009765625 .38598634-.012771606 .3909912-.011779785 .39698792-.009765625 .4189911 .008270264 .45399476 .023269654 .5149994 .030273438 .5209961 .03627014 .5209961 .05126953 .5149994 .057266237 .45098878 .06225586 .44198609 .081222537 .44198609 .13014221V.32183839C.44198609 .35179139 .44599916 .42466737 .44599916 .42466737 .44599916 .42765809 .44299317 .43066407 .43798829 .43066407 .43299867 .42965699 .41799928 .42866517 .40299989 .42866517 .37098695 .42866517 .33499146 .42965699 .30099488 .43066407 .29499818 .42466737 .29499818 .40370179 .30099488 .39772035 .34999085 .39471437 .36299134 .3827362 .36299134 .31684876V.12409973C.36299134 .10513306 .36099244 .09713745 .34700013 .0851593 .30999757 .053207399 .27198792 .037231447 .24699402 .037231447 .21699524 .037231447 .16699219 .051208497 .16699219 .14007569V.32180787C.16699219 .35177613 .17098999 .42466737 .17098999 .42466737 .17098999 .42765809 .16799927 .43066407 .16299439 .43066407 .1579895 .42965699 .14299011 .42866517 .12799073 .42866517 .09599304 .42866517 .05999756 .42965699 .025985718 .43066407 .019989014 .42466737 .019989014 .40370179 .025985718 .39770509 .07398987 .39370729 .08799744 .38272096 .08799744 .31782533V.12609864C.08799744 .0572052 .117996219-.009765625 .21699524-.009765625Z"/>
<path id="font_9_79" d="M.18399048 .35830689C.17799378 .3513031 .17199707 .3493042 .17199707 .35830689 .17098999 .3853302 .16899109 .42436219 .1639862 .43437196 .1619873 .43937684 .1599884 .4423828 .1519928 .4423828 .12399292 .43136598 .09799194 .42236329 .0289917 .4133606 .026992798 .40734864 .0289917 .39134217 .0309906 .3853302 .084991458 .38032533 .09599304 .37532044 .09599304 .317276V.12213135C.09599304 .04006958 .085998538 .036071779 .025985718 .031066895 .019989014 .025054932 .019989014 .004043579 .025985718-.001953125 .055999757-.0009613037 .09599304 .000045776369 .13598633 .000045776369 .17599488 .000045776369 .20599365-.0009613037 .23599243-.001953125 .24198914 .004043579 .24198914 .025054932 .23599243 .031066895 .18499756 .036071779 .1749878 .04006958 .1749878 .12213135V.28625489C.1749878 .3073578 .18399048 .3193817 .19198609 .3283844 .22999573 .36541749 .2749939 .38745118 .31399537 .38745118 .33399964 .38745118 .35499574 .37443543 .36698915 .3514099 .3769989 .33139039 .3789978 .3043518 .3789978 .2743225V.122161868C.3789978 .04008484 .36898805 .036071779 .31698609 .031066895 .31199647 .02507019 .31199647 .004043579 .31698609-.001953125 .34700013-.0009613037 .3789978 .000045776369 .4189911 .000045776369 .45899964 .000045776369 .49499513-.0009613037 .5249939-.001953125 .5299988 .004043579 .5299988 .02507019 .5249939 .031066895 .46899415 .036071779 .45799256 .04008484 .45799256 .122161868V.2713318C.45799256 .3263855 .45399476 .37443543 .43099977 .40544129 .4139862 .42744447 .3829956 .43945313 .34799195 .43945313 .29899598 .43945313 .24299622 .42645265 .18399048 .3584137V.35830689Z"/>
<path id="font_9_85" d="M.042999269 .42871095C.0289917 .42871095 .024993897 .41670228 .024993897 .40870667V.39570619C.024993897 .3907013 .025985718 .38970948 .02999878 .38970948H.08898926V.089157108C.08898926 .018234253 .11999512-.009765625 .1659851-.009765625 .21199036-.009765625 .2619934 .01222229 .30099488 .05621338 .29899598 .06619263 .29299928 .07218933 .2829895 .07318115 .25698854 .053207399 .22698975 .04522705 .20098877 .04522705 .17399597 .04522705 .16799927 .07518005 .16799927 .13708496V.38970948H.27198792C.28199769 .38970948 .29599 .39370729 .29599 .40270997V.42269898C.29599 .42669679 .29299928 .42871095 .28799439 .42871095H.16799927V.4677887C.16799927 .53292849 .17199707 .57302859 .17199707 .57302859 .17199707 .57902529 .16899109 .58203127 .1639862 .58203127 .1599884 .58203127 .15098572 .5780182 .14199829 .57302859 .1309967 .5670166 .12098694 .56199648 .10798645 .5589905 .09599304 .5549774 .085998538 .55197146 .085998538 .54496768 .085998538 .53292849 .08898926 .5399475 .08898926 .42871095H.042999269Z"/>
<path id="font_9_9" d="M.04399109 .25202943C.04399109 .20701599 .04798889-.023971558 .2559967-.20397949 .2659912-.20198059 .27398683-.1949768 .2769928-.1869812 .24398804-.14897156 .1269989-.010971069 .1269989 .25202943 .1269989 .5150299 .24499512 .6530304 .2769928 .6890259 .27398683 .6990204 .2669983 .70602419 .2559967 .70703127 .13699341 .60502627 .04399109 .4380188 .04399109 .25202943Z"/>
<path id="font_9_74" d="M.18099976 .12213135V.32128907C.18099976 .37132264 .18499756 .43537904 .18499756 .43537904 .18499756 .43937684 .17999268 .4423828 .17199707 .4423828 .14399719 .43136598 .10398865 .42236329 .034988405 .4133606 .032989503 .40734864 .034988405 .39134217 .036987306 .3853302 .09199524 .38032533 .101989749 .3743286 .101989749 .317276V.12213135C.101989749 .03907776 .09098816 .036071779 .02999878 .031066895 .023986817 .025054932 .023986817 .004043579 .02999878-.001953125 .06298828-.0009613037 .101989749 .000045776369 .14199829 .000045776369 .18199158 .000045776369 .21998596-.0009613037 .25299073-.001953125 .25898744 .004043579 .25898744 .025054932 .25299073 .031066895 .19198609 .035064699 .18099976 .03907776 .18099976 .12213135M.08999634 .5994568C.08999634 .5734558 .11399841 .54745486 .13798523 .54745486 .1659851 .54745486 .18998719 .57444766 .18998719 .595459 .18998719 .6194458 .16899109 .64746096 .14199829 .64746096 .117996219 .64746096 .08999634 .6234436 .08999634 .5994415V.5994568Z"/>
<path id="font_9_84" d="M.04798889 .13815308C.051986696 .08909607 .054992677 .042037965 .054992677 0 .06498718 .0019989014 .07499695 .0029907227 .07998657 .0029907227 .08699036 .0032196046 .09298706 .0032196046 .099990848 .0012207031 .1269989-.0057678224 .1539917-.009765625 .19099427-.009765625 .24699402-.009765625 .34999085 .017227173 .34999085 .11628723 .34999085 .18431092 .30099488 .22433472 .23298645 .24935913 .17298889 .27236939 .1329956 .28738404 .1329956 .34240724 .1329956 .3834381 .16899109 .40644837 .20298767 .40644837 .22499085 .40644837 .2829895 .3984375 .29599 .313385 .3019867 .3073883 .32199098 .3083954 .32798768 .3143921 .33099366 .35040284 .33299256 .38742066 .33399964 .42044068 .30299378 .42544557 .25498963 .43945313 .20298767 .43945313 .1289978 .43945313 .06199646 .39143373 .06199646 .32739259 .06199646 .254364 .09498596 .2233429 .17199707 .1913147 .25498963 .15730286 .27398683 .1362915 .27398683 .09326172 .27398683 .04423523 .22599793 .023223877 .18899536 .023223877 .1499939 .023223877 .12799073 .036239625 .117996219 .04724121 .09599304 .070251468 .084991458 .11427307 .07899475 .13929749 .07299805 .14515686 .053985597 .14414978 .04798889 .13815308Z"/>
<path id="font_9_10" d="M.2539978 .25239564C.2539978 .2973938 .25 .5283966 .041992189 .70840457 .03199768 .70640566 .023986817 .69940188 .020996094 .69140627 .053985597 .6533966 .17098999 .5153961 .17098999 .25239564 .17098999-.010604858 .052993776-.14860535 .020996094-.18460083 .023986817-.1946106 .0309906-.20159912 .041992189-.2026062 .16099549-.1006012 .2539978 .06639099 .2539978 .25239564Z"/>
<clipPath id="clip_10">
<path transform="matrix(1,0,0,-1,0,399.95988)" d="M72.91347 57.427896H694.2375V366.311H72.91347Z"/>
</clipPath>
<path id="font_2_52" d="M.4169922 .15492249H.39898683C.3889923 .083969119 .3809967 .07197571 .3769989 .06599426 .37199403 .057998659 .2999878 .057998659 .28599549 .057998659H.09399414C.12998963 .096969608 .19999695 .16792298 .2849884 .24986267 .34599305 .30781556 .4169922 .37576295 .4169922 .47473146 .4169922 .59298709 .32299806 .6611328 .21798706 .6611328 .10798645 .6611328 .040985109 .5639038 .040985109 .47373963 .040985109 .43473817 .069992069 .42973329 .08198547 .42973329 .09199524 .42973329 .12199402 .43572999 .12199402 .47073365 .12199402 .5017395 .09599304 .5107422 .08198547 .5107422 .07598877 .5107422 .069992069 .5097351 .06599426 .5077362 .084991458 .59298709 .14299011 .63513186 .20399475 .63513186 .29100038 .63513186 .34799195 .5659027 .34799195 .47473146 .34799195 .38775636 .29699708 .31282044 .23999024 .24786377L.040985109 .022994996V0H.3929901L.4169922 .15492249Z"/>
<path id="font_11_59" d="M.18399048 .04798889C.18399048 .07699585 .1599884 .09700012 .13598633 .09700012 .10699463 .09700012 .08699036 .07299805 .08699036 .04899597 .08699036 .019989014 .11099243 0 .1349945 0 .1639862 0 .18399048 .023986817 .18399048 .04798889Z"/>
<path id="font_2_55" d="M.11399841 .58535769C.12399292 .5813446 .16499329 .5683594 .20698548 .5683594 .2999878 .5683594 .35099793 .61834719 .37998963 .64715579 .37998963 .65515139 .37998963 .66015627 .37399293 .66015627 .37298585 .66015627 .37098695 .66015627 .36299134 .6561432 .32798768 .6411438 .2869873 .62934878 .23699951 .62934878 .20698548 .62934878 .1619873 .6332855 .11299133 .65515139 .101989749 .66015627 .099990848 .66015627 .09899902 .66015627 .09399414 .66015627 .09298706 .65914919 .09298706 .63916018V.34931947C.09298706 .33129884 .09298706 .32629396 .102996829 .32629396 .10798645 .32629396 .10998535 .32829286 .114990238 .33529664 .14698792 .3803711 .19099427 .39941407 .24099732 .39941407 .27598573 .39941407 .35099793 .3773651 .35099793 .20610047 .35099793 .17408753 .35099793 .116119388 .32099916 .07022095 .29599 .029312134 .25698854 .008361816 .21398926 .008361816 .147995 .008361816 .08099365 .054260255 .06298828 .13108826 .066986087 .13009644 .07499695 .12809754 .07899475 .12809754 .09199524 .12809754 .116989139 .13510132 .116989139 .16609192 .116989139 .19309998 .09799194 .20410156 .07899475 .20410156 .055999757 .20410156 .040985109 .190094 .040985109 .16209412 .040985109 .07521057 .10998535-.015625 .21598816-.015625 .31900025-.015625 .4169922 .07322693 .4169922 .2020874 .4169922 .32228089 .33898927 .41540528 .24198914 .41540528 .19099427 .41540528 .147995 .39640809 .11399841 .3603363V.58535769Z"/>
<clipPath id="clip_12">
<path transform="matrix(1,0,0,-1,0,399.95988)" d="M72.91347 57.427896H694.2375V366.311H72.91347Z"/>
</clipPath>
<clipPath id="clip_13">
<path transform="matrix(1,0,0,-1,0,399.95988)" d="M72.91347 57.427896H694.2375V366.311H72.91347Z"/>
</clipPath>
<path id="font_2_57" d="M.45098878 .62350466V.6455078H.21598816C.09899902 .6455078 .09700012 .6582184 .09298706 .6772156H.07499695L.04598999 .49047853H.06399536C.066986087 .5094757 .07398987 .56048586 .085998538 .5794983 .09199524 .5874939 .1659851 .5874939 .18299866 .5874939H.40299989L.2919922 .42245484C.21798706 .31143189 .16699219 .16140747 .16699219 .030380249 .16699219 .018371582 .16699219-.015625 .20298767-.015625 .23899842-.015625 .23899842 .018371582 .23899842 .03137207V.07737732C.23899842 .24142456 .2669983 .34944154 .31298829 .41845704L.45098878 .62350466Z"/>
<clipPath id="clip_14">
<path transform="matrix(1,0,0,-1,0,399.95988)" d="M72.91347 57.427896H694.2375V366.311H72.91347Z"/>
</clipPath>
<clipPath id="clip_15">
<path transform="matrix(1,0,0,-1,0,399.95988)" d="M72.91347 57.427896H694.2375V366.311H72.91347Z"/>
</clipPath>
<clipPath id="clip_16">
<path transform="matrix(1,0,0,-1,0,399.95988)" d="M72.91347 57.427896H694.2375V366.311H72.91347Z"/>
</clipPath>
<path id="font_11_23" d="M.14399719 .022216797C.16899109-.00077819827 .20599365-.009765625 .23999024-.009765625 .3039856-.009765625 .34799195 .033187868 .37098695 .06414795 .3809967 .011230469 .4229889-.009765625 .45799256-.009765625 .48799134-.009765625 .5119934 .008224487 .5299988 .044174196 .54599 .078125 .55999758 .13903809 .55999758 .14303589 .55999758 .14802552 .55599978 .15202332 .5499878 .15202332 .54100039 .15202332 .5399933 .14703369 .5359955 .13204956 .5209961 .073135379 .5019989 .010223389 .46099855 .010223389 .43199159 .010223389 .42999269 .036193849 .42999269 .056167604 .42999269 .07913208 .43899537 .11508179 .44599916 .14503479L.47399903 .2528839C.47799684 .2718506 .4889984 .31678773 .49398805 .33476258 .5 .35873414 .5109863 .40167237 .5109863 .4056549 .5109863 .4206543 .49899293 .43066407 .48399354 .43066407 .47499085 .43066407 .45399476 .426651 .44599916 .39666749L.37599183 .11906433C.37098695 .099105838 .37098695 .09710693 .35798646 .08113098 .34599305 .06414795 .30699159 .010223389 .24398804 .010223389 .18798828 .010223389 .16999817 .05116272 .16999817 .098098758 .16999817 .12727356 .1789856 .16229248 .18299866 .17929077L.22799683 .359375C.23298645 .37838746 .24099732 .4104004 .24099732 .4163971 .24099732 .43240357 .22799683 .44140626 .21499634 .44140626 .20599365 .44140626 .18399048 .43840028 .17599488 .40638734L.0309906-.1728363C.02999878-.17784119 .027999878-.18385315 .027999878-.18984986 .027999878-.20484925 .039993287-.21484375 .054992677-.21484375 .083999637-.21484375 .08999634-.19184876 .09700012-.16383362L.14399719 .022216797Z"/>
<path id="font_2_63" d="M.6429901 .32128907C.6579895 .32128907 .6729889 .32128907 .6729889 .33828736 .6729889 .35627748 .6559906 .35627748 .6389923 .35627748H.07998657C.06298828 .35627748 .04598999 .35627748 .04598999 .33828736 .04598999 .32128907 .06098938 .32128907 .07598877 .32128907H.6429901M.6389923 .14273072C.6559906 .14273072 .6729889 .14273072 .6729889 .16072083 .6729889 .17773438 .6579895 .17773438 .6429901 .17773438H.07598877C.06098938 .17773438 .04598999 .17773438 .04598999 .16072083 .04598999 .14273072 .06298828 .14273072 .07998657 .14273072H.6389923Z"/>
<path id="font_2_110" d="M.15299988 .69433596 .033996583 .68333438V.6573334C.09298706 .6573334 .101989749 .6513214 .101989749 .603302V.0690155C.101989749 .0309906 .09799194 .025985718 .033996583 .025985718V0C.057998659 .0019989014 .101989749 .0019989014 .1269989 .0019989014 .15299988 .0019989014 .19699097 .0019989014 .22099304 0V.025985718C.15699768 .025985718 .15299988 .02999878 .15299988 .0690155V.69433596Z"/>
<path id="font_2_113" d="M.43099977 .21427918C.43099977 .34233094 .33799745 .4423828 .22898865 .4423828 .11999512 .4423828 .026992798 .34233094 .026992798 .21427918 .026992798 .08821106 .11999512-.0078125 .22898865-.0078125 .33799745-.0078125 .43099977 .08821106 .43099977 .21427918M.22898865 .010177612C.18199158 .010177612 .14199829 .03819275 .11898804 .07720947 .09399414 .12223816 .09098816 .17825318 .09098816 .22227478 .09098816 .2642975 .09298706 .3163147 .11898804 .36134339 .13899231 .3943634 .17799378 .42637635 .22898865 .42637635 .27398683 .42637635 .31199647 .4013672 .33599855 .36634828 .36698915 .31932069 .36698915 .2532959 .36698915 .22227478 .36698915 .18325806 .36499024 .12322998 .33799745 .07521057 .30999757 .029190064 .2669983 .010177612 .22898865 .010177612Z"/>
<path id="font_2_105" d="M.11099243 .18000794C.12998963 .16503906 .16299439 .14802552 .20298767 .14802552 .28199769 .14802552 .34999085 .2099762 .34999085 .29289247 .34999085 .31884767 .34199525 .35881043 .31199647 .38978578 .33999635 .41978456 .3809967 .42977906 .4039917 .42977906 .4079895 .42977906 .4139862 .42977906 .4189911 .42678834 .4149933 .42578126 .4059906 .42178346 .4059906 .40577699 .4059906 .3927765 .4149933 .38378907 .42799378 .38378907 .44299317 .38378907 .45098878 .39378358 .45098878 .40678407 .45098878 .42578126 .43598939 .44578553 .4039917 .44578553 .3639984 .44578553 .32899476 .42678834 .30099488 .40078736 .2709961 .42778016 .23498535 .43777467 .20298767 .43777467 .12399292 .43777467 .055999757 .37579347 .055999757 .29289247 .055999757 .23594666 .08898926 .19999695 .09899902 .19000244 .068984989 .1550293 .068984989 .1138916 .068984989 .10887146 .068984989 .08276367 .07899475 .044662477 .11299133 .023666382 .06098938 .010665894 .019989014-.029281617 .019989014-.07922363 .019989014-.15115357 .114990238-.20410156 .22898865-.20410156 .33898927-.20410156 .43798829-.15315247 .43798829-.07823181 .43798829 .057662965 .2899933 .057662965 .21299744 .057662965 .18998719 .057662965 .14898682 .057662965 .14399719 .058670045 .11299133 .063690189 .09199524 .091796878 .09199524 .12695313 .09199524 .13598633 .09199524 .15803528 .11099243 .18000794M.20298767 .16503906C.114990238 .16503906 .114990238 .27290345 .114990238 .29289247 .114990238 .3128662 .114990238 .42077638 .20298767 .42077638 .29100038 .42077638 .29100038 .3128662 .29100038 .29289247 .29100038 .27290345 .29100038 .16503906 .20298767 .16503906M.22898865-.18710327C.1289978-.18710327 .05999756-.13417053 .05999756-.07922363 .05999756-.04826355 .07699585-.019302369 .09899902-.0033111573 .12399292 .013671875 .13398743 .013671875 .20199585 .013671875 .28399659 .013671875 .397995 .013671875 .397995-.07922363 .397995-.13417053 .32899476-.18710327 .22898865-.18710327Z"/>
<path id="font_2_41" d="M.30599977-.2440033C.30599977-.24301148 .30599977-.24101258 .30299378-.23800659 .25698854-.19100952 .13398743-.06300354 .13398743 .24899292 .13398743 .56100466 .25498963 .68800356 .3039856 .73802188 .3039856 .7390137 .30599977 .7410126 .30599977 .74401858 .30599977 .7470093 .30299378 .74902346 .29899598 .74902346 .28799439 .74902346 .20298767 .67500308 .1539917 .56500247 .10398865 .45401 .08999634 .3460083 .08999634 .25 .08999634 .17799378 .09700012 .055999757 .15699768-.07299805 .20498657-.17700196 .2869873-.25 .29899598-.25 .3039856-.25 .30599977-.2480011 .30599977-.2440033Z"/>
<path id="font_11_121" d="M.47399903 .40820313C.44198609 .40219117 .42999269 .3781891 .42999269 .3591919 .42999269 .33518983 .44898988 .3271942 .46299745 .3271942 .49299623 .3271942 .5139923 .3531952 .5139923 .380188 .5139923 .4223938 .46598817 .44140626 .42399598 .44140626 .36299134 .44140626 .32899476 .38119508 .31999208 .36219789 .29699708 .4373932 .23498535 .44140626 .21699524 .44140626 .114990238 .44140626 .06098938 .31021119 .06098938 .28822328 .06098938 .28422547 .06498718 .27923585 .07199097 .27923585 .07998657 .27923585 .08198547 .28523255 .083999637 .2892151 .117996219 .40019227 .18499756 .42140199 .21398926 .42140199 .25898744 .42140199 .2679901 .37919618 .2679901 .3551941 .2679901 .33319093 .2619934 .31021119 .25 .26223756L.21598816 .12535095C.20098877 .06535339 .17199707 .010223389 .11898804 .010223389 .11399841 .010223389 .08898926 .010223389 .067993167 .023330689 .10398865 .03036499 .11199951 .06036377 .11199951 .07235718 .11199951 .09236145 .09700012 .10435486 .07798767 .10435486 .053985597 .10435486 .027999878 .083358768 .027999878 .051361085 .027999878 .009231567 .07499695-.009765625 .117996219-.009765625 .1659851-.009765625 .19999695 .028366089 .22099304 .069366458 .23699951 .010223389 .2869873-.009765625 .32398988-.009765625 .42599488-.009765625 .47999574 .12135315 .47999574 .1433258 .47999574 .14833069 .47599793 .15232849 .46998597 .15232849 .46099855 .15232849 .45999146 .14732361 .45700074 .139328 .42999269 .051361085 .37199403 .010223389 .32699586 .010223389 .2919922 .010223389 .272995 .036361696 .272995 .07736206 .272995 .099365238 .2769928 .115356449 .29299928 .18130493L.32798768 .3171997C.34298707 .37719728 .3769989 .42140199 .4229889 .42140199 .4249878 .42140199 .45298768 .42140199 .47399903 .40820313Z"/>
<path id="font_2_44" d="M.3769989 .2315979H.6419983C.6559906 .2315979 .6729889 .2315979 .6729889 .24859619 .6729889 .26660157 .6569977 .26660157 .6419983 .26660157H.3769989V.5319519C.3769989 .5459595 .3769989 .56295779 .3600006 .56295779 .34199525 .56295779 .34199525 .54696658 .34199525 .5319519V.26660157H.07699585C.06298828 .26660157 .04598999 .26660157 .04598999 .24958802 .04598999 .2315979 .06199646 .2315979 .07699585 .2315979H.34199525V-.032989503C.34199525-.04698181 .34199525-.0639801 .35899354-.0639801 .3769989-.0639801 .3769989-.047973634 .3769989-.032989503V.2315979Z"/>
<path id="font_2_42" d="M.2630005 .24899292C.2630005 .32099916 .2559967 .44300843 .19599915 .5720062 .147995 .67601016 .06599426 .74902346 .053985597 .74902346 .050994874 .74902346 .04699707 .74801638 .04699707 .7430115 .04699707 .7410126 .04798889 .74002078 .04899597 .73802188 .09700012 .68800356 .21899414 .56100466 .21899414 .25 .21899414-.06201172 .09799194-.18901062 .04899597-.23901367 .04798889-.24101258 .04699707-.2420044 .04699707-.2440033 .04699707-.24900818 .050994874-.25 .053985597-.25 .06498718-.25 .1499939-.17601013 .19898987-.06600952 .24899292 .04499817 .2630005 .15299988 .2630005 .24899292Z"/>
<clipPath id="clip_17">
<path transform="matrix(1,0,0,-1,0,399.95988)" d="M72.91347 57.427896H694.2375V366.311H72.91347Z"/>
</clipPath>
<clipPath id="clip_18">
<path transform="matrix(1,0,0,-1,0,399.95988)" d="M72.91347 57.427896H694.2375V366.311H72.91347Z"/>
</clipPath>
<path id="font_9_30" d="M.46398927 .30937196C.47698976 .30937196 .4909973 .33236695 .4909973 .34236146 .4909973 .3503723 .4869995 .359375 .47698976 .359375H.084991458C.07299805 .359375 .05999756 .34036256 .05999756 .32536317 .05999756 .31736756 .06599426 .30937196 .07499695 .30937196H.46398927M.46398927 .14335633C.47698976 .14335633 .4909973 .16635132 .4909973 .17634583 .4909973 .18435669 .4869995 .19335938 .47698976 .19335938H.084991458C.07299805 .19335938 .05999756 .17434693 .05999756 .15934754 .05999756 .15135193 .06599426 .14335633 .07499695 .14335633H.46398927Z"/>
<path id="font_9_18" d="M.28799439 .12210083V.46931459C.28799439 .52934268 .2889862 .5903778 .29100038 .60339358 .29100038 .60839846 .2889862 .60839846 .2849884 .60839846 .22999573 .57437136 .1769867 .5493622 .08898926 .5083313 .09098816 .4973297 .09498596 .48731996 .10398865 .48130799 .1499939 .50032046 .17199707 .5063324 .19099427 .5063324 .20799256 .5063324 .21099854 .48231507 .21099854 .44828797V.12210083C.21099854 .03904724 .18399048 .03404236 .11399841 .031036377 .10798645 .025039673 .10798645 .004043579 .11399841-.001953125 .16299439-.0009613037 .19898987 .000045776369 .25299073 .000045776369 .30099488 .000045776369 .32499696-.0009613037 .375-.001953125 .3809967 .004043579 .3809967 .025039673 .375 .031036377 .30499269 .03404236 .28799439 .03904724 .28799439 .12210083Z"/>
<path id="font_9_15" d="M.056991579 .04322815C.056991579 .014221191 .08099365-.009765625 .10998535-.009765625 .13899231-.009765625 .16299439 .014221191 .16299439 .04322815 .16299439 .07221985 .13899231 .096221927 .10998535 .096221927 .08099365 .096221927 .056991579 .07221985 .056991579 .04322815Z"/>
<path id="font_9_17" d="M.22799683-.009765625C.30499269-.009765625 .42199708 .068237308 .42199708 .3032837 .42199708 .40231324 .397995 .48731996 .35398866 .54533389 .32798768 .5803375 .28599549 .61035159 .23199463 .61035159 .1329956 .61035159 .038986207 .49232484 .038986207 .294281 .038986207 .18725586 .07199097 .0872345 .1269989 .032226564 .15499878 .0042266848 .18899536-.009765625 .22799683-.009765625M.23199463 .5753479C.24899292 .5753479 .2649994 .56933596 .2769928 .55833438 .30799867 .5323334 .33499146 .4563141 .33499146 .32229615 .33499146 .23027039 .33198548 .16725159 .31799317 .116241458 .29599 .034225465 .24699402 .025222779 .22898865 .025222779 .13598633 .025222779 .12599182 .19625855 .12599182 .28327943 .12599182 .5293274 .18699646 .5753479 .23199463 .5753479Z"/>
<path id="font_9_22" d="M.31900025 .18902588C.31900025 .09414673 .2689972 .024246216 .20899964 .024246216 .17098999 .024246216 .1579895 .049209596 .14299011 .06918335 .12998963 .08616638 .11299133 .10115051 .09199524 .10115051 .07299805 .10115051 .053985597 .08416748 .053985597 .064193729 .053985597 .023254395 .13899231-.0107421879 .19599915-.0107421879 .31999208-.0107421879 .4079895 .08117676 .4079895 .20700073 .4079895 .30386354 .34098817 .3908081 .22898865 .3908081 .18598938 .3908081 .14898682 .38180543 .1309967 .3748169L.15098572 .54159548C.18798828 .53759768 .21998596 .53260806 .2679901 .53260806 .2979889 .53260806 .33198548 .53460696 .37298585 .53860476L.3889923 .6074219 .38198854 .6114197C.32499696 .604599 .2709961 .5996094 .21798706 .5996094 .18099976 .5996094 .14498902 .6016083 .10998535 .604599L.07598877 .31684876C.1289978 .3368225 .16699219 .3408203 .20298767 .3408203 .2679901 .3408203 .31900025 .29786683 .31900025 .18902588Z"/>
<path id="font_9_21" d="M.42999269 .21887207H.34700013V.51123049C.34700013 .5612793 .34700013 .60032656 .34899903 .6083374L.34700013 .61035159H.31498719C.30799867 .61035159 .30299378 .6043396 .29899598 .5993347 .23599243 .52223208 .11999512 .3570404 .027999878 .21386719 .0309906 .1988678 .036987306 .171875 .066986087 .171875H.2709961V.07998657C.2709961 .03404236 .23298645 .03404236 .18998719 .031036377 .18399048 .025039673 .18399048 .004043579 .18998719-.001953125 .22200012-.0009613037 .2619934 .000045776369 .30799867 .000045776369 .34700013 .000045776369 .3849945-.0009613037 .4169922-.001953125 .4229889 .004043579 .4229889 .025039673 .4169922 .031036377 .36799623 .03503418 .34700013 .03303528 .34700013 .07998657V.171875H.41600038C.42999269 .171875 .44499208 .19087219 .44499208 .2028656 .44499208 .2128601 .44099427 .21887207 .42999269 .21887207M.2709961 .5072174V.21887207H.07998657C.1309967 .30096437 .20199585 .4131012 .2709961 .5072174Z"/>
<path id="font_9_20" d="M.21499634 .5753479C.2579956 .5753479 .2979889 .54933169 .2979889 .48532105 .2979889 .435318 .23999024 .35829164 .14099121 .34429933L.1459961 .31228639C.16299439 .31428529 .18099976 .31428529 .19400025 .31428529 .25099183 .31428529 .32499696 .2982788 .32499696 .18525696 .32499696 .052230836 .23599243 .025222779 .20098877 .025222779 .1499939 .025222779 .14099121 .048233034 .1289978 .0662384 .11898804 .08024597 .10598755 .09223938 .085998538 .09223938 .06498718 .09223938 .04399109 .07324219 .04399109 .057235719 .04399109 .017227173 .12799073-.009765625 .18798828-.009765625 .30699159-.009765625 .41299439 .067230228 .41299439 .19926453 .41299439 .30828858 .33099366 .34729005 .27198792 .3572998L.2709961 .3592987C.35299684 .39830018 .37599183 .4393158 .37599183 .49232484 .37599183 .52233889 .36898805 .54634097 .34498597 .57133486 .32299806 .593338 .28799439 .61035159 .23599243 .61035159 .08898926 .61035159 .04699707 .514328 .04699707 .48132325 .04699707 .46731568 .056991579 .4473114 .08099365 .4473114 .115997318 .4473114 .11999512 .48031617 .11999512 .4993286 .11999512 .56333926 .18899536 .5753479 .21499634 .5753479Z"/>
<path id="font_9_52" d="M.394989 .63119509C.33699037 .6391907 .33898927 .6582031 .24099732 .6582031 .13999939 .6582031 .050994874 .5912018 .050994874 .48519898 .050994874 .38020326 .13798523 .33221437 .22599793 .29821778 .28599549 .27520753 .3600006 .24720764 .3600006 .1492157 .3600006 .068222049 .31498719 .026229859 .23498535 .026229859 .14199829 .026229859 .08198547 .069229129 .05999756 .16821289 .04699707 .17196656 .036987306 .16996765 .026992798 .16496277 .0309906 .08796692 .034988405 .061965944 .04699707 .012954712 .10998535 .01322937 .13798523-.009765625 .22698975-.009765625 .27198792-.009765625 .31498719 .0012207031 .34999085 .023223877 .4079895 .05921936 .44400025 .120224 .44400025 .18421936 .44400025 .2902069 .3639984 .33720399 .28199769 .36820985 .22200012 .390213 .12199402 .4282074 .12199402 .5121918 .12199402 .5681915 .17298889 .6241913 .23199463 .6241913 .32899476 .6241913 .3600006 .5621948 .37998963 .49620057 .3909912 .49420167 .4039917 .49519349 .41299439 .50219729 .40899659 .5502014 .40499879 .5782013 .394989 .63119509Z"/>
<path id="font_9_81" d="M.1559906 .36834718C.15499878 .3983612 .15299988 .42437745 .147995 .43437196 .1459961 .43937684 .14399719 .4423828 .13598633 .4423828 .10798645 .43136598 .08198547 .42236329 .0129852299 .4133606 .010986328 .4073639 .0129852299 .39135743 .01499939 .38536073 .068984989 .38035584 .07998657 .37535096 .07998657 .31733705V-.11004639C.07998657-.19326782 .068984989-.19828797 .0079956059-.20129395 .0019989014-.20730591 .0019989014-.22836304 .0079956059-.234375 .042999269-.23338318 .07998657-.2323761 .11999512-.2323761 .1599884-.2323761 .20799256-.23338318 .24099732-.234375 .24699402-.22836304 .24699402-.20730591 .24099732-.20129395 .16999817-.19728089 .15899658-.19326782 .15899658-.11004639V-.0017700195C.15899658 .011230469 .16299439 .010223389 .17298889 .006225586 .19799805-.003768921 .22799683-.009765625 .2599945-.009765625 .31599427-.009765625 .3659973 .007232666 .40699769 .04623413 .45399476 .09225464 .48098756 .15426636 .48098756 .23530579 .48098756 .3414154 .4059906 .43945313 .3039856 .43945313 .2579956 .43945313 .20698548 .4094391 .16699219 .36442567 .16099549 .35835267 .15699768 .35835267 .1559906 .36834718M.1749878 .33140565C.20098877 .36343385 .24699402 .39344789 .27598573 .39344789 .33999635 .39344789 .394989 .32141114 .394989 .2083435 .394989 .12628174 .3659973 .024230957 .2539978 .024230957 .23599243 .024230957 .20098877 .02923584 .18299866 .04524231 .16299439 .06324768 .15899658 .06925964 .15899658 .105270389V.28738404C.15899658 .3083954 .16299439 .31739808 .1749878 .33140565Z"/>
<path id="font_9_46" d="M.6629944 .116119388C.66799929 .035064699 .6639862 .034057619 .598999 .031066895 .59298709 .025054932 .59298709 .004043579 .598999-.001953125 .6359863-.0009613037 .6759949 .000045776369 .70599368 .000045776369 .73599246 .000045776369 .7819977-.0009613037 .8149872-.001953125 .82099917 .004043579 .82099917 .025054932 .8149872 .031066895 .746994 .034057619 .74398806 .03807068 .73799136 .12112427L.70799258 .5423889C.70399478 .5964203 .70899966 .61042788 .7769928 .6144409 .7829895 .6204376 .7829895 .641449 .7769928 .64746096L.6459961 .64546206 .43399049 .13812256C.42999269 .12812805 .4269867 .12411499 .4249878 .12411499 .4229889 .12411499 .41999818 .12911988 .4169922 .13713074L.21199036 .64546206 .066986087 .64746096C.06098938 .641449 .06098938 .6204376 .066986087 .6144409 .13598633 .61042788 .14199829 .60842898 .1349945 .53338626L.09498596 .12112427C.08898926 .061080934 .07699585 .03605652 .019989014 .031066895 .01399231 .025054932 .01399231 .004043579 .019989014-.001953125 .049987794-.0009613037 .08198547 .000045776369 .10598755 .000045776369 .12998963 .000045776369 .16999817-.0009613037 .19999695-.001953125 .20599365 .004043579 .20599365 .025054932 .19999695 .031066895 .13398743 .03605652 .1289978 .06707764 .13398743 .12312317L.17199707 .52445986H.17399597L.3809967 .0052337648C.38398744-.0017700195 .3899994-.009765625 .3959961-.009765625 .4019928-.009765625 .4059906-.0027770997 .4099884 .0052337648L.6349945 .53445437H.6369934L.6629944 .116119388Z"/>
<path id="font_9_77" d="M.09498596 .12207031C.09498596 .03904724 .083999637 .03404236 .022994996 .031051636 .016998291 .025039673 .016998291 .004043579 .022994996-.001953125 .057998659-.0009613037 .09498596 .000045776369 .1349945 .000045776369 .1749878 .000045776369 .21299744-.0009613037 .24598694-.001953125 .2519989 .004043579 .2519989 .025039673 .24598694 .031051636 .18499756 .03404236 .17399597 .03904724 .17399597 .12207031V.5832062C.17399597 .6482239 .17799378 .6882324 .17799378 .6882324 .17799378 .6952362 .17399597 .6982422 .16499329 .6982422 .13999939 .6882324 .06498718 .67422488 .024993897 .67123416 .022994996 .66322329 .024993897 .6472168 .0309906 .6412201 .08898926 .6372223 .09498596 .6342163 .09498596 .5592041V.12207031Z"/>
<path id="font_9_45" d="M.14898682 0H.3619995C.3889923 0 .48098756-.0020141602 .48098756-.0020141602 .4909973 .04800415 .5009918 .11305237 .5069885 .16508484 .49699403 .17008972 .48599244 .17208863 .47399903 .17008972 .45399476 .09803772 .4169922 .038986207 .31098939 .038986207H.24798584C.20899964 .038986207 .19099427 .058013917 .19099427 .10903931V.5233612C.19099427 .60643008 .20799256 .61143496 .27799989 .61442568 .28399659 .6204376 .28399659 .641449 .27799989 .64746096 .23298645 .64645388 .18598938 .6454468 .147995 .6454468 .11199951 .6454468 .06498718 .64645388 .018997193 .64746096 .0129852299 .641449 .0129852299 .6204376 .018997193 .61442568 .08898926 .61143496 .10598755 .60643008 .10598755 .5233612V.12205505C.10598755 .038986207 .08898926 .033996583 .018997193 .0309906 .0129852299 .024993897 .0129852299 .0039978029 .018997193-.0020141602 .057998659-.0010070801 .114990238 0 .14898682 0Z"/>
<path id="font_9_72" d="M.44400025 .38690187C.46299745 .38690187 .48098756 .40490724 .48098756 .4249115 .48098756 .4459076 .46199037 .46191407 .43499757 .46191407 .40899659 .46191407 .36099244 .4449005 .33499146 .41090394 .32299806 .41944886 .2899933 .43945313 .23098755 .43945313 .14199829 .43945313 .05999756 .37939454 .05999756 .2872162 .05999756 .23310852 .083999637 .20205689 .11199951 .17500305 .083999637 .15098572 .067993167 .10800171 .067993167 .074020389 .067993167 .03804016 .08799744 .010055542 .11399841-.0029296876 .05999756-.03479004 .03199768-.08093262 .03199768-.124053958 .03199768-.21128845 .11399841-.23828125 .19099427-.23828125 .32598878-.23828125 .47200013-.17320252 .47200013-.06488037 .47200013-.032791139 .45700074-.0077209474 .42799378 .016281128 .3889923 .04827881 .31900025 .04927063 .28199769 .04927063 .2639923 .04927063 .23899842 .04727173 .21499634 .044281007 .19999695 .043273927 .18998719 .042266847 .18499756 .042266847 .1559906 .042266847 .12098694 .056243898 .12098694 .099105838 .12098694 .11903381 .1269989 .13998413 .13899231 .15698242 .16299439 .14299011 .19099427 .13598633 .22999573 .13598633 .31799317 .13598633 .39898683 .19102478 .39898683 .28918458 .39898683 .3362732 .3849945 .36331178 .35598756 .39337159 .36299134 .40338136 .3829956 .41740418 .3959961 .41740418 .40299989 .41740418 .4099884 .4143982 .41600038 .4053955 .41999818 .39691163 .43299867 .38690187 .44400025 .38690187M.13198853-.009719849C.14299011-.01272583 .15899658-.01473999 .17199707-.01473999 .20298767-.01473999 .23098755-.01171875 .24499512-.01171875 .29499818-.01171875 .33699037-.01272583 .3659973-.028778077 .40499879-.050842287 .4169922-.06488037 .4169922-.09095764 .4169922-.16317749 .31098939-.20129395 .22099304-.20129395 .18499756-.20129395 .100997928-.17219544 .100997928-.104003909 .100997928-.06990051 .102996829-.044830324 .13198853-.009719849M.31900025 .27920533C.31900025 .1860199 .27198792 .16699219 .23498535 .16699219 .15098572 .16699219 .14199829 .2381134 .14199829 .3022461 .14199829 .3723755 .16699219 .40844728 .22200012 .40844728 .2849884 .40844728 .31900025 .36235047 .31900025 .27920533Z"/>
<path id="font_9_42" d="M.19099427 .12211609V.52337649C.19099427 .60643008 .20799256 .61143496 .27799989 .6144409 .28399659 .6204376 .28399659 .641449 .27799989 .64746096 .23399353 .64645388 .18699646 .64546206 .147995 .64546206 .114990238 .64546206 .06599426 .64645388 .018997193 .64746096 .0129852299 .641449 .0129852299 .6204376 .018997193 .6144409 .08898926 .61143496 .10598755 .60643008 .10598755 .52337649V.12211609C.10598755 .0390625 .08898926 .034057619 .018997193 .031066895 .0129852299 .025054932 .0129852299 .004043579 .018997193-.001953125 .06399536-.0009613037 .11299133 .000045776369 .14898682 .000045776369 .18499756 .000045776369 .23298645-.0009613037 .27799989-.001953125 .28399659 .004043579 .28399659 .025054932 .27799989 .031066895 .20799256 .034057619 .19099427 .0390625 .19099427 .12211609Z"/>
<path id="font_9_68" d="M.397995 .09126282C.3939972 .1002655 .38598634 .104263309 .3769989 .105270389 .34298707 .06123352 .2999878 .039230348 .25698854 .039230348 .18399048 .039230348 .12298584 .11326599 .12298584 .23034668 .12298584 .34040834 .17098999 .40644837 .23699951 .40644837 .29599 .40644837 .3039856 .37142945 .30799867 .33641053 .31098939 .3093872 .32499696 .30038453 .34599305 .30038453 .36698915 .30038453 .394989 .313385 .394989 .34440614 .394989 .39944459 .33799745 .43945313 .24198914 .43945313 .14299011 .43945313 .036987306 .3504181 .036987306 .20832825 .036987306 .07925415 .10899353-.009765625 .23498535-.009765625 .29499818-.009765625 .34799195 .009231567 .397995 .09126282Z"/>
<clipPath id="clip_19">
<path transform="matrix(1,0,0,-1,0,399.95988)" d="M72.91347 57.427896H694.2375V366.311H72.91347Z"/>
</clipPath>
<clipPath id="clip_20">
<path transform="matrix(1,0,0,-1,101.155467,328.49128)" d="M-8.162277-8.162277H8.162277V8.162277H-8.162277Z"/>
</clipPath>
<clipPath id="clip_21">
<path transform="matrix(1,0,0,-1,289.4355,327.93803)" d="M-8.162277-8.162277H8.162277V8.162277H-8.162277Z"/>
</clipPath>
<clipPath id="clip_22">
<path transform="matrix(1,0,0,-1,477.7155,241.79416)" d="M-8.162277-8.162277H8.162277V8.162277H-8.162277Z"/>
</clipPath>
<clipPath id="clip_23">
<path transform="matrix(1,0,0,-1,665.99557,47.68901)" d="M-8.162277-8.162277H8.162277V8.162277H-8.162277Z"/>
</clipPath>
<path id="font_9_67" d="M.16699219 .3944397C.16099549 .388443 .15699768 .3904419 .15699768 .39944459V.58332827C.15699768 .64826968 .16099549 .6882324 .16099549 .6882324 .16099549 .6952362 .15699768 .6982422 .147995 .6982422 .12298584 .68859866 .04798889 .67459109 .0079956059 .67160037 .005996704 .6635895 .0079956059 .64759829 .01399231 .64160159 .016998291 .64160159 .019989014 .64160159 .022994996 .64160159 .066986087 .6385956 .07798767 .6385956 .07798767 .5595398V.07107544C.07798767 .0320282 .07699585 .014007568 .07398987 0 .07899475-.0077667238 .083999637-.011779785 .09599304-.011779785 .101989749-.0057678224 .11199951 .0032196046 .11999512 .01222229 .12998963 .024230957 .13598633 .024230957 .14698792 .0152282719 .16999817-.003768921 .19999695-.009765625 .23498535-.009765625 .33699037-.009765625 .45599366 .08326721 .45599366 .24235535 .45599366 .36442567 .3659973 .43945313 .2789917 .43945313 .23599243 .43945313 .19799805 .42243959 .16699219 .3944397M.17399597 .36341859C.19999695 .3864441 .22999573 .39544679 .25898744 .39544679 .31999208 .39544679 .36999513 .32139588 .36999513 .22434998 .36999513 .11027527 .32398988 .024230957 .22898865 .024230957 .19799805 .024230957 .1769867 .04623413 .15699768 .071258548V.32139588C.15699768 .34240724 .16099549 .352417 .17399597 .36341859Z"/>
</defs>
<path transform="matrix(1,0,0,-1,0,399.95988)" d="M0 0H701.43759V399.95988H0Z" fill="none"/>
<path transform="matrix(1,0,0,-1,0,399.95988)" d="M72.91347 57.427896H694.23757V366.311H72.91347Z" fill="none"/>
<g clip-path="url(#clip_1)">
<path transform="matrix(1,0,0,-1,0,399.95988)" stroke-width=".8" stroke-linecap="square" stroke-linejoin="round" fill="none" stroke="#b0b0b0" stroke-opacity=".3" d="M163.91548 57.427896V366.311"/>
</g>
<path transform="matrix(1,0,0,-1,0,399.95988)" d="M163.91548 57.427896V53.927896"/>
<path transform="matrix(1,0,0,-1,0,399.95988)" stroke-width=".8" stroke-linecap="butt" stroke-linejoin="round" fill="none" stroke="#000000" d="M163.91548 57.427896V53.927896"/>
<use data-text="1" xlink:href="#font_2_51" transform="matrix(19.92528,0,0,-19.92528,145.93906,363.50956)"/>
<use data-text="0" xlink:href="#font_2_50" transform="matrix(19.92528,0,0,-19.92528,155.06484,363.50956)"/>
<use data-text="&#x2212;" xlink:href="#font_3_1" transform="matrix(13.947636,0,0,-13.947636,164.21524,356.27885)"/>
<use data-text="2" xlink:href="#font_4_52" transform="matrix(13.947636,0,0,-13.947636,175.06343,356.27885)"/>
<g clip-path="url(#clip_5)">
<path transform="matrix(1,0,0,-1,0,399.95988)" stroke-width=".8" stroke-linecap="square" stroke-linejoin="round" fill="none" stroke="#b0b0b0" stroke-opacity=".3" d="M289.4355 57.427896V366.311"/>
</g>
<path transform="matrix(1,0,0,-1,0,399.95988)" d="M289.4355 57.427896V53.927896"/>
<path transform="matrix(1,0,0,-1,0,399.95988)" stroke-width=".8" stroke-linecap="butt" stroke-linejoin="round" fill="none" stroke="#000000" d="M289.4355 57.427896V53.927896"/>
<use data-text="1" xlink:href="#font_2_51" transform="matrix(19.92528,0,0,-19.92528,276.88316,363.50956)"/>
<use data-text="0" xlink:href="#font_2_50" transform="matrix(19.92528,0,0,-19.92528,286.00895,363.50956)"/>
<use data-text="0" xlink:href="#font_4_50" transform="matrix(13.947636,0,0,-13.947636,295.15934,356.27885)"/>
<g clip-path="url(#clip_6)">
<path transform="matrix(1,0,0,-1,0,399.95988)" stroke-width=".8" stroke-linecap="square" stroke-linejoin="round" fill="none" stroke="#b0b0b0" stroke-opacity=".3" d="M414.9555 57.427896V366.311"/>
</g>
<path transform="matrix(1,0,0,-1,0,399.95988)" d="M414.9555 57.427896V53.927896"/>
<path transform="matrix(1,0,0,-1,0,399.95988)" stroke-width=".8" stroke-linecap="butt" stroke-linejoin="round" fill="none" stroke="#000000" d="M414.9555 57.427896V53.927896"/>
<use data-text="1" xlink:href="#font_2_51" transform="matrix(19.92528,0,0,-19.92528,402.40318,363.50956)"/>
<use data-text="0" xlink:href="#font_2_50" transform="matrix(19.92528,0,0,-19.92528,411.52897,363.50956)"/>
<use data-text="2" xlink:href="#font_4_52" transform="matrix(13.947636,0,0,-13.947636,420.67936,356.27885)"/>
<g clip-path="url(#clip_7)">
<path transform="matrix(1,0,0,-1,0,399.95988)" stroke-width=".8" stroke-linecap="square" stroke-linejoin="round" fill="none" stroke="#b0b0b0" stroke-opacity=".3" d="M540.4755 57.427896V366.311"/>
</g>
<path transform="matrix(1,0,0,-1,0,399.95988)" d="M540.4755 57.427896V53.927896"/>
<path transform="matrix(1,0,0,-1,0,399.95988)" stroke-width=".8" stroke-linecap="butt" stroke-linejoin="round" fill="none" stroke="#000000" d="M540.4755 57.427896V53.927896"/>
<use data-text="1" xlink:href="#font_2_51" transform="matrix(19.92528,0,0,-19.92528,527.9232,363.50956)"/>
<use data-text="0" xlink:href="#font_2_50" transform="matrix(19.92528,0,0,-19.92528,537.049,363.50956)"/>
<use data-text="4" xlink:href="#font_4_54" transform="matrix(13.947636,0,0,-13.947636,546.1994,356.27885)"/>
<g clip-path="url(#clip_8)">
<path transform="matrix(1,0,0,-1,0,399.95988)" stroke-width=".8" stroke-linecap="square" stroke-linejoin="round" fill="none" stroke="#b0b0b0" stroke-opacity=".3" d="M665.99557 57.427896V366.311"/>
</g>
<path transform="matrix(1,0,0,-1,0,399.95988)" d="M665.99557 57.427896V53.927896"/>
<path transform="matrix(1,0,0,-1,0,399.95988)" stroke-width=".8" stroke-linecap="butt" stroke-linejoin="round" fill="none" stroke="#000000" d="M665.99557 57.427896V53.927896"/>
<use data-text="1" xlink:href="#font_2_51" transform="matrix(19.92528,0,0,-19.92528,653.4432,363.50956)"/>
<use data-text="0" xlink:href="#font_2_50" transform="matrix(19.92528,0,0,-19.92528,662.569,363.50956)"/>
<use data-text="6" xlink:href="#font_4_56" transform="matrix(13.947636,0,0,-13.947636,671.71939,356.27885)"/>
<use data-text="T" xlink:href="#font_9_53" transform="matrix(21.917809,0,0,-21.917809,286.22764,387.58729)"/>
<use data-text="r" xlink:href="#font_9_83" transform="matrix(21.917809,0,0,-21.917809,298.87419,387.58729)"/>
<use data-text="a" xlink:href="#font_9_66" transform="matrix(21.917809,0,0,-21.917809,307.00569,387.58729)"/>
<use data-text="d" xlink:href="#font_9_69" transform="matrix(21.917809,0,0,-21.917809,317.00019,387.58729)"/>
<use data-text="e" xlink:href="#font_9_70" transform="matrix(21.917809,0,0,-21.917809,328.06867,387.58729)"/>
<use data-text="A" xlink:href="#font_9_34" transform="matrix(21.917809,0,0,-21.917809,343.32347,387.58729)"/>
<use data-text="m" xlink:href="#font_9_78" transform="matrix(21.917809,0,0,-21.917809,358.53443,387.58729)"/>
<use data-text="o" xlink:href="#font_9_80" transform="matrix(21.917809,0,0,-21.917809,375.82759,387.58729)"/>
<use data-text="u" xlink:href="#font_9_86" transform="matrix(21.917809,0,0,-21.917809,386.85224,387.58729)"/>
<use data-text="n" xlink:href="#font_9_79" transform="matrix(21.917809,0,0,-21.917809,398.4906,387.58729)"/>
<use data-text="t" xlink:href="#font_9_85" transform="matrix(21.917809,0,0,-21.917809,410.34815,387.58729)"/>
<use data-text="(" xlink:href="#font_9_9" transform="matrix(21.917809,0,0,-21.917809,422.73173,387.58729)"/>
<use data-text="u" xlink:href="#font_9_86" transform="matrix(21.917809,0,0,-21.917809,429.2632,387.58729)"/>
<use data-text="n" xlink:href="#font_9_79" transform="matrix(21.917809,0,0,-21.917809,440.90159,387.58729)"/>
<use data-text="i" xlink:href="#font_9_74" transform="matrix(21.917809,0,0,-21.917809,452.75914,387.58729)"/>
<use data-text="t" xlink:href="#font_9_85" transform="matrix(21.917809,0,0,-21.917809,458.67695,387.58729)"/>
<use data-text="s" xlink:href="#font_9_84" transform="matrix(21.917809,0,0,-21.917809,465.58106,387.58729)"/>
<use data-text=")" xlink:href="#font_9_10" transform="matrix(21.917809,0,0,-21.917809,474.129,387.58729)"/>
<g clip-path="url(#clip_10)">
<path transform="matrix(1,0,0,-1,0,399.95988)" stroke-width=".8" stroke-linecap="square" stroke-linejoin="round" fill="none" stroke="#b0b0b0" stroke-opacity=".3" d="M72.91347 100.94807H694.23757"/>
</g>
<path transform="matrix(1,0,0,-1,0,399.95988)" d="M72.91347 100.94807H69.41347"/>
<path transform="matrix(1,0,0,-1,0,399.95988)" stroke-width=".8" stroke-linecap="butt" stroke-linejoin="round" fill="none" stroke="#000000" d="M72.91347 100.94807H69.41347"/>
<use data-text="2" xlink:href="#font_2_52" transform="matrix(19.92528,0,0,-19.92528,42.21784,306.0006)"/>
<use data-text="." xlink:href="#font_11_59" transform="matrix(19.92528,0,0,-19.92528,51.355936,306.0006)"/>
<use data-text="5" xlink:href="#font_2_55" transform="matrix(19.92528,0,0,-19.92528,56.775369,306.0006)"/>
<g clip-path="url(#clip_12)">
<path transform="matrix(1,0,0,-1,0,399.95988)" stroke-width=".8" stroke-linecap="square" stroke-linejoin="round" fill="none" stroke="#b0b0b0" stroke-opacity=".3" d="M72.91347 150.08144H694.23757"/>
</g>
<path transform="matrix(1,0,0,-1,0,399.95988)" d="M72.91347 150.08144H69.41347"/>
<path transform="matrix(1,0,0,-1,0,399.95988)" stroke-width=".8" stroke-linecap="butt" stroke-linejoin="round" fill="none" stroke="#000000" d="M72.91347 150.08144H69.41347"/>
<use data-text="5" xlink:href="#font_2_55" transform="matrix(19.92528,0,0,-19.92528,42.21784,256.86723)"/>
<use data-text="." xlink:href="#font_11_59" transform="matrix(19.92528,0,0,-19.92528,51.355936,256.86723)"/>
<use data-text="0" xlink:href="#font_2_50" transform="matrix(19.92528,0,0,-19.92528,56.775369,256.86723)"/>
<g clip-path="url(#clip_13)">
<path transform="matrix(1,0,0,-1,0,399.95988)" stroke-width=".8" stroke-linecap="square" stroke-linejoin="round" fill="none" stroke="#b0b0b0" stroke-opacity=".3" d="M72.91347 199.21482H694.23757"/>
</g>
<path transform="matrix(1,0,0,-1,0,399.95988)" d="M72.91347 199.21482H69.41347"/>
<path transform="matrix(1,0,0,-1,0,399.95988)" stroke-width=".8" stroke-linecap="butt" stroke-linejoin="round" fill="none" stroke="#000000" d="M72.91347 199.21482H69.41347"/>
<use data-text="7" xlink:href="#font_2_57" transform="matrix(19.92528,0,0,-19.92528,42.21784,207.73384)"/>
<use data-text="." xlink:href="#font_11_59" transform="matrix(19.92528,0,0,-19.92528,51.355936,207.73384)"/>
<use data-text="5" xlink:href="#font_2_55" transform="matrix(19.92528,0,0,-19.92528,56.775369,207.73384)"/>
<g clip-path="url(#clip_14)">
<path transform="matrix(1,0,0,-1,0,399.95988)" stroke-width=".8" stroke-linecap="square" stroke-linejoin="round" fill="none" stroke="#b0b0b0" stroke-opacity=".3" d="M72.91347 248.34819H694.23757"/>
</g>
<path transform="matrix(1,0,0,-1,0,399.95988)" d="M72.91347 248.34819H69.41347"/>
<path transform="matrix(1,0,0,-1,0,399.95988)" stroke-width=".8" stroke-linecap="butt" stroke-linejoin="round" fill="none" stroke="#000000" d="M72.91347 248.34819H69.41347"/>
<use data-text="1" xlink:href="#font_2_51" transform="matrix(19.92528,0,0,-19.92528,33.079744,158.60047)"/>
<use data-text="0" xlink:href="#font_2_50" transform="matrix(19.92528,0,0,-19.92528,42.20552,158.60047)"/>
<use data-text="." xlink:href="#font_11_59" transform="matrix(19.92528,0,0,-19.92528,51.355936,158.60047)"/>
<use data-text="0" xlink:href="#font_2_50" transform="matrix(19.92528,0,0,-19.92528,56.775369,158.60047)"/>
<g clip-path="url(#clip_15)">
<path transform="matrix(1,0,0,-1,0,399.95988)" stroke-width=".8" stroke-linecap="square" stroke-linejoin="round" fill="none" stroke="#b0b0b0" stroke-opacity=".3" d="M72.91347 297.48158H694.23757"/>
</g>
<path transform="matrix(1,0,0,-1,0,399.95988)" d="M72.91347 297.48158H69.41347"/>
<path transform="matrix(1,0,0,-1,0,399.95988)" stroke-width=".8" stroke-linecap="butt" stroke-linejoin="round" fill="none" stroke="#000000" d="M72.91347 297.48158H69.41347"/>
<use data-text="1" xlink:href="#font_2_51" transform="matrix(19.92528,0,0,-19.92528,33.079744,109.4671)"/>
<use data-text="2" xlink:href="#font_2_52" transform="matrix(19.92528,0,0,-19.92528,42.20552,109.4671)"/>
<use data-text="." xlink:href="#font_11_59" transform="matrix(19.92528,0,0,-19.92528,51.355936,109.4671)"/>
<use data-text="5" xlink:href="#font_2_55" transform="matrix(19.92528,0,0,-19.92528,56.775369,109.4671)"/>
<g clip-path="url(#clip_16)">
<path transform="matrix(1,0,0,-1,0,399.95988)" stroke-width=".8" stroke-linecap="square" stroke-linejoin="round" fill="none" stroke="#b0b0b0" stroke-opacity=".3" d="M72.91347 346.61494H694.23757"/>
</g>
<path transform="matrix(1,0,0,-1,0,399.95988)" d="M72.91347 346.61494H69.41347"/>
<path transform="matrix(1,0,0,-1,0,399.95988)" stroke-width=".8" stroke-linecap="butt" stroke-linejoin="round" fill="none" stroke="#000000" d="M72.91347 346.61494H69.41347"/>
<use data-text="1" xlink:href="#font_2_51" transform="matrix(19.92528,0,0,-19.92528,33.079744,60.33371)"/>
<use data-text="5" xlink:href="#font_2_55" transform="matrix(19.92528,0,0,-19.92528,42.20552,60.33371)"/>
<use data-text="." xlink:href="#font_11_59" transform="matrix(19.92528,0,0,-19.92528,51.355936,60.33371)"/>
<use data-text="0" xlink:href="#font_2_50" transform="matrix(19.92528,0,0,-19.92528,56.775369,60.33371)"/>
<use data-text="&#x00b5;" xlink:href="#font_11_23" transform="matrix(0,-21.917809,-21.917809,-0,23.618624,262.12953)"/>
<use data-text="=" xlink:href="#font_2_63" transform="matrix(0,-21.917809,-21.917809,-0,23.618624,243.12917)"/>
<use data-text="l" xlink:href="#font_2_110" transform="matrix(0,-21.917809,-21.917809,-0,23.618624,221.28202)"/>
<use data-text="o" xlink:href="#font_2_113" transform="matrix(0,-21.917809,-21.917809,-0,23.618624,215.82448)"/>
<use data-text="g" xlink:href="#font_2_105" transform="matrix(0,-21.917809,-21.917809,-0,23.618624,205.78612)"/>
<use data-text="2" xlink:href="#font_4_52" transform="matrix(0,-15.342399,-15.342399,-0,28.648924,195.402)"/>
<use data-text="(" xlink:href="#font_2_41" transform="matrix(0,-21.917809,-21.917809,-0,23.618624,187.39257)"/>
<use data-text="2" xlink:href="#font_2_52" transform="matrix(0,-21.917809,-21.917809,-0,23.618624,179.63365)"/>
<use data-text="x" xlink:href="#font_11_121" transform="matrix(0,-21.917809,-21.917809,-0,23.618624,169.5789)"/>
<use data-text="+" xlink:href="#font_2_44" transform="matrix(0,-21.917809,-21.917809,-0,23.618624,152.51282)"/>
<use data-text="2" xlink:href="#font_2_52" transform="matrix(0,-21.917809,-21.917809,-0,23.618624,131.8833)"/>
<use data-text=")" xlink:href="#font_2_42" transform="matrix(0,-21.917809,-21.917809,-0,23.618624,121.84494)"/>
<g clip-path="url(#clip_17)">
<path transform="matrix(1,0,0,-1,0,399.95988)" stroke-width="2" stroke-linecap="square" stroke-linejoin="round" fill="none" stroke="#800080" d="M101.15547 71.468608 244.91236 71.578548 276.60679 71.82003 295.84983 72.17664 310.5651 72.67322 321.88456 73.27425 330.9401 73.9556 338.8637 74.747898 346.78733 75.77404 353.57899 76.88254 360.37065 78.24406 366.03038 79.60197 371.6901 81.18863 377.3498 83.026927 383.00953 85.13716 388.66926 87.53573 394.32899 90.23387 399.98869 93.2368 405.6484 96.54325 411.30815 100.14559 416.96784 104.03047 422.62757 108.17982 429.41923 113.477748 436.2109 119.08476 444.1345 125.96111 452.0581 133.13732 461.11366 141.63195 472.4331 152.58399 486.01643 166.07024 502.9956 183.26168 526.7664 207.6678 567.5164 249.87763 665.99557 352.27088"/>
</g>
<g clip-path="url(#clip_18)">
<path transform="matrix(1,0,0,-1,0,399.95988)" stroke-width="1.5" stroke-linecap="butt" stroke-dasharray="5.55,2.4" stroke-linejoin="round" fill="none" stroke="#808080" stroke-opacity=".5" d="M72.91347 71.46804H694.23757"/>
</g>
<path transform="matrix(1,0,0,-1,0,399.95988)" stroke-width=".8" stroke-linecap="square" stroke-miterlimit="10" stroke-linejoin="miter" fill="none" stroke="#000000" d="M72.91347 57.427896V366.311"/>
<path transform="matrix(1,0,0,-1,0,399.95988)" stroke-width=".8" stroke-linecap="square" stroke-miterlimit="10" stroke-linejoin="miter" fill="none" stroke="#000000" d="M694.23757 57.427896V366.311"/>
<path transform="matrix(1,0,0,-1,0,399.95988)" stroke-width=".8" stroke-linecap="square" stroke-miterlimit="10" stroke-linejoin="miter" fill="none" stroke="#000000" d="M72.91347 57.427896H694.23757"/>
<path transform="matrix(1,0,0,-1,0,399.95988)" stroke-width=".8" stroke-linecap="square" stroke-miterlimit="10" stroke-linejoin="miter" fill="none" stroke="#000000" d="M72.91347 366.311H694.23757"/>
<use data-text="&#x00b5;" xlink:href="#font_11_23" transform="matrix(21.917809,0,0,-21.917809,76.06929,318.49128)"/>
<use data-text="=" xlink:href="#font_9_30" transform="matrix(21.917809,0,0,-21.917809,88.9814,318.49128)"/>
<use data-text="1" xlink:href="#font_9_18" transform="matrix(21.917809,0,0,-21.917809,101.036197,318.49128)"/>
<use data-text="." xlink:href="#font_9_15" transform="matrix(21.917809,0,0,-21.917809,111.227977,318.49128)"/>
<use data-text="0" xlink:href="#font_9_17" transform="matrix(21.917809,0,0,-21.917809,116.04989,318.49128)"/>
<use data-text="&#x00b5;" xlink:href="#font_11_23" transform="matrix(21.917809,0,0,-21.917809,263.972,317.938)"/>
<use data-text="=" xlink:href="#font_9_30" transform="matrix(21.917809,0,0,-21.917809,276.8841,317.938)"/>
<use data-text="1" xlink:href="#font_9_18" transform="matrix(21.917809,0,0,-21.917809,288.9389,317.938)"/>
<use data-text="." xlink:href="#font_9_15" transform="matrix(21.917809,0,0,-21.917809,299.13069,317.938)"/>
<use data-text="0" xlink:href="#font_9_17" transform="matrix(21.917809,0,0,-21.917809,303.9526,317.938)"/>
<use data-text="&#x00b5;" xlink:href="#font_11_23" transform="matrix(15.498231,-15.498231,-15.498231,-15.498231,463.96144,238.30916)"/>
<use data-text="=" xlink:href="#font_9_30" transform="matrix(15.498231,-15.498231,-15.498231,-15.498231,473.09169,229.17893)"/>
<use data-text="5" xlink:href="#font_9_22" transform="matrix(15.498231,-15.498231,-15.498231,-15.498231,481.6157,220.65489)"/>
<use data-text="." xlink:href="#font_9_15" transform="matrix(15.498231,-15.498231,-15.498231,-15.498231,488.82237,213.44821)"/>
<use data-text="4" xlink:href="#font_9_21" transform="matrix(15.498231,-15.498231,-15.498231,-15.498231,492.23197,210.0386)"/>
<use data-text="&#x00b5;" xlink:href="#font_11_23" transform="matrix(16.288105,-14.665877,-14.665877,-16.288105,636.9794,59.01761)"/>
<use data-text="=" xlink:href="#font_9_30" transform="matrix(16.288105,-14.665877,-14.665877,-16.288105,646.57498,50.377717)"/>
<use data-text="1" xlink:href="#font_9_18" transform="matrix(16.288105,-14.665877,-14.665877,-16.288105,655.5334,42.311494)"/>
<use data-text="5" xlink:href="#font_9_22" transform="matrix(16.288105,-14.665877,-14.665877,-16.288105,663.10739,35.49185)"/>
<use data-text="." xlink:href="#font_9_15" transform="matrix(16.288105,-14.665877,-14.665877,-16.288105,670.68136,28.67221)"/>
<use data-text="3" xlink:href="#font_9_20" transform="matrix(16.288105,-14.665877,-14.665877,-16.288105,674.2647,25.44571)"/>
<use data-text="S" xlink:href="#font_9_52" transform="matrix(23.910336,0,0,-23.910336,223.42278,27.648865)"/>
<use data-text="p" xlink:href="#font_9_81" transform="matrix(23.910336,0,0,-23.910336,234.99538,27.648865)"/>
<use data-text="r" xlink:href="#font_9_83" transform="matrix(23.910336,0,0,-23.910336,247.40485,27.648865)"/>
<use data-text="e" xlink:href="#font_9_70" transform="matrix(23.910336,0,0,-23.910336,256.0843,27.648865)"/>
<use data-text="a" xlink:href="#font_9_66" transform="matrix(23.910336,0,0,-23.910336,266.7483,27.648865)"/>
<use data-text="d" xlink:href="#font_9_69" transform="matrix(23.910336,0,0,-23.910336,277.6514,27.648865)"/>
<use data-text="M" xlink:href="#font_9_46" transform="matrix(23.910336,0,0,-23.910336,295.70368,27.648865)"/>
<use data-text="u" xlink:href="#font_9_86" transform="matrix(23.910336,0,0,-23.910336,315.74055,27.648865)"/>
<use data-text="l" xlink:href="#font_9_77" transform="matrix(23.910336,0,0,-23.910336,328.43693,27.648865)"/>
<use data-text="t" xlink:href="#font_9_85" transform="matrix(23.910336,0,0,-23.910336,334.72535,27.648865)"/>
<use data-text="i" xlink:href="#font_9_74" transform="matrix(23.910336,0,0,-23.910336,342.2571,27.648865)"/>
<use data-text="p" xlink:href="#font_9_81" transform="matrix(23.910336,0,0,-23.910336,348.7129,27.648865)"/>
<use data-text="l" xlink:href="#font_9_77" transform="matrix(23.910336,0,0,-23.910336,361.12236,27.648865)"/>
<use data-text="i" xlink:href="#font_9_74" transform="matrix(23.910336,0,0,-23.910336,367.41078,27.648865)"/>
<use data-text="e" xlink:href="#font_9_70" transform="matrix(23.910336,0,0,-23.910336,373.86656,27.648865)"/>
<use data-text="r" xlink:href="#font_9_83" transform="matrix(23.910336,0,0,-23.910336,384.53056,27.648865)"/>
<use data-text="&#x00b5;" xlink:href="#font_11_23" transform="matrix(23.910336,0,0,-23.910336,399.68965,27.648865)"/>
<use data-text="(" xlink:href="#font_9_9" transform="matrix(23.910336,0,0,-23.910336,419.75318,27.648865)"/>
<use data-text="L" xlink:href="#font_9_45" transform="matrix(23.910336,0,0,-23.910336,426.87846,27.648865)"/>
<use data-text="o" xlink:href="#font_9_80" transform="matrix(23.910336,0,0,-23.910336,439.4792,27.648865)"/>
<use data-text="g" xlink:href="#font_9_72" transform="matrix(23.910336,0,0,-23.910336,451.50608,27.648865)"/>
<use data-text="I" xlink:href="#font_9_42" transform="matrix(23.910336,0,0,-23.910336,469.4388,27.648865)"/>
<use data-text="m" xlink:href="#font_9_78" transform="matrix(23.910336,0,0,-23.910336,476.51628,27.648865)"/>
<use data-text="p" xlink:href="#font_9_81" transform="matrix(23.910336,0,0,-23.910336,495.38154,27.648865)"/>
<use data-text="a" xlink:href="#font_9_66" transform="matrix(23.910336,0,0,-23.910336,507.791,27.648865)"/>
<use data-text="c" xlink:href="#font_9_68" transform="matrix(23.910336,0,0,-23.910336,518.6941,27.648865)"/>
<use data-text="t" xlink:href="#font_9_85" transform="matrix(23.910336,0,0,-23.910336,528.92776,27.648865)"/>
<use data-text=")" xlink:href="#font_9_10" transform="matrix(23.910336,0,0,-23.910336,536.4595,27.648865)"/>
<g clip-path="url(#clip_19)">
<g clip-path="url(#clip_20)">
<path transform="matrix(1,0,0,-1,101.155467,328.49128)" d="M0-3.162278C.838646-3.162278 1.643056-2.82908 2.236068-2.236068 2.82908-1.643056 3.162278-.838646 3.162278 0 3.162278 .838646 2.82908 1.643056 2.236068 2.236068 1.643056 2.82908 .838646 3.162278 0 3.162278-.838646 3.162278-1.643056 2.82908-2.236068 2.236068-2.82908 1.643056-3.162278 .838646-3.162278 0-3.162278-.838646-2.82908-1.643056-2.236068-2.236068-1.643056-2.82908-.838646-3.162278 0-3.162278Z" fill="#800080"/>
<path transform="matrix(1,0,0,-1,101.155467,328.49128)" stroke-width="1" stroke-linecap="butt" stroke-linejoin="round" fill="none" stroke="#800080" d="M0-3.162278C.838646-3.162278 1.643056-2.82908 2.236068-2.236068 2.82908-1.643056 3.162278-.838646 3.162278 0 3.162278 .838646 2.82908 1.643056 2.236068 2.236068 1.643056 2.82908 .838646 3.162278 0 3.162278-.838646 3.162278-1.643056 2.82908-2.236068 2.236068-2.82908 1.643056-3.162278 .838646-3.162278 0-3.162278-.838646-2.82908-1.643056-2.236068-2.236068-1.643056-2.82908-.838646-3.162278 0-3.162278Z"/>
</g>
<g clip-path="url(#clip_21)">
<path transform="matrix(1,0,0,-1,289.4355,327.93803)" d="M0-3.162278C.838646-3.162278 1.643056-2.82908 2.236068-2.236068 2.82908-1.643056 3.162278-.838646 3.162278 0 3.162278 .838646 2.82908 1.643056 2.236068 2.236068 1.643056 2.82908 .838646 3.162278 0 3.162278-.838646 3.162278-1.643056 2.82908-2.236068 2.236068-2.82908 1.643056-3.162278 .838646-3.162278 0-3.162278-.838646-2.82908-1.643056-2.236068-2.236068-1.643056-2.82908-.838646-3.162278 0-3.162278Z" fill="#800080"/>
<path transform="matrix(1,0,0,-1,289.4355,327.93803)" stroke-width="1" stroke-linecap="butt" stroke-linejoin="round" fill="none" stroke="#800080" d="M0-3.162278C.838646-3.162278 1.643056-2.82908 2.236068-2.236068 2.82908-1.643056 3.162278-.838646 3.162278 0 3.162278 .838646 2.82908 1.643056 2.236068 2.236068 1.643056 2.82908 .838646 3.162278 0 3.162278-.838646 3.162278-1.643056 2.82908-2.236068 2.236068-2.82908 1.643056-3.162278 .838646-3.162278 0-3.162278-.838646-2.82908-1.643056-2.236068-2.236068-1.643056-2.82908-.838646-3.162278 0-3.162278Z"/>
</g>
<g clip-path="url(#clip_22)">
<path transform="matrix(1,0,0,-1,477.7155,241.79416)" d="M0-3.162278C.838646-3.162278 1.643056-2.82908 2.236068-2.236068 2.82908-1.643056 3.162278-.838646 3.162278 0 3.162278 .838646 2.82908 1.643056 2.236068 2.236068 1.643056 2.82908 .838646 3.162278 0 3.162278-.838646 3.162278-1.643056 2.82908-2.236068 2.236068-2.82908 1.643056-3.162278 .838646-3.162278 0-3.162278-.838646-2.82908-1.643056-2.236068-2.236068-1.643056-2.82908-.838646-3.162278 0-3.162278Z" fill="#800080"/>
<path transform="matrix(1,0,0,-1,477.7155,241.79416)" stroke-width="1" stroke-linecap="butt" stroke-linejoin="round" fill="none" stroke="#800080" d="M0-3.162278C.838646-3.162278 1.643056-2.82908 2.236068-2.236068 2.82908-1.643056 3.162278-.838646 3.162278 0 3.162278 .838646 2.82908 1.643056 2.236068 2.236068 1.643056 2.82908 .838646 3.162278 0 3.162278-.838646 3.162278-1.643056 2.82908-2.236068 2.236068-2.82908 1.643056-3.162278 .838646-3.162278 0-3.162278-.838646-2.82908-1.643056-2.236068-2.236068-1.643056-2.82908-.838646-3.162278 0-3.162278Z"/>
</g>
<g clip-path="url(#clip_23)">
<path transform="matrix(1,0,0,-1,665.99557,47.68901)" d="M0-3.162278C.838646-3.162278 1.643056-2.82908 2.236068-2.236068 2.82908-1.643056 3.162278-.838646 3.162278 0 3.162278 .838646 2.82908 1.643056 2.236068 2.236068 1.643056 2.82908 .838646 3.162278 0 3.162278-.838646 3.162278-1.643056 2.82908-2.236068 2.236068-2.82908 1.643056-3.162278 .838646-3.162278 0-3.162278-.838646-2.82908-1.643056-2.236068-2.236068-1.643056-2.82908-.838646-3.162278 0-3.162278Z" fill="#800080"/>
<path transform="matrix(1,0,0,-1,665.99557,47.68901)" stroke-width="1" stroke-linecap="butt" stroke-linejoin="round" fill="none" stroke="#800080" d="M0-3.162278C.838646-3.162278 1.643056-2.82908 2.236068-2.236068 2.82908-1.643056 3.162278-.838646 3.162278 0 3.162278 .838646 2.82908 1.643056 2.236068 2.236068 1.643056 2.82908 .838646 3.162278 0 3.162278-.838646 3.162278-1.643056 2.82908-2.236068 2.236068-2.82908 1.643056-3.162278 .838646-3.162278 0-3.162278-.838646-2.82908-1.643056-2.236068-2.236068-1.643056-2.82908-.838646-3.162278 0-3.162278Z"/>
</g>
</g>
<g>
<path transform="matrix(1,0,0,-1,0,399.95988)" d="M86.91347 292.90629H259.7675C262.43418 292.90629 263.7675 294.23963 263.7675 296.90629V352.311C263.7675 354.9777 262.43418 356.311 259.7675 356.311H86.91347C84.246799 356.311 82.91347 354.9777 82.91347 352.311V296.90629C82.91347 294.23963 84.246799 292.90629 86.91347 292.90629Z" fill="#ffffff" fill-opacity=".8"/>
<path transform="matrix(1,0,0,-1,0,399.95988)" stroke-width="1" stroke-linecap="butt" stroke-miterlimit="10" stroke-linejoin="miter" fill="none" stroke="#cccccc" stroke-opacity=".8" d="M86.91347 292.90629H259.7675C262.43418 292.90629 263.7675 294.23963 263.7675 296.90629V352.311C263.7675 354.9777 262.43418 356.311 259.7675 356.311H86.91347C84.246799 356.311 82.91347 354.9777 82.91347 352.311V296.90629C82.91347 294.23963 84.246799 292.90629 86.91347 292.90629Z"/>
</g>
<path transform="matrix(1,0,0,-1,0,399.95988)" stroke-width="2" stroke-linecap="square" stroke-linejoin="round" fill="none" stroke="#800080" d="M90.91347 341.311H110.91347 130.91347"/>
<use data-text="&#x00b5;" xlink:href="#font_11_23" transform="matrix(19.92528,0,0,-19.92528,146.91347,65.648868)"/>
<use data-text="(" xlink:href="#font_9_9" transform="matrix(19.92528,0,0,-19.92528,163.63307,65.648868)"/>
<use data-text="m" xlink:href="#font_9_78" transform="matrix(19.92528,0,0,-19.92528,169.5708,65.648868)"/>
<use data-text="u" xlink:href="#font_9_86" transform="matrix(19.92528,0,0,-19.92528,185.29184,65.648868)"/>
<use data-text="l" xlink:href="#font_9_77" transform="matrix(19.92528,0,0,-19.92528,195.87216,65.648868)"/>
<use data-text="t" xlink:href="#font_9_85" transform="matrix(19.92528,0,0,-19.92528,201.11252,65.648868)"/>
<use data-text="i" xlink:href="#font_9_74" transform="matrix(19.92528,0,0,-19.92528,207.38898,65.648868)"/>
<use data-text="p" xlink:href="#font_9_81" transform="matrix(19.92528,0,0,-19.92528,212.7688,65.648868)"/>
<use data-text="l" xlink:href="#font_9_77" transform="matrix(19.92528,0,0,-19.92528,223.11002,65.648868)"/>
<use data-text="i" xlink:href="#font_9_74" transform="matrix(19.92528,0,0,-19.92528,228.35037,65.648868)"/>
<use data-text="e" xlink:href="#font_9_70" transform="matrix(19.92528,0,0,-19.92528,233.7302,65.648868)"/>
<use data-text="r" xlink:href="#font_9_83" transform="matrix(19.92528,0,0,-19.92528,242.61687,65.648868)"/>
<use data-text=")" xlink:href="#font_9_10" transform="matrix(19.92528,0,0,-19.92528,249.6704,65.648868)"/>
<path transform="matrix(1,0,0,-1,0,399.95988)" stroke-width="1.5" stroke-linecap="butt" stroke-dasharray="5.55,2.4" stroke-linejoin="round" fill="none" stroke="#808080" stroke-opacity=".5" d="M90.91347 312.60865H110.91347 130.91347"/>
<use data-text="&#x00b5;" xlink:href="#font_11_23" transform="matrix(19.92528,0,0,-19.92528,146.91347,94.35123)"/>
<use data-text="=" xlink:href="#font_2_63" transform="matrix(19.92528,0,0,-19.92528,164.1865,94.35123)"/>
<use data-text="1" xlink:href="#font_2_51" transform="matrix(19.92528,0,0,-19.92528,184.04752,94.35123)"/>
<use data-text="(" xlink:href="#font_9_9" transform="matrix(19.92528,0,0,-19.92528,198.18361,94.35123)"/>
<use data-text="b" xlink:href="#font_9_67" transform="matrix(19.92528,0,0,-19.92528,204.36043,94.35123)"/>
<use data-text="a" xlink:href="#font_9_66" transform="matrix(19.92528,0,0,-19.92528,214.1836,94.35123)"/>
<use data-text="s" xlink:href="#font_9_84" transform="matrix(19.92528,0,0,-19.92528,223.26952,94.35123)"/>
<use data-text="e" xlink:href="#font_9_70" transform="matrix(19.92528,0,0,-19.92528,231.04038,94.35123)"/>
<use data-text=")" xlink:href="#font_9_10" transform="matrix(19.92528,0,0,-19.92528,239.92705,94.35123)"/>
</svg>
