<svg xmlns="http://www.w3.org/2000/svg" xmlns:xlink="http://www.w3.org/1999/xlink" version="1.1" width="711.14pt" height="423.39189pt" viewBox="0 0 711.14 423.39189">
<defs>
<clipPath id="clip_1">
<path transform="matrix(1,0,0,-1,0,423.39189)" d="M49.075 39.496877H703.94V400.3169H49.075Z"/>
</clipPath>
<g id="font_2_48">
<path transform="matrix(.001,0,0,.001,0,0)" d="M318 34C368 34 405 61 430 116 454 170 467 253 467 364 467 474 454 557 430 612 405 666 368 694 318 694 268 694 230 666 206 612 181 557 169 474 169 364 169 253 181 170 206 116 230 61 268 34 318 34ZM318-13C238-13 176 20 132 86 88 152 66 244 66 364 66 483 88 576 132 642 176 708 238 742 318 742 397 742 459 708 503 642 547 576 570 483 570 364 570 244 547 152 503 86 459 20 397-13 318-13Z"/>
</g>
<clipPath id="clip_3">
<path transform="matrix(1,0,0,-1,0,423.39189)" d="M49.075 39.496877H703.94V400.3169H49.075Z"/>
</clipPath>
<g id="font_2_49">
<path transform="matrix(.001,0,0,.001,0,0)" d="M142 0V52H269V658L122 563V627L300 742H367V52H494V0H142Z"/>
</g>
<clipPath id="clip_4">
<path transform="matrix(1,0,0,-1,0,423.39189)" d="M49.075 39.496877H703.94V400.3169H49.075Z"/>
</clipPath>
<g id="font_2_50">
<path transform="matrix(.001,0,0,.001,0,0)" d="M128 555H73V685C107 703 142 717 178 727 213 737 248 742 282 742 358 742 418 723 462 687 506 650 528 600 528 537 528 465 478 380 378 281 370 273 365 268 361 264L177 80H481V170H538V0H68V53L289 274C337 322 372 367 393 408 414 449 425 492 425 537 425 586 412 624 386 652 360 680 325 694 281 694 234 694 198 682 173 659 147 636 132 601 128 555Z"/>
</g>
<clipPath id="clip_5">
<path transform="matrix(1,0,0,-1,0,423.39189)" d="M49.075 39.496877H703.94V400.3169H49.075Z"/>
</clipPath>
<g id="font_2_51">
<path transform="matrix(.001,0,0,.001,0,0)" d="M97 698C135 712 171 723 206 731 241 738 274 742 305 742 376 742 432 726 472 696 512 665 532 622 532 568 532 524 518 487 490 458 462 428 423 408 373 398 433 389 479 367 512 332 545 297 562 252 562 197 562 129 539 77 493 41 447 5 382-13 296-13 258-13 220-9 184-1 148 6 112 18 76 35V177H131C134 129 150 94 178 70 206 46 246 34 298 34 348 34 387 48 416 77 444 106 459 146 459 196 459 253 444 296 414 326 384 355 341 370 284 370H238V420H262C319 420 362 431 390 455 418 479 433 514 433 562 433 604 421 637 398 660 374 682 341 694 297 694 253 694 218 683 194 662 170 641 156 610 152 570H97V698Z"/>
</g>
<clipPath id="clip_6">
<path transform="matrix(1,0,0,-1,0,423.39189)" d="M49.075 39.496877H703.94V400.3169H49.075Z"/>
</clipPath>
<g id="font_2_52">
<path transform="matrix(.001,0,0,.001,0,0)" d="M349 247V635L100 247H349ZM564 0H232V52H349V195H31V248L350 742H447V247H586V195H447V52H564V0Z"/>
</g>
<clipPath id="clip_7">
<path transform="matrix(1,0,0,-1,0,423.39189)" d="M49.075 39.496877H703.94V400.3169H49.075Z"/>
</clipPath>
<g id="font_2_53">
<path transform="matrix(.001,0,0,.001,0,0)" d="M503 729V649H169V440C185 452 205 460 228 466 250 472 276 475 304 475 382 475 444 453 490 409 536 365 559 306 559 231 559 153 536 93 490 51 444 8 379-13 296-13 262-13 228-9 193-1 157 6 121 18 85 35V177H140C143 130 158 94 184 70 210 46 248 34 296 34 347 34 386 51 414 85 442 119 456 167 456 231 456 294 442 342 415 376 387 410 348 427 296 427 266 427 240 421 218 411 196 401 176 385 159 363H117V729H503Z"/>
</g>
<clipPath id="clip_8">
<path transform="matrix(1,0,0,-1,0,423.39189)" d="M49.075 39.496877H703.94V400.3169H49.075Z"/>
</clipPath>
<g id="font_2_54">
<path transform="matrix(.001,0,0,.001,0,0)" d="M327 34C373 34 408 50 433 84 457 118 470 166 470 230 470 293 457 341 433 375 408 409 373 426 327 426 280 426 244 409 220 377 196 344 184 297 184 236 184 171 196 121 221 86 245 51 281 34 327 34ZM168 401C190 425 215 444 243 456 271 468 302 474 338 474 410 474 468 452 510 408 552 364 573 305 573 230 573 156 550 97 505 53 459 9 399-13 323-13 241-13 177 17 133 78 89 139 67 227 67 341 67 468 93 567 145 637 197 707 271 742 367 742 393 742 420 739 448 735 476 730 505 723 535 713V593H480C476 625 463 650 442 668 421 685 393 694 357 694 293 694 246 670 215 622 184 574 168 500 168 401Z"/>
</g>
<clipPath id="clip_9">
<path transform="matrix(1,0,0,-1,0,423.39189)" d="M49.075 39.496877H703.94V400.3169H49.075Z"/>
</clipPath>
<g id="font_2_55">
<path transform="matrix(.001,0,0,.001,0,0)" d="M564 679 279 0H206L478 649H141V559H84V729H564V679Z"/>
</g>
<g id="font_2_72">
<path transform="matrix(.001,0,0,.001,0,0)" d="M55 0V52H148V677H55V729H340V677H247V425H625V677H532V729H817V677H724V52H817V0H532V52H625V365H247V52H340V0H55Z"/>
</g>
<g id="font_2_111">
<path transform="matrix(.001,0,0,.001,0,0)" d="M301 34C349 34 385 53 410 91 434 129 447 185 447 259 447 333 434 390 410 428 385 466 349 485 301 485 253 485 216 466 192 428 167 390 155 333 155 259 155 185 167 129 192 91 216 53 253 34 301 34ZM301-13C225-13 165 11 119 61 73 111 50 177 50 260 50 342 72 408 118 458 164 508 225 533 301 533 377 533 437 508 483 458 529 408 552 342 552 260 552 177 529 111 483 61 437 11 377-13 301-13Z"/>
</g>
<g id="font_2_117">
<path transform="matrix(.001,0,0,.001,0,0)" d="M354 519H522V52H607V0H432V92C415 57 393 31 367 13 341-4 310-13 276-13 218-13 175 3 148 35 121 67 108 119 108 189V467H27V519H198V217C198 153 205 110 221 87 237 63 264 52 304 52 346 52 377 67 399 98 421 128 432 173 432 231V467H354V519Z"/>
</g>
<g id="font_2_114">
<path transform="matrix(.001,0,0,.001,0,0)" d="M478 520V390H426C424 416 417 435 405 448 392 460 373 467 349 467 305 467 271 451 247 421 223 390 212 346 212 289V52H316V0H41V52H122V468H36V519H212V427C229 463 251 489 279 507 307 524 341 533 381 533 395 533 411 531 427 529 443 527 460 524 478 520Z"/>
</g>
<g id="font_2_115">
<path transform="matrix(.001,0,0,.001,0,0)" d="M56 29V150H108C109 111 121 82 144 63 167 43 201 34 246 34 286 34 317 41 338 57 359 72 370 94 370 123 370 145 362 164 347 178 331 192 299 207 249 223L184 245C139 259 107 277 87 299 67 320 57 347 57 381 57 428 74 465 109 492 144 519 192 533 254 533 281 533 310 529 340 522 370 515 402 505 434 491V378H382C380 411 369 437 347 456 325 475 295 485 257 485 219 485 190 478 171 465 151 451 142 431 142 405 142 383 149 365 164 352 178 339 208 326 252 312L323 290C372 274 407 255 429 232 451 209 462 180 462 144 462 94 443 56 405 28 367 0 316-13 250-13 216-13 184-9 152-3 120 3 88 14 56 29Z"/>
</g>
<g id="font_2_32">
</g>
<g id="font_2_65">
<path transform="matrix(.001,0,0,.001,0,0)" d="M200 264H468L334 611 200 264ZM-5 0V52H58L318 729H400L660 52H732V0H467V52H548L487 212H180L119 52H199V0H-5Z"/>
</g>
<g id="font_2_102">
<path transform="matrix(.001,0,0,.001,0,0)" d="M430 637H383C382 661 375 680 362 693 348 705 329 712 303 712 269 712 246 702 232 684 218 666 212 633 212 586V519H357V467H212V52H327V0H36V52H122V467H36V519H122V584C122 642 137 685 167 715 197 745 241 760 300 760 322 760 343 758 365 754 387 750 408 744 430 736V637Z"/>
</g>
<g id="font_2_116">
<path transform="matrix(.001,0,0,.001,0,0)" d="M108 467H29V519H108V680H198V519H367V467H198V137C198 93 202 64 211 52 219 40 235 34 258 34 281 34 298 41 309 55 319 69 325 91 326 122H394C391 74 378 40 355 19 332-2 297-13 250-13 198-13 161-1 140 21 118 43 108 82 108 137V467Z"/>
</g>
<g id="font_2_101">
<path transform="matrix(.001,0,0,.001,0,0)" d="M542 250H155V246C155 176 168 123 194 87 220 51 259 34 311 34 350 34 382 44 408 65 433 85 451 116 461 157H533C519 100 492 57 454 29 415 1 364-13 302-13 226-13 165 11 119 61 73 111 50 177 50 260 50 342 72 408 118 458 163 508 222 533 296 533 374 533 435 508 477 460 519 412 540 342 542 250ZM436 302C434 362 421 408 397 439 373 469 340 485 296 485 254 485 222 469 198 438 174 407 160 362 155 302H436Z"/>
</g>
<g id="font_2_67">
<path transform="matrix(.001,0,0,.001,0,0)" d="M705 193C683 125 647 73 597 39 546 4 482-13 405-13 357-13 312-5 272 11 231 27 195 50 164 82 127 118 100 160 82 206 64 252 56 305 56 364 56 477 88 568 154 638 219 707 305 742 413 742 453 742 495 736 540 726 584 716 633 700 685 679V511H630C618 572 593 617 557 646 521 675 470 690 405 690 327 690 268 662 228 607 188 551 168 470 168 364 168 257 188 176 228 121 268 65 327 38 405 38 459 38 503 51 539 77 574 103 599 141 615 193H705Z"/>
</g>
<g id="font_2_97">
<path transform="matrix(.001,0,0,.001,0,0)" d="M398 163V273H282C237 273 204 263 182 244 160 224 150 195 150 156 150 120 161 91 183 70 205 48 235 38 273 38 310 38 340 49 363 72 386 95 398 125 398 163ZM488 324V52H568V0H398V56C378 32 355 14 329 3 303-7 272-13 238-13 180-13 134 2 100 32 66 62 50 104 50 156 50 209 69 250 108 280 146 310 201 325 272 325H398V361C398 400 386 430 362 452 338 474 304 485 261 485 225 485 197 476 176 460 154 444 141 420 136 388H90V493C121 506 151 516 181 523 210 529 239 533 267 533 339 533 393 515 431 479 469 443 488 392 488 324Z"/>
</g>
<g id="font_2_104">
<path transform="matrix(.001,0,0,.001,0,0)" d="M41 0V52H122V708H36V760H212V427C228 461 250 488 276 506 302 524 333 533 369 533 426 533 468 516 495 484 522 451 536 400 536 330V52H616V0H368V52H446V302C446 365 438 408 422 432 406 455 379 467 340 467 298 467 266 451 244 421 222 391 212 347 212 289V52H290V0H41Z"/>
</g>
<clipPath id="clip_10">
<path transform="matrix(1,0,0,-1,0,423.39189)" d="M49.075 39.496877H703.94V400.3169H49.075Z"/>
</clipPath>
<clipPath id="clip_11">
<path transform="matrix(1,0,0,-1,0,423.39189)" d="M49.075 39.496877H703.94V400.3169H49.075Z"/>
</clipPath>
<clipPath id="clip_12">
<path transform="matrix(1,0,0,-1,0,423.39189)" d="M49.075 39.496877H703.94V400.3169H49.075Z"/>
</clipPath>
<clipPath id="clip_13">
<path transform="matrix(1,0,0,-1,0,423.39189)" d="M49.075 39.496877H703.94V400.3169H49.075Z"/>
</clipPath>
<clipPath id="clip_14">
<path transform="matrix(1,0,0,-1,0,423.39189)" d="M49.075 39.496877H703.94V400.3169H49.075Z"/>
</clipPath>
<g id="font_2_56">
<path transform="matrix(.001,0,0,.001,0,0)" d="M466 199C466 251 453 291 427 320 401 349 364 364 318 364 271 364 235 349 209 320 183 291 170 251 170 199 170 147 183 106 209 77 235 48 271 34 318 34 364 34 401 48 427 77 453 106 466 147 466 199ZM446 553C446 597 434 632 412 657 389 681 358 694 318 694 278 694 246 681 224 657 201 632 190 597 190 553 190 508 201 473 224 449 246 424 278 412 318 412 358 412 389 424 412 449 434 473 446 508 446 553ZM393 388C448 380 491 360 522 327 553 293 569 251 569 199 569 131 547 78 504 42 460 5 398-13 318-13 237-13 175 5 132 42 88 78 67 131 67 199 67 251 82 293 113 327 144 360 187 380 243 388 193 396 156 415 130 444 104 472 91 509 91 553 91 611 111 657 151 691 191 725 247 742 318 742 388 742 444 725 484 691 524 657 545 611 545 553 545 509 531 472 505 444 479 415 441 396 393 388Z"/>
</g>
<clipPath id="clip_15">
<path transform="matrix(1,0,0,-1,0,423.39189)" d="M49.075 39.496877H703.94V400.3169H49.075Z"/>
</clipPath>
<g id="font_2_98">
<path transform="matrix(.001,0,0,.001,0,0)" d="M115 52V708H29V760H205V438C222 470 244 494 272 510 299 525 333 533 373 533 437 533 489 507 529 457 569 407 590 341 590 260 590 178 569 112 529 62 489 12 437-13 373-13 333-13 299-5 272 9 244 24 222 48 205 81V0H29V52H115ZM205 234C205 171 217 123 241 91 265 58 299 42 345 42 391 42 425 60 449 97 473 133 485 188 485 260 485 332 473 386 449 422 425 458 391 477 345 477 299 477 265 460 241 427 217 394 205 347 205 285V234Z"/>
</g>
<g id="font_2_100">
<path transform="matrix(.001,0,0,.001,0,0)" d="M525 52H611V0H435V81C417 48 395 24 368 9 340-5 307-13 267-13 203-13 150 12 110 62 70 112 50 178 50 260 50 341 70 407 110 457 150 507 203 533 267 533 307 533 340 525 368 510 395 494 417 470 435 438V708H350V760H525V52ZM435 234V285C435 347 423 394 399 427 375 460 340 477 295 477 249 477 214 458 190 422 166 386 155 332 155 260 155 188 166 133 190 97 214 60 249 42 295 42 340 42 375 58 399 91 423 123 435 171 435 234Z"/>
</g>
<g id="font_2_121">
<path transform="matrix(.001,0,0,.001,0,0)" d="M216-94 250-8 56 467H-2V519H236V467H153L299 110 445 467H367V519H562V467H504L266-116C250-156 232-184 212-199 192-213 164-221 128-221 112-221 97-219 81-217 65-214 48-210 32-206V-107H78C80-129 85-144 95-154 104-164 118-169 138-169 156-169 170-164 181-154 192-144 204-124 216-94Z"/>
</g>
<g id="font_2_79">
<path transform="matrix(.001,0,0,.001,0,0)" d="M410 38C490 38 550 65 591 120 631 175 652 256 652 364 652 471 631 552 591 607 550 662 490 690 410 690 330 690 269 662 229 607 188 552 168 471 168 364 168 256 188 175 229 120 269 65 330 38 410 38ZM410-13C360-13 315-5 273 11 231 27 195 50 164 82 127 118 100 160 82 206 64 252 56 304 56 363 56 422 64 475 82 521 100 567 127 609 164 646 196 678 232 702 273 718 314 734 360 742 410 742 516 742 601 707 666 638 731 568 764 477 764 364 764 305 755 252 737 206 719 159 692 118 656 82 624 50 587 26 546 10 505-5 460-13 410-13Z"/>
</g>
<g id="font_2_99">
<path transform="matrix(.001,0,0,.001,0,0)" d="M514 156C501 100 477 58 441 30 405 1 358-13 301-13 225-13 165 11 119 61 73 111 50 177 50 260 50 342 73 408 119 458 165 508 225 533 301 533 333 533 366 529 399 521 431 513 464 502 497 487V354H445C438 399 423 432 400 453 377 474 344 485 302 485 253 485 216 466 192 428 167 390 155 334 155 259 155 184 167 128 192 90 216 52 253 34 302 34 340 34 371 44 394 64 417 84 433 115 442 156H514Z"/>
</g>
<g id="font_2_108">
<path transform="matrix(.001,0,0,.001,0,0)" d="M205 52H290V0H29V52H115V708H29V760H205V52Z"/>
</g>
<g id="font_2_40">
<path transform="matrix(.001,0,0,.001,0,0)" d="M319-155C239-119 179-63 139 13 99 89 79 186 79 302 79 418 99 514 139 591 179 668 239 724 319 760V712C269 677 233 628 211 566 189 503 178 415 178 302 178 188 189 100 211 38 233-24 269-72 319-107V-155Z"/>
</g>
<g id="font_2_37">
<path transform="matrix(.001,0,0,.001,0,0)" d="M224 697C195 697 173 683 157 656 141 629 133 591 133 543 133 495 141 457 157 430 173 402 196 389 224 389 252 389 274 402 290 430 306 457 314 495 314 543 314 591 306 628 290 656 274 683 252 697 224 697ZM727 339C699 339 676 325 660 298 644 270 636 232 636 184 636 136 644 98 660 71 676 44 699 31 727 31 755 31 777 44 793 71 809 98 817 136 817 184 817 232 809 269 793 297 777 325 755 339 727 339ZM727 383C778 383 819 365 849 329 879 293 895 244 895 184 895 123 879 75 849 40 819 4 778-13 727-13 675-13 633 4 603 40 573 75 558 123 558 184 558 245 573 293 603 329 633 365 675 383 727 383ZM666 742H740L284-13H210L666 742ZM223 742C274 742 315 724 346 688 376 652 392 604 392 544 392 482 376 434 346 398 316 362 275 345 223 345 171 345 130 362 100 398 70 434 55 482 55 544 55 604 70 652 100 688 130 724 171 742 223 742Z"/>
</g>
<g id="font_2_41">
<path transform="matrix(.001,0,0,.001,0,0)" d="M71-155V-107C121-72 157-24 179 38 201 100 212 188 212 302 212 415 201 503 179 566 157 628 121 677 71 712V760C150 724 210 668 250 591 290 514 311 418 311 302 311 186 290 89 250 13 210-63 150-119 71-155Z"/>
</g>
<clipPath id="clip_16">
<path transform="matrix(1,0,0,-1,0,423.39189)" d="M49.075 39.496877H703.94V400.3169H49.075Z"/>
</clipPath>
<clipPath id="clip_17">
<path transform="matrix(1,0,0,-1,0,423.39189)" d="M49.075 39.496877H703.94V400.3169H49.075Z"/>
</clipPath>
<clipPath id="clip_18">
<path transform="matrix(1,0,0,-1,0,423.39189)" d="M49.075 39.496877H703.94V400.3169H49.075Z"/>
</clipPath>
<clipPath id="clip_19">
<path transform="matrix(1,0,0,-1,0,423.39189)" d="M49.075 39.496877H703.94V400.3169H49.075Z"/>
</clipPath>
<clipPath id="clip_20">
<path transform="matrix(1,0,0,-1,0,423.39189)" d="M49.075 39.496877H703.94V400.3169H49.075Z"/>
</clipPath>
<clipPath id="clip_21">
<path transform="matrix(1,0,0,-1,0,423.39189)" d="M49.075 39.496877H703.94V400.3169H49.075Z"/>
</clipPath>
<g id="font_2_110">
<path transform="matrix(.001,0,0,.001,0,0)" d="M41 0V52H122V467H36V519H212V427C228 461 250 488 276 506 302 524 333 533 369 533 426 533 468 516 495 484 522 451 536 400 536 330V52H616V0H368V52H446V302C446 365 438 408 422 432 406 456 379 468 340 468 298 468 266 452 244 422 222 391 212 347 212 289V52H290V0H41Z"/>
</g>
<g id="font_2_118">
<path transform="matrix(.001,0,0,.001,0,0)" d="M247 0 56 467H-2V519H236V467H153L299 110 445 467H367V519H562V467H504L313 0H247Z"/>
</g>
<g id="font_2_103">
<path transform="matrix(.001,0,0,.001,0,0)" d="M525 467V11C525-63 504-120 463-160 422-200 364-221 288-221 254-221 221-218 190-212 158-206 128-196 100-184V-75H147C153-109 166-133 188-149 210-165 241-173 282-173 334-173 373-158 398-128 422-98 435-51 435 11V81C417 48 395 24 368 9 340-5 307-13 267-13 203-13 150 12 110 62 70 112 50 178 50 260 50 341 70 407 110 457 150 507 203 533 267 533 307 533 340 525 368 510 395 494 417 470 435 438V519H611V467H525ZM435 285C435 347 423 394 399 427 375 460 340 477 295 477 249 477 214 458 190 422 166 386 155 332 155 260 155 188 166 133 190 97 214 60 249 42 295 42 340 42 375 58 399 91 423 123 435 171 435 234V285Z"/>
</g>
<g id="font_2_68">
<path transform="matrix(.001,0,0,.001,0,0)" d="M247 52H338C432 52 505 79 556 133 606 187 632 264 632 365 632 466 606 543 556 597 505 650 432 677 338 677H247V52ZM55 0V52H148V677H55V729H345C471 729 569 697 639 633 709 569 744 479 744 365 744 250 708 160 638 96 568 32 470 0 345 0H55Z"/>
</g>
<g id="font_2_69">
<path transform="matrix(.001,0,0,.001,0,0)" d="M55 0V52H148V677H55V729H642V567H582V669H247V425H486V516H546V274H486V365H247V60H590V162H650V0H55Z"/>
</g>
<g id="font_2_89">
<path transform="matrix(.001,0,0,.001,0,0)" d="M189 0V52H282V314L57 677H-10V729H260V677H175L357 382 539 677H457V729H669V677H600L381 323V52H474V0H189Z"/>
</g>
<g id="font_2_95">
<path transform="matrix(.001,0,0,.001,0,0)" d="M500-196V-235H0V-196H500Z"/>
</g>
<g id="font_2_76">
<path transform="matrix(.001,0,0,.001,0,0)" d="M55 0V52H148V677H55V729H340V677H247V60H580V182H640V0H55Z"/>
</g>
<g id="font_2_44">
<path transform="matrix(.001,0,0,.001,0,0)" d="M36-96C66-73 89-47 103-17 117 13 125 49 125 93V111H221C218 55 205 7 181-32 157-71 122-105 75-135L36-96Z"/>
</g>
</defs>
<path transform="matrix(1,0,0,-1,0,423.39189)" d="M0 0H711.14V423.39189H0Z" fill="none"/>
<path transform="matrix(1,0,0,-1,0,423.39189)" d="M49.075 39.496877H703.94V400.31687H49.075Z" fill="none"/>
<g clip-path="url(#clip_1)">
<path transform="matrix(1,0,0,-1,0,423.39189)" stroke-width=".5" stroke-linecap="square" stroke-linejoin="round" fill="none" stroke="#b0b0b0" stroke-opacity=".3" d="M49.075 39.496877V400.31687"/>
</g>
<path transform="matrix(1,0,0,-1,0,423.39189)" d="M49.075 39.496877V35.996877"/>
<path transform="matrix(1,0,0,-1,0,423.39189)" stroke-width=".8" stroke-linecap="butt" stroke-linejoin="round" fill="none" stroke="#000000" d="M49.075 39.496877V35.996877"/>
<use data-text="0" xlink:href="#font_2_48" transform="matrix(10,0,0,-10,45.895315,398.48875)"/>
<g clip-path="url(#clip_3)">
<path transform="matrix(1,0,0,-1,0,423.39189)" stroke-width=".5" stroke-linecap="square" stroke-linejoin="round" fill="none" stroke="#b0b0b0" stroke-opacity=".3" d="M140.02848 39.496877V400.31687"/>
</g>
<path transform="matrix(1,0,0,-1,0,423.39189)" d="M140.02848 39.496877V35.996877"/>
<path transform="matrix(1,0,0,-1,0,423.39189)" stroke-width=".8" stroke-linecap="butt" stroke-linejoin="round" fill="none" stroke="#000000" d="M140.02848 39.496877V35.996877"/>
<use data-text="1" xlink:href="#font_2_49" transform="matrix(10,0,0,-10,133.6691,398.48875)"/>
<use data-text="0" xlink:href="#font_2_48" transform="matrix(10,0,0,-10,140.0291,398.48875)"/>
<g clip-path="url(#clip_4)">
<path transform="matrix(1,0,0,-1,0,423.39189)" stroke-width=".5" stroke-linecap="square" stroke-linejoin="round" fill="none" stroke="#b0b0b0" stroke-opacity=".3" d="M230.98195 39.496877V400.31687"/>
</g>
<path transform="matrix(1,0,0,-1,0,423.39189)" d="M230.98195 39.496877V35.996877"/>
<path transform="matrix(1,0,0,-1,0,423.39189)" stroke-width=".8" stroke-linecap="butt" stroke-linejoin="round" fill="none" stroke="#000000" d="M230.98195 39.496877V35.996877"/>
<use data-text="2" xlink:href="#font_2_50" transform="matrix(10,0,0,-10,224.62258,398.48875)"/>
<use data-text="0" xlink:href="#font_2_48" transform="matrix(10,0,0,-10,230.98258,398.48875)"/>
<g clip-path="url(#clip_5)">
<path transform="matrix(1,0,0,-1,0,423.39189)" stroke-width=".5" stroke-linecap="square" stroke-linejoin="round" fill="none" stroke="#b0b0b0" stroke-opacity=".3" d="M321.93544 39.496877V400.31687"/>
</g>
<path transform="matrix(1,0,0,-1,0,423.39189)" d="M321.93544 39.496877V35.996877"/>
<path transform="matrix(1,0,0,-1,0,423.39189)" stroke-width=".8" stroke-linecap="butt" stroke-linejoin="round" fill="none" stroke="#000000" d="M321.93544 39.496877V35.996877"/>
<use data-text="3" xlink:href="#font_2_51" transform="matrix(10,0,0,-10,315.57606,398.48875)"/>
<use data-text="0" xlink:href="#font_2_48" transform="matrix(10,0,0,-10,321.93605,398.48875)"/>
<g clip-path="url(#clip_6)">
<path transform="matrix(1,0,0,-1,0,423.39189)" stroke-width=".5" stroke-linecap="square" stroke-linejoin="round" fill="none" stroke="#b0b0b0" stroke-opacity=".3" d="M412.8889 39.496877V400.31687"/>
</g>
<path transform="matrix(1,0,0,-1,0,423.39189)" d="M412.8889 39.496877V35.996877"/>
<path transform="matrix(1,0,0,-1,0,423.39189)" stroke-width=".8" stroke-linecap="butt" stroke-linejoin="round" fill="none" stroke="#000000" d="M412.8889 39.496877V35.996877"/>
<use data-text="4" xlink:href="#font_2_52" transform="matrix(10,0,0,-10,406.5295,398.48875)"/>
<use data-text="0" xlink:href="#font_2_48" transform="matrix(10,0,0,-10,412.88954,398.48875)"/>
<g clip-path="url(#clip_7)">
<path transform="matrix(1,0,0,-1,0,423.39189)" stroke-width=".5" stroke-linecap="square" stroke-linejoin="round" fill="none" stroke="#b0b0b0" stroke-opacity=".3" d="M503.84236 39.496877V400.31687"/>
</g>
<path transform="matrix(1,0,0,-1,0,423.39189)" d="M503.84236 39.496877V35.996877"/>
<path transform="matrix(1,0,0,-1,0,423.39189)" stroke-width=".8" stroke-linecap="butt" stroke-linejoin="round" fill="none" stroke="#000000" d="M503.84236 39.496877V35.996877"/>
<use data-text="5" xlink:href="#font_2_53" transform="matrix(10,0,0,-10,497.48298,398.48875)"/>
<use data-text="0" xlink:href="#font_2_48" transform="matrix(10,0,0,-10,503.84297,398.48875)"/>
<g clip-path="url(#clip_8)">
<path transform="matrix(1,0,0,-1,0,423.39189)" stroke-width=".5" stroke-linecap="square" stroke-linejoin="round" fill="none" stroke="#b0b0b0" stroke-opacity=".3" d="M594.79586 39.496877V400.31687"/>
</g>
<path transform="matrix(1,0,0,-1,0,423.39189)" d="M594.79586 39.496877V35.996877"/>
<path transform="matrix(1,0,0,-1,0,423.39189)" stroke-width=".8" stroke-linecap="butt" stroke-linejoin="round" fill="none" stroke="#000000" d="M594.79586 39.496877V35.996877"/>
<use data-text="6" xlink:href="#font_2_54" transform="matrix(10,0,0,-10,588.43649,398.48875)"/>
<use data-text="0" xlink:href="#font_2_48" transform="matrix(10,0,0,-10,594.79647,398.48875)"/>
<g clip-path="url(#clip_9)">
<path transform="matrix(1,0,0,-1,0,423.39189)" stroke-width=".5" stroke-linecap="square" stroke-linejoin="round" fill="none" stroke="#b0b0b0" stroke-opacity=".3" d="M685.7493 39.496877V400.31687"/>
</g>
<path transform="matrix(1,0,0,-1,0,423.39189)" d="M685.7493 39.496877V35.996877"/>
<path transform="matrix(1,0,0,-1,0,423.39189)" stroke-width=".8" stroke-linecap="butt" stroke-linejoin="round" fill="none" stroke="#000000" d="M685.7493 39.496877V35.996877"/>
<use data-text="7" xlink:href="#font_2_55" transform="matrix(10,0,0,-10,679.38998,398.48875)"/>
<use data-text="0" xlink:href="#font_2_48" transform="matrix(10,0,0,-10,685.74996,398.48875)"/>
<use data-text="H" xlink:href="#font_2_72" transform="matrix(12,0,0,-12,320.78877,413.69187)"/>
<use data-text="o" xlink:href="#font_2_111" transform="matrix(12,0,0,-12,331.25276,413.69187)"/>
<use data-text="u" xlink:href="#font_2_117" transform="matrix(12,0,0,-12,338.47676,413.69187)"/>
<use data-text="r" xlink:href="#font_2_114" transform="matrix(12,0,0,-12,346.20478,413.69187)"/>
<use data-text="s" xlink:href="#font_2_115" transform="matrix(12,0,0,-12,351.94078,413.69187)"/>
<use data-text=" " xlink:href="#font_2_32" transform="matrix(12,0,0,-12,358.09678,413.69187)"/>
<use data-text="A" xlink:href="#font_2_65" transform="matrix(12,0,0,-12,361.91276,413.69187)"/>
<use data-text="f" xlink:href="#font_2_102" transform="matrix(12,0,0,-12,370.37364,413.69187)"/>
<use data-text="t" xlink:href="#font_2_116" transform="matrix(12,0,0,-12,374.81364,413.69187)"/>
<use data-text="e" xlink:href="#font_2_101" transform="matrix(12,0,0,-12,379.63764,413.69187)"/>
<use data-text="r" xlink:href="#font_2_114" transform="matrix(12,0,0,-12,386.74165,413.69187)"/>
<use data-text=" " xlink:href="#font_2_32" transform="matrix(12,0,0,-12,392.47764,413.69187)"/>
<use data-text="C" xlink:href="#font_2_67" transform="matrix(12,0,0,-12,396.29365,413.69187)"/>
<use data-text="r" xlink:href="#font_2_114" transform="matrix(12,0,0,-12,405.47364,413.69187)"/>
<use data-text="a" xlink:href="#font_2_97" transform="matrix(12,0,0,-12,411.20967,413.69187)"/>
<use data-text="s" xlink:href="#font_2_115" transform="matrix(12,0,0,-12,418.36164,413.69187)"/>
<use data-text="h" xlink:href="#font_2_104" transform="matrix(12,0,0,-12,424.51765,413.69187)"/>
<g clip-path="url(#clip_10)">
<path transform="matrix(1,0,0,-1,0,423.39189)" stroke-width=".5" stroke-linecap="square" stroke-linejoin="round" fill="none" stroke="#b0b0b0" stroke-opacity=".3" d="M49.075 55.897787H703.94"/>
</g>
<path transform="matrix(1,0,0,-1,0,423.39189)" d="M49.075 55.897787H45.575"/>
<path transform="matrix(1,0,0,-1,0,423.39189)" stroke-width=".8" stroke-linecap="butt" stroke-linejoin="round" fill="none" stroke="#000000" d="M49.075 55.897787H45.575"/>
<use data-text="0" xlink:href="#font_2_48" transform="matrix(10,0,0,-10,35.715627,371.29096)"/>
<g clip-path="url(#clip_11)">
<path transform="matrix(1,0,0,-1,0,423.39189)" stroke-width=".5" stroke-linecap="square" stroke-linejoin="round" fill="none" stroke="#b0b0b0" stroke-opacity=".3" d="M49.075 122.072338H703.94"/>
</g>
<path transform="matrix(1,0,0,-1,0,423.39189)" d="M49.075 122.072338H45.575"/>
<path transform="matrix(1,0,0,-1,0,423.39189)" stroke-width=".8" stroke-linecap="butt" stroke-linejoin="round" fill="none" stroke="#000000" d="M49.075 122.072338H45.575"/>
<use data-text="2" xlink:href="#font_2_50" transform="matrix(10,0,0,-10,29.35625,305.11643)"/>
<use data-text="0" xlink:href="#font_2_48" transform="matrix(10,0,0,-10,35.71625,305.11643)"/>
<g clip-path="url(#clip_12)">
<path transform="matrix(1,0,0,-1,0,423.39189)" stroke-width=".5" stroke-linecap="square" stroke-linejoin="round" fill="none" stroke="#b0b0b0" stroke-opacity=".3" d="M49.075 188.24689H703.94"/>
</g>
<path transform="matrix(1,0,0,-1,0,423.39189)" d="M49.075 188.24689H45.575"/>
<path transform="matrix(1,0,0,-1,0,423.39189)" stroke-width=".8" stroke-linecap="butt" stroke-linejoin="round" fill="none" stroke="#000000" d="M49.075 188.24689H45.575"/>
<use data-text="4" xlink:href="#font_2_52" transform="matrix(10,0,0,-10,29.35625,238.94187)"/>
<use data-text="0" xlink:href="#font_2_48" transform="matrix(10,0,0,-10,35.71625,238.94187)"/>
<g clip-path="url(#clip_13)">
<path transform="matrix(1,0,0,-1,0,423.39189)" stroke-width=".5" stroke-linecap="square" stroke-linejoin="round" fill="none" stroke="#b0b0b0" stroke-opacity=".3" d="M49.075 254.42144H703.94"/>
</g>
<path transform="matrix(1,0,0,-1,0,423.39189)" d="M49.075 254.42144H45.575"/>
<path transform="matrix(1,0,0,-1,0,423.39189)" stroke-width=".8" stroke-linecap="butt" stroke-linejoin="round" fill="none" stroke="#000000" d="M49.075 254.42144H45.575"/>
<use data-text="6" xlink:href="#font_2_54" transform="matrix(10,0,0,-10,29.35625,172.76732)"/>
<use data-text="0" xlink:href="#font_2_48" transform="matrix(10,0,0,-10,35.71625,172.76732)"/>
<g clip-path="url(#clip_14)">
<path transform="matrix(1,0,0,-1,0,423.39189)" stroke-width=".5" stroke-linecap="square" stroke-linejoin="round" fill="none" stroke="#b0b0b0" stroke-opacity=".3" d="M49.075 320.59599H703.94"/>
</g>
<path transform="matrix(1,0,0,-1,0,423.39189)" d="M49.075 320.59599H45.575"/>
<path transform="matrix(1,0,0,-1,0,423.39189)" stroke-width=".8" stroke-linecap="butt" stroke-linejoin="round" fill="none" stroke="#000000" d="M49.075 320.59599H45.575"/>
<use data-text="8" xlink:href="#font_2_56" transform="matrix(10,0,0,-10,29.35625,106.59277)"/>
<use data-text="0" xlink:href="#font_2_48" transform="matrix(10,0,0,-10,35.71625,106.59277)"/>
<g clip-path="url(#clip_15)">
<path transform="matrix(1,0,0,-1,0,423.39189)" stroke-width=".5" stroke-linecap="square" stroke-linejoin="round" fill="none" stroke="#b0b0b0" stroke-opacity=".3" d="M49.075 386.77055H703.94"/>
</g>
<path transform="matrix(1,0,0,-1,0,423.39189)" d="M49.075 386.77055H45.575"/>
<path transform="matrix(1,0,0,-1,0,423.39189)" stroke-width=".8" stroke-linecap="butt" stroke-linejoin="round" fill="none" stroke="#000000" d="M49.075 386.77055H45.575"/>
<use data-text="1" xlink:href="#font_2_49" transform="matrix(10,0,0,-10,22.996876,40.418214)"/>
<use data-text="0" xlink:href="#font_2_48" transform="matrix(10,0,0,-10,29.356877,40.418214)"/>
<use data-text="0" xlink:href="#font_2_48" transform="matrix(10,0,0,-10,35.716878,40.418214)"/>
<use data-text="C" xlink:href="#font_2_67" transform="matrix(0,-12,-12,-0,16.325,295.89906)"/>
<use data-text="r" xlink:href="#font_2_114" transform="matrix(0,-12,-12,-0,16.325,286.71907)"/>
<use data-text="a" xlink:href="#font_2_97" transform="matrix(0,-12,-12,-0,16.325,280.98304)"/>
<use data-text="s" xlink:href="#font_2_115" transform="matrix(0,-12,-12,-0,16.325,273.83106)"/>
<use data-text="h" xlink:href="#font_2_104" transform="matrix(0,-12,-12,-0,16.325,267.67506)"/>
<use data-text=" " xlink:href="#font_2_32" transform="matrix(0,-12,-12,-0,16.325,259.94706)"/>
<use data-text="A" xlink:href="#font_2_65" transform="matrix(0,-12,-12,-0,16.325,256.13105)"/>
<use data-text="b" xlink:href="#font_2_98" transform="matrix(0,-12,-12,-0,16.325,247.46704)"/>
<use data-text="s" xlink:href="#font_2_115" transform="matrix(0,-12,-12,-0,16.325,239.78705)"/>
<use data-text="o" xlink:href="#font_2_111" transform="matrix(0,-12,-12,-0,16.325,233.63105)"/>
<use data-text="r" xlink:href="#font_2_114" transform="matrix(0,-12,-12,-0,16.325,226.40705)"/>
<use data-text="b" xlink:href="#font_2_98" transform="matrix(0,-12,-12,-0,16.325,220.67105)"/>
<use data-text="e" xlink:href="#font_2_101" transform="matrix(0,-12,-12,-0,16.325,212.99105)"/>
<use data-text="d" xlink:href="#font_2_100" transform="matrix(0,-12,-12,-0,16.325,205.88704)"/>
<use data-text=" " xlink:href="#font_2_32" transform="matrix(0,-12,-12,-0,16.325,198.20703)"/>
<use data-text="b" xlink:href="#font_2_98" transform="matrix(0,-12,-12,-0,16.325,194.39104)"/>
<use data-text="y" xlink:href="#font_2_121" transform="matrix(0,-12,-12,-0,16.325,186.71103)"/>
<use data-text=" " xlink:href="#font_2_32" transform="matrix(0,-12,-12,-0,16.325,179.93103)"/>
<use data-text="O" xlink:href="#font_2_79" transform="matrix(0,-12,-12,-0,16.325,176.11504)"/>
<use data-text="r" xlink:href="#font_2_114" transform="matrix(0,-12,-12,-0,16.325,166.27504)"/>
<use data-text="a" xlink:href="#font_2_97" transform="matrix(0,-12,-12,-0,16.325,160.53903)"/>
<use data-text="c" xlink:href="#font_2_99" transform="matrix(0,-12,-12,-0,16.325,153.38703)"/>
<use data-text="l" xlink:href="#font_2_108" transform="matrix(0,-12,-12,-0,16.325,146.66703)"/>
<use data-text="e" xlink:href="#font_2_101" transform="matrix(0,-12,-12,-0,16.325,142.82703)"/>
<use data-text=" " xlink:href="#font_2_32" transform="matrix(0,-12,-12,-0,16.325,135.72303)"/>
<use data-text="(" xlink:href="#font_2_40" transform="matrix(0,-12,-12,-0,16.325,131.90703)"/>
<use data-text="%" xlink:href="#font_2_37" transform="matrix(0,-12,-12,-0,16.325,127.22702)"/>
<use data-text=")" xlink:href="#font_2_41" transform="matrix(0,-12,-12,-0,16.325,115.82703)"/>
<g clip-path="url(#clip_16)">
<path transform="matrix(1,0,0,-1,0,423.39189)" stroke-width="1.5" stroke-linecap="square" stroke-linejoin="round" fill="none" stroke="#2563eb" d="M49.075 55.897787H58.170347L67.26569 76.48797 76.36104 95.68737 85.45639 113.602169 94.551738 130.32909 103.64708 145.9564 112.74243 160.56479 121.837779 174.22812 130.93312 187.01404 140.02848 198.98468 149.12383 210.19716 158.21916 220.704 167.31452 230.55362 176.40987 239.79067 185.5052 248.45636 194.60056 256.58885 203.6959 264.22337 212.79125 271.3926 221.8866 278.1269 230.98195 284.45426 240.07729 290.40086 249.17264 295.99095 258.26799 301.2471 267.36335 306.1903 276.45869 310.84019 285.55403 315.21498 294.64939 319.33164 303.74473 323.20613 312.84007 326.85325 321.93544 330.28688 331.03077 333.52 340.1261 336.56468 349.22148 339.43229 358.3168 342.13349 367.41215 344.67817 376.5075 347.0757 385.60285 349.3348 394.69819 351.46369 403.79356 353.47004 412.8889 355.36106 421.98423 357.1435 431.0796 358.82377 440.17494 360.4078 449.27027 361.90126 458.36564 363.30937 467.46098 364.6371 476.5563 365.8891 485.65168 367.06977 494.747 368.1832 503.84236 369.2333 512.9377 370.22373 522.0331 371.15788 531.1284 372.039 540.22378 372.87016 549.3191 373.65419 558.4144 374.39378 567.50979 375.0915 576.60519 375.7497 585.7005 376.37068 594.79586 376.95655 603.8912 377.50929 612.9865 378.0308 622.08187 378.52284 631.17727 378.9871 640.2726 379.42518 649.3679 379.8385 658.46328 380.22853 667.5586 380.59657 676.65396 380.94386 685.7493 381.27156 694.84469 381.58079 703.94 381.8726"/>
</g>
<g clip-path="url(#clip_17)">
<path transform="matrix(1,0,0,-1,0,423.39189)" stroke-width="1.5" stroke-linecap="square" stroke-linejoin="round" fill="none" stroke="#dc2626" d="M49.075 55.897787H58.170347L67.26569 77.75699 76.36104 97.99173 85.45639 116.7432 94.551738 134.13806 103.64708 150.29015 112.74243 165.30207 121.837779 179.26636 130.93312 192.26679 140.02848 204.37924 149.12383 215.67259 158.21916 226.20948 167.31452 236.04694 176.40987 245.23706 185.5052 253.82741 194.60056 261.86149 203.6959 269.3792 212.79125 276.4172 221.8866 283.00907 230.98195 289.18577 240.07729 294.97584 249.17264 300.40556 258.26799 305.49925 267.36335 310.27928 276.45869 314.76649 285.55403 318.98008 294.64939 322.93785 303.74473 326.6564 312.84007 330.15107 321.93544 333.43614 331.03077 336.52485 340.1261 339.42964 349.22148 342.16197 358.3168 344.73255 367.41215 347.15147 376.5075 349.428 385.60285 351.57096 394.69819 353.58839 403.79356 355.48799 412.8889 357.27684 421.98423 358.96165 431.0796 360.54866 440.17494 362.04368 449.27027 363.45225 458.36564 364.77946 467.46098 366.03016 476.5563 367.20884 485.65168 368.31977 494.747 369.3669 503.84236 370.354 512.9377 371.28459 522.0331 372.1619 531.1284 372.9891 540.22378 373.76908 549.3191 374.50456 558.4144 375.19813 567.50979 375.8522 576.60519 376.46907 585.7005 377.05088 594.79586 377.5996 603.8912 378.11723 612.9865 378.60545 622.08187 379.066 631.17727 379.50047 640.2726 379.9103 649.3679 380.29695 658.46328 380.6617 667.5586 381.00587 676.65396 381.33055 685.7493 381.63688 694.84469 381.9259 703.94 382.1986"/>
</g>
<g clip-path="url(#clip_18)">
<path transform="matrix(1,0,0,-1,0,423.39189)" stroke-width="1.5" stroke-linecap="square" stroke-linejoin="round" fill="none" stroke="#16a34a" d="M49.075 55.897787H58.170347L67.26569 79.27671 76.36104 100.73698 85.45639 120.46688 94.551738 138.63275 103.64708 155.38191 112.74243 170.84516 121.837779 185.13895 130.93312 198.36724 140.02848 210.62297 149.12383 221.98955 158.21916 232.54186 167.31452 242.34734 176.40987 251.46686 185.5052 259.9554 194.60056 267.86289 203.6959 275.23448 212.79125 282.11125 221.8866 288.5307 230.98195 294.52693 240.07729 300.1311 249.17264 305.3718 258.26799 310.27513 267.36335 314.86506 276.45869 319.16365 285.55403 323.1911 294.64939 326.96617 303.74473 330.50596 312.84007 333.82643 321.93544 336.94224 331.03077 339.8669 340.1261 342.6131 349.22148 345.1924 358.3168 347.61567 367.41215 349.8929 376.5075 352.03346 385.60285 354.04597 394.69819 355.9385 403.79356 357.71864 412.8889 359.39335 421.98423 360.96916 431.0796 362.45219 440.17494 363.84809 449.27027 365.16224 458.36564 366.39955 467.46098 367.56474 476.5563 368.66209 485.65168 369.6957 494.747 370.66944 503.84236 371.5868 512.9377 372.45118 522.0331 373.2657 531.1284 374.0333 540.22378 374.75675 549.3191 375.4387 558.4144 376.08149 567.50979 376.68748 576.60519 377.2588 585.7005 377.79743 594.79586 378.30534 603.8912 378.78425 612.9865 379.23588 622.08187 379.66178 631.17727 380.06346 640.2726 380.44227 649.3679 380.79957 658.46328 381.1366 667.5586 381.4545 676.65396 381.75437 685.7493 382.03724 694.84469 382.30409 703.94 382.55583"/>
</g>
<g clip-path="url(#clip_19)">
<path transform="matrix(1,0,0,-1,0,423.39189)" stroke-width="1.5" stroke-linecap="square" stroke-linejoin="round" fill="none" stroke="#f59e0b" d="M49.075 55.897787H58.170347L67.26569 81.147579 76.36104 104.09572 85.45639 124.996349 94.551738 144.07033 103.64708 161.51026 112.74243 177.48462 121.837779 192.14124 130.93312 205.61022 140.02848 218.0064 149.12383 229.43138 158.21916 239.97536 167.31452 249.71855 176.40987 258.73255 185.5052 267.08125 194.60056 274.82197 203.6959 282.00624 212.79125 288.68028 221.8866 294.88594 230.98195 300.66093 240.07729 306.03938 249.17264 311.0523 258.26799 315.72785 267.36335 320.09165 276.45869 324.16706 285.55403 327.9754 294.64939 331.53617 303.74473 334.86726 312.84007 337.985 321.93544 340.90443 331.03077 343.63945 340.1261 346.2027 349.22148 348.606 358.3168 350.86015 367.41215 352.97514 376.5075 354.96025 385.60285 356.824 394.69819 358.57438 403.79356 360.21873 412.8889 361.76387 421.98423 363.21617 431.0796 364.5815 440.17494 365.8654 449.27027 367.07295 458.36564 368.20893 467.46098 369.27775 476.5563 370.2836 485.65168 371.23033 494.747 372.12156 503.84236 372.96067 512.9377 373.7508 522.0331 374.49494 531.1284 375.1958 540.22378 375.85606 549.3191 376.47807 558.4144 377.06413 567.50979 377.61637 576.60519 378.13679 585.7005 378.6273 594.79586 379.0896 603.8912 379.52537 612.9865 379.9362 622.08187 380.3235 631.17727 380.68864 640.2726 381.03294 649.3679 381.35758 658.46328 381.6637 667.5586 381.95243 676.65396 382.22468 685.7493 382.48149 694.84469 382.72367 703.94 382.9521"/>
</g>
<g clip-path="url(#clip_20)">
<path transform="matrix(1,0,0,-1,0,423.39189)" stroke-width="1.5" stroke-linecap="square" stroke-linejoin="round" fill="none" stroke="#8b5cf6" d="M49.075 55.897787H58.170347L67.26569 86.78299 76.36104 114.08108 85.45639 138.29784 94.551738 159.85599 103.64708 179.11057 112.74243 196.36115 121.837779 211.86159 130.93312 225.828 140.02848 238.44506 149.12383 249.8712 158.21916 260.24293 167.31452 269.6782 176.40987 278.27934 185.5052 286.1354 194.60056 293.32423 203.6959 299.91389 212.79125 305.9643 221.8866 311.52818 230.98195 316.65214 240.07729 321.37748 249.17264 325.7409 258.26799 329.77513 267.36335 333.50926 276.45869 336.96946 285.55403 340.1791 294.64939 343.15928 303.74473 345.92893 312.84007 348.50517 321.93544 350.90348 331.03077 353.13786 340.1261 355.22105 349.22148 357.1646 358.3168 358.9791 367.41215 360.67414 376.5075 362.25849 385.60285 363.7402 394.69819 365.12663 403.79356 366.42454 412.8889 367.64018 421.98423 368.7792 431.0796 369.8469 440.17494 370.8481 449.27027 371.78736 458.36564 372.66877 467.46098 373.49617 476.5563 374.27308 485.65168 375.0028 494.747 375.68843 503.84236 376.33274 512.9377 376.93843 522.0331 377.50788 531.1284 378.04344 540.22378 378.54716 549.3191 379.0211 558.4144 379.46705 567.50979 379.88676 576.60519 380.2818 585.7005 380.65373 594.79586 381.00395 603.8912 381.3337 612.9865 381.6443 622.08187 381.93687 631.17727 382.21247 640.2726 382.47215 649.3679 382.7168 658.46328 382.94737 667.5586 383.16465 676.65396 383.36943 685.7493 383.56248 694.84469 383.74443 703.94 383.91596"/>
</g>
<g clip-path="url(#clip_21)">
<path transform="matrix(1,0,0,-1,0,423.39189)" stroke-width="1.5" stroke-linecap="butt" stroke-dasharray="5.55,2.4" stroke-linejoin="round" fill="none" stroke="#6b7280" stroke-opacity=".5" d="M49.075 221.33417H703.94"/>
</g>
<path transform="matrix(1,0,0,-1,0,423.39189)" stroke-width=".8" stroke-linecap="square" stroke-miterlimit="10" stroke-linejoin="miter" fill="none" stroke="#000000" d="M49.075 39.496877V400.31687"/>
<path transform="matrix(1,0,0,-1,0,423.39189)" stroke-width=".8" stroke-linecap="square" stroke-miterlimit="10" stroke-linejoin="miter" fill="none" stroke="#000000" d="M49.075 39.496877H703.94"/>
<use data-text="O" xlink:href="#font_2_79" transform="matrix(13,0,0,-13,218.49188,17.075013)"/>
<use data-text="r" xlink:href="#font_2_114" transform="matrix(13,0,0,-13,229.15189,17.075013)"/>
<use data-text="a" xlink:href="#font_2_97" transform="matrix(13,0,0,-13,235.36588,17.075013)"/>
<use data-text="c" xlink:href="#font_2_99" transform="matrix(13,0,0,-13,243.11389,17.075013)"/>
<use data-text="l" xlink:href="#font_2_108" transform="matrix(13,0,0,-13,250.39389,17.075013)"/>
<use data-text="e" xlink:href="#font_2_101" transform="matrix(13,0,0,-13,254.5539,17.075013)"/>
<use data-text=" " xlink:href="#font_2_32" transform="matrix(13,0,0,-13,262.24989,17.075013)"/>
<use data-text="C" xlink:href="#font_2_67" transform="matrix(13,0,0,-13,266.38389,17.075013)"/>
<use data-text="o" xlink:href="#font_2_111" transform="matrix(13,0,0,-13,276.3289,17.075013)"/>
<use data-text="n" xlink:href="#font_2_110" transform="matrix(13,0,0,-13,284.15489,17.075013)"/>
<use data-text="v" xlink:href="#font_2_118" transform="matrix(13,0,0,-13,292.5269,17.075013)"/>
<use data-text="e" xlink:href="#font_2_101" transform="matrix(13,0,0,-13,299.8719,17.075013)"/>
<use data-text="r" xlink:href="#font_2_114" transform="matrix(13,0,0,-13,307.56788,17.075013)"/>
<use data-text="g" xlink:href="#font_2_103" transform="matrix(13,0,0,-13,313.7819,17.075013)"/>
<use data-text="e" xlink:href="#font_2_101" transform="matrix(13,0,0,-13,322.10188,17.075013)"/>
<use data-text="n" xlink:href="#font_2_110" transform="matrix(13,0,0,-13,329.79789,17.075013)"/>
<use data-text="c" xlink:href="#font_2_99" transform="matrix(13,0,0,-13,338.1699,17.075013)"/>
<use data-text="e" xlink:href="#font_2_101" transform="matrix(13,0,0,-13,345.4499,17.075013)"/>
<use data-text=" " xlink:href="#font_2_32" transform="matrix(13,0,0,-13,353.14588,17.075013)"/>
<use data-text="(" xlink:href="#font_2_40" transform="matrix(13,0,0,-13,357.2799,17.075013)"/>
<use data-text="D" xlink:href="#font_2_68" transform="matrix(13,0,0,-13,362.3499,17.075013)"/>
<use data-text="E" xlink:href="#font_2_69" transform="matrix(13,0,0,-13,372.77589,17.075013)"/>
<use data-text="C" xlink:href="#font_2_67" transform="matrix(13,0,0,-13,382.2659,17.075013)"/>
<use data-text="A" xlink:href="#font_2_65" transform="matrix(13,0,0,-13,392.2109,17.075013)"/>
<use data-text="Y" xlink:href="#font_2_89" transform="matrix(13,0,0,-13,401.0813,17.075013)"/>
<use data-text="_" xlink:href="#font_2_95" transform="matrix(13,0,0,-13,409.6613,17.075013)"/>
<use data-text="1" xlink:href="#font_2_49" transform="matrix(13,0,0,-13,416.1613,17.075013)"/>
<use data-text="2" xlink:href="#font_2_50" transform="matrix(13,0,0,-13,424.4293,17.075013)"/>
<use data-text="H" xlink:href="#font_2_72" transform="matrix(13,0,0,-13,432.6973,17.075013)"/>
<use data-text="L" xlink:href="#font_2_76" transform="matrix(13,0,0,-13,444.0333,17.075013)"/>
<use data-text="," xlink:href="#font_2_44" transform="matrix(13,0,0,-13,452.66529,17.075013)"/>
<use data-text=" " xlink:href="#font_2_32" transform="matrix(13,0,0,-13,456.79933,17.075013)"/>
<use data-text="1" xlink:href="#font_2_49" transform="matrix(13,0,0,-13,460.9333,17.075013)"/>
<use data-text="h" xlink:href="#font_2_104" transform="matrix(13,0,0,-13,469.2013,17.075013)"/>
<use data-text=" " xlink:href="#font_2_32" transform="matrix(13,0,0,-13,477.5733,17.075013)"/>
<use data-text="r" xlink:href="#font_2_114" transform="matrix(13,0,0,-13,481.7073,17.075013)"/>
<use data-text="e" xlink:href="#font_2_101" transform="matrix(13,0,0,-13,487.9213,17.075013)"/>
<use data-text="f" xlink:href="#font_2_102" transform="matrix(13,0,0,-13,495.6173,17.075013)"/>
<use data-text="r" xlink:href="#font_2_114" transform="matrix(13,0,0,-13,500.4273,17.075013)"/>
<use data-text="e" xlink:href="#font_2_101" transform="matrix(13,0,0,-13,506.6413,17.075013)"/>
<use data-text="s" xlink:href="#font_2_115" transform="matrix(13,0,0,-13,514.3373,17.075013)"/>
<use data-text="h" xlink:href="#font_2_104" transform="matrix(13,0,0,-13,521.00637,17.075013)"/>
<use data-text=")" xlink:href="#font_2_41" transform="matrix(13,0,0,-13,529.3783,17.075013)"/>
<g>
<path transform="matrix(1,0,0,-1,0,423.39189)" d="M56.075 318.9575H141.41875C142.75209 318.9575 143.41875 319.62419 143.41875 320.9575V393.31687C143.41875 394.6502 142.75209 395.31687 141.41875 395.31687H56.075C54.74167 395.31687 54.075 394.6502 54.075 393.31687V320.9575C54.075 319.62419 54.74167 318.9575 56.075 318.9575Z" fill="#ffffff" fill-opacity=".8"/>
<path transform="matrix(1,0,0,-1,0,423.39189)" stroke-width="1" stroke-linecap="butt" stroke-miterlimit="10" stroke-linejoin="miter" fill="none" stroke="#cccccc" stroke-opacity=".8" d="M56.075 318.9575H141.41875C142.75209 318.9575 143.41875 319.62419 143.41875 320.9575V393.31687C143.41875 394.6502 142.75209 395.31687 141.41875 395.31687H56.075C54.74167 395.31687 54.075 394.6502 54.075 393.31687V320.9575C54.075 319.62419 54.74167 318.9575 56.075 318.9575Z"/>
</g>
<path transform="matrix(1,0,0,-1,0,423.39189)" stroke-width="1.5" stroke-linecap="square" stroke-linejoin="round" fill="none" stroke="#2563eb" d="M58.075 387.2231H68.075 78.075"/>
<use data-text="2" xlink:href="#font_2_50" transform="matrix(10,0,0,-10,86.075,39.668764)"/>
<use data-text="0" xlink:href="#font_2_48" transform="matrix(10,0,0,-10,92.435,39.668764)"/>
<use data-text="%" xlink:href="#font_2_37" transform="matrix(10,0,0,-10,98.795,39.668764)"/>
<use data-text=" " xlink:href="#font_2_32" transform="matrix(10,0,0,-10,108.295,39.668764)"/>
<use data-text="c" xlink:href="#font_2_99" transform="matrix(10,0,0,-10,111.475,39.668764)"/>
<use data-text="r" xlink:href="#font_2_114" transform="matrix(10,0,0,-10,117.075,39.668764)"/>
<use data-text="a" xlink:href="#font_2_97" transform="matrix(10,0,0,-10,121.854999,39.668764)"/>
<use data-text="s" xlink:href="#font_2_115" transform="matrix(10,0,0,-10,127.815,39.668764)"/>
<use data-text="h" xlink:href="#font_2_104" transform="matrix(10,0,0,-10,132.945,39.668764)"/>
<path transform="matrix(1,0,0,-1,0,423.39189)" stroke-width="1.5" stroke-linecap="square" stroke-linejoin="round" fill="none" stroke="#dc2626" d="M58.075 372.55125H68.075 78.075"/>
<use data-text="3" xlink:href="#font_2_51" transform="matrix(10,0,0,-10,86.075,54.340639)"/>
<use data-text="0" xlink:href="#font_2_48" transform="matrix(10,0,0,-10,92.435,54.340639)"/>
<use data-text="%" xlink:href="#font_2_37" transform="matrix(10,0,0,-10,98.795,54.340639)"/>
<use data-text=" " xlink:href="#font_2_32" transform="matrix(10,0,0,-10,108.295,54.340639)"/>
<use data-text="c" xlink:href="#font_2_99" transform="matrix(10,0,0,-10,111.475,54.340639)"/>
<use data-text="r" xlink:href="#font_2_114" transform="matrix(10,0,0,-10,117.075,54.340639)"/>
<use data-text="a" xlink:href="#font_2_97" transform="matrix(10,0,0,-10,121.854999,54.340639)"/>
<use data-text="s" xlink:href="#font_2_115" transform="matrix(10,0,0,-10,127.815,54.340639)"/>
<use data-text="h" xlink:href="#font_2_104" transform="matrix(10,0,0,-10,132.945,54.340639)"/>
<path transform="matrix(1,0,0,-1,0,423.39189)" stroke-width="1.5" stroke-linecap="square" stroke-linejoin="round" fill="none" stroke="#16a34a" d="M58.075 357.87937H68.075 78.075"/>
<use data-text="4" xlink:href="#font_2_52" transform="matrix(10,0,0,-10,86.075,69.01251)"/>
<use data-text="0" xlink:href="#font_2_48" transform="matrix(10,0,0,-10,92.435,69.01251)"/>
<use data-text="%" xlink:href="#font_2_37" transform="matrix(10,0,0,-10,98.795,69.01251)"/>
<use data-text=" " xlink:href="#font_2_32" transform="matrix(10,0,0,-10,108.295,69.01251)"/>
<use data-text="c" xlink:href="#font_2_99" transform="matrix(10,0,0,-10,111.475,69.01251)"/>
<use data-text="r" xlink:href="#font_2_114" transform="matrix(10,0,0,-10,117.075,69.01251)"/>
<use data-text="a" xlink:href="#font_2_97" transform="matrix(10,0,0,-10,121.854999,69.01251)"/>
<use data-text="s" xlink:href="#font_2_115" transform="matrix(10,0,0,-10,127.815,69.01251)"/>
<use data-text="h" xlink:href="#font_2_104" transform="matrix(10,0,0,-10,132.945,69.01251)"/>
<path transform="matrix(1,0,0,-1,0,423.39189)" stroke-width="1.5" stroke-linecap="square" stroke-linejoin="round" fill="none" stroke="#f59e0b" d="M58.075 343.2075H68.075 78.075"/>
<use data-text="5" xlink:href="#font_2_53" transform="matrix(10,0,0,-10,86.075,83.68439)"/>
<use data-text="0" xlink:href="#font_2_48" transform="matrix(10,0,0,-10,92.435,83.68439)"/>
<use data-text="%" xlink:href="#font_2_37" transform="matrix(10,0,0,-10,98.795,83.68439)"/>
<use data-text=" " xlink:href="#font_2_32" transform="matrix(10,0,0,-10,108.295,83.68439)"/>
<use data-text="c" xlink:href="#font_2_99" transform="matrix(10,0,0,-10,111.475,83.68439)"/>
<use data-text="r" xlink:href="#font_2_114" transform="matrix(10,0,0,-10,117.075,83.68439)"/>
<use data-text="a" xlink:href="#font_2_97" transform="matrix(10,0,0,-10,121.854999,83.68439)"/>
<use data-text="s" xlink:href="#font_2_115" transform="matrix(10,0,0,-10,127.815,83.68439)"/>
<use data-text="h" xlink:href="#font_2_104" transform="matrix(10,0,0,-10,132.945,83.68439)"/>
<path transform="matrix(1,0,0,-1,0,423.39189)" stroke-width="1.5" stroke-linecap="square" stroke-linejoin="round" fill="none" stroke="#8b5cf6" d="M58.075 328.5356H68.075 78.075"/>
<use data-text="7" xlink:href="#font_2_55" transform="matrix(10,0,0,-10,86.075,98.35626)"/>
<use data-text="0" xlink:href="#font_2_48" transform="matrix(10,0,0,-10,92.435,98.35626)"/>
<use data-text="%" xlink:href="#font_2_37" transform="matrix(10,0,0,-10,98.795,98.35626)"/>
<use data-text=" " xlink:href="#font_2_32" transform="matrix(10,0,0,-10,108.295,98.35626)"/>
<use data-text="c" xlink:href="#font_2_99" transform="matrix(10,0,0,-10,111.475,98.35626)"/>
<use data-text="r" xlink:href="#font_2_114" transform="matrix(10,0,0,-10,117.075,98.35626)"/>
<use data-text="a" xlink:href="#font_2_97" transform="matrix(10,0,0,-10,121.854999,98.35626)"/>
<use data-text="s" xlink:href="#font_2_115" transform="matrix(10,0,0,-10,127.815,98.35626)"/>
<use data-text="h" xlink:href="#font_2_104" transform="matrix(10,0,0,-10,132.945,98.35626)"/>
</svg>
