<svg xmlns="http://www.w3.org/2000/svg" xmlns:xlink="http://www.w3.org/1999/xlink" version="1.1" width="711.22317pt" height="423.39189pt" viewBox="0 0 711.22317 423.39189">
<defs>
<clipPath id="clip_1">
<path transform="matrix(1,0,0,-1,0,423.39189)" d="M48.903127 39.496877H704.02316V400.3169H48.903127Z"/>
</clipPath>
<clipPath id="clip_2">
<path transform="matrix(1,0,0,-1,0,423.39189)" d="M48.903127 39.496877H704.02316V400.3169H48.903127Z"/>
</clipPath>
<clipPath id="clip_3">
<path transform="matrix(1,0,0,-1,0,423.39189)" d="M48.903127 39.496877H704.02316V400.3169H48.903127Z"/>
</clipPath>
<clipPath id="clip_4">
<path transform="matrix(1,0,0,-1,0,423.39189)" d="M48.903127 39.496877H704.02316V400.3169H48.903127Z"/>
</clipPath>
<clipPath id="clip_5">
<path transform="matrix(1,0,0,-1,0,423.39189)" d="M48.903127 39.496877H704.02316V400.3169H48.903127Z"/>
</clipPath>
<clipPath id="clip_6">
<path transform="matrix(1,0,0,-1,0,423.39189)" d="M48.903127 39.496877H704.02316V400.3169H48.903127Z"/>
</clipPath>
<clipPath id="clip_7">
<path transform="matrix(1,0,0,-1,0,423.39189)" d="M48.903127 39.496877H704.02316V400.3169H48.903127Z"/>
</clipPath>
<clipPath id="clip_8">
<path transform="matrix(1,0,0,-1,0,423.39189)" d="M48.903127 39.496877H704.02316V400.3169H48.903127Z"/>
</clipPath>
<clipPath id="clip_9">
<path transform="matrix(1,0,0,-1,0,423.39189)" d="M48.903127 39.496877H704.02316V400.3169H48.903127Z"/>
</clipPath>
<clipPath id="clip_10">
<path transform="matrix(1,0,0,-1,0,423.39189)" d="M48.903127 39.496877H704.02316V400.3169H48.903127Z"/>
</clipPath>
<clipPath id="clip_11">
<path transform="matrix(1,0,0,-1,0,423.39189)" d="M48.903127 39.496877H704.02316V400.3169H48.903127Z"/>
</clipPath>
<clipPath id="clip_12">
<path transform="matrix(1,0,0,-1,0,423.39189)" d="M48.903127 39.496877H704.02316V400.3169H48.903127Z"/>
</clipPath>
<clipPath id="clip_13">
<path transform="matrix(1,0,0,-1,0,423.39189)" d="M48.903127 39.496877H704.02316V400.3169H48.903127Z"/>
</clipPath>
<clipPath id="clip_14">
<path transform="matrix(1,0,0,-1,0,423.39189)" d="M48.903127 39.496877H704.02316V400.3169H48.903127Z"/>
</clipPath>
<clipPath id="clip_15">
<path transform="matrix(1,0,0,-1,0,423.39189)" d="M48.903127 39.496877H704.02316V400.3169H48.903127Z"/>
</clipPath>
<clipPath id="clip_16">
<path transform="matrix(1,0,0,-1,0,423.39189)" d="M48.903127 39.496877H704.02316V400.3169H48.903127Z"/>
</clipPath>
<clipPath id="clip_17">
<path transform="matrix(1,0,0,-1,0,423.39189)" d="M48.903127 39.496877H704.02316V400.3169H48.903127Z"/>
</clipPath>
<clipPath id="clip_18">
<path transform="matrix(1,0,0,-1,0,423.39189)" d="M48.903127 39.496877H704.02316V400.3169H48.903127Z"/>
</clipPath>
<clipPath id="clip_19">
<path transform="matrix(1,0,0,-1,0,423.39189)" d="M48.903127 39.496877H704.02316V400.3169H48.903127Z"/>
</clipPath>
<clipPath id="clip_20">
<path transform="matrix(1,0,0,-1,0,423.39189)" d="M48.903127 39.496877H704.02316V400.3169H48.903127Z"/>
</clipPath>
<clipPath id="clip_21">
<path transform="matrix(1,0,0,-1,0,423.39189)" d="M48.903127 39.496877H704.02316V400.3169H48.903127Z"/>
</clipPath>
<clipPath id="clip_22">
<path transform="matrix(1,0,0,-1,0,423.39189)" d="M48.903127 39.496877H704.02316V400.3169H48.903127Z"/>
</clipPath>
<clipPath id="clip_23">
<path transform="matrix(1,0,0,-1,0,423.39189)" d="M48.903127 39.496877H704.02316V400.3169H48.903127Z"/>
</clipPath>
<clipPath id="clip_24">
<path transform="matrix(1,0,0,-1,0,423.39189)" d="M48.903127 39.496877H704.02316V400.3169H48.903127Z"/>
</clipPath>
<clipPath id="clip_25">
<path transform="matrix(1,0,0,-1,0,423.39189)" d="M48.903127 39.496877H704.02316V400.3169H48.903127Z"/>
</clipPath>
<clipPath id="clip_26">
<path transform="matrix(1,0,0,-1,0,423.39189)" d="M48.903127 39.496877H704.02316V400.3169H48.903127Z"/>
</clipPath>
<clipPath id="clip_27">
<path transform="matrix(1,0,0,-1,0,423.39189)" d="M48.903127 39.496877H704.02316V400.3169H48.903127Z"/>
</clipPath>
<clipPath id="clip_28">
<path transform="matrix(1,0,0,-1,0,423.39189)" d="M48.903127 39.496877H704.02316V400.3169H48.903127Z"/>
</clipPath>
<clipPath id="clip_29">
<path transform="matrix(1,0,0,-1,0,423.39189)" d="M48.903127 39.496877H704.02316V400.3169H48.903127Z"/>
</clipPath>
<clipPath id="clip_30">
<path transform="matrix(1,0,0,-1,0,423.39189)" d="M48.903127 39.496877H704.02316V400.3169H48.903127Z"/>
</clipPath>
<clipPath id="clip_31">
<path transform="matrix(1,0,0,-1,0,423.39189)" d="M48.903127 39.496877H704.02316V400.3169H48.903127Z"/>
</clipPath>
<clipPath id="clip_32">
<path transform="matrix(1,0,0,-1,0,423.39189)" d="M48.903127 39.496877H704.02316V400.3169H48.903127Z"/>
</clipPath>
<clipPath id="clip_33">
<path transform="matrix(1,0,0,-1,0,423.39189)" d="M48.903127 39.496877H704.02316V400.3169H48.903127Z"/>
</clipPath>
<clipPath id="clip_34">
<path transform="matrix(1,0,0,-1,0,423.39189)" d="M48.903127 39.496877H704.02316V400.3169H48.903127Z"/>
</clipPath>
<clipPath id="clip_35">
<path transform="matrix(1,0,0,-1,0,423.39189)" d="M48.903127 39.496877H704.02316V400.3169H48.903127Z"/>
</clipPath>
<clipPath id="clip_36">
<path transform="matrix(1,0,0,-1,0,423.39189)" d="M48.903127 39.496877H704.02316V400.3169H48.903127Z"/>
</clipPath>
<clipPath id="clip_37">
<path transform="matrix(1,0,0,-1,0,423.39189)" d="M48.903127 39.496877H704.02316V400.3169H48.903127Z"/>
</clipPath>
<clipPath id="clip_38">
<path transform="matrix(1,0,0,-1,0,423.39189)" d="M48.903127 39.496877H704.02316V400.3169H48.903127Z"/>
</clipPath>
<clipPath id="clip_39">
<path transform="matrix(1,0,0,-1,0,423.39189)" d="M48.903127 39.496877H704.02316V400.3169H48.903127Z"/>
</clipPath>
<clipPath id="clip_40">
<path transform="matrix(1,0,0,-1,0,423.39189)" d="M48.903127 39.496877H704.02316V400.3169H48.903127Z"/>
</clipPath>
<clipPath id="clip_41">
<path transform="matrix(1,0,0,-1,0,423.39189)" d="M48.903127 39.496877H704.02316V400.3169H48.903127Z"/>
</clipPath>
<clipPath id="clip_42">
<path transform="matrix(1,0,0,-1,0,423.39189)" d="M48.903127 39.496877H704.02316V400.3169H48.903127Z"/>
</clipPath>
<clipPath id="clip_43">
<path transform="matrix(1,0,0,-1,0,423.39189)" d="M48.903127 39.496877H704.02316V400.3169H48.903127Z"/>
</clipPath>
<clipPath id="clip_44">
<path transform="matrix(1,0,0,-1,0,423.39189)" d="M48.903127 39.496877H704.02316V400.3169H48.903127Z"/>
</clipPath>
<clipPath id="clip_45">
<path transform="matrix(1,0,0,-1,0,423.39189)" d="M48.903127 39.496877H704.02316V400.3169H48.903127Z"/>
</clipPath>
<clipPath id="clip_46">
<path transform="matrix(1,0,0,-1,0,423.39189)" d="M48.903127 39.496877H704.02316V400.3169H48.903127Z"/>
</clipPath>
<clipPath id="clip_47">
<path transform="matrix(1,0,0,-1,0,423.39189)" d="M48.903127 39.496877H704.02316V400.3169H48.903127Z"/>
</clipPath>
<clipPath id="clip_48">
<path transform="matrix(1,0,0,-1,0,423.39189)" d="M48.903127 39.496877H704.02316V400.3169H48.903127Z"/>
</clipPath>
<clipPath id="clip_49">
<path transform="matrix(1,0,0,-1,0,423.39189)" d="M48.903127 39.496877H704.02316V400.3169H48.903127Z"/>
</clipPath>
<clipPath id="clip_50">
<path transform="matrix(1,0,0,-1,0,423.39189)" d="M48.903127 39.496877H704.02316V400.3169H48.903127Z"/>
</clipPath>
<clipPath id="clip_51">
<path transform="matrix(1,0,0,-1,0,423.39189)" d="M48.903127 39.496877H704.02316V400.3169H48.903127Z"/>
</clipPath>
<clipPath id="clip_52">
<path transform="matrix(1,0,0,-1,0,423.39189)" d="M48.903127 39.496877H704.02316V400.3169H48.903127Z"/>
</clipPath>
<clipPath id="clip_53">
<path transform="matrix(1,0,0,-1,0,423.39189)" d="M48.903127 39.496877H704.02316V400.3169H48.903127Z"/>
</clipPath>
<clipPath id="clip_54">
<path transform="matrix(1,0,0,-1,0,423.39189)" d="M48.903127 39.496877H704.02316V400.3169H48.903127Z"/>
</clipPath>
<clipPath id="clip_55">
<path transform="matrix(1,0,0,-1,0,423.39189)" d="M48.903127 39.496877H704.02316V400.3169H48.903127Z"/>
</clipPath>
<clipPath id="clip_56">
<path transform="matrix(1,0,0,-1,0,423.39189)" d="M48.903127 39.496877H704.02316V400.3169H48.903127Z"/>
</clipPath>
<clipPath id="clip_57">
<path transform="matrix(1,0,0,-1,0,423.39189)" d="M48.903127 39.496877H704.02316V400.3169H48.903127Z"/>
</clipPath>
<clipPath id="clip_58">
<path transform="matrix(1,0,0,-1,0,423.39189)" d="M48.903127 39.496877H704.02316V400.3169H48.903127Z"/>
</clipPath>
<clipPath id="clip_59">
<path transform="matrix(1,0,0,-1,0,423.39189)" d="M48.903127 39.496877H704.02316V400.3169H48.903127Z"/>
</clipPath>
<clipPath id="clip_60">
<path transform="matrix(1,0,0,-1,0,423.39189)" d="M48.903127 39.496877H704.02316V400.3169H48.903127Z"/>
</clipPath>
<clipPath id="clip_61">
<path transform="matrix(1,0,0,-1,0,423.39189)" d="M48.903127 39.496877H704.02316V400.3169H48.903127Z"/>
</clipPath>
<clipPath id="clip_62">
<path transform="matrix(1,0,0,-1,0,423.39189)" d="M48.903127 39.496877H704.02316V400.3169H48.903127Z"/>
</clipPath>
<clipPath id="clip_63">
<path transform="matrix(1,0,0,-1,0,423.39189)" d="M48.903127 39.496877H704.02316V400.3169H48.903127Z"/>
</clipPath>
<clipPath id="clip_64">
<path transform="matrix(1,0,0,-1,0,423.39189)" d="M48.903127 39.496877H704.02316V400.3169H48.903127Z"/>
</clipPath>
<clipPath id="clip_65">
<path transform="matrix(1,0,0,-1,0,423.39189)" d="M48.903127 39.496877H704.02316V400.3169H48.903127Z"/>
</clipPath>
<clipPath id="clip_66">
<path transform="matrix(1,0,0,-1,0,423.39189)" d="M48.903127 39.496877H704.02316V400.3169H48.903127Z"/>
</clipPath>
<clipPath id="clip_67">
<path transform="matrix(1,0,0,-1,0,423.39189)" d="M48.903127 39.496877H704.02316V400.3169H48.903127Z"/>
</clipPath>
<clipPath id="clip_68">
<path transform="matrix(1,0,0,-1,0,423.39189)" d="M48.903127 39.496877H704.02316V400.3169H48.903127Z"/>
</clipPath>
<clipPath id="clip_69">
<path transform="matrix(1,0,0,-1,0,423.39189)" d="M48.903127 39.496877H704.02316V400.3169H48.903127Z"/>
</clipPath>
<clipPath id="clip_70">
<path transform="matrix(1,0,0,-1,0,423.39189)" d="M48.903127 39.496877H704.02316V400.3169H48.903127Z"/>
</clipPath>
<clipPath id="clip_71">
<path transform="matrix(1,0,0,-1,0,423.39189)" d="M48.903127 39.496877H704.02316V400.3169H48.903127Z"/>
</clipPath>
<clipPath id="clip_72">
<path transform="matrix(1,0,0,-1,0,423.39189)" d="M48.903127 39.496877H704.02316V400.3169H48.903127Z"/>
</clipPath>
<clipPath id="clip_73">
<path transform="matrix(1,0,0,-1,0,423.39189)" d="M48.903127 39.496877H704.02316V400.3169H48.903127Z"/>
</clipPath>
<clipPath id="clip_74">
<path transform="matrix(1,0,0,-1,0,423.39189)" d="M48.903127 39.496877H704.02316V400.3169H48.903127Z"/>
</clipPath>
<clipPath id="clip_75">
<path transform="matrix(1,0,0,-1,0,423.39189)" d="M48.903127 39.496877H704.02316V400.3169H48.903127Z"/>
</clipPath>
<clipPath id="clip_76">
<path transform="matrix(1,0,0,-1,0,423.39189)" d="M48.903127 39.496877H704.02316V400.3169H48.903127Z"/>
</clipPath>
<clipPath id="clip_77">
<path transform="matrix(1,0,0,-1,0,423.39189)" d="M48.903127 39.496877H704.02316V400.3169H48.903127Z"/>
</clipPath>
<clipPath id="clip_78">
<path transform="matrix(1,0,0,-1,0,423.39189)" d="M48.903127 39.496877H704.02316V400.3169H48.903127Z"/>
</clipPath>
<clipPath id="clip_79">
<path transform="matrix(1,0,0,-1,0,423.39189)" d="M48.903127 39.496877H704.02316V400.3169H48.903127Z"/>
</clipPath>
<clipPath id="clip_80">
<path transform="matrix(1,0,0,-1,0,423.39189)" d="M48.903127 39.496877H704.02316V400.3169H48.903127Z"/>
</clipPath>
<clipPath id="clip_81">
<path transform="matrix(1,0,0,-1,0,423.39189)" d="M48.903127 39.496877H704.02316V400.3169H48.903127Z"/>
</clipPath>
<clipPath id="clip_82">
<path transform="matrix(1,0,0,-1,0,423.39189)" d="M48.903127 39.496877H704.02316V400.3169H48.903127Z"/>
</clipPath>
<clipPath id="clip_83">
<path transform="matrix(1,0,0,-1,0,423.39189)" d="M48.903127 39.496877H704.02316V400.3169H48.903127Z"/>
</clipPath>
<clipPath id="clip_84">
<path transform="matrix(1,0,0,-1,0,423.39189)" d="M48.903127 39.496877H704.02316V400.3169H48.903127Z"/>
</clipPath>
<clipPath id="clip_85">
<path transform="matrix(1,0,0,-1,0,423.39189)" d="M48.903127 39.496877H704.02316V400.3169H48.903127Z"/>
</clipPath>
<clipPath id="clip_86">
<path transform="matrix(1,0,0,-1,0,423.39189)" d="M48.903127 39.496877H704.02316V400.3169H48.903127Z"/>
</clipPath>
<clipPath id="clip_87">
<path transform="matrix(1,0,0,-1,0,423.39189)" d="M48.903127 39.496877H704.02316V400.3169H48.903127Z"/>
</clipPath>
<clipPath id="clip_88">
<path transform="matrix(1,0,0,-1,0,423.39189)" d="M48.903127 39.496877H704.02316V400.3169H48.903127Z"/>
</clipPath>
<clipPath id="clip_89">
<path transform="matrix(1,0,0,-1,0,423.39189)" d="M48.903127 39.496877H704.02316V400.3169H48.903127Z"/>
</clipPath>
<clipPath id="clip_90">
<path transform="matrix(1,0,0,-1,0,423.39189)" d="M48.903127 39.496877H704.02316V400.3169H48.903127Z"/>
</clipPath>
<clipPath id="clip_91">
<path transform="matrix(1,0,0,-1,0,423.39189)" d="M48.903127 39.496877H704.02316V400.3169H48.903127Z"/>
</clipPath>
<clipPath id="clip_92">
<path transform="matrix(1,0,0,-1,0,423.39189)" d="M48.903127 39.496877H704.02316V400.3169H48.903127Z"/>
</clipPath>
<clipPath id="clip_93">
<path transform="matrix(1,0,0,-1,0,423.39189)" d="M48.903127 39.496877H704.02316V400.3169H48.903127Z"/>
</clipPath>
<clipPath id="clip_94">
<path transform="matrix(1,0,0,-1,0,423.39189)" d="M48.903127 39.496877H704.02316V400.3169H48.903127Z"/>
</clipPath>
<clipPath id="clip_95">
<path transform="matrix(1,0,0,-1,0,423.39189)" d="M48.903127 39.496877H704.02316V400.3169H48.903127Z"/>
</clipPath>
<clipPath id="clip_96">
<path transform="matrix(1,0,0,-1,0,423.39189)" d="M48.903127 39.496877H704.02316V400.3169H48.903127Z"/>
</clipPath>
<clipPath id="clip_97">
<path transform="matrix(1,0,0,-1,0,423.39189)" d="M48.903127 39.496877H704.02316V400.3169H48.903127Z"/>
</clipPath>
<clipPath id="clip_98">
<path transform="matrix(1,0,0,-1,0,423.39189)" d="M48.903127 39.496877H704.02316V400.3169H48.903127Z"/>
</clipPath>
<clipPath id="clip_99">
<path transform="matrix(1,0,0,-1,0,423.39189)" d="M48.903127 39.496877H704.02316V400.3169H48.903127Z"/>
</clipPath>
<clipPath id="clip_100">
<path transform="matrix(1,0,0,-1,0,423.39189)" d="M48.903127 39.496877H704.02316V400.3169H48.903127Z"/>
</clipPath>
<clipPath id="clip_101">
<path transform="matrix(1,0,0,-1,0,423.39189)" d="M48.903127 39.496877H704.02316V400.3169H48.903127Z"/>
</clipPath>
<g id="font_102_48">
<path transform="matrix(.001,0,0,.001,0,0)" d="M318 34C368 34 405 61 430 116 454 170 467 253 467 364 467 474 454 557 430 612 405 666 368 694 318 694 268 694 230 666 206 612 181 557 169 474 169 364 169 253 181 170 206 116 230 61 268 34 318 34ZM318-13C238-13 176 20 132 86 88 152 66 244 66 364 66 483 88 576 132 642 176 708 238 742 318 742 397 742 459 708 503 642 547 576 570 483 570 364 570 244 547 152 503 86 459 20 397-13 318-13Z"/>
</g>
<g id="font_102_46">
<path transform="matrix(.001,0,0,.001,0,0)" d="M94 51C94 69 100 84 112 97 124 109 140 116 159 116 177 116 192 109 205 97 217 84 224 69 224 51 224 33 217 17 205 5 192-7 177-13 159-13 140-13 124-7 112 5 100 17 94 32 94 51Z"/>
</g>
<g id="font_102_52">
<path transform="matrix(.001,0,0,.001,0,0)" d="M349 247V635L100 247H349ZM564 0H232V52H349V195H31V248L350 742H447V247H586V195H447V52H564V0Z"/>
</g>
<clipPath id="clip_103">
<path transform="matrix(.01,0,0,-.01,126.097049,398.48875)" d="M-770-347H2106V1110H-770Z"/>
</clipPath>
<clipPath id="clip_104">
<path transform="matrix(1,0,0,-1,0,423.39189)" d="M48.903127 39.496877H704.02316V400.3169H48.903127Z"/>
</clipPath>
<g id="font_102_50">
<path transform="matrix(.001,0,0,.001,0,0)" d="M128 555H73V685C107 703 142 717 178 727 213 737 248 742 282 742 358 742 418 723 462 687 506 650 528 600 528 537 528 465 478 380 378 281 370 273 365 268 361 264L177 80H481V170H538V0H68V53L289 274C337 322 372 367 393 408 414 449 425 492 425 537 425 586 412 624 386 652 360 680 325 694 281 694 234 694 198 682 173 659 147 636 132 601 128 555Z"/>
</g>
<clipPath id="clip_105">
<path transform="matrix(.01,0,0,-.01,245.20978,398.48875)" d="M-770-347H2106V1110H-770Z"/>
</clipPath>
<clipPath id="clip_106">
<path transform="matrix(1,0,0,-1,0,423.39189)" d="M48.903127 39.496877H704.02316V400.3169H48.903127Z"/>
</clipPath>
<clipPath id="clip_107">
<path transform="matrix(1,0,0,-1,0,423.39189)" d="M48.903127 39.496877H704.02316V400.3169H48.903127Z"/>
</clipPath>
<clipPath id="clip_108">
<path transform="matrix(1,0,0,-1,0,423.39189)" d="M48.903127 39.496877H704.02316V400.3169H48.903127Z"/>
</clipPath>
<g id="font_102_66">
<path transform="matrix(.001,0,0,.001,0,0)" d="M247 52H393C451 52 494 64 521 90 548 115 562 155 562 211 562 265 548 305 521 331 494 356 451 369 393 369H247V52ZM247 421H371C424 421 463 431 488 451 512 471 525 504 525 549 525 593 512 626 488 646 463 666 424 677 371 677H247V421ZM55 0V52H148V677H55V729H415C488 729 543 714 581 684 618 654 637 609 637 549 637 505 624 471 598 445 572 419 535 404 485 398 547 390 594 370 626 338 658 306 674 264 674 211 674 139 651 85 605 51 559 17 488 0 392 0H55Z"/>
</g>
<g id="font_102_97">
<path transform="matrix(.001,0,0,.001,0,0)" d="M398 163V273H282C237 273 204 263 182 244 160 224 150 195 150 156 150 120 161 91 183 70 205 48 235 38 273 38 310 38 340 49 363 72 386 95 398 125 398 163ZM488 324V52H568V0H398V56C378 32 355 14 329 3 303-7 272-13 238-13 180-13 134 2 100 32 66 62 50 104 50 156 50 209 69 250 108 280 146 310 201 325 272 325H398V361C398 400 386 430 362 452 338 474 304 485 261 485 225 485 197 476 176 460 154 444 141 420 136 388H90V493C121 506 151 516 181 523 210 529 239 533 267 533 339 533 393 515 431 479 469 443 488 392 488 324Z"/>
</g>
<g id="font_102_100">
<path transform="matrix(.001,0,0,.001,0,0)" d="M525 52H611V0H435V81C417 48 395 24 368 9 340-5 307-13 267-13 203-13 150 12 110 62 70 112 50 178 50 260 50 341 70 407 110 457 150 507 203 533 267 533 307 533 340 525 368 510 395 494 417 470 435 438V708H350V760H525V52ZM435 234V285C435 347 423 394 399 427 375 460 340 477 295 477 249 477 214 458 190 422 166 386 155 332 155 260 155 188 166 133 190 97 214 60 249 42 295 42 340 42 375 58 399 91 423 123 435 171 435 234Z"/>
</g>
<g id="font_102_32">
</g>
<g id="font_102_68">
<path transform="matrix(.001,0,0,.001,0,0)" d="M247 52H338C432 52 505 79 556 133 606 187 632 264 632 365 632 466 606 543 556 597 505 650 432 677 338 677H247V52ZM55 0V52H148V677H55V729H345C471 729 569 697 639 633 709 569 744 479 744 365 744 250 708 160 638 96 568 32 470 0 345 0H55Z"/>
</g>
<g id="font_102_101">
<path transform="matrix(.001,0,0,.001,0,0)" d="M542 250H155V246C155 176 168 123 194 87 220 51 259 34 311 34 350 34 382 44 408 65 433 85 451 116 461 157H533C519 100 492 57 454 29 415 1 364-13 302-13 226-13 165 11 119 61 73 111 50 177 50 260 50 342 72 408 118 458 163 508 222 533 296 533 374 533 435 508 477 460 519 412 540 342 542 250ZM436 302C434 362 421 408 397 439 373 469 340 485 296 485 254 485 222 469 198 438 174 407 160 362 155 302H436Z"/>
</g>
<g id="font_102_98">
<path transform="matrix(.001,0,0,.001,0,0)" d="M115 52V708H29V760H205V438C222 470 244 494 272 510 299 525 333 533 373 533 437 533 489 507 529 457 569 407 590 341 590 260 590 178 569 112 529 62 489 12 437-13 373-13 333-13 299-5 272 9 244 24 222 48 205 81V0H29V52H115ZM205 234C205 171 217 123 241 91 265 58 299 42 345 42 391 42 425 60 449 97 473 133 485 188 485 260 485 332 473 386 449 422 425 458 391 477 345 477 299 477 265 460 241 427 217 394 205 347 205 285V234Z"/>
</g>
<g id="font_102_116">
<path transform="matrix(.001,0,0,.001,0,0)" d="M108 467H29V519H108V680H198V519H367V467H198V137C198 93 202 64 211 52 219 40 235 34 258 34 281 34 298 41 309 55 319 69 325 91 326 122H394C391 74 378 40 355 19 332-2 297-13 250-13 198-13 161-1 140 21 118 43 108 82 108 137V467Z"/>
</g>
<g id="font_102_40">
<path transform="matrix(.001,0,0,.001,0,0)" d="M319-155C239-119 179-63 139 13 99 89 79 186 79 302 79 418 99 514 139 591 179 668 239 724 319 760V712C269 677 233 628 211 566 189 503 178 415 178 302 178 188 189 100 211 38 233-24 269-72 319-107V-155Z"/>
</g>
<g id="font_102_37">
<path transform="matrix(.001,0,0,.001,0,0)" d="M224 697C195 697 173 683 157 656 141 629 133 591 133 543 133 495 141 457 157 430 173 402 196 389 224 389 252 389 274 402 290 430 306 457 314 495 314 543 314 591 306 628 290 656 274 683 252 697 224 697ZM727 339C699 339 676 325 660 298 644 270 636 232 636 184 636 136 644 98 660 71 676 44 699 31 727 31 755 31 777 44 793 71 809 98 817 136 817 184 817 232 809 269 793 297 777 325 755 339 727 339ZM727 383C778 383 819 365 849 329 879 293 895 244 895 184 895 123 879 75 849 40 819 4 778-13 727-13 675-13 633 4 603 40 573 75 558 123 558 184 558 245 573 293 603 329 633 365 675 383 727 383ZM666 742H740L284-13H210L666 742ZM223 742C274 742 315 724 346 688 376 652 392 604 392 544 392 482 376 434 346 398 316 362 275 345 223 345 171 345 130 362 100 398 70 434 55 482 55 544 55 604 70 652 100 688 130 724 171 742 223 742Z"/>
</g>
<g id="font_102_111">
<path transform="matrix(.001,0,0,.001,0,0)" d="M301 34C349 34 385 53 410 91 434 129 447 185 447 259 447 333 434 390 410 428 385 466 349 485 301 485 253 485 216 466 192 428 167 390 155 333 155 259 155 185 167 129 192 91 216 53 253 34 301 34ZM301-13C225-13 165 11 119 61 73 111 50 177 50 260 50 342 72 408 118 458 164 508 225 533 301 533 377 533 437 508 483 458 529 408 552 342 552 260 552 177 529 111 483 61 437 11 377-13 301-13Z"/>
</g>
<g id="font_102_102">
<path transform="matrix(.001,0,0,.001,0,0)" d="M430 637H383C382 661 375 680 362 693 348 705 329 712 303 712 269 712 246 702 232 684 218 666 212 633 212 586V519H357V467H212V52H327V0H36V52H122V467H36V519H122V584C122 642 137 685 167 715 197 745 241 760 300 760 322 760 343 758 365 754 387 750 408 744 430 736V637Z"/>
</g>
<g id="font_102_84">
<path transform="matrix(.001,0,0,.001,0,0)" d="M191 0V52H284V671H70V557H10V729H657V557H597V671H383V52H476V0H191Z"/>
</g>
<g id="font_102_86">
<path transform="matrix(.001,0,0,.001,0,0)" d="M175 677 390 117 605 677H523V729H737V677H666L406 0H322L63 677H-9V729H256V677H175Z"/>
</g>
<g id="font_102_76">
<path transform="matrix(.001,0,0,.001,0,0)" d="M55 0V52H148V677H55V729H340V677H247V60H580V182H640V0H55Z"/>
</g>
<g id="font_102_41">
<path transform="matrix(.001,0,0,.001,0,0)" d="M71-155V-107C121-72 157-24 179 38 201 100 212 188 212 302 212 415 201 503 179 566 157 628 121 677 71 712V760C150 724 210 668 250 591 290 514 311 418 311 302 311 186 290 89 250 13 210-63 150-119 71-155Z"/>
</g>
<clipPath id="clip_109">
<path transform="matrix(1,0,0,-1,0,423.39189)" d="M48.903127 39.496877H704.02316V400.3169H48.903127Z"/>
</clipPath>
<clipPath id="clip_110">
<path transform="matrix(1,0,0,-1,0,423.39189)" d="M48.903127 39.496877H704.02316V400.3169H48.903127Z"/>
</clipPath>
<clipPath id="clip_111">
<path transform="matrix(1,0,0,-1,0,423.39189)" d="M48.903127 39.496877H704.02316V400.3169H48.903127Z"/>
</clipPath>
<clipPath id="clip_112">
<path transform="matrix(1,0,0,-1,0,423.39189)" d="M48.903127 39.496877H704.02316V400.3169H48.903127Z"/>
</clipPath>
<g id="font_102_54">
<path transform="matrix(.001,0,0,.001,0,0)" d="M327 34C373 34 408 50 433 84 457 118 470 166 470 230 470 293 457 341 433 375 408 409 373 426 327 426 280 426 244 409 220 377 196 344 184 297 184 236 184 171 196 121 221 86 245 51 281 34 327 34ZM168 401C190 425 215 444 243 456 271 468 302 474 338 474 410 474 468 452 510 408 552 364 573 305 573 230 573 156 550 97 505 53 459 9 399-13 323-13 241-13 177 17 133 78 89 139 67 227 67 341 67 468 93 567 145 637 197 707 271 742 367 742 393 742 420 739 448 735 476 730 505 723 535 713V593H480C476 625 463 650 442 668 421 685 393 694 357 694 293 694 246 670 215 622 184 574 168 500 168 401Z"/>
</g>
<clipPath id="clip_113">
<path transform="matrix(1,0,0,-1,0,423.39189)" d="M48.903127 39.496877H704.02316V400.3169H48.903127Z"/>
</clipPath>
<g id="font_102_56">
<path transform="matrix(.001,0,0,.001,0,0)" d="M466 199C466 251 453 291 427 320 401 349 364 364 318 364 271 364 235 349 209 320 183 291 170 251 170 199 170 147 183 106 209 77 235 48 271 34 318 34 364 34 401 48 427 77 453 106 466 147 466 199ZM446 553C446 597 434 632 412 657 389 681 358 694 318 694 278 694 246 681 224 657 201 632 190 597 190 553 190 508 201 473 224 449 246 424 278 412 318 412 358 412 389 424 412 449 434 473 446 508 446 553ZM393 388C448 380 491 360 522 327 553 293 569 251 569 199 569 131 547 78 504 42 460 5 398-13 318-13 237-13 175 5 132 42 88 78 67 131 67 199 67 251 82 293 113 327 144 360 187 380 243 388 193 396 156 415 130 444 104 472 91 509 91 553 91 611 111 657 151 691 191 725 247 742 318 742 388 742 444 725 484 691 524 657 545 611 545 553 545 509 531 472 505 444 479 415 441 396 393 388Z"/>
</g>
<clipPath id="clip_114">
<path transform="matrix(1,0,0,-1,0,423.39189)" d="M48.903127 39.496877H704.02316V400.3169H48.903127Z"/>
</clipPath>
<g id="font_102_49">
<path transform="matrix(.001,0,0,.001,0,0)" d="M142 0V52H269V658L122 563V627L300 742H367V52H494V0H142Z"/>
</g>
<g id="font_102_110">
<path transform="matrix(.001,0,0,.001,0,0)" d="M41 0V52H122V467H36V519H212V427C228 461 250 488 276 506 302 524 333 533 369 533 426 533 468 516 495 484 522 451 536 400 536 330V52H616V0H368V52H446V302C446 365 438 408 422 432 406 456 379 468 340 468 298 468 266 452 244 422 222 391 212 347 212 289V52H290V0H41Z"/>
</g>
<g id="font_102_115">
<path transform="matrix(.001,0,0,.001,0,0)" d="M56 29V150H108C109 111 121 82 144 63 167 43 201 34 246 34 286 34 317 41 338 57 359 72 370 94 370 123 370 145 362 164 347 178 331 192 299 207 249 223L184 245C139 259 107 277 87 299 67 320 57 347 57 381 57 428 74 465 109 492 144 519 192 533 254 533 281 533 310 529 340 522 370 515 402 505 434 491V378H382C380 411 369 437 347 456 325 475 295 485 257 485 219 485 190 478 171 465 151 451 142 431 142 405 142 383 149 365 164 352 178 339 208 326 252 312L323 290C372 274 407 255 429 232 451 209 462 180 462 144 462 94 443 56 405 28 367 0 316-13 250-13 216-13 184-9 152-3 120 3 88 14 56 29Z"/>
</g>
<g id="font_102_105">
<path transform="matrix(.001,0,0,.001,0,0)" d="M97 680C97 695 102 708 113 719 124 730 137 736 153 736 167 736 180 730 191 719 202 708 208 695 208 680 208 664 202 651 192 641 181 630 168 625 153 625 137 625 124 630 113 641 102 651 97 664 97 680ZM212 52H297V0H36V52H122V467H36V519H212V52Z"/>
</g>
<g id="font_102_121">
<path transform="matrix(.001,0,0,.001,0,0)" d="M216-94 250-8 56 467H-2V519H236V467H153L299 110 445 467H367V519H562V467H504L266-116C250-156 232-184 212-199 192-213 164-221 128-221 112-221 97-219 81-217 65-214 48-210 32-206V-107H78C80-129 85-144 95-154 104-164 118-169 138-169 156-169 170-164 181-154 192-144 204-124 216-94Z"/>
</g>
<clipPath id="clip_115">
<path transform="matrix(1,0,0,-1,0,423.39189)" d="M48.903127 39.496877H704.02316V400.3169H48.903127Z"/>
</clipPath>
<clipPath id="clip_116">
<path transform="matrix(1,0,0,-1,0,423.39189)" d="M48.903127 39.496877H704.02316V400.3169H48.903127Z"/>
</clipPath>
<clipPath id="clip_117">
<path transform="matrix(1,0,0,-1,0,423.39189)" d="M48.903127 39.496877H704.02316V400.3169H48.903127Z"/>
</clipPath>
<g id="font_102_114">
<path transform="matrix(.001,0,0,.001,0,0)" d="M478 520V390H426C424 416 417 435 405 448 392 460 373 467 349 467 305 467 271 451 247 421 223 390 212 346 212 289V52H316V0H41V52H122V468H36V519H212V427C229 463 251 489 279 507 307 524 341 533 381 533 395 533 411 531 427 529 443 527 460 524 478 520Z"/>
</g>
<g id="font_102_117">
<path transform="matrix(.001,0,0,.001,0,0)" d="M354 519H522V52H607V0H432V92C415 57 393 31 367 13 341-4 310-13 276-13 218-13 175 3 148 35 121 67 108 119 108 189V467H27V519H198V217C198 153 205 110 221 87 237 63 264 52 304 52 346 52 377 67 399 98 421 128 432 173 432 231V467H354V519Z"/>
</g>
<g id="font_102_61">
<path transform="matrix(.001,0,0,.001,0,0)" d="M106 452H732V374H106V452ZM106 253H732V175H106V253Z"/>
</g>
<g id="font_102_51">
<path transform="matrix(.001,0,0,.001,0,0)" d="M97 698C135 712 171 723 206 731 241 738 274 742 305 742 376 742 432 726 472 696 512 665 532 622 532 568 532 524 518 487 490 458 462 428 423 408 373 398 433 389 479 367 512 332 545 297 562 252 562 197 562 129 539 77 493 41 447 5 382-13 296-13 258-13 220-9 184-1 148 6 112 18 76 35V177H131C134 129 150 94 178 70 206 46 246 34 298 34 348 34 387 48 416 77 444 106 459 146 459 196 459 253 444 296 414 326 384 355 341 370 284 370H238V420H262C319 420 362 431 390 455 418 479 433 514 433 562 433 604 421 637 398 660 374 682 341 694 297 694 253 694 218 683 194 662 170 641 156 610 152 570H97V698Z"/>
</g>
<g id="font_102_44">
<path transform="matrix(.001,0,0,.001,0,0)" d="M36-96C66-73 89-47 103-17 117 13 125 49 125 93V111H221C218 55 205 7 181-32 157-71 122-105 75-135L36-96Z"/>
</g>
<g id="font_102_57">
<path transform="matrix(.001,0,0,.001,0,0)" d="M468 327C446 302 420 284 392 272 364 260 332 254 297 254 224 254 167 275 125 319 83 363 63 422 63 498 63 572 85 631 131 675 176 719 237 742 313 742 395 742 459 711 503 650 547 588 569 501 569 387 569 259 542 161 490 91 438 21 364-13 269-13 243-13 216-10 188-6 160-2 131 5 101 15V136H156C160 103 172 78 194 60 215 42 243 34 279 34 342 34 389 57 420 105 450 153 466 227 468 327ZM309 694C263 694 227 677 203 643 178 609 166 561 166 498 166 434 178 386 203 352 227 318 263 302 309 302 355 302 390 318 415 351 439 383 452 430 452 492 452 556 439 606 415 641 390 676 355 694 309 694Z"/>
</g>
<g id="font_102_104">
<path transform="matrix(.001,0,0,.001,0,0)" d="M41 0V52H122V708H36V760H212V427C228 461 250 488 276 506 302 524 333 533 369 533 426 533 468 516 495 484 522 451 536 400 536 330V52H616V0H368V52H446V302C446 365 438 408 422 432 406 455 379 467 340 467 298 467 266 451 244 421 222 391 212 347 212 289V52H290V0H41Z"/>
</g>
<g id="font_102_113">
<path transform="matrix(.001,0,0,.001,0,0)" d="M525 467V-155H611V-207H350V-155H435V81C417 48 395 24 368 9 340-5 307-13 267-13 203-13 150 12 110 62 70 112 50 178 50 260 50 341 70 407 110 457 150 507 203 533 267 533 307 533 340 525 368 510 395 494 417 470 435 438V519H611V467H525ZM435 285C435 347 423 394 399 427 375 460 340 477 295 477 249 477 214 458 190 422 166 386 155 332 155 260 155 188 166 133 190 97 214 60 249 42 295 42 340 42 375 58 399 91 423 123 435 171 435 234V285Z"/>
</g>
<g id="font_102_99">
<path transform="matrix(.001,0,0,.001,0,0)" d="M514 156C501 100 477 58 441 30 405 1 358-13 301-13 225-13 165 11 119 61 73 111 50 177 50 260 50 342 73 408 119 458 165 508 225 533 301 533 333 533 366 529 399 521 431 513 464 502 497 487V354H445C438 399 423 432 400 453 377 474 344 485 302 485 253 485 216 466 192 428 167 390 155 334 155 259 155 184 167 128 192 90 216 52 253 34 302 34 340 34 371 44 394 64 417 84 433 115 442 156H514Z"/>
</g>
<g id="font_102_107">
<path transform="matrix(.001,0,0,.001,0,0)" d="M286 0H34V52H115V708H29V760H205V265L424 467H349V519H584V467H495L341 324 538 52H613V0H357V52H431L276 265 205 199V52H286V0Z"/>
</g>
<clipPath id="clip_118">
<path transform="matrix(.013,0,0,-.013,316.24,17.075013)" d="M-770-347H2106V1110H-770Z"/>
</clipPath>
<clipPath id="clip_119">
<path transform="matrix(.013,0,0,-.013,407.11988,17.075013)" d="M-770-347H2106V1110H-770Z"/>
</clipPath>
<clipPath id="clip_120">
<path transform="matrix(.013,0,0,-.013,480.5432,17.075013)" d="M-770-347H2106V1110H-770Z"/>
</clipPath>
<g id="font_102_82">
<path transform="matrix(.001,0,0,.001,0,0)" d="M479 362C501 356 521 345 538 330 554 315 569 294 582 268L688 52H777V0H605L491 232C469 276 449 305 431 319 413 332 388 339 356 339H247V52H350V0H55V52H148V677H55V729H425C495 729 550 712 589 678 627 644 647 596 647 534 647 484 633 444 605 416 577 387 535 369 479 362ZM247 391H391C440 391 476 402 500 426 523 449 535 485 535 534 535 582 523 618 500 642 476 665 440 677 391 677H247V391Z"/>
</g>
<g id="font_102_67">
<path transform="matrix(.001,0,0,.001,0,0)" d="M705 193C683 125 647 73 597 39 546 4 482-13 405-13 357-13 312-5 272 11 231 27 195 50 164 82 127 118 100 160 82 206 64 252 56 305 56 364 56 477 88 568 154 638 219 707 305 742 413 742 453 742 495 736 540 726 584 716 633 700 685 679V511H630C618 572 593 617 557 646 521 675 470 690 405 690 327 690 268 662 228 607 188 551 168 470 168 364 168 257 188 176 228 121 268 65 327 38 405 38 459 38 503 51 539 77 574 103 599 141 615 193H705Z"/>
</g>
<g id="font_102_69">
<path transform="matrix(.001,0,0,.001,0,0)" d="M55 0V52H148V677H55V729H642V567H582V669H247V425H486V516H546V274H486V365H247V60H590V162H650V0H55Z"/>
</g>
<g id="font_102_91">
<path transform="matrix(.001,0,0,.001,0,0)" d="M86 760H313V708H179V-79H313V-131H86V760Z"/>
</g>
<g id="font_102_93">
<path transform="matrix(.001,0,0,.001,0,0)" d="M304 760V-131H77V-79H211V708H77V760H304Z"/>
</g>
</defs>
<path transform="matrix(1,0,0,-1,0,423.39189)" d="M0 0H711.22317V423.39189H0Z" fill="none"/>
<path transform="matrix(1,0,0,-1,0,423.39189)" d="M48.903127 39.496877H704.02316V400.31687H48.903127Z" fill="none"/>
<g clip-path="url(#clip_1)">
<g>
<path transform="matrix(1,0,0,-1,0,423.39189)" d="M78.681308 39.496877H84.63694 78.681308Z" fill="#2563eb" fill-opacity=".7"/>
<path transform="matrix(1,0,0,-1,0,423.39189)" stroke-width=".3" stroke-linecap="butt" stroke-miterlimit="10" stroke-linejoin="miter" fill="none" stroke="#ffffff" stroke-opacity=".7" d="M78.681308 39.496877H84.63694 78.681308Z"/>
</g>
</g>
<g clip-path="url(#clip_2)">
<g>
<path transform="matrix(1,0,0,-1,0,423.39189)" d="M84.63694 39.496877H90.59258 84.63694Z" fill="#2563eb" fill-opacity=".7"/>
<path transform="matrix(1,0,0,-1,0,423.39189)" stroke-width=".3" stroke-linecap="butt" stroke-miterlimit="10" stroke-linejoin="miter" fill="none" stroke="#ffffff" stroke-opacity=".7" d="M84.63694 39.496877H90.59258 84.63694Z"/>
</g>
</g>
<g clip-path="url(#clip_3)">
<g>
<path transform="matrix(1,0,0,-1,0,423.39189)" d="M90.59258 39.496877H96.54822 90.59258Z" fill="#2563eb" fill-opacity=".7"/>
<path transform="matrix(1,0,0,-1,0,423.39189)" stroke-width=".3" stroke-linecap="butt" stroke-miterlimit="10" stroke-linejoin="miter" fill="none" stroke="#ffffff" stroke-opacity=".7" d="M90.59258 39.496877H96.54822 90.59258Z"/>
</g>
</g>
<g clip-path="url(#clip_4)">
<g>
<path transform="matrix(1,0,0,-1,0,423.39189)" d="M96.54822 39.496877H102.50385 96.54822Z" fill="#2563eb" fill-opacity=".7"/>
<path transform="matrix(1,0,0,-1,0,423.39189)" stroke-width=".3" stroke-linecap="butt" stroke-miterlimit="10" stroke-linejoin="miter" fill="none" stroke="#ffffff" stroke-opacity=".7" d="M96.54822 39.496877H102.50385 96.54822Z"/>
</g>
</g>
<g clip-path="url(#clip_5)">
<g>
<path transform="matrix(1,0,0,-1,0,423.39189)" d="M102.50385 39.496877H108.45949 102.50385Z" fill="#2563eb" fill-opacity=".7"/>
<path transform="matrix(1,0,0,-1,0,423.39189)" stroke-width=".3" stroke-linecap="butt" stroke-miterlimit="10" stroke-linejoin="miter" fill="none" stroke="#ffffff" stroke-opacity=".7" d="M102.50385 39.496877H108.45949 102.50385Z"/>
</g>
</g>
<g clip-path="url(#clip_6)">
<g>
<path transform="matrix(1,0,0,-1,0,423.39189)" d="M108.45949 39.496877H114.41512 108.45949Z" fill="#2563eb" fill-opacity=".7"/>
<path transform="matrix(1,0,0,-1,0,423.39189)" stroke-width=".3" stroke-linecap="butt" stroke-miterlimit="10" stroke-linejoin="miter" fill="none" stroke="#ffffff" stroke-opacity=".7" d="M108.45949 39.496877H114.41512 108.45949Z"/>
</g>
</g>
<g clip-path="url(#clip_7)">
<g>
<path transform="matrix(1,0,0,-1,0,423.39189)" d="M114.41512 39.496877H120.37076 114.41512Z" fill="#2563eb" fill-opacity=".7"/>
<path transform="matrix(1,0,0,-1,0,423.39189)" stroke-width=".3" stroke-linecap="butt" stroke-miterlimit="10" stroke-linejoin="miter" fill="none" stroke="#ffffff" stroke-opacity=".7" d="M114.41512 39.496877H120.37076 114.41512Z"/>
</g>
</g>
<g clip-path="url(#clip_8)">
<g>
<path transform="matrix(1,0,0,-1,0,423.39189)" d="M120.37076 39.496877H126.3264 120.37076Z" fill="#2563eb" fill-opacity=".7"/>
<path transform="matrix(1,0,0,-1,0,423.39189)" stroke-width=".3" stroke-linecap="butt" stroke-miterlimit="10" stroke-linejoin="miter" fill="none" stroke="#ffffff" stroke-opacity=".7" d="M120.37076 39.496877H126.3264 120.37076Z"/>
</g>
</g>
<g clip-path="url(#clip_9)">
<g>
<path transform="matrix(1,0,0,-1,0,423.39189)" d="M126.3264 39.496877H132.28203 126.3264Z" fill="#2563eb" fill-opacity=".7"/>
<path transform="matrix(1,0,0,-1,0,423.39189)" stroke-width=".3" stroke-linecap="butt" stroke-miterlimit="10" stroke-linejoin="miter" fill="none" stroke="#ffffff" stroke-opacity=".7" d="M126.3264 39.496877H132.28203 126.3264Z"/>
</g>
</g>
<g clip-path="url(#clip_10)">
<g>
<path transform="matrix(1,0,0,-1,0,423.39189)" d="M132.28203 39.496877H138.23767 132.28203Z" fill="#2563eb" fill-opacity=".7"/>
<path transform="matrix(1,0,0,-1,0,423.39189)" stroke-width=".3" stroke-linecap="butt" stroke-miterlimit="10" stroke-linejoin="miter" fill="none" stroke="#ffffff" stroke-opacity=".7" d="M132.28203 39.496877H138.23767 132.28203Z"/>
</g>
</g>
<g clip-path="url(#clip_11)">
<g>
<path transform="matrix(1,0,0,-1,0,423.39189)" d="M138.23767 39.496877H144.19332 138.23767Z" fill="#2563eb" fill-opacity=".7"/>
<path transform="matrix(1,0,0,-1,0,423.39189)" stroke-width=".3" stroke-linecap="butt" stroke-miterlimit="10" stroke-linejoin="miter" fill="none" stroke="#ffffff" stroke-opacity=".7" d="M138.23767 39.496877H144.19332 138.23767Z"/>
</g>
</g>
<g clip-path="url(#clip_12)">
<g>
<path transform="matrix(1,0,0,-1,0,423.39189)" d="M144.19332 39.496877H150.14894 144.19332Z" fill="#2563eb" fill-opacity=".7"/>
<path transform="matrix(1,0,0,-1,0,423.39189)" stroke-width=".3" stroke-linecap="butt" stroke-miterlimit="10" stroke-linejoin="miter" fill="none" stroke="#ffffff" stroke-opacity=".7" d="M144.19332 39.496877H150.14894 144.19332Z"/>
</g>
</g>
<g clip-path="url(#clip_13)">
<g>
<path transform="matrix(1,0,0,-1,0,423.39189)" d="M150.14894 39.496877H156.10459 150.14894Z" fill="#2563eb" fill-opacity=".7"/>
<path transform="matrix(1,0,0,-1,0,423.39189)" stroke-width=".3" stroke-linecap="butt" stroke-miterlimit="10" stroke-linejoin="miter" fill="none" stroke="#ffffff" stroke-opacity=".7" d="M150.14894 39.496877H156.10459 150.14894Z"/>
</g>
</g>
<g clip-path="url(#clip_14)">
<g>
<path transform="matrix(1,0,0,-1,0,423.39189)" d="M156.10459 39.496877H162.06021 156.10459Z" fill="#2563eb" fill-opacity=".7"/>
<path transform="matrix(1,0,0,-1,0,423.39189)" stroke-width=".3" stroke-linecap="butt" stroke-miterlimit="10" stroke-linejoin="miter" fill="none" stroke="#ffffff" stroke-opacity=".7" d="M156.10459 39.496877H162.06021 156.10459Z"/>
</g>
</g>
<g clip-path="url(#clip_15)">
<g>
<path transform="matrix(1,0,0,-1,0,423.39189)" d="M162.06021 39.496877H168.01586 162.06021Z" fill="#2563eb" fill-opacity=".7"/>
<path transform="matrix(1,0,0,-1,0,423.39189)" stroke-width=".3" stroke-linecap="butt" stroke-miterlimit="10" stroke-linejoin="miter" fill="none" stroke="#ffffff" stroke-opacity=".7" d="M162.06021 39.496877H168.01586 162.06021Z"/>
</g>
</g>
<g clip-path="url(#clip_16)">
<g>
<path transform="matrix(1,0,0,-1,0,423.39189)" d="M168.01586 39.496877H173.9715 168.01586Z" fill="#2563eb" fill-opacity=".7"/>
<path transform="matrix(1,0,0,-1,0,423.39189)" stroke-width=".3" stroke-linecap="butt" stroke-miterlimit="10" stroke-linejoin="miter" fill="none" stroke="#ffffff" stroke-opacity=".7" d="M168.01586 39.496877H173.9715 168.01586Z"/>
</g>
</g>
<g clip-path="url(#clip_17)">
<g>
<path transform="matrix(1,0,0,-1,0,423.39189)" d="M173.9715 39.496877H179.92713 173.9715Z" fill="#2563eb" fill-opacity=".7"/>
<path transform="matrix(1,0,0,-1,0,423.39189)" stroke-width=".3" stroke-linecap="butt" stroke-miterlimit="10" stroke-linejoin="miter" fill="none" stroke="#ffffff" stroke-opacity=".7" d="M173.9715 39.496877H179.92713 173.9715Z"/>
</g>
</g>
<g clip-path="url(#clip_18)">
<g>
<path transform="matrix(1,0,0,-1,0,423.39189)" d="M179.92713 39.496877H185.88277 179.92713Z" fill="#2563eb" fill-opacity=".7"/>
<path transform="matrix(1,0,0,-1,0,423.39189)" stroke-width=".3" stroke-linecap="butt" stroke-miterlimit="10" stroke-linejoin="miter" fill="none" stroke="#ffffff" stroke-opacity=".7" d="M179.92713 39.496877H185.88277 179.92713Z"/>
</g>
</g>
<g clip-path="url(#clip_19)">
<g>
<path transform="matrix(1,0,0,-1,0,423.39189)" d="M185.88277 39.496877H191.8384 185.88277Z" fill="#2563eb" fill-opacity=".7"/>
<path transform="matrix(1,0,0,-1,0,423.39189)" stroke-width=".3" stroke-linecap="butt" stroke-miterlimit="10" stroke-linejoin="miter" fill="none" stroke="#ffffff" stroke-opacity=".7" d="M185.88277 39.496877H191.8384 185.88277Z"/>
</g>
</g>
<g clip-path="url(#clip_20)">
<g>
<path transform="matrix(1,0,0,-1,0,423.39189)" d="M191.8384 39.496877H197.79404 191.8384Z" fill="#2563eb" fill-opacity=".7"/>
<path transform="matrix(1,0,0,-1,0,423.39189)" stroke-width=".3" stroke-linecap="butt" stroke-miterlimit="10" stroke-linejoin="miter" fill="none" stroke="#ffffff" stroke-opacity=".7" d="M191.8384 39.496877H197.79404 191.8384Z"/>
</g>
</g>
<g clip-path="url(#clip_21)">
<g>
<path transform="matrix(1,0,0,-1,0,423.39189)" d="M197.79404 39.496877H203.74967 197.79404Z" fill="#2563eb" fill-opacity=".7"/>
<path transform="matrix(1,0,0,-1,0,423.39189)" stroke-width=".3" stroke-linecap="butt" stroke-miterlimit="10" stroke-linejoin="miter" fill="none" stroke="#ffffff" stroke-opacity=".7" d="M197.79404 39.496877H203.74967 197.79404Z"/>
</g>
</g>
<g clip-path="url(#clip_22)">
<g>
<path transform="matrix(1,0,0,-1,0,423.39189)" d="M203.74967 39.496877H209.7053 203.74967Z" fill="#2563eb" fill-opacity=".7"/>
<path transform="matrix(1,0,0,-1,0,423.39189)" stroke-width=".3" stroke-linecap="butt" stroke-miterlimit="10" stroke-linejoin="miter" fill="none" stroke="#ffffff" stroke-opacity=".7" d="M203.74967 39.496877H209.7053 203.74967Z"/>
</g>
</g>
<g clip-path="url(#clip_23)">
<g>
<path transform="matrix(1,0,0,-1,0,423.39189)" d="M209.7053 39.496877H215.66095 209.7053Z" fill="#2563eb" fill-opacity=".7"/>
<path transform="matrix(1,0,0,-1,0,423.39189)" stroke-width=".3" stroke-linecap="butt" stroke-miterlimit="10" stroke-linejoin="miter" fill="none" stroke="#ffffff" stroke-opacity=".7" d="M209.7053 39.496877H215.66095 209.7053Z"/>
</g>
</g>
<g clip-path="url(#clip_24)">
<g>
<path transform="matrix(1,0,0,-1,0,423.39189)" d="M215.66095 39.496877H221.61658 215.66095Z" fill="#2563eb" fill-opacity=".7"/>
<path transform="matrix(1,0,0,-1,0,423.39189)" stroke-width=".3" stroke-linecap="butt" stroke-miterlimit="10" stroke-linejoin="miter" fill="none" stroke="#ffffff" stroke-opacity=".7" d="M215.66095 39.496877H221.61658 215.66095Z"/>
</g>
</g>
<g clip-path="url(#clip_25)">
<g>
<path transform="matrix(1,0,0,-1,0,423.39189)" d="M221.61658 39.496877H227.57222 221.61658Z" fill="#2563eb" fill-opacity=".7"/>
<path transform="matrix(1,0,0,-1,0,423.39189)" stroke-width=".3" stroke-linecap="butt" stroke-miterlimit="10" stroke-linejoin="miter" fill="none" stroke="#ffffff" stroke-opacity=".7" d="M221.61658 39.496877H227.57222 221.61658Z"/>
</g>
</g>
<g clip-path="url(#clip_26)">
<g>
<path transform="matrix(1,0,0,-1,0,423.39189)" d="M227.57222 39.496877H233.52785 227.57222Z" fill="#2563eb" fill-opacity=".7"/>
<path transform="matrix(1,0,0,-1,0,423.39189)" stroke-width=".3" stroke-linecap="butt" stroke-miterlimit="10" stroke-linejoin="miter" fill="none" stroke="#ffffff" stroke-opacity=".7" d="M227.57222 39.496877H233.52785 227.57222Z"/>
</g>
</g>
<g clip-path="url(#clip_27)">
<g>
<path transform="matrix(1,0,0,-1,0,423.39189)" d="M233.52785 39.496877H239.48349 233.52785Z" fill="#2563eb" fill-opacity=".7"/>
<path transform="matrix(1,0,0,-1,0,423.39189)" stroke-width=".3" stroke-linecap="butt" stroke-miterlimit="10" stroke-linejoin="miter" fill="none" stroke="#ffffff" stroke-opacity=".7" d="M233.52785 39.496877H239.48349 233.52785Z"/>
</g>
</g>
<g clip-path="url(#clip_28)">
<g>
<path transform="matrix(1,0,0,-1,0,423.39189)" d="M239.48349 39.496877H245.43912 239.48349Z" fill="#2563eb" fill-opacity=".7"/>
<path transform="matrix(1,0,0,-1,0,423.39189)" stroke-width=".3" stroke-linecap="butt" stroke-miterlimit="10" stroke-linejoin="miter" fill="none" stroke="#ffffff" stroke-opacity=".7" d="M239.48349 39.496877H245.43912 239.48349Z"/>
</g>
</g>
<g clip-path="url(#clip_29)">
<g>
<path transform="matrix(1,0,0,-1,0,423.39189)" d="M245.43912 39.496877H251.39476 245.43912Z" fill="#2563eb" fill-opacity=".7"/>
<path transform="matrix(1,0,0,-1,0,423.39189)" stroke-width=".3" stroke-linecap="butt" stroke-miterlimit="10" stroke-linejoin="miter" fill="none" stroke="#ffffff" stroke-opacity=".7" d="M245.43912 39.496877H251.39476 245.43912Z"/>
</g>
</g>
<g clip-path="url(#clip_30)">
<g>
<path transform="matrix(1,0,0,-1,0,423.39189)" d="M251.39476 39.496877H257.3504 251.39476Z" fill="#2563eb" fill-opacity=".7"/>
<path transform="matrix(1,0,0,-1,0,423.39189)" stroke-width=".3" stroke-linecap="butt" stroke-miterlimit="10" stroke-linejoin="miter" fill="none" stroke="#ffffff" stroke-opacity=".7" d="M251.39476 39.496877H257.3504 251.39476Z"/>
</g>
</g>
<g clip-path="url(#clip_31)">
<g>
<path transform="matrix(1,0,0,-1,0,423.39189)" d="M257.3504 39.496877H263.30604 257.3504Z" fill="#2563eb" fill-opacity=".7"/>
<path transform="matrix(1,0,0,-1,0,423.39189)" stroke-width=".3" stroke-linecap="butt" stroke-miterlimit="10" stroke-linejoin="miter" fill="none" stroke="#ffffff" stroke-opacity=".7" d="M257.3504 39.496877H263.30604 257.3504Z"/>
</g>
</g>
<g clip-path="url(#clip_32)">
<g>
<path transform="matrix(1,0,0,-1,0,423.39189)" d="M263.30604 39.496877H269.26167 263.30604Z" fill="#2563eb" fill-opacity=".7"/>
<path transform="matrix(1,0,0,-1,0,423.39189)" stroke-width=".3" stroke-linecap="butt" stroke-miterlimit="10" stroke-linejoin="miter" fill="none" stroke="#ffffff" stroke-opacity=".7" d="M263.30604 39.496877H269.26167 263.30604Z"/>
</g>
</g>
<g clip-path="url(#clip_33)">
<g>
<path transform="matrix(1,0,0,-1,0,423.39189)" d="M269.26167 39.496877H275.21733 269.26167Z" fill="#2563eb" fill-opacity=".7"/>
<path transform="matrix(1,0,0,-1,0,423.39189)" stroke-width=".3" stroke-linecap="butt" stroke-miterlimit="10" stroke-linejoin="miter" fill="none" stroke="#ffffff" stroke-opacity=".7" d="M269.26167 39.496877H275.21733 269.26167Z"/>
</g>
</g>
<g clip-path="url(#clip_34)">
<g>
<path transform="matrix(1,0,0,-1,0,423.39189)" d="M275.21733 39.496877H281.17295 275.21733Z" fill="#2563eb" fill-opacity=".7"/>
<path transform="matrix(1,0,0,-1,0,423.39189)" stroke-width=".3" stroke-linecap="butt" stroke-miterlimit="10" stroke-linejoin="miter" fill="none" stroke="#ffffff" stroke-opacity=".7" d="M275.21733 39.496877H281.17295 275.21733Z"/>
</g>
</g>
<g clip-path="url(#clip_35)">
<g>
<path transform="matrix(1,0,0,-1,0,423.39189)" d="M281.17295 39.496877H287.12858 281.17295Z" fill="#2563eb" fill-opacity=".7"/>
<path transform="matrix(1,0,0,-1,0,423.39189)" stroke-width=".3" stroke-linecap="butt" stroke-miterlimit="10" stroke-linejoin="miter" fill="none" stroke="#ffffff" stroke-opacity=".7" d="M281.17295 39.496877H287.12858 281.17295Z"/>
</g>
</g>
<g clip-path="url(#clip_36)">
<g>
<path transform="matrix(1,0,0,-1,0,423.39189)" d="M287.12858 39.496877H293.08424 287.12858Z" fill="#2563eb" fill-opacity=".7"/>
<path transform="matrix(1,0,0,-1,0,423.39189)" stroke-width=".3" stroke-linecap="butt" stroke-miterlimit="10" stroke-linejoin="miter" fill="none" stroke="#ffffff" stroke-opacity=".7" d="M287.12858 39.496877H293.08424 287.12858Z"/>
</g>
</g>
<g clip-path="url(#clip_37)">
<g>
<path transform="matrix(1,0,0,-1,0,423.39189)" d="M293.08424 39.496877H299.03987 293.08424Z" fill="#2563eb" fill-opacity=".7"/>
<path transform="matrix(1,0,0,-1,0,423.39189)" stroke-width=".3" stroke-linecap="butt" stroke-miterlimit="10" stroke-linejoin="miter" fill="none" stroke="#ffffff" stroke-opacity=".7" d="M293.08424 39.496877H299.03987 293.08424Z"/>
</g>
</g>
<g clip-path="url(#clip_38)">
<g>
<path transform="matrix(1,0,0,-1,0,423.39189)" d="M299.03987 39.496877H304.99549 299.03987Z" fill="#2563eb" fill-opacity=".7"/>
<path transform="matrix(1,0,0,-1,0,423.39189)" stroke-width=".3" stroke-linecap="butt" stroke-miterlimit="10" stroke-linejoin="miter" fill="none" stroke="#ffffff" stroke-opacity=".7" d="M299.03987 39.496877H304.99549 299.03987Z"/>
</g>
</g>
<g clip-path="url(#clip_39)">
<g>
<path transform="matrix(1,0,0,-1,0,423.39189)" d="M304.99549 39.496877H310.9511 304.99549Z" fill="#2563eb" fill-opacity=".7"/>
<path transform="matrix(1,0,0,-1,0,423.39189)" stroke-width=".3" stroke-linecap="butt" stroke-miterlimit="10" stroke-linejoin="miter" fill="none" stroke="#ffffff" stroke-opacity=".7" d="M304.99549 39.496877H310.9511 304.99549Z"/>
</g>
</g>
<g clip-path="url(#clip_40)">
<g>
<path transform="matrix(1,0,0,-1,0,423.39189)" d="M310.9511 39.496877H316.90678 310.9511Z" fill="#2563eb" fill-opacity=".7"/>
<path transform="matrix(1,0,0,-1,0,423.39189)" stroke-width=".3" stroke-linecap="butt" stroke-miterlimit="10" stroke-linejoin="miter" fill="none" stroke="#ffffff" stroke-opacity=".7" d="M310.9511 39.496877H316.90678 310.9511Z"/>
</g>
</g>
<g clip-path="url(#clip_41)">
<g>
<path transform="matrix(1,0,0,-1,0,423.39189)" d="M316.90678 39.496877H322.8624 316.90678Z" fill="#2563eb" fill-opacity=".7"/>
<path transform="matrix(1,0,0,-1,0,423.39189)" stroke-width=".3" stroke-linecap="butt" stroke-miterlimit="10" stroke-linejoin="miter" fill="none" stroke="#ffffff" stroke-opacity=".7" d="M316.90678 39.496877H322.8624 316.90678Z"/>
</g>
</g>
<g clip-path="url(#clip_42)">
<g>
<path transform="matrix(1,0,0,-1,0,423.39189)" d="M322.8624 39.496877H328.81803 322.8624Z" fill="#2563eb" fill-opacity=".7"/>
<path transform="matrix(1,0,0,-1,0,423.39189)" stroke-width=".3" stroke-linecap="butt" stroke-miterlimit="10" stroke-linejoin="miter" fill="none" stroke="#ffffff" stroke-opacity=".7" d="M322.8624 39.496877H328.81803 322.8624Z"/>
</g>
</g>
<g clip-path="url(#clip_43)">
<g>
<path transform="matrix(1,0,0,-1,0,423.39189)" d="M328.81803 39.496877H334.77369 328.81803Z" fill="#2563eb" fill-opacity=".7"/>
<path transform="matrix(1,0,0,-1,0,423.39189)" stroke-width=".3" stroke-linecap="butt" stroke-miterlimit="10" stroke-linejoin="miter" fill="none" stroke="#ffffff" stroke-opacity=".7" d="M328.81803 39.496877H334.77369 328.81803Z"/>
</g>
</g>
<g clip-path="url(#clip_44)">
<g>
<path transform="matrix(1,0,0,-1,0,423.39189)" d="M334.77369 39.496877H340.7293 334.77369Z" fill="#2563eb" fill-opacity=".7"/>
<path transform="matrix(1,0,0,-1,0,423.39189)" stroke-width=".3" stroke-linecap="butt" stroke-miterlimit="10" stroke-linejoin="miter" fill="none" stroke="#ffffff" stroke-opacity=".7" d="M334.77369 39.496877H340.7293 334.77369Z"/>
</g>
</g>
<g clip-path="url(#clip_45)">
<g>
<path transform="matrix(1,0,0,-1,0,423.39189)" d="M340.7293 39.496877H346.68495 340.7293Z" fill="#2563eb" fill-opacity=".7"/>
<path transform="matrix(1,0,0,-1,0,423.39189)" stroke-width=".3" stroke-linecap="butt" stroke-miterlimit="10" stroke-linejoin="miter" fill="none" stroke="#ffffff" stroke-opacity=".7" d="M340.7293 39.496877H346.68495 340.7293Z"/>
</g>
</g>
<g clip-path="url(#clip_46)">
<g>
<path transform="matrix(1,0,0,-1,0,423.39189)" d="M346.68495 39.496877H352.6406 346.68495Z" fill="#2563eb" fill-opacity=".7"/>
<path transform="matrix(1,0,0,-1,0,423.39189)" stroke-width=".3" stroke-linecap="butt" stroke-miterlimit="10" stroke-linejoin="miter" fill="none" stroke="#ffffff" stroke-opacity=".7" d="M346.68495 39.496877H352.6406 346.68495Z"/>
</g>
</g>
<g clip-path="url(#clip_47)">
<g>
<path transform="matrix(1,0,0,-1,0,423.39189)" d="M352.6406 39.496877H358.59623 352.6406Z" fill="#2563eb" fill-opacity=".7"/>
<path transform="matrix(1,0,0,-1,0,423.39189)" stroke-width=".3" stroke-linecap="butt" stroke-miterlimit="10" stroke-linejoin="miter" fill="none" stroke="#ffffff" stroke-opacity=".7" d="M352.6406 39.496877H358.59623 352.6406Z"/>
</g>
</g>
<g clip-path="url(#clip_48)">
<g>
<path transform="matrix(1,0,0,-1,0,423.39189)" d="M358.59623 39.496877H364.55186 358.59623Z" fill="#2563eb" fill-opacity=".7"/>
<path transform="matrix(1,0,0,-1,0,423.39189)" stroke-width=".3" stroke-linecap="butt" stroke-miterlimit="10" stroke-linejoin="miter" fill="none" stroke="#ffffff" stroke-opacity=".7" d="M358.59623 39.496877H364.55186 358.59623Z"/>
</g>
</g>
<g clip-path="url(#clip_49)">
<g>
<path transform="matrix(1,0,0,-1,0,423.39189)" d="M364.55186 39.496877H370.50749 364.55186Z" fill="#2563eb" fill-opacity=".7"/>
<path transform="matrix(1,0,0,-1,0,423.39189)" stroke-width=".3" stroke-linecap="butt" stroke-miterlimit="10" stroke-linejoin="miter" fill="none" stroke="#ffffff" stroke-opacity=".7" d="M364.55186 39.496877H370.50749 364.55186Z"/>
</g>
</g>
<g clip-path="url(#clip_50)">
<g>
<path transform="matrix(1,0,0,-1,0,423.39189)" d="M370.50749 39.496877H376.46315 370.50749Z" fill="#2563eb" fill-opacity=".7"/>
<path transform="matrix(1,0,0,-1,0,423.39189)" stroke-width=".3" stroke-linecap="butt" stroke-miterlimit="10" stroke-linejoin="miter" fill="none" stroke="#ffffff" stroke-opacity=".7" d="M370.50749 39.496877H376.46315 370.50749Z"/>
</g>
</g>
<g clip-path="url(#clip_51)">
<g>
<path transform="matrix(1,0,0,-1,0,423.39189)" d="M376.46315 39.496877H382.41877V383.13499H376.46315Z" fill="#2563eb" fill-opacity=".7"/>
<path transform="matrix(1,0,0,-1,0,423.39189)" stroke-width=".3" stroke-linecap="butt" stroke-miterlimit="10" stroke-linejoin="miter" fill="none" stroke="#ffffff" stroke-opacity=".7" d="M376.46315 39.496877H382.41877V383.13499H376.46315Z"/>
</g>
</g>
<g clip-path="url(#clip_52)">
<g>
<path transform="matrix(1,0,0,-1,0,423.39189)" d="M382.41877 39.496877H388.3744 382.41877Z" fill="#2563eb" fill-opacity=".7"/>
<path transform="matrix(1,0,0,-1,0,423.39189)" stroke-width=".3" stroke-linecap="butt" stroke-miterlimit="10" stroke-linejoin="miter" fill="none" stroke="#ffffff" stroke-opacity=".7" d="M382.41877 39.496877H388.3744 382.41877Z"/>
</g>
</g>
<g clip-path="url(#clip_53)">
<g>
<path transform="matrix(1,0,0,-1,0,423.39189)" d="M388.3744 39.496877H394.33006 388.3744Z" fill="#2563eb" fill-opacity=".7"/>
<path transform="matrix(1,0,0,-1,0,423.39189)" stroke-width=".3" stroke-linecap="butt" stroke-miterlimit="10" stroke-linejoin="miter" fill="none" stroke="#ffffff" stroke-opacity=".7" d="M388.3744 39.496877H394.33006 388.3744Z"/>
</g>
</g>
<g clip-path="url(#clip_54)">
<g>
<path transform="matrix(1,0,0,-1,0,423.39189)" d="M394.33006 39.496877H400.28569 394.33006Z" fill="#2563eb" fill-opacity=".7"/>
<path transform="matrix(1,0,0,-1,0,423.39189)" stroke-width=".3" stroke-linecap="butt" stroke-miterlimit="10" stroke-linejoin="miter" fill="none" stroke="#ffffff" stroke-opacity=".7" d="M394.33006 39.496877H400.28569 394.33006Z"/>
</g>
</g>
<g clip-path="url(#clip_55)">
<g>
<path transform="matrix(1,0,0,-1,0,423.39189)" d="M400.28569 39.496877H406.2413 400.28569Z" fill="#2563eb" fill-opacity=".7"/>
<path transform="matrix(1,0,0,-1,0,423.39189)" stroke-width=".3" stroke-linecap="butt" stroke-miterlimit="10" stroke-linejoin="miter" fill="none" stroke="#ffffff" stroke-opacity=".7" d="M400.28569 39.496877H406.2413 400.28569Z"/>
</g>
</g>
<g clip-path="url(#clip_56)">
<g>
<path transform="matrix(1,0,0,-1,0,423.39189)" d="M406.2413 39.496877H412.19694 406.2413Z" fill="#2563eb" fill-opacity=".7"/>
<path transform="matrix(1,0,0,-1,0,423.39189)" stroke-width=".3" stroke-linecap="butt" stroke-miterlimit="10" stroke-linejoin="miter" fill="none" stroke="#ffffff" stroke-opacity=".7" d="M406.2413 39.496877H412.19694 406.2413Z"/>
</g>
</g>
<g clip-path="url(#clip_57)">
<g>
<path transform="matrix(1,0,0,-1,0,423.39189)" d="M412.19694 39.496877H418.1526 412.19694Z" fill="#2563eb" fill-opacity=".7"/>
<path transform="matrix(1,0,0,-1,0,423.39189)" stroke-width=".3" stroke-linecap="butt" stroke-miterlimit="10" stroke-linejoin="miter" fill="none" stroke="#ffffff" stroke-opacity=".7" d="M412.19694 39.496877H418.1526 412.19694Z"/>
</g>
</g>
<g clip-path="url(#clip_58)">
<g>
<path transform="matrix(1,0,0,-1,0,423.39189)" d="M418.1526 39.496877H424.10823 418.1526Z" fill="#2563eb" fill-opacity=".7"/>
<path transform="matrix(1,0,0,-1,0,423.39189)" stroke-width=".3" stroke-linecap="butt" stroke-miterlimit="10" stroke-linejoin="miter" fill="none" stroke="#ffffff" stroke-opacity=".7" d="M418.1526 39.496877H424.10823 418.1526Z"/>
</g>
</g>
<g clip-path="url(#clip_59)">
<g>
<path transform="matrix(1,0,0,-1,0,423.39189)" d="M424.10823 39.496877H430.06385 424.10823Z" fill="#2563eb" fill-opacity=".7"/>
<path transform="matrix(1,0,0,-1,0,423.39189)" stroke-width=".3" stroke-linecap="butt" stroke-miterlimit="10" stroke-linejoin="miter" fill="none" stroke="#ffffff" stroke-opacity=".7" d="M424.10823 39.496877H430.06385 424.10823Z"/>
</g>
</g>
<g clip-path="url(#clip_60)">
<g>
<path transform="matrix(1,0,0,-1,0,423.39189)" d="M430.06385 39.496877H436.0195 430.06385Z" fill="#2563eb" fill-opacity=".7"/>
<path transform="matrix(1,0,0,-1,0,423.39189)" stroke-width=".3" stroke-linecap="butt" stroke-miterlimit="10" stroke-linejoin="miter" fill="none" stroke="#ffffff" stroke-opacity=".7" d="M430.06385 39.496877H436.0195 430.06385Z"/>
</g>
</g>
<g clip-path="url(#clip_61)">
<g>
<path transform="matrix(1,0,0,-1,0,423.39189)" d="M436.0195 39.496877H441.97514 436.0195Z" fill="#2563eb" fill-opacity=".7"/>
<path transform="matrix(1,0,0,-1,0,423.39189)" stroke-width=".3" stroke-linecap="butt" stroke-miterlimit="10" stroke-linejoin="miter" fill="none" stroke="#ffffff" stroke-opacity=".7" d="M436.0195 39.496877H441.97514 436.0195Z"/>
</g>
</g>
<g clip-path="url(#clip_62)">
<g>
<path transform="matrix(1,0,0,-1,0,423.39189)" d="M441.97514 39.496877H447.93077 441.97514Z" fill="#2563eb" fill-opacity=".7"/>
<path transform="matrix(1,0,0,-1,0,423.39189)" stroke-width=".3" stroke-linecap="butt" stroke-miterlimit="10" stroke-linejoin="miter" fill="none" stroke="#ffffff" stroke-opacity=".7" d="M441.97514 39.496877H447.93077 441.97514Z"/>
</g>
</g>
<g clip-path="url(#clip_63)">
<g>
<path transform="matrix(1,0,0,-1,0,423.39189)" d="M447.93077 39.496877H453.88639 447.93077Z" fill="#2563eb" fill-opacity=".7"/>
<path transform="matrix(1,0,0,-1,0,423.39189)" stroke-width=".3" stroke-linecap="butt" stroke-miterlimit="10" stroke-linejoin="miter" fill="none" stroke="#ffffff" stroke-opacity=".7" d="M447.93077 39.496877H453.88639 447.93077Z"/>
</g>
</g>
<g clip-path="url(#clip_64)">
<g>
<path transform="matrix(1,0,0,-1,0,423.39189)" d="M453.88639 39.496877H459.84205 453.88639Z" fill="#2563eb" fill-opacity=".7"/>
<path transform="matrix(1,0,0,-1,0,423.39189)" stroke-width=".3" stroke-linecap="butt" stroke-miterlimit="10" stroke-linejoin="miter" fill="none" stroke="#ffffff" stroke-opacity=".7" d="M453.88639 39.496877H459.84205 453.88639Z"/>
</g>
</g>
<g clip-path="url(#clip_65)">
<g>
<path transform="matrix(1,0,0,-1,0,423.39189)" d="M459.84205 39.496877H465.79768 459.84205Z" fill="#2563eb" fill-opacity=".7"/>
<path transform="matrix(1,0,0,-1,0,423.39189)" stroke-width=".3" stroke-linecap="butt" stroke-miterlimit="10" stroke-linejoin="miter" fill="none" stroke="#ffffff" stroke-opacity=".7" d="M459.84205 39.496877H465.79768 459.84205Z"/>
</g>
</g>
<g clip-path="url(#clip_66)">
<g>
<path transform="matrix(1,0,0,-1,0,423.39189)" d="M465.79768 39.496877H471.7533 465.79768Z" fill="#2563eb" fill-opacity=".7"/>
<path transform="matrix(1,0,0,-1,0,423.39189)" stroke-width=".3" stroke-linecap="butt" stroke-miterlimit="10" stroke-linejoin="miter" fill="none" stroke="#ffffff" stroke-opacity=".7" d="M465.79768 39.496877H471.7533 465.79768Z"/>
</g>
</g>
<g clip-path="url(#clip_67)">
<g>
<path transform="matrix(1,0,0,-1,0,423.39189)" d="M471.7533 39.496877H477.70896 471.7533Z" fill="#2563eb" fill-opacity=".7"/>
<path transform="matrix(1,0,0,-1,0,423.39189)" stroke-width=".3" stroke-linecap="butt" stroke-miterlimit="10" stroke-linejoin="miter" fill="none" stroke="#ffffff" stroke-opacity=".7" d="M471.7533 39.496877H477.70896 471.7533Z"/>
</g>
</g>
<g clip-path="url(#clip_68)">
<g>
<path transform="matrix(1,0,0,-1,0,423.39189)" d="M477.70896 39.496877H483.66459 477.70896Z" fill="#2563eb" fill-opacity=".7"/>
<path transform="matrix(1,0,0,-1,0,423.39189)" stroke-width=".3" stroke-linecap="butt" stroke-miterlimit="10" stroke-linejoin="miter" fill="none" stroke="#ffffff" stroke-opacity=".7" d="M477.70896 39.496877H483.66459 477.70896Z"/>
</g>
</g>
<g clip-path="url(#clip_69)">
<g>
<path transform="matrix(1,0,0,-1,0,423.39189)" d="M483.66459 39.496877H489.6202 483.66459Z" fill="#2563eb" fill-opacity=".7"/>
<path transform="matrix(1,0,0,-1,0,423.39189)" stroke-width=".3" stroke-linecap="butt" stroke-miterlimit="10" stroke-linejoin="miter" fill="none" stroke="#ffffff" stroke-opacity=".7" d="M483.66459 39.496877H489.6202 483.66459Z"/>
</g>
</g>
<g clip-path="url(#clip_70)">
<g>
<path transform="matrix(1,0,0,-1,0,423.39189)" d="M489.6202 39.496877H495.57588 489.6202Z" fill="#2563eb" fill-opacity=".7"/>
<path transform="matrix(1,0,0,-1,0,423.39189)" stroke-width=".3" stroke-linecap="butt" stroke-miterlimit="10" stroke-linejoin="miter" fill="none" stroke="#ffffff" stroke-opacity=".7" d="M489.6202 39.496877H495.57588 489.6202Z"/>
</g>
</g>
<g clip-path="url(#clip_71)">
<g>
<path transform="matrix(1,0,0,-1,0,423.39189)" d="M495.57588 39.496877H501.5315 495.57588Z" fill="#2563eb" fill-opacity=".7"/>
<path transform="matrix(1,0,0,-1,0,423.39189)" stroke-width=".3" stroke-linecap="butt" stroke-miterlimit="10" stroke-linejoin="miter" fill="none" stroke="#ffffff" stroke-opacity=".7" d="M495.57588 39.496877H501.5315 495.57588Z"/>
</g>
</g>
<g clip-path="url(#clip_72)">
<g>
<path transform="matrix(1,0,0,-1,0,423.39189)" d="M501.5315 39.496877H507.48713 501.5315Z" fill="#2563eb" fill-opacity=".7"/>
<path transform="matrix(1,0,0,-1,0,423.39189)" stroke-width=".3" stroke-linecap="butt" stroke-miterlimit="10" stroke-linejoin="miter" fill="none" stroke="#ffffff" stroke-opacity=".7" d="M501.5315 39.496877H507.48713 501.5315Z"/>
</g>
</g>
<g clip-path="url(#clip_73)">
<g>
<path transform="matrix(1,0,0,-1,0,423.39189)" d="M507.48713 39.496877H513.44277 507.48713Z" fill="#2563eb" fill-opacity=".7"/>
<path transform="matrix(1,0,0,-1,0,423.39189)" stroke-width=".3" stroke-linecap="butt" stroke-miterlimit="10" stroke-linejoin="miter" fill="none" stroke="#ffffff" stroke-opacity=".7" d="M507.48713 39.496877H513.44277 507.48713Z"/>
</g>
</g>
<g clip-path="url(#clip_74)">
<g>
<path transform="matrix(1,0,0,-1,0,423.39189)" d="M513.44277 39.496877H519.3984 513.44277Z" fill="#2563eb" fill-opacity=".7"/>
<path transform="matrix(1,0,0,-1,0,423.39189)" stroke-width=".3" stroke-linecap="butt" stroke-miterlimit="10" stroke-linejoin="miter" fill="none" stroke="#ffffff" stroke-opacity=".7" d="M513.44277 39.496877H519.3984 513.44277Z"/>
</g>
</g>
<g clip-path="url(#clip_75)">
<g>
<path transform="matrix(1,0,0,-1,0,423.39189)" d="M519.3984 39.496877H525.354 519.3984Z" fill="#2563eb" fill-opacity=".7"/>
<path transform="matrix(1,0,0,-1,0,423.39189)" stroke-width=".3" stroke-linecap="butt" stroke-miterlimit="10" stroke-linejoin="miter" fill="none" stroke="#ffffff" stroke-opacity=".7" d="M519.3984 39.496877H525.354 519.3984Z"/>
</g>
</g>
<g clip-path="url(#clip_76)">
<g>
<path transform="matrix(1,0,0,-1,0,423.39189)" d="M525.354 39.496877H531.3097 525.354Z" fill="#2563eb" fill-opacity=".7"/>
<path transform="matrix(1,0,0,-1,0,423.39189)" stroke-width=".3" stroke-linecap="butt" stroke-miterlimit="10" stroke-linejoin="miter" fill="none" stroke="#ffffff" stroke-opacity=".7" d="M525.354 39.496877H531.3097 525.354Z"/>
</g>
</g>
<g clip-path="url(#clip_77)">
<g>
<path transform="matrix(1,0,0,-1,0,423.39189)" d="M531.3097 39.496877H537.2653 531.3097Z" fill="#2563eb" fill-opacity=".7"/>
<path transform="matrix(1,0,0,-1,0,423.39189)" stroke-width=".3" stroke-linecap="butt" stroke-miterlimit="10" stroke-linejoin="miter" fill="none" stroke="#ffffff" stroke-opacity=".7" d="M531.3097 39.496877H537.2653 531.3097Z"/>
</g>
</g>
<g clip-path="url(#clip_78)">
<g>
<path transform="matrix(1,0,0,-1,0,423.39189)" d="M537.2653 39.496877H543.22097 537.2653Z" fill="#2563eb" fill-opacity=".7"/>
<path transform="matrix(1,0,0,-1,0,423.39189)" stroke-width=".3" stroke-linecap="butt" stroke-miterlimit="10" stroke-linejoin="miter" fill="none" stroke="#ffffff" stroke-opacity=".7" d="M537.2653 39.496877H543.22097 537.2653Z"/>
</g>
</g>
<g clip-path="url(#clip_79)">
<g>
<path transform="matrix(1,0,0,-1,0,423.39189)" d="M543.22097 39.496877H549.1766 543.22097Z" fill="#2563eb" fill-opacity=".7"/>
<path transform="matrix(1,0,0,-1,0,423.39189)" stroke-width=".3" stroke-linecap="butt" stroke-miterlimit="10" stroke-linejoin="miter" fill="none" stroke="#ffffff" stroke-opacity=".7" d="M543.22097 39.496877H549.1766 543.22097Z"/>
</g>
</g>
<g clip-path="url(#clip_80)">
<g>
<path transform="matrix(1,0,0,-1,0,423.39189)" d="M549.1766 39.496877H555.1322 549.1766Z" fill="#2563eb" fill-opacity=".7"/>
<path transform="matrix(1,0,0,-1,0,423.39189)" stroke-width=".3" stroke-linecap="butt" stroke-miterlimit="10" stroke-linejoin="miter" fill="none" stroke="#ffffff" stroke-opacity=".7" d="M549.1766 39.496877H555.1322 549.1766Z"/>
</g>
</g>
<g clip-path="url(#clip_81)">
<g>
<path transform="matrix(1,0,0,-1,0,423.39189)" d="M555.1322 39.496877H561.0878 555.1322Z" fill="#2563eb" fill-opacity=".7"/>
<path transform="matrix(1,0,0,-1,0,423.39189)" stroke-width=".3" stroke-linecap="butt" stroke-miterlimit="10" stroke-linejoin="miter" fill="none" stroke="#ffffff" stroke-opacity=".7" d="M555.1322 39.496877H561.0878 555.1322Z"/>
</g>
</g>
<g clip-path="url(#clip_82)">
<g>
<path transform="matrix(1,0,0,-1,0,423.39189)" d="M561.0878 39.496877H567.0435 561.0878Z" fill="#2563eb" fill-opacity=".7"/>
<path transform="matrix(1,0,0,-1,0,423.39189)" stroke-width=".3" stroke-linecap="butt" stroke-miterlimit="10" stroke-linejoin="miter" fill="none" stroke="#ffffff" stroke-opacity=".7" d="M561.0878 39.496877H567.0435 561.0878Z"/>
</g>
</g>
<g clip-path="url(#clip_83)">
<g>
<path transform="matrix(1,0,0,-1,0,423.39189)" d="M567.0435 39.496877H572.99917 567.0435Z" fill="#2563eb" fill-opacity=".7"/>
<path transform="matrix(1,0,0,-1,0,423.39189)" stroke-width=".3" stroke-linecap="butt" stroke-miterlimit="10" stroke-linejoin="miter" fill="none" stroke="#ffffff" stroke-opacity=".7" d="M567.0435 39.496877H572.99917 567.0435Z"/>
</g>
</g>
<g clip-path="url(#clip_84)">
<g>
<path transform="matrix(1,0,0,-1,0,423.39189)" d="M572.99917 39.496877H578.9548 572.99917Z" fill="#2563eb" fill-opacity=".7"/>
<path transform="matrix(1,0,0,-1,0,423.39189)" stroke-width=".3" stroke-linecap="butt" stroke-miterlimit="10" stroke-linejoin="miter" fill="none" stroke="#ffffff" stroke-opacity=".7" d="M572.99917 39.496877H578.9548 572.99917Z"/>
</g>
</g>
<g clip-path="url(#clip_85)">
<g>
<path transform="matrix(1,0,0,-1,0,423.39189)" d="M578.9548 39.496877H584.9104 578.9548Z" fill="#2563eb" fill-opacity=".7"/>
<path transform="matrix(1,0,0,-1,0,423.39189)" stroke-width=".3" stroke-linecap="butt" stroke-miterlimit="10" stroke-linejoin="miter" fill="none" stroke="#ffffff" stroke-opacity=".7" d="M578.9548 39.496877H584.9104 578.9548Z"/>
</g>
</g>
<g clip-path="url(#clip_86)">
<g>
<path transform="matrix(1,0,0,-1,0,423.39189)" d="M584.9104 39.496877H590.866 584.9104Z" fill="#2563eb" fill-opacity=".7"/>
<path transform="matrix(1,0,0,-1,0,423.39189)" stroke-width=".3" stroke-linecap="butt" stroke-miterlimit="10" stroke-linejoin="miter" fill="none" stroke="#ffffff" stroke-opacity=".7" d="M584.9104 39.496877H590.866 584.9104Z"/>
</g>
</g>
<g clip-path="url(#clip_87)">
<g>
<path transform="matrix(1,0,0,-1,0,423.39189)" d="M590.866 39.496877H596.82168 590.866Z" fill="#2563eb" fill-opacity=".7"/>
<path transform="matrix(1,0,0,-1,0,423.39189)" stroke-width=".3" stroke-linecap="butt" stroke-miterlimit="10" stroke-linejoin="miter" fill="none" stroke="#ffffff" stroke-opacity=".7" d="M590.866 39.496877H596.82168 590.866Z"/>
</g>
</g>
<g clip-path="url(#clip_88)">
<g>
<path transform="matrix(1,0,0,-1,0,423.39189)" d="M596.82168 39.496877H602.7773 596.82168Z" fill="#2563eb" fill-opacity=".7"/>
<path transform="matrix(1,0,0,-1,0,423.39189)" stroke-width=".3" stroke-linecap="butt" stroke-miterlimit="10" stroke-linejoin="miter" fill="none" stroke="#ffffff" stroke-opacity=".7" d="M596.82168 39.496877H602.7773 596.82168Z"/>
</g>
</g>
<g clip-path="url(#clip_89)">
<g>
<path transform="matrix(1,0,0,-1,0,423.39189)" d="M602.7773 39.496877H608.733 602.7773Z" fill="#2563eb" fill-opacity=".7"/>
<path transform="matrix(1,0,0,-1,0,423.39189)" stroke-width=".3" stroke-linecap="butt" stroke-miterlimit="10" stroke-linejoin="miter" fill="none" stroke="#ffffff" stroke-opacity=".7" d="M602.7773 39.496877H608.733 602.7773Z"/>
</g>
</g>
<g clip-path="url(#clip_90)">
<g>
<path transform="matrix(1,0,0,-1,0,423.39189)" d="M608.733 39.496877H614.6886 608.733Z" fill="#2563eb" fill-opacity=".7"/>
<path transform="matrix(1,0,0,-1,0,423.39189)" stroke-width=".3" stroke-linecap="butt" stroke-miterlimit="10" stroke-linejoin="miter" fill="none" stroke="#ffffff" stroke-opacity=".7" d="M608.733 39.496877H614.6886 608.733Z"/>
</g>
</g>
<g clip-path="url(#clip_91)">
<g>
<path transform="matrix(1,0,0,-1,0,423.39189)" d="M614.6886 39.496877H620.6442 614.6886Z" fill="#2563eb" fill-opacity=".7"/>
<path transform="matrix(1,0,0,-1,0,423.39189)" stroke-width=".3" stroke-linecap="butt" stroke-miterlimit="10" stroke-linejoin="miter" fill="none" stroke="#ffffff" stroke-opacity=".7" d="M614.6886 39.496877H620.6442 614.6886Z"/>
</g>
</g>
<g clip-path="url(#clip_92)">
<g>
<path transform="matrix(1,0,0,-1,0,423.39189)" d="M620.6442 39.496877H626.59988 620.6442Z" fill="#2563eb" fill-opacity=".7"/>
<path transform="matrix(1,0,0,-1,0,423.39189)" stroke-width=".3" stroke-linecap="butt" stroke-miterlimit="10" stroke-linejoin="miter" fill="none" stroke="#ffffff" stroke-opacity=".7" d="M620.6442 39.496877H626.59988 620.6442Z"/>
</g>
</g>
<g clip-path="url(#clip_93)">
<g>
<path transform="matrix(1,0,0,-1,0,423.39189)" d="M626.59988 39.496877H632.5555 626.59988Z" fill="#2563eb" fill-opacity=".7"/>
<path transform="matrix(1,0,0,-1,0,423.39189)" stroke-width=".3" stroke-linecap="butt" stroke-miterlimit="10" stroke-linejoin="miter" fill="none" stroke="#ffffff" stroke-opacity=".7" d="M626.59988 39.496877H632.5555 626.59988Z"/>
</g>
</g>
<g clip-path="url(#clip_94)">
<g>
<path transform="matrix(1,0,0,-1,0,423.39189)" d="M632.5555 39.496877H638.5111 632.5555Z" fill="#2563eb" fill-opacity=".7"/>
<path transform="matrix(1,0,0,-1,0,423.39189)" stroke-width=".3" stroke-linecap="butt" stroke-miterlimit="10" stroke-linejoin="miter" fill="none" stroke="#ffffff" stroke-opacity=".7" d="M632.5555 39.496877H638.5111 632.5555Z"/>
</g>
</g>
<g clip-path="url(#clip_95)">
<g>
<path transform="matrix(1,0,0,-1,0,423.39189)" d="M638.5111 39.496877H644.46676 638.5111Z" fill="#2563eb" fill-opacity=".7"/>
<path transform="matrix(1,0,0,-1,0,423.39189)" stroke-width=".3" stroke-linecap="butt" stroke-miterlimit="10" stroke-linejoin="miter" fill="none" stroke="#ffffff" stroke-opacity=".7" d="M638.5111 39.496877H644.46676 638.5111Z"/>
</g>
</g>
<g clip-path="url(#clip_96)">
<g>
<path transform="matrix(1,0,0,-1,0,423.39189)" d="M644.46676 39.496877H650.4224 644.46676Z" fill="#2563eb" fill-opacity=".7"/>
<path transform="matrix(1,0,0,-1,0,423.39189)" stroke-width=".3" stroke-linecap="butt" stroke-miterlimit="10" stroke-linejoin="miter" fill="none" stroke="#ffffff" stroke-opacity=".7" d="M644.46676 39.496877H650.4224 644.46676Z"/>
</g>
</g>
<g clip-path="url(#clip_97)">
<g>
<path transform="matrix(1,0,0,-1,0,423.39189)" d="M650.4224 39.496877H656.37808 650.4224Z" fill="#2563eb" fill-opacity=".7"/>
<path transform="matrix(1,0,0,-1,0,423.39189)" stroke-width=".3" stroke-linecap="butt" stroke-miterlimit="10" stroke-linejoin="miter" fill="none" stroke="#ffffff" stroke-opacity=".7" d="M650.4224 39.496877H656.37808 650.4224Z"/>
</g>
</g>
<g clip-path="url(#clip_98)">
<g>
<path transform="matrix(1,0,0,-1,0,423.39189)" d="M656.37808 39.496877H662.3337 656.37808Z" fill="#2563eb" fill-opacity=".7"/>
<path transform="matrix(1,0,0,-1,0,423.39189)" stroke-width=".3" stroke-linecap="butt" stroke-miterlimit="10" stroke-linejoin="miter" fill="none" stroke="#ffffff" stroke-opacity=".7" d="M656.37808 39.496877H662.3337 656.37808Z"/>
</g>
</g>
<g clip-path="url(#clip_99)">
<g>
<path transform="matrix(1,0,0,-1,0,423.39189)" d="M662.3337 39.496877H668.2893 662.3337Z" fill="#2563eb" fill-opacity=".7"/>
<path transform="matrix(1,0,0,-1,0,423.39189)" stroke-width=".3" stroke-linecap="butt" stroke-miterlimit="10" stroke-linejoin="miter" fill="none" stroke="#ffffff" stroke-opacity=".7" d="M662.3337 39.496877H668.2893 662.3337Z"/>
</g>
</g>
<g clip-path="url(#clip_100)">
<g>
<path transform="matrix(1,0,0,-1,0,423.39189)" d="M668.2893 39.496877H674.24496 668.2893Z" fill="#2563eb" fill-opacity=".7"/>
<path transform="matrix(1,0,0,-1,0,423.39189)" stroke-width=".3" stroke-linecap="butt" stroke-miterlimit="10" stroke-linejoin="miter" fill="none" stroke="#ffffff" stroke-opacity=".7" d="M668.2893 39.496877H674.24496 668.2893Z"/>
</g>
</g>
<g clip-path="url(#clip_101)">
<path transform="matrix(1,0,0,-1,0,423.39189)" stroke-width=".5" stroke-linecap="square" stroke-linejoin="round" fill="none" stroke="#b0b0b0" stroke-opacity=".3" d="M138.23767 39.496877V400.31687"/>
</g>
<path transform="matrix(1,0,0,-1,0,423.39189)" d="M138.23767 39.496877V35.996877"/>
<path transform="matrix(1,0,0,-1,0,423.39189)" stroke-width=".8" stroke-linecap="butt" stroke-linejoin="round" fill="none" stroke="#000000" d="M138.23767 39.496877V35.996877"/>
<use data-text="0" xlink:href="#font_102_48" transform="matrix(10,0,0,-10,134.47595,398.48875)"/>
<use data-text="." xlink:href="#font_102_46" transform="matrix(10,0,0,-10,140.83596,398.48875)"/>
<use data-text="4" xlink:href="#font_102_52" transform="matrix(10,0,0,-10,144.01596,398.48875)"/>
<g clip-path="url(#clip_103)">
<path transform="matrix(.01,0,0,-.01,126.097049,398.48875)" d="M106 353H732V274H106V353Z"/>
</g>
<g clip-path="url(#clip_104)">
<path transform="matrix(1,0,0,-1,0,423.39189)" stroke-width=".5" stroke-linecap="square" stroke-linejoin="round" fill="none" stroke="#b0b0b0" stroke-opacity=".3" d="M257.3504 39.496877V400.31687"/>
</g>
<path transform="matrix(1,0,0,-1,0,423.39189)" d="M257.3504 39.496877V35.996877"/>
<path transform="matrix(1,0,0,-1,0,423.39189)" stroke-width=".8" stroke-linecap="butt" stroke-linejoin="round" fill="none" stroke="#000000" d="M257.3504 39.496877V35.996877"/>
<use data-text="0" xlink:href="#font_102_48" transform="matrix(10,0,0,-10,253.58869,398.48875)"/>
<use data-text="." xlink:href="#font_102_46" transform="matrix(10,0,0,-10,259.94868,398.48875)"/>
<use data-text="2" xlink:href="#font_102_50" transform="matrix(10,0,0,-10,263.1287,398.48875)"/>
<g clip-path="url(#clip_105)">
<path transform="matrix(.01,0,0,-.01,245.20978,398.48875)" d="M106 353H732V274H106V353Z"/>
</g>
<g clip-path="url(#clip_106)">
<path transform="matrix(1,0,0,-1,0,423.39189)" stroke-width=".5" stroke-linecap="square" stroke-linejoin="round" fill="none" stroke="#b0b0b0" stroke-opacity=".3" d="M376.46315 39.496877V400.31687"/>
</g>
<path transform="matrix(1,0,0,-1,0,423.39189)" d="M376.46315 39.496877V35.996877"/>
<path transform="matrix(1,0,0,-1,0,423.39189)" stroke-width=".8" stroke-linecap="butt" stroke-linejoin="round" fill="none" stroke="#000000" d="M376.46315 39.496877V35.996877"/>
<use data-text="0" xlink:href="#font_102_48" transform="matrix(10,0,0,-10,368.51,398.48875)"/>
<use data-text="." xlink:href="#font_102_46" transform="matrix(10,0,0,-10,374.87,398.48875)"/>
<use data-text="0" xlink:href="#font_102_48" transform="matrix(10,0,0,-10,378.05003,398.48875)"/>
<g clip-path="url(#clip_107)">
<path transform="matrix(1,0,0,-1,0,423.39189)" stroke-width=".5" stroke-linecap="square" stroke-linejoin="round" fill="none" stroke="#b0b0b0" stroke-opacity=".3" d="M495.57588 39.496877V400.31687"/>
</g>
<path transform="matrix(1,0,0,-1,0,423.39189)" d="M495.57588 39.496877V35.996877"/>
<path transform="matrix(1,0,0,-1,0,423.39189)" stroke-width=".8" stroke-linecap="butt" stroke-linejoin="round" fill="none" stroke="#000000" d="M495.57588 39.496877V35.996877"/>
<use data-text="0" xlink:href="#font_102_48" transform="matrix(10,0,0,-10,487.62275,398.48875)"/>
<use data-text="." xlink:href="#font_102_46" transform="matrix(10,0,0,-10,493.98274,398.48875)"/>
<use data-text="2" xlink:href="#font_102_50" transform="matrix(10,0,0,-10,497.16276,398.48875)"/>
<g clip-path="url(#clip_108)">
<path transform="matrix(1,0,0,-1,0,423.39189)" stroke-width=".5" stroke-linecap="square" stroke-linejoin="round" fill="none" stroke="#b0b0b0" stroke-opacity=".3" d="M614.6886 39.496877V400.31687"/>
</g>
<path transform="matrix(1,0,0,-1,0,423.39189)" d="M614.6886 39.496877V35.996877"/>
<path transform="matrix(1,0,0,-1,0,423.39189)" stroke-width=".8" stroke-linecap="butt" stroke-linejoin="round" fill="none" stroke="#000000" d="M614.6886 39.496877V35.996877"/>
<use data-text="0" xlink:href="#font_102_48" transform="matrix(10,0,0,-10,606.7355,398.48875)"/>
<use data-text="." xlink:href="#font_102_46" transform="matrix(10,0,0,-10,613.09548,398.48875)"/>
<use data-text="4" xlink:href="#font_102_52" transform="matrix(10,0,0,-10,616.27548,398.48875)"/>
<use data-text="B" xlink:href="#font_102_66" transform="matrix(12,0,0,-12,313.84596,413.69187)"/>
<use data-text="a" xlink:href="#font_102_97" transform="matrix(12,0,0,-12,322.66596,413.69187)"/>
<use data-text="d" xlink:href="#font_102_100" transform="matrix(12,0,0,-12,329.81794,413.69187)"/>
<use data-text=" " xlink:href="#font_102_32" transform="matrix(12,0,0,-12,337.49797,413.69187)"/>
<use data-text="D" xlink:href="#font_102_68" transform="matrix(12,0,0,-12,341.31394,413.69187)"/>
<use data-text="e" xlink:href="#font_102_101" transform="matrix(12,0,0,-12,350.93797,413.69187)"/>
<use data-text="b" xlink:href="#font_102_98" transform="matrix(12,0,0,-12,358.04197,413.69187)"/>
<use data-text="t" xlink:href="#font_102_116" transform="matrix(12,0,0,-12,365.72196,413.69187)"/>
<use data-text=" " xlink:href="#font_102_32" transform="matrix(12,0,0,-12,370.54597,413.69187)"/>
<use data-text="(" xlink:href="#font_102_40" transform="matrix(12,0,0,-12,374.36195,413.69187)"/>
<use data-text="%" xlink:href="#font_102_37" transform="matrix(12,0,0,-12,379.04197,413.69187)"/>
<use data-text=" " xlink:href="#font_102_32" transform="matrix(12,0,0,-12,390.44197,413.69187)"/>
<use data-text="o" xlink:href="#font_102_111" transform="matrix(12,0,0,-12,394.25798,413.69187)"/>
<use data-text="f" xlink:href="#font_102_102" transform="matrix(12,0,0,-12,401.48197,413.69187)"/>
<use data-text=" " xlink:href="#font_102_32" transform="matrix(12,0,0,-12,405.92198,413.69187)"/>
<use data-text="T" xlink:href="#font_102_84" transform="matrix(12,0,0,-12,409.73799,413.69187)"/>
<use data-text="V" xlink:href="#font_102_86" transform="matrix(12,0,0,-12,417.74195,413.69187)"/>
<use data-text="L" xlink:href="#font_102_76" transform="matrix(12,0,0,-12,426.40596,413.69187)"/>
<use data-text=")" xlink:href="#font_102_41" transform="matrix(12,0,0,-12,434.37397,413.69187)"/>
<g clip-path="url(#clip_109)">
<path transform="matrix(1,0,0,-1,0,423.39189)" stroke-width=".5" stroke-linecap="square" stroke-linejoin="round" fill="none" stroke="#b0b0b0" stroke-opacity=".3" d="M48.903127 39.496877H704.02316"/>
</g>
<path transform="matrix(1,0,0,-1,0,423.39189)" d="M48.903127 39.496877H45.403127"/>
<path transform="matrix(1,0,0,-1,0,423.39189)" stroke-width=".8" stroke-linecap="butt" stroke-linejoin="round" fill="none" stroke="#000000" d="M48.903127 39.496877H45.403127"/>
<use data-text="0" xlink:href="#font_102_48" transform="matrix(10,0,0,-10,35.54375,387.69187)"/>
<g clip-path="url(#clip_110)">
<path transform="matrix(1,0,0,-1,0,423.39189)" stroke-width=".5" stroke-linecap="square" stroke-linejoin="round" fill="none" stroke="#b0b0b0" stroke-opacity=".3" d="M48.903127 108.224498H704.02316"/>
</g>
<path transform="matrix(1,0,0,-1,0,423.39189)" d="M48.903127 108.224498H45.403127"/>
<path transform="matrix(1,0,0,-1,0,423.39189)" stroke-width=".8" stroke-linecap="butt" stroke-linejoin="round" fill="none" stroke="#000000" d="M48.903127 108.224498H45.403127"/>
<use data-text="2" xlink:href="#font_102_50" transform="matrix(10,0,0,-10,29.184376,318.96427)"/>
<use data-text="0" xlink:href="#font_102_48" transform="matrix(10,0,0,-10,35.544378,318.96427)"/>
<g clip-path="url(#clip_111)">
<path transform="matrix(1,0,0,-1,0,423.39189)" stroke-width=".5" stroke-linecap="square" stroke-linejoin="round" fill="none" stroke="#b0b0b0" stroke-opacity=".3" d="M48.903127 176.95212H704.02316"/>
</g>
<path transform="matrix(1,0,0,-1,0,423.39189)" d="M48.903127 176.95212H45.403127"/>
<path transform="matrix(1,0,0,-1,0,423.39189)" stroke-width=".8" stroke-linecap="butt" stroke-linejoin="round" fill="none" stroke="#000000" d="M48.903127 176.95212H45.403127"/>
<use data-text="4" xlink:href="#font_102_52" transform="matrix(10,0,0,-10,29.184376,250.23664)"/>
<use data-text="0" xlink:href="#font_102_48" transform="matrix(10,0,0,-10,35.544378,250.23664)"/>
<g clip-path="url(#clip_112)">
<path transform="matrix(1,0,0,-1,0,423.39189)" stroke-width=".5" stroke-linecap="square" stroke-linejoin="round" fill="none" stroke="#b0b0b0" stroke-opacity=".3" d="M48.903127 245.67974H704.02316"/>
</g>
<path transform="matrix(1,0,0,-1,0,423.39189)" d="M48.903127 245.67974H45.403127"/>
<path transform="matrix(1,0,0,-1,0,423.39189)" stroke-width=".8" stroke-linecap="butt" stroke-linejoin="round" fill="none" stroke="#000000" d="M48.903127 245.67974H45.403127"/>
<use data-text="6" xlink:href="#font_102_54" transform="matrix(10,0,0,-10,29.184376,181.50902)"/>
<use data-text="0" xlink:href="#font_102_48" transform="matrix(10,0,0,-10,35.544378,181.50902)"/>
<g clip-path="url(#clip_113)">
<path transform="matrix(1,0,0,-1,0,423.39189)" stroke-width=".5" stroke-linecap="square" stroke-linejoin="round" fill="none" stroke="#b0b0b0" stroke-opacity=".3" d="M48.903127 314.40736H704.02316"/>
</g>
<path transform="matrix(1,0,0,-1,0,423.39189)" d="M48.903127 314.40736H45.403127"/>
<path transform="matrix(1,0,0,-1,0,423.39189)" stroke-width=".8" stroke-linecap="butt" stroke-linejoin="round" fill="none" stroke="#000000" d="M48.903127 314.40736H45.403127"/>
<use data-text="8" xlink:href="#font_102_56" transform="matrix(10,0,0,-10,29.184376,112.7814)"/>
<use data-text="0" xlink:href="#font_102_48" transform="matrix(10,0,0,-10,35.544378,112.7814)"/>
<g clip-path="url(#clip_114)">
<path transform="matrix(1,0,0,-1,0,423.39189)" stroke-width=".5" stroke-linecap="square" stroke-linejoin="round" fill="none" stroke="#b0b0b0" stroke-opacity=".3" d="M48.903127 383.13499H704.02316"/>
</g>
<path transform="matrix(1,0,0,-1,0,423.39189)" d="M48.903127 383.13499H45.403127"/>
<path transform="matrix(1,0,0,-1,0,423.39189)" stroke-width=".8" stroke-linecap="butt" stroke-linejoin="round" fill="none" stroke="#000000" d="M48.903127 383.13499H45.403127"/>
<use data-text="1" xlink:href="#font_102_49" transform="matrix(10,0,0,-10,22.825,44.053773)"/>
<use data-text="0" xlink:href="#font_102_48" transform="matrix(10,0,0,-10,29.185002,44.053773)"/>
<use data-text="0" xlink:href="#font_102_48" transform="matrix(10,0,0,-10,35.545003,44.053773)"/>
<use data-text="D" xlink:href="#font_102_68" transform="matrix(0,-12,-12,-0,16.153126,226.52407)"/>
<use data-text="e" xlink:href="#font_102_101" transform="matrix(0,-12,-12,-0,16.153126,216.90006)"/>
<use data-text="n" xlink:href="#font_102_110" transform="matrix(0,-12,-12,-0,16.153126,209.79607)"/>
<use data-text="s" xlink:href="#font_102_115" transform="matrix(0,-12,-12,-0,16.153126,202.06806)"/>
<use data-text="i" xlink:href="#font_102_105" transform="matrix(0,-12,-12,-0,16.153126,195.91207)"/>
<use data-text="t" xlink:href="#font_102_116" transform="matrix(0,-12,-12,-0,16.153126,192.07205)"/>
<use data-text="y" xlink:href="#font_102_121" transform="matrix(0,-12,-12,-0,16.153126,187.24806)"/>
<g clip-path="url(#clip_115)">
<path transform="matrix(1,0,0,-1,0,423.39189)" stroke-width="1.5" stroke-linecap="butt" stroke-dasharray="5.55,2.4" stroke-linejoin="round" fill="none" stroke="#dc2626" d="M376.46315 39.496877V400.31687"/>
</g>
<g clip-path="url(#clip_116)">
<path transform="matrix(1,0,0,-1,0,423.39189)" stroke-width="1.5" stroke-linecap="butt" stroke-dasharray="5.55,2.4" stroke-linejoin="round" fill="none" stroke="#f59e0b" d="M376.46315 39.496877V400.31687"/>
</g>
<g clip-path="url(#clip_117)">
<path transform="matrix(1,0,0,-1,0,423.39189)" stroke-width="1.5" stroke-linecap="square" stroke-linejoin="round" fill="none" stroke="#16a34a" d="M376.46315 39.496877V400.31687"/>
</g>
<path transform="matrix(1,0,0,-1,0,423.39189)" stroke-width=".8" stroke-linecap="square" stroke-miterlimit="10" stroke-linejoin="miter" fill="none" stroke="#000000" d="M48.903127 39.496877V400.31687"/>
<path transform="matrix(1,0,0,-1,0,423.39189)" stroke-width=".8" stroke-linecap="square" stroke-miterlimit="10" stroke-linejoin="miter" fill="none" stroke="#000000" d="M48.903127 39.496877H704.02316"/>
<use data-text="B" xlink:href="#font_102_66" transform="matrix(13,0,0,-13,167.43187,17.075013)"/>
<use data-text="a" xlink:href="#font_102_97" transform="matrix(13,0,0,-13,176.98688,17.075013)"/>
<use data-text="d" xlink:href="#font_102_100" transform="matrix(13,0,0,-13,184.73487,17.075013)"/>
<use data-text=" " xlink:href="#font_102_32" transform="matrix(13,0,0,-13,193.05487,17.075013)"/>
<use data-text="D" xlink:href="#font_102_68" transform="matrix(13,0,0,-13,197.18888,17.075013)"/>
<use data-text="e" xlink:href="#font_102_101" transform="matrix(13,0,0,-13,207.61487,17.075013)"/>
<use data-text="b" xlink:href="#font_102_98" transform="matrix(13,0,0,-13,215.31087,17.075013)"/>
<use data-text="t" xlink:href="#font_102_116" transform="matrix(13,0,0,-13,223.63088,17.075013)"/>
<use data-text=" " xlink:href="#font_102_32" transform="matrix(13,0,0,-13,228.85688,17.075013)"/>
<use data-text="D" xlink:href="#font_102_68" transform="matrix(13,0,0,-13,232.99088,17.075013)"/>
<use data-text="i" xlink:href="#font_102_105" transform="matrix(13,0,0,-13,243.41687,17.075013)"/>
<use data-text="s" xlink:href="#font_102_115" transform="matrix(13,0,0,-13,247.57688,17.075013)"/>
<use data-text="t" xlink:href="#font_102_116" transform="matrix(13,0,0,-13,254.24588,17.075013)"/>
<use data-text="r" xlink:href="#font_102_114" transform="matrix(13,0,0,-13,259.47187,17.075013)"/>
<use data-text="i" xlink:href="#font_102_105" transform="matrix(13,0,0,-13,265.68589,17.075013)"/>
<use data-text="b" xlink:href="#font_102_98" transform="matrix(13,0,0,-13,269.8459,17.075013)"/>
<use data-text="u" xlink:href="#font_102_117" transform="matrix(13,0,0,-13,278.1659,17.075013)"/>
<use data-text="t" xlink:href="#font_102_116" transform="matrix(13,0,0,-13,286.53788,17.075013)"/>
<use data-text="i" xlink:href="#font_102_105" transform="matrix(13,0,0,-13,291.7639,17.075013)"/>
<use data-text="o" xlink:href="#font_102_111" transform="matrix(13,0,0,-13,295.9239,17.075013)"/>
<use data-text="n" xlink:href="#font_102_110" transform="matrix(13,0,0,-13,303.74989,17.075013)"/>
<use data-text=" " xlink:href="#font_102_32" transform="matrix(13,0,0,-13,312.1219,17.075013)"/>
<use data-text=" " xlink:href="#font_102_32" transform="matrix(13,0,0,-13,329.24,17.075013)"/>
<use data-text="L" xlink:href="#font_102_76" transform="matrix(13,0,0,-13,333.37397,17.075013)"/>
<use data-text="T" xlink:href="#font_102_84" transform="matrix(13,0,0,-13,340.9591,17.075013)"/>
<use data-text="V" xlink:href="#font_102_86" transform="matrix(13,0,0,-13,349.63014,17.075013)"/>
<use data-text="=" xlink:href="#font_102_61" transform="matrix(13,0,0,-13,359.0161,17.075013)"/>
<use data-text="0" xlink:href="#font_102_48" transform="matrix(13,0,0,-13,369.9101,17.075013)"/>
<use data-text="." xlink:href="#font_102_46" transform="matrix(13,0,0,-13,378.1781,17.075013)"/>
<use data-text="3" xlink:href="#font_102_51" transform="matrix(13,0,0,-13,382.31214,17.075013)"/>
<use data-text="3" xlink:href="#font_102_51" transform="matrix(13,0,0,-13,390.58015,17.075013)"/>
<use data-text="," xlink:href="#font_102_44" transform="matrix(13,0,0,-13,398.84815,17.075013)"/>
<use data-text=" " xlink:href="#font_102_32" transform="matrix(13,0,0,-13,402.98213,17.075013)"/>
<use data-text="=" xlink:href="#font_102_61" transform="matrix(13,0,0,-13,415.89869,17.075013)"/>
<use data-text="0" xlink:href="#font_102_48" transform="matrix(13,0,0,-13,426.79267,17.075013)"/>
<use data-text="." xlink:href="#font_102_46" transform="matrix(13,0,0,-13,435.06068,17.075013)"/>
<use data-text="9" xlink:href="#font_102_57" transform="matrix(13,0,0,-13,439.1947,17.075013)"/>
<use data-text="4" xlink:href="#font_102_52" transform="matrix(13,0,0,-13,447.4627,17.075013)"/>
<use data-text="3" xlink:href="#font_102_51" transform="matrix(13,0,0,-13,455.7307,17.075013)"/>
<use data-text="9" xlink:href="#font_102_57" transform="matrix(13,0,0,-13,463.99873,17.075013)"/>
<use data-text="," xlink:href="#font_102_44" transform="matrix(13,0,0,-13,472.26673,17.075013)"/>
<use data-text=" " xlink:href="#font_102_32" transform="matrix(13,0,0,-13,476.4007,17.075013)"/>
<use data-text="t" xlink:href="#font_102_116" transform="matrix(13,0,0,-13,489.9314,17.075013)"/>
<use data-text="=" xlink:href="#font_102_61" transform="matrix(13,0,0,-13,495.1574,17.075013)"/>
<use data-text="1" xlink:href="#font_102_49" transform="matrix(13,0,0,-13,506.0514,17.075013)"/>
<use data-text="." xlink:href="#font_102_46" transform="matrix(13,0,0,-13,514.3194,17.075013)"/>
<use data-text="0" xlink:href="#font_102_48" transform="matrix(13,0,0,-13,518.4534,17.075013)"/>
<use data-text="h" xlink:href="#font_102_104" transform="matrix(13,0,0,-13,526.72146,17.075013)"/>
<use data-text=" " xlink:href="#font_102_32" transform="matrix(13,0,0,-13,535.09347,17.075013)"/>
<use data-text="(" xlink:href="#font_102_40" transform="matrix(13,0,0,-13,539.2274,17.075013)"/>
<use data-text="q" xlink:href="#font_102_113" transform="matrix(13,0,0,-13,544.2974,17.075013)"/>
<use data-text="u" xlink:href="#font_102_117" transform="matrix(13,0,0,-13,552.61746,17.075013)"/>
<use data-text="i" xlink:href="#font_102_105" transform="matrix(13,0,0,-13,560.98947,17.075013)"/>
<use data-text="c" xlink:href="#font_102_99" transform="matrix(13,0,0,-13,565.1495,17.075013)"/>
<use data-text="k" xlink:href="#font_102_107" transform="matrix(13,0,0,-13,572.42947,17.075013)"/>
<use data-text=")" xlink:href="#font_102_41" transform="matrix(13,0,0,-13,580.30746,17.075013)"/>
<g clip-path="url(#clip_118)">
<path transform="matrix(.013,0,0,-.013,316.24,17.075013)" d="M44 298H956V233H44V298Z"/>
</g>
<g clip-path="url(#clip_119)">
<path transform="matrix(.013,0,0,-.013,407.11988,17.075013)" d="M432 128 412 74C402 46 381 23 351 5 330-6 302-11 267-11 202-10 150 14 110 63 70 114 50 180 50 262 50 341 70 407 110 459 148 508 207 533 288 533 343 533 385 522 413 500 437 480 454 450 464 408L468 390 487 444C499 478 521 504 555 521H604V492C573 482 552 462 541 432L490 293 524 144C536 92 548 64 561 59 578 50 607 58 648 83V24C582-13 525-12 479 26 458 44 445 67 439 93L432 128ZM411 224 380 367C363 443 333 481 289 482 251 482 218 462 190 422 166 389 155 335 155 260 155 188 166 133 190 97 216 57 250 38 294 42 332 44 364 86 391 166L411 224Z"/>
</g>
<g clip-path="url(#clip_120)">
<path transform="matrix(.013,0,0,-.013,480.5432,17.075013)" d="M680 0H38L318 729H400L680 0ZM548 52 334 611 119 52H548Z"/>
</g>
<g>
<path transform="matrix(1,0,0,-1,0,423.39189)" d="M560.97628 348.30125H697.02316C698.35647 348.30125 699.02316 348.96794 699.02316 350.30125V393.31687C699.02316 394.6502 698.35647 395.31687 697.02316 395.31687H560.97628C559.64297 395.31687 558.97628 394.6502 558.97628 393.31687V350.30125C558.97628 348.96794 559.64297 348.30125 560.97628 348.30125Z" fill="#ffffff" fill-opacity=".8"/>
<path transform="matrix(1,0,0,-1,0,423.39189)" stroke-width="1" stroke-linecap="butt" stroke-miterlimit="10" stroke-linejoin="miter" fill="none" stroke="#cccccc" stroke-opacity=".8" d="M560.97628 348.30125H697.02316C698.35647 348.30125 699.02316 348.96794 699.02316 350.30125V393.31687C699.02316 394.6502 698.35647 395.31687 697.02316 395.31687H560.97628C559.64297 395.31687 558.97628 394.6502 558.97628 393.31687V350.30125C558.97628 348.96794 559.64297 348.30125 560.97628 348.30125Z"/>
</g>
<path transform="matrix(1,0,0,-1,0,423.39189)" stroke-width="1.5" stroke-linecap="butt" stroke-dasharray="5.55,2.4" stroke-linejoin="round" fill="none" stroke="#dc2626" d="M562.97628 387.2231H572.97628 582.97628"/>
<use data-text="V" xlink:href="#font_102_86" transform="matrix(10,0,0,-10,590.97628,39.668764)"/>
<use data-text="a" xlink:href="#font_102_97" transform="matrix(10,0,0,-10,597.29,39.668764)"/>
<use data-text="R" xlink:href="#font_102_82" transform="matrix(10,0,0,-10,603.25,39.668764)"/>
<use data-text="(" xlink:href="#font_102_40" transform="matrix(10,0,0,-10,610.78,39.668764)"/>
<use data-text="9" xlink:href="#font_102_57" transform="matrix(10,0,0,-10,614.68,39.668764)"/>
<use data-text="9" xlink:href="#font_102_57" transform="matrix(10,0,0,-10,621.04006,39.668764)"/>
<use data-text="%" xlink:href="#font_102_37" transform="matrix(10,0,0,-10,627.4,39.668764)"/>
<use data-text=")" xlink:href="#font_102_41" transform="matrix(10,0,0,-10,636.9,39.668764)"/>
<use data-text=" " xlink:href="#font_102_32" transform="matrix(10,0,0,-10,640.8,39.668764)"/>
<use data-text="=" xlink:href="#font_102_61" transform="matrix(10,0,0,-10,643.98,39.668764)"/>
<use data-text=" " xlink:href="#font_102_32" transform="matrix(10,0,0,-10,652.36,39.668764)"/>
<use data-text="0" xlink:href="#font_102_48" transform="matrix(10,0,0,-10,655.54006,39.668764)"/>
<use data-text="." xlink:href="#font_102_46" transform="matrix(10,0,0,-10,661.9,39.668764)"/>
<use data-text="0" xlink:href="#font_102_48" transform="matrix(10,0,0,-10,665.08,39.668764)"/>
<use data-text="0" xlink:href="#font_102_48" transform="matrix(10,0,0,-10,671.44,39.668764)"/>
<use data-text="%" xlink:href="#font_102_37" transform="matrix(10,0,0,-10,677.8,39.668764)"/>
<path transform="matrix(1,0,0,-1,0,423.39189)" stroke-width="1.5" stroke-linecap="butt" stroke-dasharray="5.55,2.4" stroke-linejoin="round" fill="none" stroke="#f59e0b" d="M562.97628 372.55125H572.97628 582.97628"/>
<use data-text="C" xlink:href="#font_102_67" transform="matrix(10,0,0,-10,590.97628,54.340639)"/>
<use data-text="V" xlink:href="#font_102_86" transform="matrix(10,0,0,-10,598.6263,54.340639)"/>
<use data-text="a" xlink:href="#font_102_97" transform="matrix(10,0,0,-10,604.94,54.340639)"/>
<use data-text="R" xlink:href="#font_102_82" transform="matrix(10,0,0,-10,610.9,54.340639)"/>
<use data-text="(" xlink:href="#font_102_40" transform="matrix(10,0,0,-10,618.43,54.340639)"/>
<use data-text="9" xlink:href="#font_102_57" transform="matrix(10,0,0,-10,622.33,54.340639)"/>
<use data-text="9" xlink:href="#font_102_57" transform="matrix(10,0,0,-10,628.69,54.340639)"/>
<use data-text="%" xlink:href="#font_102_37" transform="matrix(10,0,0,-10,635.05,54.340639)"/>
<use data-text=")" xlink:href="#font_102_41" transform="matrix(10,0,0,-10,644.55,54.340639)"/>
<use data-text=" " xlink:href="#font_102_32" transform="matrix(10,0,0,-10,648.45,54.340639)"/>
<use data-text="=" xlink:href="#font_102_61" transform="matrix(10,0,0,-10,651.63,54.340639)"/>
<use data-text=" " xlink:href="#font_102_32" transform="matrix(10,0,0,-10,660.01,54.340639)"/>
<use data-text="0" xlink:href="#font_102_48" transform="matrix(10,0,0,-10,663.19,54.340639)"/>
<use data-text="." xlink:href="#font_102_46" transform="matrix(10,0,0,-10,669.55,54.340639)"/>
<use data-text="0" xlink:href="#font_102_48" transform="matrix(10,0,0,-10,672.73,54.340639)"/>
<use data-text="0" xlink:href="#font_102_48" transform="matrix(10,0,0,-10,679.09,54.340639)"/>
<use data-text="%" xlink:href="#font_102_37" transform="matrix(10,0,0,-10,685.45,54.340639)"/>
<path transform="matrix(1,0,0,-1,0,423.39189)" stroke-width="1.5" stroke-linecap="square" stroke-linejoin="round" fill="none" stroke="#16a34a" d="M562.97628 357.87937H572.97628 582.97628"/>
<use data-text="E" xlink:href="#font_102_69" transform="matrix(10,0,0,-10,590.97628,69.01251)"/>
<use data-text="[" xlink:href="#font_102_91" transform="matrix(10,0,0,-10,598.27627,69.01251)"/>
<use data-text="B" xlink:href="#font_102_66" transform="matrix(10,0,0,-10,602.1763,69.01251)"/>
<use data-text="D" xlink:href="#font_102_68" transform="matrix(10,0,0,-10,609.52627,69.01251)"/>
<use data-text="]" xlink:href="#font_102_93" transform="matrix(10,0,0,-10,617.54629,69.01251)"/>
<use data-text=" " xlink:href="#font_102_32" transform="matrix(10,0,0,-10,621.4463,69.01251)"/>
<use data-text="=" xlink:href="#font_102_61" transform="matrix(10,0,0,-10,624.6263,69.01251)"/>
<use data-text=" " xlink:href="#font_102_32" transform="matrix(10,0,0,-10,633.0063,69.01251)"/>
<use data-text="0" xlink:href="#font_102_48" transform="matrix(10,0,0,-10,636.1863,69.01251)"/>
<use data-text="." xlink:href="#font_102_46" transform="matrix(10,0,0,-10,642.54629,69.01251)"/>
<use data-text="0" xlink:href="#font_102_48" transform="matrix(10,0,0,-10,645.72628,69.01251)"/>
<use data-text="0" xlink:href="#font_102_48" transform="matrix(10,0,0,-10,652.08627,69.01251)"/>
<use data-text="0" xlink:href="#font_102_48" transform="matrix(10,0,0,-10,658.4463,69.01251)"/>
<use data-text="%" xlink:href="#font_102_37" transform="matrix(10,0,0,-10,664.8063,69.01251)"/>
</svg>
