<svg xmlns="http://www.w3.org/2000/svg" xmlns:xlink="http://www.w3.org/1999/xlink" version="1.1" width="711.17pt" height="423.30876pt" viewBox="0 0 711.17 423.30876">
<defs>
<clipPath id="clip_1">
<path transform="matrix(1,0,0,-1,0,423.30876)" d="M58.45 39.66875H703.97006V400.23377H58.45Z"/>
</clipPath>
<clipPath id="clip_2">
<path transform="matrix(1,0,0,-1,0,423.30876)" d="M58.45 39.66875H703.97006V400.23377H58.45Z"/>
</clipPath>
<clipPath id="clip_3">
<path transform="matrix(1,0,0,-1,0,423.30876)" d="M58.45 39.66875H703.97006V400.23377H58.45Z"/>
</clipPath>
<clipPath id="clip_4">
<path transform="matrix(1,0,0,-1,0,423.30876)" d="M58.45 39.66875H703.97006V400.23377H58.45Z"/>
</clipPath>
<clipPath id="clip_5">
<path transform="matrix(1,0,0,-1,0,423.30876)" d="M58.45 39.66875H703.97006V400.23377H58.45Z"/>
</clipPath>
<clipPath id="clip_6">
<path transform="matrix(1,0,0,-1,0,423.30876)" d="M58.45 39.66875H703.97006V400.23377H58.45Z"/>
</clipPath>
<clipPath id="clip_7">
<path transform="matrix(1,0,0,-1,0,423.30876)" d="M58.45 39.66875H703.97006V400.23377H58.45Z"/>
</clipPath>
<clipPath id="clip_8">
<path transform="matrix(1,0,0,-1,0,423.30876)" d="M58.45 39.66875H703.97006V400.23377H58.45Z"/>
</clipPath>
<clipPath id="clip_9">
<path transform="matrix(1,0,0,-1,0,423.30876)" d="M58.45 39.66875H703.97006V400.23377H58.45Z"/>
</clipPath>
<clipPath id="clip_10">
<path transform="matrix(1,0,0,-1,0,423.30876)" d="M58.45 39.66875H703.97006V400.23377H58.45Z"/>
</clipPath>
<clipPath id="clip_11">
<path transform="matrix(1,0,0,-1,0,423.30876)" d="M58.45 39.66875H703.97006V400.23377H58.45Z"/>
</clipPath>
<clipPath id="clip_12">
<path transform="matrix(1,0,0,-1,0,423.30876)" d="M58.45 39.66875H703.97006V400.23377H58.45Z"/>
</clipPath>
<clipPath id="clip_13">
<path transform="matrix(1,0,0,-1,0,423.30876)" d="M58.45 39.66875H703.97006V400.23377H58.45Z"/>
</clipPath>
<clipPath id="clip_14">
<path transform="matrix(1,0,0,-1,0,423.30876)" d="M58.45 39.66875H703.97006V400.23377H58.45Z"/>
</clipPath>
<clipPath id="clip_15">
<path transform="matrix(1,0,0,-1,0,423.30876)" d="M58.45 39.66875H703.97006V400.23377H58.45Z"/>
</clipPath>
<clipPath id="clip_16">
<path transform="matrix(1,0,0,-1,0,423.30876)" d="M58.45 39.66875H703.97006V400.23377H58.45Z"/>
</clipPath>
<clipPath id="clip_17">
<path transform="matrix(1,0,0,-1,0,423.30876)" d="M58.45 39.66875H703.97006V400.23377H58.45Z"/>
</clipPath>
<clipPath id="clip_18">
<path transform="matrix(1,0,0,-1,0,423.30876)" d="M58.45 39.66875H703.97006V400.23377H58.45Z"/>
</clipPath>
<clipPath id="clip_19">
<path transform="matrix(1,0,0,-1,0,423.30876)" d="M58.45 39.66875H703.97006V400.23377H58.45Z"/>
</clipPath>
<clipPath id="clip_20">
<path transform="matrix(1,0,0,-1,0,423.30876)" d="M58.45 39.66875H703.97006V400.23377H58.45Z"/>
</clipPath>
<clipPath id="clip_21">
<path transform="matrix(1,0,0,-1,0,423.30876)" d="M58.45 39.66875H703.97006V400.23377H58.45Z"/>
</clipPath>
<clipPath id="clip_22">
<path transform="matrix(1,0,0,-1,0,423.30876)" d="M58.45 39.66875H703.97006V400.23377H58.45Z"/>
</clipPath>
<clipPath id="clip_23">
<path transform="matrix(1,0,0,-1,0,423.30876)" d="M58.45 39.66875H703.97006V400.23377H58.45Z"/>
</clipPath>
<clipPath id="clip_24">
<path transform="matrix(1,0,0,-1,0,423.30876)" d="M58.45 39.66875H703.97006V400.23377H58.45Z"/>
</clipPath>
<clipPath id="clip_25">
<path transform="matrix(1,0,0,-1,0,423.30876)" d="M58.45 39.66875H703.97006V400.23377H58.45Z"/>
</clipPath>
<clipPath id="clip_26">
<path transform="matrix(1,0,0,-1,0,423.30876)" d="M58.45 39.66875H703.97006V400.23377H58.45Z"/>
</clipPath>
<clipPath id="clip_27">
<path transform="matrix(1,0,0,-1,0,423.30876)" d="M58.45 39.66875H703.97006V400.23377H58.45Z"/>
</clipPath>
<clipPath id="clip_28">
<path transform="matrix(1,0,0,-1,0,423.30876)" d="M58.45 39.66875H703.97006V400.23377H58.45Z"/>
</clipPath>
<clipPath id="clip_29">
<path transform="matrix(1,0,0,-1,0,423.30876)" d="M58.45 39.66875H703.97006V400.23377H58.45Z"/>
</clipPath>
<clipPath id="clip_30">
<path transform="matrix(1,0,0,-1,0,423.30876)" d="M58.45 39.66875H703.97006V400.23377H58.45Z"/>
</clipPath>
<clipPath id="clip_31">
<path transform="matrix(1,0,0,-1,0,423.30876)" d="M58.45 39.66875H703.97006V400.23377H58.45Z"/>
</clipPath>
<clipPath id="clip_32">
<path transform="matrix(1,0,0,-1,0,423.30876)" d="M58.45 39.66875H703.97006V400.23377H58.45Z"/>
</clipPath>
<clipPath id="clip_33">
<path transform="matrix(1,0,0,-1,0,423.30876)" d="M58.45 39.66875H703.97006V400.23377H58.45Z"/>
</clipPath>
<clipPath id="clip_34">
<path transform="matrix(1,0,0,-1,0,423.30876)" d="M58.45 39.66875H703.97006V400.23377H58.45Z"/>
</clipPath>
<clipPath id="clip_35">
<path transform="matrix(1,0,0,-1,0,423.30876)" d="M58.45 39.66875H703.97006V400.23377H58.45Z"/>
</clipPath>
<clipPath id="clip_36">
<path transform="matrix(1,0,0,-1,0,423.30876)" d="M58.45 39.66875H703.97006V400.23377H58.45Z"/>
</clipPath>
<clipPath id="clip_37">
<path transform="matrix(1,0,0,-1,0,423.30876)" d="M58.45 39.66875H703.97006V400.23377H58.45Z"/>
</clipPath>
<clipPath id="clip_38">
<path transform="matrix(1,0,0,-1,0,423.30876)" d="M58.45 39.66875H703.97006V400.23377H58.45Z"/>
</clipPath>
<clipPath id="clip_39">
<path transform="matrix(1,0,0,-1,0,423.30876)" d="M58.45 39.66875H703.97006V400.23377H58.45Z"/>
</clipPath>
<clipPath id="clip_40">
<path transform="matrix(1,0,0,-1,0,423.30876)" d="M58.45 39.66875H703.97006V400.23377H58.45Z"/>
</clipPath>
<clipPath id="clip_41">
<path transform="matrix(1,0,0,-1,0,423.30876)" d="M58.45 39.66875H703.97006V400.23377H58.45Z"/>
</clipPath>
<clipPath id="clip_42">
<path transform="matrix(1,0,0,-1,0,423.30876)" d="M58.45 39.66875H703.97006V400.23377H58.45Z"/>
</clipPath>
<clipPath id="clip_43">
<path transform="matrix(1,0,0,-1,0,423.30876)" d="M58.45 39.66875H703.97006V400.23377H58.45Z"/>
</clipPath>
<clipPath id="clip_44">
<path transform="matrix(1,0,0,-1,0,423.30876)" d="M58.45 39.66875H703.97006V400.23377H58.45Z"/>
</clipPath>
<clipPath id="clip_45">
<path transform="matrix(1,0,0,-1,0,423.30876)" d="M58.45 39.66875H703.97006V400.23377H58.45Z"/>
</clipPath>
<clipPath id="clip_46">
<path transform="matrix(1,0,0,-1,0,423.30876)" d="M58.45 39.66875H703.97006V400.23377H58.45Z"/>
</clipPath>
<clipPath id="clip_47">
<path transform="matrix(1,0,0,-1,0,423.30876)" d="M58.45 39.66875H703.97006V400.23377H58.45Z"/>
</clipPath>
<clipPath id="clip_48">
<path transform="matrix(1,0,0,-1,0,423.30876)" d="M58.45 39.66875H703.97006V400.23377H58.45Z"/>
</clipPath>
<clipPath id="clip_49">
<path transform="matrix(1,0,0,-1,0,423.30876)" d="M58.45 39.66875H703.97006V400.23377H58.45Z"/>
</clipPath>
<clipPath id="clip_50">
<path transform="matrix(1,0,0,-1,0,423.30876)" d="M58.45 39.66875H703.97006V400.23377H58.45Z"/>
</clipPath>
<clipPath id="clip_51">
<path transform="matrix(1,0,0,-1,0,423.30876)" d="M58.45 39.66875H703.97006V400.23377H58.45Z"/>
</clipPath>
<clipPath id="clip_52">
<path transform="matrix(1,0,0,-1,0,423.30876)" d="M58.45 39.66875H703.97006V400.23377H58.45Z"/>
</clipPath>
<clipPath id="clip_53">
<path transform="matrix(1,0,0,-1,0,423.30876)" d="M58.45 39.66875H703.97006V400.23377H58.45Z"/>
</clipPath>
<clipPath id="clip_54">
<path transform="matrix(1,0,0,-1,0,423.30876)" d="M58.45 39.66875H703.97006V400.23377H58.45Z"/>
</clipPath>
<clipPath id="clip_55">
<path transform="matrix(1,0,0,-1,0,423.30876)" d="M58.45 39.66875H703.97006V400.23377H58.45Z"/>
</clipPath>
<clipPath id="clip_56">
<path transform="matrix(1,0,0,-1,0,423.30876)" d="M58.45 39.66875H703.97006V400.23377H58.45Z"/>
</clipPath>
<clipPath id="clip_57">
<path transform="matrix(1,0,0,-1,0,423.30876)" d="M58.45 39.66875H703.97006V400.23377H58.45Z"/>
</clipPath>
<clipPath id="clip_58">
<path transform="matrix(1,0,0,-1,0,423.30876)" d="M58.45 39.66875H703.97006V400.23377H58.45Z"/>
</clipPath>
<clipPath id="clip_59">
<path transform="matrix(1,0,0,-1,0,423.30876)" d="M58.45 39.66875H703.97006V400.23377H58.45Z"/>
</clipPath>
<clipPath id="clip_60">
<path transform="matrix(1,0,0,-1,0,423.30876)" d="M58.45 39.66875H703.97006V400.23377H58.45Z"/>
</clipPath>
<clipPath id="clip_61">
<path transform="matrix(1,0,0,-1,0,423.30876)" d="M58.45 39.66875H703.97006V400.23377H58.45Z"/>
</clipPath>
<clipPath id="clip_62">
<path transform="matrix(1,0,0,-1,0,423.30876)" d="M58.45 39.66875H703.97006V400.23377H58.45Z"/>
</clipPath>
<clipPath id="clip_63">
<path transform="matrix(1,0,0,-1,0,423.30876)" d="M58.45 39.66875H703.97006V400.23377H58.45Z"/>
</clipPath>
<clipPath id="clip_64">
<path transform="matrix(1,0,0,-1,0,423.30876)" d="M58.45 39.66875H703.97006V400.23377H58.45Z"/>
</clipPath>
<clipPath id="clip_65">
<path transform="matrix(1,0,0,-1,0,423.30876)" d="M58.45 39.66875H703.97006V400.23377H58.45Z"/>
</clipPath>
<clipPath id="clip_66">
<path transform="matrix(1,0,0,-1,0,423.30876)" d="M58.45 39.66875H703.97006V400.23377H58.45Z"/>
</clipPath>
<clipPath id="clip_67">
<path transform="matrix(1,0,0,-1,0,423.30876)" d="M58.45 39.66875H703.97006V400.23377H58.45Z"/>
</clipPath>
<clipPath id="clip_68">
<path transform="matrix(1,0,0,-1,0,423.30876)" d="M58.45 39.66875H703.97006V400.23377H58.45Z"/>
</clipPath>
<clipPath id="clip_69">
<path transform="matrix(1,0,0,-1,0,423.30876)" d="M58.45 39.66875H703.97006V400.23377H58.45Z"/>
</clipPath>
<clipPath id="clip_70">
<path transform="matrix(1,0,0,-1,0,423.30876)" d="M58.45 39.66875H703.97006V400.23377H58.45Z"/>
</clipPath>
<clipPath id="clip_71">
<path transform="matrix(1,0,0,-1,0,423.30876)" d="M58.45 39.66875H703.97006V400.23377H58.45Z"/>
</clipPath>
<clipPath id="clip_72">
<path transform="matrix(1,0,0,-1,0,423.30876)" d="M58.45 39.66875H703.97006V400.23377H58.45Z"/>
</clipPath>
<clipPath id="clip_73">
<path transform="matrix(1,0,0,-1,0,423.30876)" d="M58.45 39.66875H703.97006V400.23377H58.45Z"/>
</clipPath>
<clipPath id="clip_74">
<path transform="matrix(1,0,0,-1,0,423.30876)" d="M58.45 39.66875H703.97006V400.23377H58.45Z"/>
</clipPath>
<clipPath id="clip_75">
<path transform="matrix(1,0,0,-1,0,423.30876)" d="M58.45 39.66875H703.97006V400.23377H58.45Z"/>
</clipPath>
<clipPath id="clip_76">
<path transform="matrix(1,0,0,-1,0,423.30876)" d="M58.45 39.66875H703.97006V400.23377H58.45Z"/>
</clipPath>
<clipPath id="clip_77">
<path transform="matrix(1,0,0,-1,0,423.30876)" d="M58.45 39.66875H703.97006V400.23377H58.45Z"/>
</clipPath>
<clipPath id="clip_78">
<path transform="matrix(1,0,0,-1,0,423.30876)" d="M58.45 39.66875H703.97006V400.23377H58.45Z"/>
</clipPath>
<clipPath id="clip_79">
<path transform="matrix(1,0,0,-1,0,423.30876)" d="M58.45 39.66875H703.97006V400.23377H58.45Z"/>
</clipPath>
<clipPath id="clip_80">
<path transform="matrix(1,0,0,-1,0,423.30876)" d="M58.45 39.66875H703.97006V400.23377H58.45Z"/>
</clipPath>
<clipPath id="clip_81">
<path transform="matrix(1,0,0,-1,0,423.30876)" d="M58.45 39.66875H703.97006V400.23377H58.45Z"/>
</clipPath>
<clipPath id="clip_82">
<path transform="matrix(1,0,0,-1,0,423.30876)" d="M58.45 39.66875H703.97006V400.23377H58.45Z"/>
</clipPath>
<clipPath id="clip_83">
<path transform="matrix(1,0,0,-1,0,423.30876)" d="M58.45 39.66875H703.97006V400.23377H58.45Z"/>
</clipPath>
<clipPath id="clip_84">
<path transform="matrix(1,0,0,-1,0,423.30876)" d="M58.45 39.66875H703.97006V400.23377H58.45Z"/>
</clipPath>
<clipPath id="clip_85">
<path transform="matrix(1,0,0,-1,0,423.30876)" d="M58.45 39.66875H703.97006V400.23377H58.45Z"/>
</clipPath>
<clipPath id="clip_86">
<path transform="matrix(1,0,0,-1,0,423.30876)" d="M58.45 39.66875H703.97006V400.23377H58.45Z"/>
</clipPath>
<clipPath id="clip_87">
<path transform="matrix(1,0,0,-1,0,423.30876)" d="M58.45 39.66875H703.97006V400.23377H58.45Z"/>
</clipPath>
<clipPath id="clip_88">
<path transform="matrix(1,0,0,-1,0,423.30876)" d="M58.45 39.66875H703.97006V400.23377H58.45Z"/>
</clipPath>
<clipPath id="clip_89">
<path transform="matrix(1,0,0,-1,0,423.30876)" d="M58.45 39.66875H703.97006V400.23377H58.45Z"/>
</clipPath>
<clipPath id="clip_90">
<path transform="matrix(1,0,0,-1,0,423.30876)" d="M58.45 39.66875H703.97006V400.23377H58.45Z"/>
</clipPath>
<clipPath id="clip_91">
<path transform="matrix(1,0,0,-1,0,423.30876)" d="M58.45 39.66875H703.97006V400.23377H58.45Z"/>
</clipPath>
<clipPath id="clip_92">
<path transform="matrix(1,0,0,-1,0,423.30876)" d="M58.45 39.66875H703.97006V400.23377H58.45Z"/>
</clipPath>
<clipPath id="clip_93">
<path transform="matrix(1,0,0,-1,0,423.30876)" d="M58.45 39.66875H703.97006V400.23377H58.45Z"/>
</clipPath>
<clipPath id="clip_94">
<path transform="matrix(1,0,0,-1,0,423.30876)" d="M58.45 39.66875H703.97006V400.23377H58.45Z"/>
</clipPath>
<clipPath id="clip_95">
<path transform="matrix(1,0,0,-1,0,423.30876)" d="M58.45 39.66875H703.97006V400.23377H58.45Z"/>
</clipPath>
<clipPath id="clip_96">
<path transform="matrix(1,0,0,-1,0,423.30876)" d="M58.45 39.66875H703.97006V400.23377H58.45Z"/>
</clipPath>
<clipPath id="clip_97">
<path transform="matrix(1,0,0,-1,0,423.30876)" d="M58.45 39.66875H703.97006V400.23377H58.45Z"/>
</clipPath>
<clipPath id="clip_98">
<path transform="matrix(1,0,0,-1,0,423.30876)" d="M58.45 39.66875H703.97006V400.23377H58.45Z"/>
</clipPath>
<clipPath id="clip_99">
<path transform="matrix(1,0,0,-1,0,423.30876)" d="M58.45 39.66875H703.97006V400.23377H58.45Z"/>
</clipPath>
<clipPath id="clip_100">
<path transform="matrix(1,0,0,-1,0,423.30876)" d="M58.45 39.66875H703.97006V400.23377H58.45Z"/>
</clipPath>
<clipPath id="clip_101">
<path transform="matrix(1,0,0,-1,0,423.30876)" d="M58.45 39.66875H703.97006V400.23377H58.45Z"/>
</clipPath>
<g id="font_102_48">
<path transform="matrix(.001,0,0,.001,0,0)" d="M318 34C368 34 405 61 430 116 454 170 467 253 467 364 467 474 454 557 430 612 405 666 368 694 318 694 268 694 230 666 206 612 181 557 169 474 169 364 169 253 181 170 206 116 230 61 268 34 318 34ZM318-13C238-13 176 20 132 86 88 152 66 244 66 364 66 483 88 576 132 642 176 708 238 742 318 742 397 742 459 708 503 642 547 576 570 483 570 364 570 244 547 152 503 86 459 20 397-13 318-13Z"/>
</g>
<clipPath id="clip_103">
<path transform="matrix(1,0,0,-1,0,423.30876)" d="M58.45 39.66875H703.97006V400.23377H58.45Z"/>
</clipPath>
<g id="font_102_49">
<path transform="matrix(.001,0,0,.001,0,0)" d="M142 0V52H269V658L122 563V627L300 742H367V52H494V0H142Z"/>
</g>
<clipPath id="clip_104">
<path transform="matrix(1,0,0,-1,0,423.30876)" d="M58.45 39.66875H703.97006V400.23377H58.45Z"/>
</clipPath>
<g id="font_102_50">
<path transform="matrix(.001,0,0,.001,0,0)" d="M128 555H73V685C107 703 142 717 178 727 213 737 248 742 282 742 358 742 418 723 462 687 506 650 528 600 528 537 528 465 478 380 378 281 370 273 365 268 361 264L177 80H481V170H538V0H68V53L289 274C337 322 372 367 393 408 414 449 425 492 425 537 425 586 412 624 386 652 360 680 325 694 281 694 234 694 198 682 173 659 147 636 132 601 128 555Z"/>
</g>
<clipPath id="clip_105">
<path transform="matrix(1,0,0,-1,0,423.30876)" d="M58.45 39.66875H703.97006V400.23377H58.45Z"/>
</clipPath>
<g id="font_102_51">
<path transform="matrix(.001,0,0,.001,0,0)" d="M97 698C135 712 171 723 206 731 241 738 274 742 305 742 376 742 432 726 472 696 512 665 532 622 532 568 532 524 518 487 490 458 462 428 423 408 373 398 433 389 479 367 512 332 545 297 562 252 562 197 562 129 539 77 493 41 447 5 382-13 296-13 258-13 220-9 184-1 148 6 112 18 76 35V177H131C134 129 150 94 178 70 206 46 246 34 298 34 348 34 387 48 416 77 444 106 459 146 459 196 459 253 444 296 414 326 384 355 341 370 284 370H238V420H262C319 420 362 431 390 455 418 479 433 514 433 562 433 604 421 637 398 660 374 682 341 694 297 694 253 694 218 683 194 662 170 641 156 610 152 570H97V698Z"/>
</g>
<clipPath id="clip_106">
<path transform="matrix(1,0,0,-1,0,423.30876)" d="M58.45 39.66875H703.97006V400.23377H58.45Z"/>
</clipPath>
<g id="font_102_52">
<path transform="matrix(.001,0,0,.001,0,0)" d="M349 247V635L100 247H349ZM564 0H232V52H349V195H31V248L350 742H447V247H586V195H447V52H564V0Z"/>
</g>
<clipPath id="clip_107">
<path transform="matrix(1,0,0,-1,0,423.30876)" d="M58.45 39.66875H703.97006V400.23377H58.45Z"/>
</clipPath>
<g id="font_102_53">
<path transform="matrix(.001,0,0,.001,0,0)" d="M503 729V649H169V440C185 452 205 460 228 466 250 472 276 475 304 475 382 475 444 453 490 409 536 365 559 306 559 231 559 153 536 93 490 51 444 8 379-13 296-13 262-13 228-9 193-1 157 6 121 18 85 35V177H140C143 130 158 94 184 70 210 46 248 34 296 34 347 34 386 51 414 85 442 119 456 167 456 231 456 294 442 342 415 376 387 410 348 427 296 427 266 427 240 421 218 411 196 401 176 385 159 363H117V729H503Z"/>
</g>
<clipPath id="clip_108">
<path transform="matrix(1,0,0,-1,0,423.30876)" d="M58.45 39.66875H703.97006V400.23377H58.45Z"/>
</clipPath>
<g id="font_102_54">
<path transform="matrix(.001,0,0,.001,0,0)" d="M327 34C373 34 408 50 433 84 457 118 470 166 470 230 470 293 457 341 433 375 408 409 373 426 327 426 280 426 244 409 220 377 196 344 184 297 184 236 184 171 196 121 221 86 245 51 281 34 327 34ZM168 401C190 425 215 444 243 456 271 468 302 474 338 474 410 474 468 452 510 408 552 364 573 305 573 230 573 156 550 97 505 53 459 9 399-13 323-13 241-13 177 17 133 78 89 139 67 227 67 341 67 468 93 567 145 637 197 707 271 742 367 742 393 742 420 739 448 735 476 730 505 723 535 713V593H480C476 625 463 650 442 668 421 685 393 694 357 694 293 694 246 670 215 622 184 574 168 500 168 401Z"/>
</g>
<clipPath id="clip_109">
<path transform="matrix(1,0,0,-1,0,423.30876)" d="M58.45 39.66875H703.97006V400.23377H58.45Z"/>
</clipPath>
<g id="font_102_55">
<path transform="matrix(.001,0,0,.001,0,0)" d="M564 679 279 0H206L478 649H141V559H84V729H564V679Z"/>
</g>
<clipPath id="clip_110">
<path transform="matrix(1,0,0,-1,0,423.30876)" d="M58.45 39.66875H703.97006V400.23377H58.45Z"/>
</clipPath>
<g id="font_102_56">
<path transform="matrix(.001,0,0,.001,0,0)" d="M466 199C466 251 453 291 427 320 401 349 364 364 318 364 271 364 235 349 209 320 183 291 170 251 170 199 170 147 183 106 209 77 235 48 271 34 318 34 364 34 401 48 427 77 453 106 466 147 466 199ZM446 553C446 597 434 632 412 657 389 681 358 694 318 694 278 694 246 681 224 657 201 632 190 597 190 553 190 508 201 473 224 449 246 424 278 412 318 412 358 412 389 424 412 449 434 473 446 508 446 553ZM393 388C448 380 491 360 522 327 553 293 569 251 569 199 569 131 547 78 504 42 460 5 398-13 318-13 237-13 175 5 132 42 88 78 67 131 67 199 67 251 82 293 113 327 144 360 187 380 243 388 193 396 156 415 130 444 104 472 91 509 91 553 91 611 111 657 151 691 191 725 247 742 318 742 388 742 444 725 484 691 524 657 545 611 545 553 545 509 531 472 505 444 479 415 441 396 393 388Z"/>
</g>
<g id="font_102_68">
<path transform="matrix(.001,0,0,.001,0,0)" d="M247 52H338C432 52 505 79 556 133 606 187 632 264 632 365 632 466 606 543 556 597 505 650 432 677 338 677H247V52ZM55 0V52H148V677H55V729H345C471 729 569 697 639 633 709 569 744 479 744 365 744 250 708 160 638 96 568 32 470 0 345 0H55Z"/>
</g>
<g id="font_102_101">
<path transform="matrix(.001,0,0,.001,0,0)" d="M542 250H155V246C155 176 168 123 194 87 220 51 259 34 311 34 350 34 382 44 408 65 433 85 451 116 461 157H533C519 100 492 57 454 29 415 1 364-13 302-13 226-13 165 11 119 61 73 111 50 177 50 260 50 342 72 408 118 458 163 508 222 533 296 533 374 533 435 508 477 460 519 412 540 342 542 250ZM436 302C434 362 421 408 397 439 373 469 340 485 296 485 254 485 222 469 198 438 174 407 160 362 155 302H436Z"/>
</g>
<g id="font_102_108">
<path transform="matrix(.001,0,0,.001,0,0)" d="M205 52H290V0H29V52H115V708H29V760H205V52Z"/>
</g>
<g id="font_102_97">
<path transform="matrix(.001,0,0,.001,0,0)" d="M398 163V273H282C237 273 204 263 182 244 160 224 150 195 150 156 150 120 161 91 183 70 205 48 235 38 273 38 310 38 340 49 363 72 386 95 398 125 398 163ZM488 324V52H568V0H398V56C378 32 355 14 329 3 303-7 272-13 238-13 180-13 134 2 100 32 66 62 50 104 50 156 50 209 69 250 108 280 146 310 201 325 272 325H398V361C398 400 386 430 362 452 338 474 304 485 261 485 225 485 197 476 176 460 154 444 141 420 136 388H90V493C121 506 151 516 181 523 210 529 239 533 267 533 339 533 393 515 431 479 469 443 488 392 488 324Z"/>
</g>
<g id="font_102_121">
<path transform="matrix(.001,0,0,.001,0,0)" d="M216-94 250-8 56 467H-2V519H236V467H153L299 110 445 467H367V519H562V467H504L266-116C250-156 232-184 212-199 192-213 164-221 128-221 112-221 97-219 81-217 65-214 48-210 32-206V-107H78C80-129 85-144 95-154 104-164 118-169 138-169 156-169 170-164 181-154 192-144 204-124 216-94Z"/>
</g>
<g id="font_102_58">
<path transform="matrix(.001,0,0,.001,0,0)" d="M104 51C104 69 110 84 123 97 135 109 151 116 169 116 187 116 202 109 215 97 227 84 234 68 234 50 234 32 227 17 215 5 203-7 187-13 169-13 150-13 134-7 122 5 110 17 104 32 104 51ZM104 369C104 387 110 402 123 415 135 427 151 434 169 434 187 434 203 427 215 415 227 403 234 387 234 369 234 350 227 334 215 322 203 310 187 304 169 304 151 304 135 310 123 323 110 335 104 351 104 369Z"/>
</g>
<g id="font_102_32">
</g>
<g id="font_102_84">
<path transform="matrix(.001,0,0,.001,0,0)" d="M191 0V52H284V671H70V557H10V729H657V557H597V671H383V52H476V0H191Z"/>
</g>
<g id="font_102_114">
<path transform="matrix(.001,0,0,.001,0,0)" d="M478 520V390H426C424 416 417 435 405 448 392 460 373 467 349 467 305 467 271 451 247 421 223 390 212 346 212 289V52H316V0H41V52H122V468H36V519H212V427C229 463 251 489 279 507 307 524 341 533 381 533 395 533 411 531 427 529 443 527 460 524 478 520Z"/>
</g>
<g id="font_102_117">
<path transform="matrix(.001,0,0,.001,0,0)" d="M354 519H522V52H607V0H432V92C415 57 393 31 367 13 341-4 310-13 276-13 218-13 175 3 148 35 121 67 108 119 108 189V467H27V519H198V217C198 153 205 110 221 87 237 63 264 52 304 52 346 52 377 67 399 98 421 128 432 173 432 231V467H354V519Z"/>
</g>
<g id="font_102_85">
<path transform="matrix(.001,0,0,.001,0,0)" d="M140 677H47V729H332V677H239V300C239 206 254 141 284 105 314 68 367 50 442 50 516 50 569 68 599 105 629 141 645 206 645 300V677H552V729H798V677H705V290C705 179 683 101 641 55 598 9 526-13 424-13 322-13 249 10 205 56 161 102 140 180 140 290V677Z"/>
</g>
<g id="font_102_110">
<path transform="matrix(.001,0,0,.001,0,0)" d="M41 0V52H122V467H36V519H212V427C228 461 250 488 276 506 302 524 333 533 369 533 426 533 468 516 495 484 522 451 536 400 536 330V52H616V0H368V52H446V302C446 365 438 408 422 432 406 456 379 468 340 468 298 468 266 452 244 422 222 391 212 347 212 289V52H290V0H41Z"/>
</g>
<g id="font_102_100">
<path transform="matrix(.001,0,0,.001,0,0)" d="M525 52H611V0H435V81C417 48 395 24 368 9 340-5 307-13 267-13 203-13 150 12 110 62 70 112 50 178 50 260 50 341 70 407 110 457 150 507 203 533 267 533 307 533 340 525 368 510 395 494 417 470 435 438V708H350V760H525V52ZM435 234V285C435 347 423 394 399 427 375 460 340 477 295 477 249 477 214 458 190 422 166 386 155 332 155 260 155 188 166 133 190 97 214 60 249 42 295 42 340 42 375 58 399 91 423 123 435 171 435 234Z"/>
</g>
<g id="font_102_119">
<path transform="matrix(.001,0,0,.001,0,0)" d="M480 519 613 114 730 467H655V519H843V467H785L631 0H556L428 388 300 0H228L74 467H16V519H251V467H167L283 114 417 519H480Z"/>
</g>
<g id="font_102_116">
<path transform="matrix(.001,0,0,.001,0,0)" d="M108 467H29V519H108V680H198V519H367V467H198V137C198 93 202 64 211 52 219 40 235 34 258 34 281 34 298 41 309 55 319 69 325 91 326 122H394C391 74 378 40 355 19 332-2 297-13 250-13 198-13 161-1 140 21 118 43 108 82 108 137V467Z"/>
</g>
<g id="font_102_79">
<path transform="matrix(.001,0,0,.001,0,0)" d="M410 38C490 38 550 65 591 120 631 175 652 256 652 364 652 471 631 552 591 607 550 662 490 690 410 690 330 690 269 662 229 607 188 552 168 471 168 364 168 256 188 175 229 120 269 65 330 38 410 38ZM410-13C360-13 315-5 273 11 231 27 195 50 164 82 127 118 100 160 82 206 64 252 56 304 56 363 56 422 64 475 82 521 100 567 127 609 164 646 196 678 232 702 273 718 314 734 360 742 410 742 516 742 601 707 666 638 731 568 764 477 764 364 764 305 755 252 737 206 719 159 692 118 656 82 624 50 587 26 546 10 505-5 460-13 410-13Z"/>
</g>
<g id="font_102_99">
<path transform="matrix(.001,0,0,.001,0,0)" d="M514 156C501 100 477 58 441 30 405 1 358-13 301-13 225-13 165 11 119 61 73 111 50 177 50 260 50 342 73 408 119 458 165 508 225 533 301 533 333 533 366 529 399 521 431 513 464 502 497 487V354H445C438 399 423 432 400 453 377 474 344 485 302 485 253 485 216 466 192 428 167 390 155 334 155 259 155 184 167 128 192 90 216 52 253 34 302 34 340 34 371 44 394 64 417 84 433 115 442 156H514Z"/>
</g>
<g id="font_102_76">
<path transform="matrix(.001,0,0,.001,0,0)" d="M55 0V52H148V677H55V729H340V677H247V60H580V182H640V0H55Z"/>
</g>
<g id="font_102_105">
<path transform="matrix(.001,0,0,.001,0,0)" d="M97 680C97 695 102 708 113 719 124 730 137 736 153 736 167 736 180 730 191 719 202 708 208 695 208 680 208 664 202 651 192 641 181 630 168 625 153 625 137 625 124 630 113 641 102 651 97 664 97 680ZM212 52H297V0H36V52H122V467H36V519H212V52Z"/>
</g>
<g id="font_102_113">
<path transform="matrix(.001,0,0,.001,0,0)" d="M525 467V-155H611V-207H350V-155H435V81C417 48 395 24 368 9 340-5 307-13 267-13 203-13 150 12 110 62 70 112 50 178 50 260 50 341 70 407 110 457 150 507 203 533 267 533 307 533 340 525 368 510 395 494 417 470 435 438V519H611V467H525ZM435 285C435 347 423 394 399 427 375 460 340 477 295 477 249 477 214 458 190 422 166 386 155 332 155 260 155 188 166 133 190 97 214 60 249 42 295 42 340 42 375 58 399 91 423 123 435 171 435 234V285Z"/>
</g>
<g id="font_102_111">
<path transform="matrix(.001,0,0,.001,0,0)" d="M301 34C349 34 385 53 410 91 434 129 447 185 447 259 447 333 434 390 410 428 385 466 349 485 301 485 253 485 216 466 192 428 167 390 155 333 155 259 155 185 167 129 192 91 216 53 253 34 301 34ZM301-13C225-13 165 11 119 61 73 111 50 177 50 260 50 342 72 408 118 458 164 508 225 533 301 533 377 533 437 508 483 458 529 408 552 342 552 260 552 177 529 111 483 61 437 11 377-13 301-13Z"/>
</g>
<g id="font_102_40">
<path transform="matrix(.001,0,0,.001,0,0)" d="M319-155C239-119 179-63 139 13 99 89 79 186 79 302 79 418 99 514 139 591 179 668 239 724 319 760V712C269 677 233 628 211 566 189 503 178 415 178 302 178 188 189 100 211 38 233-24 269-72 319-107V-155Z"/>
</g>
<g id="font_102_104">
<path transform="matrix(.001,0,0,.001,0,0)" d="M41 0V52H122V708H36V760H212V427C228 461 250 488 276 506 302 524 333 533 369 533 426 533 468 516 495 484 522 451 536 400 536 330V52H616V0H368V52H446V302C446 365 438 408 422 432 406 455 379 467 340 467 298 467 266 451 244 421 222 391 212 347 212 289V52H290V0H41Z"/>
</g>
<g id="font_102_115">
<path transform="matrix(.001,0,0,.001,0,0)" d="M56 29V150H108C109 111 121 82 144 63 167 43 201 34 246 34 286 34 317 41 338 57 359 72 370 94 370 123 370 145 362 164 347 178 331 192 299 207 249 223L184 245C139 259 107 277 87 299 67 320 57 347 57 381 57 428 74 465 109 492 144 519 192 533 254 533 281 533 310 529 340 522 370 515 402 505 434 491V378H382C380 411 369 437 347 456 325 475 295 485 257 485 219 485 190 478 171 465 151 451 142 431 142 405 142 383 149 365 164 352 178 339 208 326 252 312L323 290C372 274 407 255 429 232 451 209 462 180 462 144 462 94 443 56 405 28 367 0 316-13 250-13 216-13 184-9 152-3 120 3 88 14 56 29Z"/>
</g>
<g id="font_102_41">
<path transform="matrix(.001,0,0,.001,0,0)" d="M71-155V-107C121-72 157-24 179 38 201 100 212 188 212 302 212 415 201 503 179 566 157 628 121 677 71 712V760C150 724 210 668 250 591 290 514 311 418 311 302 311 186 290 89 250 13 210-63 150-119 71-155Z"/>
</g>
<clipPath id="clip_111">
<path transform="matrix(.012,0,0,-.012,369.4815,413.43687)" d="M-770-347H2106V1110H-770Z"/>
</clipPath>
<clipPath id="clip_112">
<path transform="matrix(1,0,0,-1,0,423.30876)" d="M58.45 39.66875H703.97006V400.23377H58.45Z"/>
</clipPath>
<g id="font_102_46">
<path transform="matrix(.001,0,0,.001,0,0)" d="M94 51C94 69 100 84 112 97 124 109 140 116 159 116 177 116 192 109 205 97 217 84 224 69 224 51 224 33 217 17 205 5 192-7 177-13 159-13 140-13 124-7 112 5 100 17 94 32 94 51Z"/>
</g>
<clipPath id="clip_113">
<path transform="matrix(1,0,0,-1,0,423.30876)" d="M58.45 39.66875H703.97006V400.23377H58.45Z"/>
</clipPath>
<clipPath id="clip_114">
<path transform="matrix(1,0,0,-1,0,423.30876)" d="M58.45 39.66875H703.97006V400.23377H58.45Z"/>
</clipPath>
<clipPath id="clip_115">
<path transform="matrix(1,0,0,-1,0,423.30876)" d="M58.45 39.66875H703.97006V400.23377H58.45Z"/>
</clipPath>
<clipPath id="clip_116">
<path transform="matrix(1,0,0,-1,0,423.30876)" d="M58.45 39.66875H703.97006V400.23377H58.45Z"/>
</clipPath>
<clipPath id="clip_117">
<path transform="matrix(1,0,0,-1,0,423.30876)" d="M58.45 39.66875H703.97006V400.23377H58.45Z"/>
</clipPath>
<clipPath id="clip_118">
<path transform="matrix(1,0,0,-1,0,423.30876)" d="M58.45 39.66875H703.97006V400.23377H58.45Z"/>
</clipPath>
<g id="font_102_109">
<path transform="matrix(.001,0,0,.001,0,0)" d="M518 418C535 456 557 484 584 504 611 523 642 533 678 533 732 533 773 516 800 482 826 448 840 398 840 330V52H921V0H672V52H750V320C750 372 742 410 726 433 710 455 685 467 649 467 609 467 578 451 557 421 536 391 526 347 526 289V52H604V0H358V52H436V323C436 375 428 412 412 434 396 456 371 467 335 467 295 467 264 451 243 421 222 391 212 347 212 289V52H290V0H41V52H122V468H36V519H212V427C228 461 249 488 275 506 301 524 330 533 363 533 403 533 436 523 463 503 490 483 508 454 518 418Z"/>
</g>
<g id="font_102_45">
<path transform="matrix(.001,0,0,.001,0,0)" d="M44 306H294V230H44V306Z"/>
</g>
<g id="font_102_98">
<path transform="matrix(.001,0,0,.001,0,0)" d="M115 52V708H29V760H205V438C222 470 244 494 272 510 299 525 333 533 373 533 437 533 489 507 529 457 569 407 590 341 590 260 590 178 569 112 529 62 489 12 437-13 373-13 333-13 299-5 272 9 244 24 222 48 205 81V0H29V52H115ZM205 234C205 171 217 123 241 91 265 58 299 42 345 42 391 42 425 60 449 97 473 133 485 188 485 260 485 332 473 386 449 422 425 458 391 477 345 477 299 477 265 460 241 427 217 394 205 347 205 285V234Z"/>
</g>
<g id="font_102_77">
<path transform="matrix(.001,0,0,.001,0,0)" d="M55 0V52H148V677H50V729H262L518 210 774 729H973V677H876V52H969V0H684V52H777V615L527 107H458L208 615V52H301V0H55Z"/>
</g>
<g id="font_102_61">
<path transform="matrix(.001,0,0,.001,0,0)" d="M106 452H732V374H106V452ZM106 253H732V175H106V253Z"/>
</g>
</defs>
<path transform="matrix(1,0,0,-1,0,423.30876)" d="M0 0H711.17V423.30876H0Z" fill="none"/>
<path transform="matrix(1,0,0,-1,0,423.30876)" d="M58.45 39.66875H703.97V400.23377H58.45Z" fill="none"/>
<g clip-path="url(#clip_1)">
<g>
<path transform="matrix(1,0,0,-1,0,423.30876)" d="M58.523199 39.66875H64.67031V383.064H58.523199Z" fill="#2563eb" fill-opacity=".7"/>
<path transform="matrix(1,0,0,-1,0,423.30876)" stroke-width=".3" stroke-linecap="butt" stroke-miterlimit="10" stroke-linejoin="miter" fill="none" stroke="#ffffff" stroke-opacity=".7" d="M58.523199 39.66875H64.67031V383.064H58.523199Z"/>
</g>
</g>
<g clip-path="url(#clip_2)">
<g>
<path transform="matrix(1,0,0,-1,0,423.30876)" d="M64.67031 39.66875H70.81742V77.35225H64.67031Z" fill="#2563eb" fill-opacity=".7"/>
<path transform="matrix(1,0,0,-1,0,423.30876)" stroke-width=".3" stroke-linecap="butt" stroke-miterlimit="10" stroke-linejoin="miter" fill="none" stroke="#ffffff" stroke-opacity=".7" d="M64.67031 39.66875H70.81742V77.35225H64.67031Z"/>
</g>
</g>
<g clip-path="url(#clip_3)">
<g>
<path transform="matrix(1,0,0,-1,0,423.30876)" d="M70.81742 39.66875H76.96454V57.373094H70.81742Z" fill="#2563eb" fill-opacity=".7"/>
<path transform="matrix(1,0,0,-1,0,423.30876)" stroke-width=".3" stroke-linecap="butt" stroke-miterlimit="10" stroke-linejoin="miter" fill="none" stroke="#ffffff" stroke-opacity=".7" d="M70.81742 39.66875H76.96454V57.373094H70.81742Z"/>
</g>
</g>
<g clip-path="url(#clip_4)">
<g>
<path transform="matrix(1,0,0,-1,0,423.30876)" d="M76.96454 39.66875H83.11165V49.5523H76.96454Z" fill="#2563eb" fill-opacity=".7"/>
<path transform="matrix(1,0,0,-1,0,423.30876)" stroke-width=".3" stroke-linecap="butt" stroke-miterlimit="10" stroke-linejoin="miter" fill="none" stroke="#ffffff" stroke-opacity=".7" d="M76.96454 39.66875H83.11165V49.5523H76.96454Z"/>
</g>
</g>
<g clip-path="url(#clip_5)">
<g>
<path transform="matrix(1,0,0,-1,0,423.30876)" d="M83.11165 39.66875H89.25876V47.40667H83.11165Z" fill="#2563eb" fill-opacity=".7"/>
<path transform="matrix(1,0,0,-1,0,423.30876)" stroke-width=".3" stroke-linecap="butt" stroke-miterlimit="10" stroke-linejoin="miter" fill="none" stroke="#ffffff" stroke-opacity=".7" d="M83.11165 39.66875H89.25876V47.40667H83.11165Z"/>
</g>
</g>
<g clip-path="url(#clip_6)">
<g>
<path transform="matrix(1,0,0,-1,0,423.30876)" d="M89.25876 39.66875H95.40587V44.58889H89.25876Z" fill="#2563eb" fill-opacity=".7"/>
<path transform="matrix(1,0,0,-1,0,423.30876)" stroke-width=".3" stroke-linecap="butt" stroke-miterlimit="10" stroke-linejoin="miter" fill="none" stroke="#ffffff" stroke-opacity=".7" d="M89.25876 39.66875H95.40587V44.58889H89.25876Z"/>
</g>
</g>
<g clip-path="url(#clip_7)">
<g>
<path transform="matrix(1,0,0,-1,0,423.30876)" d="M95.40587 39.66875H101.552989V43.150144H95.40587Z" fill="#2563eb" fill-opacity=".7"/>
<path transform="matrix(1,0,0,-1,0,423.30876)" stroke-width=".3" stroke-linecap="butt" stroke-miterlimit="10" stroke-linejoin="miter" fill="none" stroke="#ffffff" stroke-opacity=".7" d="M95.40587 39.66875H101.552989V43.150144H95.40587Z"/>
</g>
</g>
<g clip-path="url(#clip_8)">
<g>
<path transform="matrix(1,0,0,-1,0,423.30876)" d="M101.552989 39.66875H107.700099V43.37805H101.552989Z" fill="#2563eb" fill-opacity=".7"/>
<path transform="matrix(1,0,0,-1,0,423.30876)" stroke-width=".3" stroke-linecap="butt" stroke-miterlimit="10" stroke-linejoin="miter" fill="none" stroke="#ffffff" stroke-opacity=".7" d="M101.552989 39.66875H107.700099V43.37805H101.552989Z"/>
</g>
</g>
<g clip-path="url(#clip_9)">
<g>
<path transform="matrix(1,0,0,-1,0,423.30876)" d="M107.700099 39.66875H113.847209V42.63095H107.700099Z" fill="#2563eb" fill-opacity=".7"/>
<path transform="matrix(1,0,0,-1,0,423.30876)" stroke-width=".3" stroke-linecap="butt" stroke-miterlimit="10" stroke-linejoin="miter" fill="none" stroke="#ffffff" stroke-opacity=".7" d="M107.700099 39.66875H113.847209V42.63095H107.700099Z"/>
</g>
</g>
<g clip-path="url(#clip_10)">
<g>
<path transform="matrix(1,0,0,-1,0,423.30876)" d="M113.847209 39.66875H119.99432V42.172697H113.847209Z" fill="#2563eb" fill-opacity=".7"/>
<path transform="matrix(1,0,0,-1,0,423.30876)" stroke-width=".3" stroke-linecap="butt" stroke-miterlimit="10" stroke-linejoin="miter" fill="none" stroke="#ffffff" stroke-opacity=".7" d="M113.847209 39.66875H119.99432V42.172697H113.847209Z"/>
</g>
</g>
<g clip-path="url(#clip_11)">
<g>
<path transform="matrix(1,0,0,-1,0,423.30876)" d="M119.99432 39.66875H126.14143V41.939306H119.99432Z" fill="#2563eb" fill-opacity=".7"/>
<path transform="matrix(1,0,0,-1,0,423.30876)" stroke-width=".3" stroke-linecap="butt" stroke-miterlimit="10" stroke-linejoin="miter" fill="none" stroke="#ffffff" stroke-opacity=".7" d="M119.99432 39.66875H126.14143V41.939306H119.99432Z"/>
</g>
</g>
<g clip-path="url(#clip_12)">
<g>
<path transform="matrix(1,0,0,-1,0,423.30876)" d="M126.14143 39.66875H132.28855V41.541379H126.14143Z" fill="#2563eb" fill-opacity=".7"/>
<path transform="matrix(1,0,0,-1,0,423.30876)" stroke-width=".3" stroke-linecap="butt" stroke-miterlimit="10" stroke-linejoin="miter" fill="none" stroke="#ffffff" stroke-opacity=".7" d="M126.14143 39.66875H132.28855V41.541379H126.14143Z"/>
</g>
</g>
<g clip-path="url(#clip_13)">
<g>
<path transform="matrix(1,0,0,-1,0,423.30876)" d="M132.28855 39.66875H138.43566V41.540769H132.28855Z" fill="#2563eb" fill-opacity=".7"/>
<path transform="matrix(1,0,0,-1,0,423.30876)" stroke-width=".3" stroke-linecap="butt" stroke-miterlimit="10" stroke-linejoin="miter" fill="none" stroke="#ffffff" stroke-opacity=".7" d="M132.28855 39.66875H138.43566V41.540769H132.28855Z"/>
</g>
</g>
<g clip-path="url(#clip_14)">
<g>
<path transform="matrix(1,0,0,-1,0,423.30876)" d="M138.43566 39.66875H144.58277V41.002077H138.43566Z" fill="#2563eb" fill-opacity=".7"/>
<path transform="matrix(1,0,0,-1,0,423.30876)" stroke-width=".3" stroke-linecap="butt" stroke-miterlimit="10" stroke-linejoin="miter" fill="none" stroke="#ffffff" stroke-opacity=".7" d="M138.43566 39.66875H144.58277V41.002077H138.43566Z"/>
</g>
</g>
<g clip-path="url(#clip_15)">
<g>
<path transform="matrix(1,0,0,-1,0,423.30876)" d="M144.58277 39.66875H150.72989V40.942968H144.58277Z" fill="#2563eb" fill-opacity=".7"/>
<path transform="matrix(1,0,0,-1,0,423.30876)" stroke-width=".3" stroke-linecap="butt" stroke-miterlimit="10" stroke-linejoin="miter" fill="none" stroke="#ffffff" stroke-opacity=".7" d="M144.58277 39.66875H150.72989V40.942968H144.58277Z"/>
</g>
</g>
<g clip-path="url(#clip_16)">
<g>
<path transform="matrix(1,0,0,-1,0,423.30876)" d="M150.72989 39.66875H156.877V40.96003H150.72989Z" fill="#2563eb" fill-opacity=".7"/>
<path transform="matrix(1,0,0,-1,0,423.30876)" stroke-width=".3" stroke-linecap="butt" stroke-miterlimit="10" stroke-linejoin="miter" fill="none" stroke="#ffffff" stroke-opacity=".7" d="M150.72989 39.66875H156.877V40.96003H150.72989Z"/>
</g>
</g>
<g clip-path="url(#clip_17)">
<g>
<path transform="matrix(1,0,0,-1,0,423.30876)" d="M156.877 39.66875H163.02411V40.863138H156.877Z" fill="#2563eb" fill-opacity=".7"/>
<path transform="matrix(1,0,0,-1,0,423.30876)" stroke-width=".3" stroke-linecap="butt" stroke-miterlimit="10" stroke-linejoin="miter" fill="none" stroke="#ffffff" stroke-opacity=".7" d="M156.877 39.66875H163.02411V40.863138H156.877Z"/>
</g>
</g>
<g clip-path="url(#clip_18)">
<g>
<path transform="matrix(1,0,0,-1,0,423.30876)" d="M163.02411 39.66875H169.17122V40.813169H163.02411Z" fill="#2563eb" fill-opacity=".7"/>
<path transform="matrix(1,0,0,-1,0,423.30876)" stroke-width=".3" stroke-linecap="butt" stroke-miterlimit="10" stroke-linejoin="miter" fill="none" stroke="#ffffff" stroke-opacity=".7" d="M163.02411 39.66875H169.17122V40.813169H163.02411Z"/>
</g>
</g>
<g clip-path="url(#clip_19)">
<g>
<path transform="matrix(1,0,0,-1,0,423.30876)" d="M169.17122 39.66875H175.31833V40.267164H169.17122Z" fill="#2563eb" fill-opacity=".7"/>
<path transform="matrix(1,0,0,-1,0,423.30876)" stroke-width=".3" stroke-linecap="butt" stroke-miterlimit="10" stroke-linejoin="miter" fill="none" stroke="#ffffff" stroke-opacity=".7" d="M169.17122 39.66875H175.31833V40.267164H169.17122Z"/>
</g>
</g>
<g clip-path="url(#clip_20)">
<g>
<path transform="matrix(1,0,0,-1,0,423.30876)" d="M175.31833 39.66875H181.46544V40.629137H175.31833Z" fill="#2563eb" fill-opacity=".7"/>
<path transform="matrix(1,0,0,-1,0,423.30876)" stroke-width=".3" stroke-linecap="butt" stroke-miterlimit="10" stroke-linejoin="miter" fill="none" stroke="#ffffff" stroke-opacity=".7" d="M175.31833 39.66875H181.46544V40.629137H175.31833Z"/>
</g>
</g>
<g clip-path="url(#clip_21)">
<g>
<path transform="matrix(1,0,0,-1,0,423.30876)" d="M181.46544 39.66875H187.61257V40.659605H181.46544Z" fill="#2563eb" fill-opacity=".7"/>
<path transform="matrix(1,0,0,-1,0,423.30876)" stroke-width=".3" stroke-linecap="butt" stroke-miterlimit="10" stroke-linejoin="miter" fill="none" stroke="#ffffff" stroke-opacity=".7" d="M181.46544 39.66875H187.61257V40.659605H181.46544Z"/>
</g>
</g>
<g clip-path="url(#clip_22)">
<g>
<path transform="matrix(1,0,0,-1,0,423.30876)" d="M187.61257 39.66875H193.75968V40.14224H187.61257Z" fill="#2563eb" fill-opacity=".7"/>
<path transform="matrix(1,0,0,-1,0,423.30876)" stroke-width=".3" stroke-linecap="butt" stroke-miterlimit="10" stroke-linejoin="miter" fill="none" stroke="#ffffff" stroke-opacity=".7" d="M187.61257 39.66875H193.75968V40.14224H187.61257Z"/>
</g>
</g>
<g clip-path="url(#clip_23)">
<g>
<path transform="matrix(1,0,0,-1,0,423.30876)" d="M193.75968 39.66875H199.90679V40.283617H193.75968Z" fill="#2563eb" fill-opacity=".7"/>
<path transform="matrix(1,0,0,-1,0,423.30876)" stroke-width=".3" stroke-linecap="butt" stroke-miterlimit="10" stroke-linejoin="miter" fill="none" stroke="#ffffff" stroke-opacity=".7" d="M193.75968 39.66875H199.90679V40.283617H193.75968Z"/>
</g>
</g>
<g clip-path="url(#clip_24)">
<g>
<path transform="matrix(1,0,0,-1,0,423.30876)" d="M199.90679 39.66875H206.0539V40.448759H199.90679Z" fill="#2563eb" fill-opacity=".7"/>
<path transform="matrix(1,0,0,-1,0,423.30876)" stroke-width=".3" stroke-linecap="butt" stroke-miterlimit="10" stroke-linejoin="miter" fill="none" stroke="#ffffff" stroke-opacity=".7" d="M199.90679 39.66875H206.0539V40.448759H199.90679Z"/>
</g>
</g>
<g clip-path="url(#clip_25)">
<g>
<path transform="matrix(1,0,0,-1,0,423.30876)" d="M206.0539 39.66875H212.201V40.453634H206.0539Z" fill="#2563eb" fill-opacity=".7"/>
<path transform="matrix(1,0,0,-1,0,423.30876)" stroke-width=".3" stroke-linecap="butt" stroke-miterlimit="10" stroke-linejoin="miter" fill="none" stroke="#ffffff" stroke-opacity=".7" d="M206.0539 39.66875H212.201V40.453634H206.0539Z"/>
</g>
</g>
<g clip-path="url(#clip_26)">
<g>
<path transform="matrix(1,0,0,-1,0,423.30876)" d="M212.201 39.66875H218.34812V40.115427H212.201Z" fill="#2563eb" fill-opacity=".7"/>
<path transform="matrix(1,0,0,-1,0,423.30876)" stroke-width=".3" stroke-linecap="butt" stroke-miterlimit="10" stroke-linejoin="miter" fill="none" stroke="#ffffff" stroke-opacity=".7" d="M212.201 39.66875H218.34812V40.115427H212.201Z"/>
</g>
</g>
<g clip-path="url(#clip_27)">
<g>
<path transform="matrix(1,0,0,-1,0,423.30876)" d="M218.34812 39.66875H224.49524V40.02219H218.34812Z" fill="#2563eb" fill-opacity=".7"/>
<path transform="matrix(1,0,0,-1,0,423.30876)" stroke-width=".3" stroke-linecap="butt" stroke-miterlimit="10" stroke-linejoin="miter" fill="none" stroke="#ffffff" stroke-opacity=".7" d="M218.34812 39.66875H224.49524V40.02219H218.34812Z"/>
</g>
</g>
<g clip-path="url(#clip_28)">
<g>
<path transform="matrix(1,0,0,-1,0,423.30876)" d="M224.49524 39.66875H230.64235V40.2696H224.49524Z" fill="#2563eb" fill-opacity=".7"/>
<path transform="matrix(1,0,0,-1,0,423.30876)" stroke-width=".3" stroke-linecap="butt" stroke-miterlimit="10" stroke-linejoin="miter" fill="none" stroke="#ffffff" stroke-opacity=".7" d="M224.49524 39.66875H230.64235V40.2696H224.49524Z"/>
</g>
</g>
<g clip-path="url(#clip_29)">
<g>
<path transform="matrix(1,0,0,-1,0,423.30876)" d="M230.64235 39.66875H236.78946V40.16783H230.64235Z" fill="#2563eb" fill-opacity=".7"/>
<path transform="matrix(1,0,0,-1,0,423.30876)" stroke-width=".3" stroke-linecap="butt" stroke-miterlimit="10" stroke-linejoin="miter" fill="none" stroke="#ffffff" stroke-opacity=".7" d="M230.64235 39.66875H236.78946V40.16783H230.64235Z"/>
</g>
</g>
<g clip-path="url(#clip_30)">
<g>
<path transform="matrix(1,0,0,-1,0,423.30876)" d="M236.78946 39.66875H242.93657V40.225725H236.78946Z" fill="#2563eb" fill-opacity=".7"/>
<path transform="matrix(1,0,0,-1,0,423.30876)" stroke-width=".3" stroke-linecap="butt" stroke-miterlimit="10" stroke-linejoin="miter" fill="none" stroke="#ffffff" stroke-opacity=".7" d="M236.78946 39.66875H242.93657V40.225725H236.78946Z"/>
</g>
</g>
<g clip-path="url(#clip_31)">
<g>
<path transform="matrix(1,0,0,-1,0,423.30876)" d="M242.93657 39.66875H249.08368V40.080694H242.93657Z" fill="#2563eb" fill-opacity=".7"/>
<path transform="matrix(1,0,0,-1,0,423.30876)" stroke-width=".3" stroke-linecap="butt" stroke-miterlimit="10" stroke-linejoin="miter" fill="none" stroke="#ffffff" stroke-opacity=".7" d="M242.93657 39.66875H249.08368V40.080694H242.93657Z"/>
</g>
</g>
<g clip-path="url(#clip_32)">
<g>
<path transform="matrix(1,0,0,-1,0,423.30876)" d="M249.08368 39.66875H255.23079V39.96552H249.08368Z" fill="#2563eb" fill-opacity=".7"/>
<path transform="matrix(1,0,0,-1,0,423.30876)" stroke-width=".3" stroke-linecap="butt" stroke-miterlimit="10" stroke-linejoin="miter" fill="none" stroke="#ffffff" stroke-opacity=".7" d="M249.08368 39.66875H255.23079V39.96552H249.08368Z"/>
</g>
</g>
<g clip-path="url(#clip_33)">
<g>
<path transform="matrix(1,0,0,-1,0,423.30876)" d="M255.23079 39.66875H261.3779V39.988676H255.23079Z" fill="#2563eb" fill-opacity=".7"/>
<path transform="matrix(1,0,0,-1,0,423.30876)" stroke-width=".3" stroke-linecap="butt" stroke-miterlimit="10" stroke-linejoin="miter" fill="none" stroke="#ffffff" stroke-opacity=".7" d="M255.23079 39.66875H261.3779V39.988676H255.23079Z"/>
</g>
</g>
<g clip-path="url(#clip_34)">
<g>
<path transform="matrix(1,0,0,-1,0,423.30876)" d="M261.3779 39.66875H267.52503V40.04291H261.3779Z" fill="#2563eb" fill-opacity=".7"/>
<path transform="matrix(1,0,0,-1,0,423.30876)" stroke-width=".3" stroke-linecap="butt" stroke-miterlimit="10" stroke-linejoin="miter" fill="none" stroke="#ffffff" stroke-opacity=".7" d="M261.3779 39.66875H267.52503V40.04291H261.3779Z"/>
</g>
</g>
<g clip-path="url(#clip_35)">
<g>
<path transform="matrix(1,0,0,-1,0,423.30876)" d="M267.52503 39.66875H273.67213V40.05266H267.52503Z" fill="#2563eb" fill-opacity=".7"/>
<path transform="matrix(1,0,0,-1,0,423.30876)" stroke-width=".3" stroke-linecap="butt" stroke-miterlimit="10" stroke-linejoin="miter" fill="none" stroke="#ffffff" stroke-opacity=".7" d="M267.52503 39.66875H273.67213V40.05266H267.52503Z"/>
</g>
</g>
<g clip-path="url(#clip_36)">
<g>
<path transform="matrix(1,0,0,-1,0,423.30876)" d="M273.67213 39.66875H279.81925V39.96186H273.67213Z" fill="#2563eb" fill-opacity=".7"/>
<path transform="matrix(1,0,0,-1,0,423.30876)" stroke-width=".3" stroke-linecap="butt" stroke-miterlimit="10" stroke-linejoin="miter" fill="none" stroke="#ffffff" stroke-opacity=".7" d="M273.67213 39.66875H279.81925V39.96186H273.67213Z"/>
</g>
</g>
<g clip-path="url(#clip_37)">
<g>
<path transform="matrix(1,0,0,-1,0,423.30876)" d="M279.81925 39.66875H285.96638V40.14163H279.81925Z" fill="#2563eb" fill-opacity=".7"/>
<path transform="matrix(1,0,0,-1,0,423.30876)" stroke-width=".3" stroke-linecap="butt" stroke-miterlimit="10" stroke-linejoin="miter" fill="none" stroke="#ffffff" stroke-opacity=".7" d="M279.81925 39.66875H285.96638V40.14163H279.81925Z"/>
</g>
</g>
<g clip-path="url(#clip_38)">
<g>
<path transform="matrix(1,0,0,-1,0,423.30876)" d="M285.96638 39.66875H292.11347V39.81317H285.96638Z" fill="#2563eb" fill-opacity=".7"/>
<path transform="matrix(1,0,0,-1,0,423.30876)" stroke-width=".3" stroke-linecap="butt" stroke-miterlimit="10" stroke-linejoin="miter" fill="none" stroke="#ffffff" stroke-opacity=".7" d="M285.96638 39.66875H292.11347V39.81317H285.96638Z"/>
</g>
</g>
<g clip-path="url(#clip_39)">
<g>
<path transform="matrix(1,0,0,-1,0,423.30876)" d="M292.11347 39.66875H298.2606V39.86497H292.11347Z" fill="#2563eb" fill-opacity=".7"/>
<path transform="matrix(1,0,0,-1,0,423.30876)" stroke-width=".3" stroke-linecap="butt" stroke-miterlimit="10" stroke-linejoin="miter" fill="none" stroke="#ffffff" stroke-opacity=".7" d="M292.11347 39.66875H298.2606V39.86497H292.11347Z"/>
</g>
</g>
<g clip-path="url(#clip_40)">
<g>
<path transform="matrix(1,0,0,-1,0,423.30876)" d="M298.2606 39.66875H304.40769V39.907629H298.2606Z" fill="#2563eb" fill-opacity=".7"/>
<path transform="matrix(1,0,0,-1,0,423.30876)" stroke-width=".3" stroke-linecap="butt" stroke-miterlimit="10" stroke-linejoin="miter" fill="none" stroke="#ffffff" stroke-opacity=".7" d="M298.2606 39.66875H304.40769V39.907629H298.2606Z"/>
</g>
</g>
<g clip-path="url(#clip_41)">
<g>
<path transform="matrix(1,0,0,-1,0,423.30876)" d="M304.40769 39.66875H310.5548V39.821096H304.40769Z" fill="#2563eb" fill-opacity=".7"/>
<path transform="matrix(1,0,0,-1,0,423.30876)" stroke-width=".3" stroke-linecap="butt" stroke-miterlimit="10" stroke-linejoin="miter" fill="none" stroke="#ffffff" stroke-opacity=".7" d="M304.40769 39.66875H310.5548V39.821096H304.40769Z"/>
</g>
</g>
<g clip-path="url(#clip_42)">
<g>
<path transform="matrix(1,0,0,-1,0,423.30876)" d="M310.5548 39.66875H316.7019V39.94602H310.5548Z" fill="#2563eb" fill-opacity=".7"/>
<path transform="matrix(1,0,0,-1,0,423.30876)" stroke-width=".3" stroke-linecap="butt" stroke-miterlimit="10" stroke-linejoin="miter" fill="none" stroke="#ffffff" stroke-opacity=".7" d="M310.5548 39.66875H316.7019V39.94602H310.5548Z"/>
</g>
</g>
<g clip-path="url(#clip_43)">
<g>
<path transform="matrix(1,0,0,-1,0,423.30876)" d="M316.7019 39.66875H322.84904V39.97161H316.7019Z" fill="#2563eb" fill-opacity=".7"/>
<path transform="matrix(1,0,0,-1,0,423.30876)" stroke-width=".3" stroke-linecap="butt" stroke-miterlimit="10" stroke-linejoin="miter" fill="none" stroke="#ffffff" stroke-opacity=".7" d="M316.7019 39.66875H322.84904V39.97161H316.7019Z"/>
</g>
</g>
<g clip-path="url(#clip_44)">
<g>
<path transform="matrix(1,0,0,-1,0,423.30876)" d="M322.84904 39.66875H328.99617V39.91494H322.84904Z" fill="#2563eb" fill-opacity=".7"/>
<path transform="matrix(1,0,0,-1,0,423.30876)" stroke-width=".3" stroke-linecap="butt" stroke-miterlimit="10" stroke-linejoin="miter" fill="none" stroke="#ffffff" stroke-opacity=".7" d="M322.84904 39.66875H328.99617V39.91494H322.84904Z"/>
</g>
</g>
<g clip-path="url(#clip_45)">
<g>
<path transform="matrix(1,0,0,-1,0,423.30876)" d="M328.99617 39.66875H335.14326V39.78514H328.99617Z" fill="#2563eb" fill-opacity=".7"/>
<path transform="matrix(1,0,0,-1,0,423.30876)" stroke-width=".3" stroke-linecap="butt" stroke-miterlimit="10" stroke-linejoin="miter" fill="none" stroke="#ffffff" stroke-opacity=".7" d="M328.99617 39.66875H335.14326V39.78514H328.99617Z"/>
</g>
</g>
<g clip-path="url(#clip_46)">
<g>
<path transform="matrix(1,0,0,-1,0,423.30876)" d="M335.14326 39.66875H341.29039V39.768079H335.14326Z" fill="#2563eb" fill-opacity=".7"/>
<path transform="matrix(1,0,0,-1,0,423.30876)" stroke-width=".3" stroke-linecap="butt" stroke-miterlimit="10" stroke-linejoin="miter" fill="none" stroke="#ffffff" stroke-opacity=".7" d="M335.14326 39.66875H341.29039V39.768079H335.14326Z"/>
</g>
</g>
<g clip-path="url(#clip_47)">
<g>
<path transform="matrix(1,0,0,-1,0,423.30876)" d="M341.29039 39.66875H347.43748V39.908849H341.29039Z" fill="#2563eb" fill-opacity=".7"/>
<path transform="matrix(1,0,0,-1,0,423.30876)" stroke-width=".3" stroke-linecap="butt" stroke-miterlimit="10" stroke-linejoin="miter" fill="none" stroke="#ffffff" stroke-opacity=".7" d="M341.29039 39.66875H347.43748V39.908849H341.29039Z"/>
</g>
</g>
<g clip-path="url(#clip_48)">
<g>
<path transform="matrix(1,0,0,-1,0,423.30876)" d="M347.43748 39.66875H353.5846V39.980146H347.43748Z" fill="#2563eb" fill-opacity=".7"/>
<path transform="matrix(1,0,0,-1,0,423.30876)" stroke-width=".3" stroke-linecap="butt" stroke-miterlimit="10" stroke-linejoin="miter" fill="none" stroke="#ffffff" stroke-opacity=".7" d="M347.43748 39.66875H353.5846V39.980146H347.43748Z"/>
</g>
</g>
<g clip-path="url(#clip_49)">
<g>
<path transform="matrix(1,0,0,-1,0,423.30876)" d="M353.5846 39.66875H359.73173V39.81317H353.5846Z" fill="#2563eb" fill-opacity=".7"/>
<path transform="matrix(1,0,0,-1,0,423.30876)" stroke-width=".3" stroke-linecap="butt" stroke-miterlimit="10" stroke-linejoin="miter" fill="none" stroke="#ffffff" stroke-opacity=".7" d="M353.5846 39.66875H359.73173V39.81317H353.5846Z"/>
</g>
</g>
<g clip-path="url(#clip_50)">
<g>
<path transform="matrix(1,0,0,-1,0,423.30876)" d="M359.73173 39.66875H365.8788V39.869237H359.73173Z" fill="#2563eb" fill-opacity=".7"/>
<path transform="matrix(1,0,0,-1,0,423.30876)" stroke-width=".3" stroke-linecap="butt" stroke-miterlimit="10" stroke-linejoin="miter" fill="none" stroke="#ffffff" stroke-opacity=".7" d="M359.73173 39.66875H365.8788V39.869237H359.73173Z"/>
</g>
</g>
<g clip-path="url(#clip_51)">
<g>
<path transform="matrix(1,0,0,-1,0,423.30876)" d="M365.8788 39.66875H372.02595V39.862535H365.8788Z" fill="#2563eb" fill-opacity=".7"/>
<path transform="matrix(1,0,0,-1,0,423.30876)" stroke-width=".3" stroke-linecap="butt" stroke-miterlimit="10" stroke-linejoin="miter" fill="none" stroke="#ffffff" stroke-opacity=".7" d="M365.8788 39.66875H372.02595V39.862535H365.8788Z"/>
</g>
</g>
<g clip-path="url(#clip_52)">
<g>
<path transform="matrix(1,0,0,-1,0,423.30876)" d="M372.02595 39.66875H378.17304V39.724206H372.02595Z" fill="#2563eb" fill-opacity=".7"/>
<path transform="matrix(1,0,0,-1,0,423.30876)" stroke-width=".3" stroke-linecap="butt" stroke-miterlimit="10" stroke-linejoin="miter" fill="none" stroke="#ffffff" stroke-opacity=".7" d="M372.02595 39.66875H378.17304V39.724206H372.02595Z"/>
</g>
</g>
<g clip-path="url(#clip_53)">
<g>
<path transform="matrix(1,0,0,-1,0,423.30876)" d="M378.17304 39.66875H384.32017V39.77478H378.17304Z" fill="#2563eb" fill-opacity=".7"/>
<path transform="matrix(1,0,0,-1,0,423.30876)" stroke-width=".3" stroke-linecap="butt" stroke-miterlimit="10" stroke-linejoin="miter" fill="none" stroke="#ffffff" stroke-opacity=".7" d="M378.17304 39.66875H384.32017V39.77478H378.17304Z"/>
</g>
</g>
<g clip-path="url(#clip_54)">
<g>
<path transform="matrix(1,0,0,-1,0,423.30876)" d="M384.32017 39.66875H390.46726V39.79794H384.32017Z" fill="#2563eb" fill-opacity=".7"/>
<path transform="matrix(1,0,0,-1,0,423.30876)" stroke-width=".3" stroke-linecap="butt" stroke-miterlimit="10" stroke-linejoin="miter" fill="none" stroke="#ffffff" stroke-opacity=".7" d="M384.32017 39.66875H390.46726V39.79794H384.32017Z"/>
</g>
</g>
<g clip-path="url(#clip_55)">
<g>
<path transform="matrix(1,0,0,-1,0,423.30876)" d="M390.46726 39.66875H396.61439V39.841814H390.46726Z" fill="#2563eb" fill-opacity=".7"/>
<path transform="matrix(1,0,0,-1,0,423.30876)" stroke-width=".3" stroke-linecap="butt" stroke-miterlimit="10" stroke-linejoin="miter" fill="none" stroke="#ffffff" stroke-opacity=".7" d="M390.46726 39.66875H396.61439V39.841814H390.46726Z"/>
</g>
</g>
<g clip-path="url(#clip_56)">
<g>
<path transform="matrix(1,0,0,-1,0,423.30876)" d="M396.61439 39.66875H402.7615V39.90458H396.61439Z" fill="#2563eb" fill-opacity=".7"/>
<path transform="matrix(1,0,0,-1,0,423.30876)" stroke-width=".3" stroke-linecap="butt" stroke-miterlimit="10" stroke-linejoin="miter" fill="none" stroke="#ffffff" stroke-opacity=".7" d="M396.61439 39.66875H402.7615V39.90458H396.61439Z"/>
</g>
</g>
<g clip-path="url(#clip_57)">
<g>
<path transform="matrix(1,0,0,-1,0,423.30876)" d="M402.7615 39.66875H408.9086V39.748579H402.7615Z" fill="#2563eb" fill-opacity=".7"/>
<path transform="matrix(1,0,0,-1,0,423.30876)" stroke-width=".3" stroke-linecap="butt" stroke-miterlimit="10" stroke-linejoin="miter" fill="none" stroke="#ffffff" stroke-opacity=".7" d="M402.7615 39.66875H408.9086V39.748579H402.7615Z"/>
</g>
</g>
<g clip-path="url(#clip_58)">
<g>
<path transform="matrix(1,0,0,-1,0,423.30876)" d="M408.9086 39.66875H415.05574V39.783926H408.9086Z" fill="#2563eb" fill-opacity=".7"/>
<path transform="matrix(1,0,0,-1,0,423.30876)" stroke-width=".3" stroke-linecap="butt" stroke-miterlimit="10" stroke-linejoin="miter" fill="none" stroke="#ffffff" stroke-opacity=".7" d="M408.9086 39.66875H415.05574V39.783926H408.9086Z"/>
</g>
</g>
<g clip-path="url(#clip_59)">
<g>
<path transform="matrix(1,0,0,-1,0,423.30876)" d="M415.05574 39.66875H421.20283V39.77844H415.05574Z" fill="#2563eb" fill-opacity=".7"/>
<path transform="matrix(1,0,0,-1,0,423.30876)" stroke-width=".3" stroke-linecap="butt" stroke-miterlimit="10" stroke-linejoin="miter" fill="none" stroke="#ffffff" stroke-opacity=".7" d="M415.05574 39.66875H421.20283V39.77844H415.05574Z"/>
</g>
</g>
<g clip-path="url(#clip_60)">
<g>
<path transform="matrix(1,0,0,-1,0,423.30876)" d="M421.20283 39.66875H427.34996V39.7565H421.20283Z" fill="#2563eb" fill-opacity=".7"/>
<path transform="matrix(1,0,0,-1,0,423.30876)" stroke-width=".3" stroke-linecap="butt" stroke-miterlimit="10" stroke-linejoin="miter" fill="none" stroke="#ffffff" stroke-opacity=".7" d="M421.20283 39.66875H427.34996V39.7565H421.20283Z"/>
</g>
</g>
<g clip-path="url(#clip_61)">
<g>
<path transform="matrix(1,0,0,-1,0,423.30876)" d="M427.34996 39.66875H433.49705V39.77661H427.34996Z" fill="#2563eb" fill-opacity=".7"/>
<path transform="matrix(1,0,0,-1,0,423.30876)" stroke-width=".3" stroke-linecap="butt" stroke-miterlimit="10" stroke-linejoin="miter" fill="none" stroke="#ffffff" stroke-opacity=".7" d="M427.34996 39.66875H433.49705V39.77661H427.34996Z"/>
</g>
</g>
<g clip-path="url(#clip_62)">
<g>
<path transform="matrix(1,0,0,-1,0,423.30876)" d="M433.49705 39.66875H439.64418V39.799158H433.49705Z" fill="#2563eb" fill-opacity=".7"/>
<path transform="matrix(1,0,0,-1,0,423.30876)" stroke-width=".3" stroke-linecap="butt" stroke-miterlimit="10" stroke-linejoin="miter" fill="none" stroke="#ffffff" stroke-opacity=".7" d="M433.49705 39.66875H439.64418V39.799158H433.49705Z"/>
</g>
</g>
<g clip-path="url(#clip_63)">
<g>
<path transform="matrix(1,0,0,-1,0,423.30876)" d="M439.64418 39.66875H445.7913V39.732736H439.64418Z" fill="#2563eb" fill-opacity=".7"/>
<path transform="matrix(1,0,0,-1,0,423.30876)" stroke-width=".3" stroke-linecap="butt" stroke-miterlimit="10" stroke-linejoin="miter" fill="none" stroke="#ffffff" stroke-opacity=".7" d="M439.64418 39.66875H445.7913V39.732736H439.64418Z"/>
</g>
</g>
<g clip-path="url(#clip_64)">
<g>
<path transform="matrix(1,0,0,-1,0,423.30876)" d="M445.7913 39.66875H451.9384V39.753454H445.7913Z" fill="#2563eb" fill-opacity=".7"/>
<path transform="matrix(1,0,0,-1,0,423.30876)" stroke-width=".3" stroke-linecap="butt" stroke-miterlimit="10" stroke-linejoin="miter" fill="none" stroke="#ffffff" stroke-opacity=".7" d="M445.7913 39.66875H451.9384V39.753454H445.7913Z"/>
</g>
</g>
<g clip-path="url(#clip_65)">
<g>
<path transform="matrix(1,0,0,-1,0,423.30876)" d="M451.9384 39.66875H458.0855V39.83572H451.9384Z" fill="#2563eb" fill-opacity=".7"/>
<path transform="matrix(1,0,0,-1,0,423.30876)" stroke-width=".3" stroke-linecap="butt" stroke-miterlimit="10" stroke-linejoin="miter" fill="none" stroke="#ffffff" stroke-opacity=".7" d="M451.9384 39.66875H458.0855V39.83572H451.9384Z"/>
</g>
</g>
<g clip-path="url(#clip_66)">
<g>
<path transform="matrix(1,0,0,-1,0,423.30876)" d="M458.0855 39.66875H464.2326V39.75711H458.0855Z" fill="#2563eb" fill-opacity=".7"/>
<path transform="matrix(1,0,0,-1,0,423.30876)" stroke-width=".3" stroke-linecap="butt" stroke-miterlimit="10" stroke-linejoin="miter" fill="none" stroke="#ffffff" stroke-opacity=".7" d="M458.0855 39.66875H464.2326V39.75711H458.0855Z"/>
</g>
</g>
<g clip-path="url(#clip_67)">
<g>
<path transform="matrix(1,0,0,-1,0,423.30876)" d="M464.2326 39.66875H470.37974V39.72786H464.2326Z" fill="#2563eb" fill-opacity=".7"/>
<path transform="matrix(1,0,0,-1,0,423.30876)" stroke-width=".3" stroke-linecap="butt" stroke-miterlimit="10" stroke-linejoin="miter" fill="none" stroke="#ffffff" stroke-opacity=".7" d="M464.2326 39.66875H470.37974V39.72786H464.2326Z"/>
</g>
</g>
<g clip-path="url(#clip_68)">
<g>
<path transform="matrix(1,0,0,-1,0,423.30876)" d="M470.37974 39.66875H476.52687V39.75772H470.37974Z" fill="#2563eb" fill-opacity=".7"/>
<path transform="matrix(1,0,0,-1,0,423.30876)" stroke-width=".3" stroke-linecap="butt" stroke-miterlimit="10" stroke-linejoin="miter" fill="none" stroke="#ffffff" stroke-opacity=".7" d="M470.37974 39.66875H476.52687V39.75772H470.37974Z"/>
</g>
</g>
<g clip-path="url(#clip_69)">
<g>
<path transform="matrix(1,0,0,-1,0,423.30876)" d="M476.52687 39.66875H482.67396V39.744924H476.52687Z" fill="#2563eb" fill-opacity=".7"/>
<path transform="matrix(1,0,0,-1,0,423.30876)" stroke-width=".3" stroke-linecap="butt" stroke-miterlimit="10" stroke-linejoin="miter" fill="none" stroke="#ffffff" stroke-opacity=".7" d="M476.52687 39.66875H482.67396V39.744924H476.52687Z"/>
</g>
</g>
<g clip-path="url(#clip_70)">
<g>
<path transform="matrix(1,0,0,-1,0,423.30876)" d="M482.67396 39.66875H488.82109V39.698H482.67396Z" fill="#2563eb" fill-opacity=".7"/>
<path transform="matrix(1,0,0,-1,0,423.30876)" stroke-width=".3" stroke-linecap="butt" stroke-miterlimit="10" stroke-linejoin="miter" fill="none" stroke="#ffffff" stroke-opacity=".7" d="M482.67396 39.66875H488.82109V39.698H482.67396Z"/>
</g>
</g>
<g clip-path="url(#clip_71)">
<g>
<path transform="matrix(1,0,0,-1,0,423.30876)" d="M488.82109 39.66875H494.96818V39.7565H488.82109Z" fill="#2563eb" fill-opacity=".7"/>
<path transform="matrix(1,0,0,-1,0,423.30876)" stroke-width=".3" stroke-linecap="butt" stroke-miterlimit="10" stroke-linejoin="miter" fill="none" stroke="#ffffff" stroke-opacity=".7" d="M488.82109 39.66875H494.96818V39.7565H488.82109Z"/>
</g>
</g>
<g clip-path="url(#clip_72)">
<g>
<path transform="matrix(1,0,0,-1,0,423.30876)" d="M494.96818 39.66875H501.1153V39.761377H494.96818Z" fill="#2563eb" fill-opacity=".7"/>
<path transform="matrix(1,0,0,-1,0,423.30876)" stroke-width=".3" stroke-linecap="butt" stroke-miterlimit="10" stroke-linejoin="miter" fill="none" stroke="#ffffff" stroke-opacity=".7" d="M494.96818 39.66875H501.1153V39.761377H494.96818Z"/>
</g>
</g>
<g clip-path="url(#clip_73)">
<g>
<path transform="matrix(1,0,0,-1,0,423.30876)" d="M501.1153 39.66875H507.2624V39.69739H501.1153Z" fill="#2563eb" fill-opacity=".7"/>
<path transform="matrix(1,0,0,-1,0,423.30876)" stroke-width=".3" stroke-linecap="butt" stroke-miterlimit="10" stroke-linejoin="miter" fill="none" stroke="#ffffff" stroke-opacity=".7" d="M501.1153 39.66875H507.2624V39.69739H501.1153Z"/>
</g>
</g>
<g clip-path="url(#clip_74)">
<g>
<path transform="matrix(1,0,0,-1,0,423.30876)" d="M507.2624 39.66875H513.4095V39.705316H507.2624Z" fill="#2563eb" fill-opacity=".7"/>
<path transform="matrix(1,0,0,-1,0,423.30876)" stroke-width=".3" stroke-linecap="butt" stroke-miterlimit="10" stroke-linejoin="miter" fill="none" stroke="#ffffff" stroke-opacity=".7" d="M507.2624 39.66875H513.4095V39.705316H507.2624Z"/>
</g>
</g>
<g clip-path="url(#clip_75)">
<g>
<path transform="matrix(1,0,0,-1,0,423.30876)" d="M513.4095 39.66875H519.55667V39.772954H513.4095Z" fill="#2563eb" fill-opacity=".7"/>
<path transform="matrix(1,0,0,-1,0,423.30876)" stroke-width=".3" stroke-linecap="butt" stroke-miterlimit="10" stroke-linejoin="miter" fill="none" stroke="#ffffff" stroke-opacity=".7" d="M513.4095 39.66875H519.55667V39.772954H513.4095Z"/>
</g>
</g>
<g clip-path="url(#clip_76)">
<g>
<path transform="matrix(1,0,0,-1,0,423.30876)" d="M519.55667 39.66875H525.70376V39.730909H519.55667Z" fill="#2563eb" fill-opacity=".7"/>
<path transform="matrix(1,0,0,-1,0,423.30876)" stroke-width=".3" stroke-linecap="butt" stroke-miterlimit="10" stroke-linejoin="miter" fill="none" stroke="#ffffff" stroke-opacity=".7" d="M519.55667 39.66875H525.70376V39.730909H519.55667Z"/>
</g>
</g>
<g clip-path="url(#clip_77)">
<g>
<path transform="matrix(1,0,0,-1,0,423.30876)" d="M525.70376 39.66875H531.8508V39.772954H525.70376Z" fill="#2563eb" fill-opacity=".7"/>
<path transform="matrix(1,0,0,-1,0,423.30876)" stroke-width=".3" stroke-linecap="butt" stroke-miterlimit="10" stroke-linejoin="miter" fill="none" stroke="#ffffff" stroke-opacity=".7" d="M525.70376 39.66875H531.8508V39.772954H525.70376Z"/>
</g>
</g>
<g clip-path="url(#clip_78)">
<g>
<path transform="matrix(1,0,0,-1,0,423.30876)" d="M531.8508 39.66875H537.998V39.763814H531.8508Z" fill="#2563eb" fill-opacity=".7"/>
<path transform="matrix(1,0,0,-1,0,423.30876)" stroke-width=".3" stroke-linecap="butt" stroke-miterlimit="10" stroke-linejoin="miter" fill="none" stroke="#ffffff" stroke-opacity=".7" d="M531.8508 39.66875H537.998V39.763814H531.8508Z"/>
</g>
</g>
<g clip-path="url(#clip_79)">
<g>
<path transform="matrix(1,0,0,-1,0,423.30876)" d="M537.998 39.66875H544.1451V39.698H537.998Z" fill="#2563eb" fill-opacity=".7"/>
<path transform="matrix(1,0,0,-1,0,423.30876)" stroke-width=".3" stroke-linecap="butt" stroke-miterlimit="10" stroke-linejoin="miter" fill="none" stroke="#ffffff" stroke-opacity=".7" d="M537.998 39.66875H544.1451V39.698H537.998Z"/>
</g>
</g>
<g clip-path="url(#clip_80)">
<g>
<path transform="matrix(1,0,0,-1,0,423.30876)" d="M544.1451 39.66875H550.2922V39.733957H544.1451Z" fill="#2563eb" fill-opacity=".7"/>
<path transform="matrix(1,0,0,-1,0,423.30876)" stroke-width=".3" stroke-linecap="butt" stroke-miterlimit="10" stroke-linejoin="miter" fill="none" stroke="#ffffff" stroke-opacity=".7" d="M544.1451 39.66875H550.2922V39.733957H544.1451Z"/>
</g>
</g>
<g clip-path="url(#clip_81)">
<g>
<path transform="matrix(1,0,0,-1,0,423.30876)" d="M550.2922 39.66875H556.43936V39.679719H550.2922Z" fill="#2563eb" fill-opacity=".7"/>
<path transform="matrix(1,0,0,-1,0,423.30876)" stroke-width=".3" stroke-linecap="butt" stroke-miterlimit="10" stroke-linejoin="miter" fill="none" stroke="#ffffff" stroke-opacity=".7" d="M550.2922 39.66875H556.43936V39.679719H550.2922Z"/>
</g>
</g>
<g clip-path="url(#clip_82)">
<g>
<path transform="matrix(1,0,0,-1,0,423.30876)" d="M556.43936 39.66875H562.5864V39.72908H556.43936Z" fill="#2563eb" fill-opacity=".7"/>
<path transform="matrix(1,0,0,-1,0,423.30876)" stroke-width=".3" stroke-linecap="butt" stroke-miterlimit="10" stroke-linejoin="miter" fill="none" stroke="#ffffff" stroke-opacity=".7" d="M556.43936 39.66875H562.5864V39.72908H556.43936Z"/>
</g>
</g>
<g clip-path="url(#clip_83)">
<g>
<path transform="matrix(1,0,0,-1,0,423.30876)" d="M562.5864 39.66875H568.7335V39.691907H562.5864Z" fill="#2563eb" fill-opacity=".7"/>
<path transform="matrix(1,0,0,-1,0,423.30876)" stroke-width=".3" stroke-linecap="butt" stroke-miterlimit="10" stroke-linejoin="miter" fill="none" stroke="#ffffff" stroke-opacity=".7" d="M562.5864 39.66875H568.7335V39.691907H562.5864Z"/>
</g>
</g>
<g clip-path="url(#clip_84)">
<g>
<path transform="matrix(1,0,0,-1,0,423.30876)" d="M568.7335 39.66875H574.8806V39.682767H568.7335Z" fill="#2563eb" fill-opacity=".7"/>
<path transform="matrix(1,0,0,-1,0,423.30876)" stroke-width=".3" stroke-linecap="butt" stroke-miterlimit="10" stroke-linejoin="miter" fill="none" stroke="#ffffff" stroke-opacity=".7" d="M568.7335 39.66875H574.8806V39.682767H568.7335Z"/>
</g>
</g>
<g clip-path="url(#clip_85)">
<g>
<path transform="matrix(1,0,0,-1,0,423.30876)" d="M574.8806 39.66875H581.0278V39.749189H574.8806Z" fill="#2563eb" fill-opacity=".7"/>
<path transform="matrix(1,0,0,-1,0,423.30876)" stroke-width=".3" stroke-linecap="butt" stroke-miterlimit="10" stroke-linejoin="miter" fill="none" stroke="#ffffff" stroke-opacity=".7" d="M574.8806 39.66875H581.0278V39.749189H574.8806Z"/>
</g>
</g>
<g clip-path="url(#clip_86)">
<g>
<path transform="matrix(1,0,0,-1,0,423.30876)" d="M581.0278 39.66875H587.17489V39.868627H581.0278Z" fill="#2563eb" fill-opacity=".7"/>
<path transform="matrix(1,0,0,-1,0,423.30876)" stroke-width=".3" stroke-linecap="butt" stroke-miterlimit="10" stroke-linejoin="miter" fill="none" stroke="#ffffff" stroke-opacity=".7" d="M581.0278 39.66875H587.17489V39.868627H581.0278Z"/>
</g>
</g>
<g clip-path="url(#clip_87)">
<g>
<path transform="matrix(1,0,0,-1,0,423.30876)" d="M587.17489 39.66875H593.32199V39.68094H587.17489Z" fill="#2563eb" fill-opacity=".7"/>
<path transform="matrix(1,0,0,-1,0,423.30876)" stroke-width=".3" stroke-linecap="butt" stroke-miterlimit="10" stroke-linejoin="miter" fill="none" stroke="#ffffff" stroke-opacity=".7" d="M587.17489 39.66875H593.32199V39.68094H587.17489Z"/>
</g>
</g>
<g clip-path="url(#clip_88)">
<g>
<path transform="matrix(1,0,0,-1,0,423.30876)" d="M593.32199 39.66875H599.4691V39.68094H593.32199Z" fill="#2563eb" fill-opacity=".7"/>
<path transform="matrix(1,0,0,-1,0,423.30876)" stroke-width=".3" stroke-linecap="butt" stroke-miterlimit="10" stroke-linejoin="miter" fill="none" stroke="#ffffff" stroke-opacity=".7" d="M593.32199 39.66875H599.4691V39.68094H593.32199Z"/>
</g>
</g>
<g clip-path="url(#clip_89)">
<g>
<path transform="matrix(1,0,0,-1,0,423.30876)" d="M599.4691 39.66875H605.6162V39.69069H599.4691Z" fill="#2563eb" fill-opacity=".7"/>
<path transform="matrix(1,0,0,-1,0,423.30876)" stroke-width=".3" stroke-linecap="butt" stroke-miterlimit="10" stroke-linejoin="miter" fill="none" stroke="#ffffff" stroke-opacity=".7" d="M599.4691 39.66875H605.6162V39.69069H599.4691Z"/>
</g>
</g>
<g clip-path="url(#clip_90)">
<g>
<path transform="matrix(1,0,0,-1,0,423.30876)" d="M605.6162 39.66875H611.7633V39.710798H605.6162Z" fill="#2563eb" fill-opacity=".7"/>
<path transform="matrix(1,0,0,-1,0,423.30876)" stroke-width=".3" stroke-linecap="butt" stroke-miterlimit="10" stroke-linejoin="miter" fill="none" stroke="#ffffff" stroke-opacity=".7" d="M605.6162 39.66875H611.7633V39.710798H605.6162Z"/>
</g>
</g>
<g clip-path="url(#clip_91)">
<g>
<path transform="matrix(1,0,0,-1,0,423.30876)" d="M611.7633 39.66875H617.9104V39.74614H611.7633Z" fill="#2563eb" fill-opacity=".7"/>
<path transform="matrix(1,0,0,-1,0,423.30876)" stroke-width=".3" stroke-linecap="butt" stroke-miterlimit="10" stroke-linejoin="miter" fill="none" stroke="#ffffff" stroke-opacity=".7" d="M611.7633 39.66875H617.9104V39.74614H611.7633Z"/>
</g>
</g>
<g clip-path="url(#clip_92)">
<g>
<path transform="matrix(1,0,0,-1,0,423.30876)" d="M617.9104 39.66875H624.05758V39.731519H617.9104Z" fill="#2563eb" fill-opacity=".7"/>
<path transform="matrix(1,0,0,-1,0,423.30876)" stroke-width=".3" stroke-linecap="butt" stroke-miterlimit="10" stroke-linejoin="miter" fill="none" stroke="#ffffff" stroke-opacity=".7" d="M617.9104 39.66875H624.05758V39.731519H617.9104Z"/>
</g>
</g>
<g clip-path="url(#clip_93)">
<g>
<path transform="matrix(1,0,0,-1,0,423.30876)" d="M624.05758 39.66875H630.20468 624.05758Z" fill="#2563eb" fill-opacity=".7"/>
<path transform="matrix(1,0,0,-1,0,423.30876)" stroke-width=".3" stroke-linecap="butt" stroke-miterlimit="10" stroke-linejoin="miter" fill="none" stroke="#ffffff" stroke-opacity=".7" d="M624.05758 39.66875H630.20468 624.05758Z"/>
</g>
</g>
<g clip-path="url(#clip_94)">
<g>
<path transform="matrix(1,0,0,-1,0,423.30876)" d="M630.20468 39.66875H636.35177V39.675455H630.20468Z" fill="#2563eb" fill-opacity=".7"/>
<path transform="matrix(1,0,0,-1,0,423.30876)" stroke-width=".3" stroke-linecap="butt" stroke-miterlimit="10" stroke-linejoin="miter" fill="none" stroke="#ffffff" stroke-opacity=".7" d="M630.20468 39.66875H636.35177V39.675455H630.20468Z"/>
</g>
</g>
<g clip-path="url(#clip_95)">
<g>
<path transform="matrix(1,0,0,-1,0,423.30876)" d="M636.35177 39.66875H642.4989V39.683988H636.35177Z" fill="#2563eb" fill-opacity=".7"/>
<path transform="matrix(1,0,0,-1,0,423.30876)" stroke-width=".3" stroke-linecap="butt" stroke-miterlimit="10" stroke-linejoin="miter" fill="none" stroke="#ffffff" stroke-opacity=".7" d="M636.35177 39.66875H642.4989V39.683988H636.35177Z"/>
</g>
</g>
<g clip-path="url(#clip_96)">
<g>
<path transform="matrix(1,0,0,-1,0,423.30876)" d="M642.4989 39.66875H648.646V39.726034H642.4989Z" fill="#2563eb" fill-opacity=".7"/>
<path transform="matrix(1,0,0,-1,0,423.30876)" stroke-width=".3" stroke-linecap="butt" stroke-miterlimit="10" stroke-linejoin="miter" fill="none" stroke="#ffffff" stroke-opacity=".7" d="M642.4989 39.66875H648.646V39.726034H642.4989Z"/>
</g>
</g>
<g clip-path="url(#clip_97)">
<g>
<path transform="matrix(1,0,0,-1,0,423.30876)" d="M648.646 39.66875H654.7931V39.672407H648.646Z" fill="#2563eb" fill-opacity=".7"/>
<path transform="matrix(1,0,0,-1,0,423.30876)" stroke-width=".3" stroke-linecap="butt" stroke-miterlimit="10" stroke-linejoin="miter" fill="none" stroke="#ffffff" stroke-opacity=".7" d="M648.646 39.66875H654.7931V39.672407H648.646Z"/>
</g>
</g>
<g clip-path="url(#clip_98)">
<g>
<path transform="matrix(1,0,0,-1,0,423.30876)" d="M654.7931 39.66875H660.9402 654.7931Z" fill="#2563eb" fill-opacity=".7"/>
<path transform="matrix(1,0,0,-1,0,423.30876)" stroke-width=".3" stroke-linecap="butt" stroke-miterlimit="10" stroke-linejoin="miter" fill="none" stroke="#ffffff" stroke-opacity=".7" d="M654.7931 39.66875H660.9402 654.7931Z"/>
</g>
</g>
<g clip-path="url(#clip_99)">
<g>
<path transform="matrix(1,0,0,-1,0,423.30876)" d="M660.9402 39.66875H667.08737V39.676675H660.9402Z" fill="#2563eb" fill-opacity=".7"/>
<path transform="matrix(1,0,0,-1,0,423.30876)" stroke-width=".3" stroke-linecap="butt" stroke-miterlimit="10" stroke-linejoin="miter" fill="none" stroke="#ffffff" stroke-opacity=".7" d="M660.9402 39.66875H667.08737V39.676675H660.9402Z"/>
</g>
</g>
<g clip-path="url(#clip_100)">
<g>
<path transform="matrix(1,0,0,-1,0,423.30876)" d="M667.08737 39.66875H673.23446V39.713846H667.08737Z" fill="#2563eb" fill-opacity=".7"/>
<path transform="matrix(1,0,0,-1,0,423.30876)" stroke-width=".3" stroke-linecap="butt" stroke-miterlimit="10" stroke-linejoin="miter" fill="none" stroke="#ffffff" stroke-opacity=".7" d="M667.08737 39.66875H673.23446V39.713846H667.08737Z"/>
</g>
</g>
<g clip-path="url(#clip_101)">
<path transform="matrix(1,0,0,-1,0,423.30876)" stroke-width=".5" stroke-linecap="square" stroke-linejoin="round" fill="none" stroke="#b0b0b0" stroke-opacity=".3" d="M58.45 39.66875V400.23377"/>
</g>
<path transform="matrix(1,0,0,-1,0,423.30876)" d="M58.45 39.66875V36.16875"/>
<path transform="matrix(1,0,0,-1,0,423.30876)" stroke-width=".8" stroke-linecap="butt" stroke-linejoin="round" fill="none" stroke="#000000" d="M58.45 39.66875V36.16875"/>
<use data-text="0" xlink:href="#font_102_48" transform="matrix(10,0,0,-10,55.270315,398.23374)"/>
<g clip-path="url(#clip_103)">
<path transform="matrix(1,0,0,-1,0,423.30876)" stroke-width=".5" stroke-linecap="square" stroke-linejoin="round" fill="none" stroke="#b0b0b0" stroke-opacity=".3" d="M131.64734 39.66875V400.23377"/>
</g>
<path transform="matrix(1,0,0,-1,0,423.30876)" d="M131.64734 39.66875V36.16875"/>
<path transform="matrix(1,0,0,-1,0,423.30876)" stroke-width=".8" stroke-linecap="butt" stroke-linejoin="round" fill="none" stroke="#000000" d="M131.64734 39.66875V36.16875"/>
<use data-text="1" xlink:href="#font_102_49" transform="matrix(10,0,0,-10,118.92859,398.23374)"/>
<use data-text="0" xlink:href="#font_102_48" transform="matrix(10,0,0,-10,125.28859,398.23374)"/>
<use data-text="0" xlink:href="#font_102_48" transform="matrix(10,0,0,-10,131.64859,398.23374)"/>
<use data-text="0" xlink:href="#font_102_48" transform="matrix(10,0,0,-10,138.00859,398.23374)"/>
<g clip-path="url(#clip_104)">
<path transform="matrix(1,0,0,-1,0,423.30876)" stroke-width=".5" stroke-linecap="square" stroke-linejoin="round" fill="none" stroke="#b0b0b0" stroke-opacity=".3" d="M204.84468 39.66875V400.23377"/>
</g>
<path transform="matrix(1,0,0,-1,0,423.30876)" d="M204.84468 39.66875V36.16875"/>
<path transform="matrix(1,0,0,-1,0,423.30876)" stroke-width=".8" stroke-linecap="butt" stroke-linejoin="round" fill="none" stroke="#000000" d="M204.84468 39.66875V36.16875"/>
<use data-text="2" xlink:href="#font_102_50" transform="matrix(10,0,0,-10,192.12593,398.23374)"/>
<use data-text="0" xlink:href="#font_102_48" transform="matrix(10,0,0,-10,198.48593,398.23374)"/>
<use data-text="0" xlink:href="#font_102_48" transform="matrix(10,0,0,-10,204.84593,398.23374)"/>
<use data-text="0" xlink:href="#font_102_48" transform="matrix(10,0,0,-10,211.20594,398.23374)"/>
<g clip-path="url(#clip_105)">
<path transform="matrix(1,0,0,-1,0,423.30876)" stroke-width=".5" stroke-linecap="square" stroke-linejoin="round" fill="none" stroke="#b0b0b0" stroke-opacity=".3" d="M278.04203 39.66875V400.23377"/>
</g>
<path transform="matrix(1,0,0,-1,0,423.30876)" d="M278.04203 39.66875V36.16875"/>
<path transform="matrix(1,0,0,-1,0,423.30876)" stroke-width=".8" stroke-linecap="butt" stroke-linejoin="round" fill="none" stroke="#000000" d="M278.04203 39.66875V36.16875"/>
<use data-text="3" xlink:href="#font_102_51" transform="matrix(10,0,0,-10,265.32328,398.23374)"/>
<use data-text="0" xlink:href="#font_102_48" transform="matrix(10,0,0,-10,271.6833,398.23374)"/>
<use data-text="0" xlink:href="#font_102_48" transform="matrix(10,0,0,-10,278.04328,398.23374)"/>
<use data-text="0" xlink:href="#font_102_48" transform="matrix(10,0,0,-10,284.40327,398.23374)"/>
<g clip-path="url(#clip_106)">
<path transform="matrix(1,0,0,-1,0,423.30876)" stroke-width=".5" stroke-linecap="square" stroke-linejoin="round" fill="none" stroke="#b0b0b0" stroke-opacity=".3" d="M351.23936 39.66875V400.23377"/>
</g>
<path transform="matrix(1,0,0,-1,0,423.30876)" d="M351.23936 39.66875V36.16875"/>
<path transform="matrix(1,0,0,-1,0,423.30876)" stroke-width=".8" stroke-linecap="butt" stroke-linejoin="round" fill="none" stroke="#000000" d="M351.23936 39.66875V36.16875"/>
<use data-text="4" xlink:href="#font_102_52" transform="matrix(10,0,0,-10,338.5206,398.23374)"/>
<use data-text="0" xlink:href="#font_102_48" transform="matrix(10,0,0,-10,344.8806,398.23374)"/>
<use data-text="0" xlink:href="#font_102_48" transform="matrix(10,0,0,-10,351.2406,398.23374)"/>
<use data-text="0" xlink:href="#font_102_48" transform="matrix(10,0,0,-10,357.6006,398.23374)"/>
<g clip-path="url(#clip_107)">
<path transform="matrix(1,0,0,-1,0,423.30876)" stroke-width=".5" stroke-linecap="square" stroke-linejoin="round" fill="none" stroke="#b0b0b0" stroke-opacity=".3" d="M424.43669 39.66875V400.23377"/>
</g>
<path transform="matrix(1,0,0,-1,0,423.30876)" d="M424.43669 39.66875V36.16875"/>
<path transform="matrix(1,0,0,-1,0,423.30876)" stroke-width=".8" stroke-linecap="butt" stroke-linejoin="round" fill="none" stroke="#000000" d="M424.43669 39.66875V36.16875"/>
<use data-text="5" xlink:href="#font_102_53" transform="matrix(10,0,0,-10,411.71794,398.23374)"/>
<use data-text="0" xlink:href="#font_102_48" transform="matrix(10,0,0,-10,418.07795,398.23374)"/>
<use data-text="0" xlink:href="#font_102_48" transform="matrix(10,0,0,-10,424.43794,398.23374)"/>
<use data-text="0" xlink:href="#font_102_48" transform="matrix(10,0,0,-10,430.7979,398.23374)"/>
<g clip-path="url(#clip_108)">
<path transform="matrix(1,0,0,-1,0,423.30876)" stroke-width=".5" stroke-linecap="square" stroke-linejoin="round" fill="none" stroke="#b0b0b0" stroke-opacity=".3" d="M497.63404 39.66875V400.23377"/>
</g>
<path transform="matrix(1,0,0,-1,0,423.30876)" d="M497.63404 39.66875V36.16875"/>
<path transform="matrix(1,0,0,-1,0,423.30876)" stroke-width=".8" stroke-linecap="butt" stroke-linejoin="round" fill="none" stroke="#000000" d="M497.63404 39.66875V36.16875"/>
<use data-text="6" xlink:href="#font_102_54" transform="matrix(10,0,0,-10,484.91529,398.23374)"/>
<use data-text="0" xlink:href="#font_102_48" transform="matrix(10,0,0,-10,491.27528,398.23374)"/>
<use data-text="0" xlink:href="#font_102_48" transform="matrix(10,0,0,-10,497.63529,398.23374)"/>
<use data-text="0" xlink:href="#font_102_48" transform="matrix(10,0,0,-10,503.9953,398.23374)"/>
<g clip-path="url(#clip_109)">
<path transform="matrix(1,0,0,-1,0,423.30876)" stroke-width=".5" stroke-linecap="square" stroke-linejoin="round" fill="none" stroke="#b0b0b0" stroke-opacity=".3" d="M570.83139 39.66875V400.23377"/>
</g>
<path transform="matrix(1,0,0,-1,0,423.30876)" d="M570.83139 39.66875V36.16875"/>
<path transform="matrix(1,0,0,-1,0,423.30876)" stroke-width=".8" stroke-linecap="butt" stroke-linejoin="round" fill="none" stroke="#000000" d="M570.83139 39.66875V36.16875"/>
<use data-text="7" xlink:href="#font_102_55" transform="matrix(10,0,0,-10,558.1126,398.23374)"/>
<use data-text="0" xlink:href="#font_102_48" transform="matrix(10,0,0,-10,564.4726,398.23374)"/>
<use data-text="0" xlink:href="#font_102_48" transform="matrix(10,0,0,-10,570.83267,398.23374)"/>
<use data-text="0" xlink:href="#font_102_48" transform="matrix(10,0,0,-10,577.1926,398.23374)"/>
<g clip-path="url(#clip_110)">
<path transform="matrix(1,0,0,-1,0,423.30876)" stroke-width=".5" stroke-linecap="square" stroke-linejoin="round" fill="none" stroke="#b0b0b0" stroke-opacity=".3" d="M644.0287 39.66875V400.23377"/>
</g>
<path transform="matrix(1,0,0,-1,0,423.30876)" d="M644.0287 39.66875V36.16875"/>
<path transform="matrix(1,0,0,-1,0,423.30876)" stroke-width=".8" stroke-linecap="butt" stroke-linejoin="round" fill="none" stroke="#000000" d="M644.0287 39.66875V36.16875"/>
<use data-text="8" xlink:href="#font_102_56" transform="matrix(10,0,0,-10,631.30996,398.23374)"/>
<use data-text="0" xlink:href="#font_102_48" transform="matrix(10,0,0,-10,637.6699,398.23374)"/>
<use data-text="0" xlink:href="#font_102_48" transform="matrix(10,0,0,-10,644.0299,398.23374)"/>
<use data-text="0" xlink:href="#font_102_48" transform="matrix(10,0,0,-10,650.38998,398.23374)"/>
<use data-text="D" xlink:href="#font_102_68" transform="matrix(12,0,0,-12,217.48345,413.43687)"/>
<use data-text="e" xlink:href="#font_102_101" transform="matrix(12,0,0,-12,227.10746,413.43687)"/>
<use data-text="l" xlink:href="#font_102_108" transform="matrix(12,0,0,-12,234.21144,413.43687)"/>
<use data-text="a" xlink:href="#font_102_97" transform="matrix(12,0,0,-12,238.05146,413.43687)"/>
<use data-text="y" xlink:href="#font_102_121" transform="matrix(12,0,0,-12,245.20345,413.43687)"/>
<use data-text=":" xlink:href="#font_102_58" transform="matrix(12,0,0,-12,251.98345,413.43687)"/>
<use data-text=" " xlink:href="#font_102_32" transform="matrix(12,0,0,-12,256.02745,413.43687)"/>
<use data-text="T" xlink:href="#font_102_84" transform="matrix(12,0,0,-12,259.84346,413.43687)"/>
<use data-text="r" xlink:href="#font_102_114" transform="matrix(12,0,0,-12,267.84745,413.43687)"/>
<use data-text="u" xlink:href="#font_102_117" transform="matrix(12,0,0,-12,273.58345,413.43687)"/>
<use data-text="e" xlink:href="#font_102_101" transform="matrix(12,0,0,-12,281.31147,413.43687)"/>
<use data-text=" " xlink:href="#font_102_32" transform="matrix(12,0,0,-12,288.41548,413.43687)"/>
<use data-text="U" xlink:href="#font_102_85" transform="matrix(12,0,0,-12,292.23146,413.43687)"/>
<use data-text="n" xlink:href="#font_102_110" transform="matrix(12,0,0,-12,302.34748,413.43687)"/>
<use data-text="d" xlink:href="#font_102_100" transform="matrix(12,0,0,-12,310.07545,413.43687)"/>
<use data-text="e" xlink:href="#font_102_101" transform="matrix(12,0,0,-12,317.75547,413.43687)"/>
<use data-text="r" xlink:href="#font_102_114" transform="matrix(12,0,0,-12,324.85945,413.43687)"/>
<use data-text="w" xlink:href="#font_102_119" transform="matrix(12,0,0,-12,330.59547,413.43687)"/>
<use data-text="a" xlink:href="#font_102_97" transform="matrix(12,0,0,-12,340.86747,413.43687)"/>
<use data-text="t" xlink:href="#font_102_116" transform="matrix(12,0,0,-12,348.01948,413.43687)"/>
<use data-text="e" xlink:href="#font_102_101" transform="matrix(12,0,0,-12,352.84346,413.43687)"/>
<use data-text="r" xlink:href="#font_102_114" transform="matrix(12,0,0,-12,359.94746,413.43687)"/>
<use data-text=" " xlink:href="#font_102_32" transform="matrix(12,0,0,-12,365.68348,413.43687)"/>
<use data-text=" " xlink:href="#font_102_32" transform="matrix(12,0,0,-12,379.5362,413.43687)"/>
<use data-text="O" xlink:href="#font_102_79" transform="matrix(12,0,0,-12,383.35218,413.43687)"/>
<use data-text="r" xlink:href="#font_102_114" transform="matrix(12,0,0,-12,393.19218,413.43687)"/>
<use data-text="a" xlink:href="#font_102_97" transform="matrix(12,0,0,-12,398.92817,413.43687)"/>
<use data-text="c" xlink:href="#font_102_99" transform="matrix(12,0,0,-12,406.0802,413.43687)"/>
<use data-text="l" xlink:href="#font_102_108" transform="matrix(12,0,0,-12,412.80018,413.43687)"/>
<use data-text="e" xlink:href="#font_102_101" transform="matrix(12,0,0,-12,416.6402,413.43687)"/>
<use data-text=" " xlink:href="#font_102_32" transform="matrix(12,0,0,-12,423.7442,413.43687)"/>
<use data-text="L" xlink:href="#font_102_76" transform="matrix(12,0,0,-12,427.56019,413.43687)"/>
<use data-text="i" xlink:href="#font_102_105" transform="matrix(12,0,0,-12,435.5282,413.43687)"/>
<use data-text="q" xlink:href="#font_102_113" transform="matrix(12,0,0,-12,439.36817,413.43687)"/>
<use data-text="u" xlink:href="#font_102_117" transform="matrix(12,0,0,-12,447.04817,413.43687)"/>
<use data-text="i" xlink:href="#font_102_105" transform="matrix(12,0,0,-12,454.77619,413.43687)"/>
<use data-text="d" xlink:href="#font_102_100" transform="matrix(12,0,0,-12,458.61616,413.43687)"/>
<use data-text="a" xlink:href="#font_102_97" transform="matrix(12,0,0,-12,466.29615,413.43687)"/>
<use data-text="t" xlink:href="#font_102_116" transform="matrix(12,0,0,-12,473.44819,413.43687)"/>
<use data-text="i" xlink:href="#font_102_105" transform="matrix(12,0,0,-12,478.27217,413.43687)"/>
<use data-text="o" xlink:href="#font_102_111" transform="matrix(12,0,0,-12,482.11219,413.43687)"/>
<use data-text="n" xlink:href="#font_102_110" transform="matrix(12,0,0,-12,489.33619,413.43687)"/>
<use data-text=" " xlink:href="#font_102_32" transform="matrix(12,0,0,-12,497.06416,413.43687)"/>
<use data-text="(" xlink:href="#font_102_40" transform="matrix(12,0,0,-12,500.8802,413.43687)"/>
<use data-text="h" xlink:href="#font_102_104" transform="matrix(12,0,0,-12,505.56019,413.43687)"/>
<use data-text="o" xlink:href="#font_102_111" transform="matrix(12,0,0,-12,513.28817,413.43687)"/>
<use data-text="u" xlink:href="#font_102_117" transform="matrix(12,0,0,-12,520.51217,413.43687)"/>
<use data-text="r" xlink:href="#font_102_114" transform="matrix(12,0,0,-12,528.2402,413.43687)"/>
<use data-text="s" xlink:href="#font_102_115" transform="matrix(12,0,0,-12,533.97616,413.43687)"/>
<use data-text=")" xlink:href="#font_102_41" transform="matrix(12,0,0,-12,540.13217,413.43687)"/>
<g clip-path="url(#clip_111)">
<path transform="matrix(.012,0,0,-.012,369.4815,413.43687)" d="M57 363H686L592 527H597L801 326V321L597 119H592L686 284H57V363Z"/>
</g>
<g clip-path="url(#clip_112)">
<path transform="matrix(1,0,0,-1,0,423.30876)" stroke-width=".5" stroke-linecap="square" stroke-linejoin="round" fill="none" stroke="#b0b0b0" stroke-opacity=".3" d="M58.45 39.66875H703.97"/>
</g>
<path transform="matrix(1,0,0,-1,0,423.30876)" d="M58.45 39.66875H54.95"/>
<path transform="matrix(1,0,0,-1,0,423.30876)" stroke-width=".8" stroke-linecap="butt" stroke-linejoin="round" fill="none" stroke="#000000" d="M58.45 39.66875H54.95"/>
<use data-text="0" xlink:href="#font_102_48" transform="matrix(10,0,0,-10,22.825,387.43687)"/>
<use data-text="." xlink:href="#font_102_46" transform="matrix(10,0,0,-10,29.185002,387.43687)"/>
<use data-text="0" xlink:href="#font_102_48" transform="matrix(10,0,0,-10,32.365,387.43687)"/>
<use data-text="0" xlink:href="#font_102_48" transform="matrix(10,0,0,-10,38.725004,387.43687)"/>
<use data-text="0" xlink:href="#font_102_48" transform="matrix(10,0,0,-10,45.085004,387.43687)"/>
<g clip-path="url(#clip_113)">
<path transform="matrix(1,0,0,-1,0,423.30876)" stroke-width=".5" stroke-linecap="square" stroke-linejoin="round" fill="none" stroke="#b0b0b0" stroke-opacity=".3" d="M58.45 117.39353H703.97"/>
</g>
<path transform="matrix(1,0,0,-1,0,423.30876)" d="M58.45 117.39353H54.95"/>
<path transform="matrix(1,0,0,-1,0,423.30876)" stroke-width=".8" stroke-linecap="butt" stroke-linejoin="round" fill="none" stroke="#000000" d="M58.45 117.39353H54.95"/>
<use data-text="0" xlink:href="#font_102_48" transform="matrix(10,0,0,-10,22.825,309.7121)"/>
<use data-text="." xlink:href="#font_102_46" transform="matrix(10,0,0,-10,29.185002,309.7121)"/>
<use data-text="0" xlink:href="#font_102_48" transform="matrix(10,0,0,-10,32.365,309.7121)"/>
<use data-text="0" xlink:href="#font_102_48" transform="matrix(10,0,0,-10,38.725004,309.7121)"/>
<use data-text="2" xlink:href="#font_102_50" transform="matrix(10,0,0,-10,45.085004,309.7121)"/>
<g clip-path="url(#clip_114)">
<path transform="matrix(1,0,0,-1,0,423.30876)" stroke-width=".5" stroke-linecap="square" stroke-linejoin="round" fill="none" stroke="#b0b0b0" stroke-opacity=".3" d="M58.45 195.11832H703.97"/>
</g>
<path transform="matrix(1,0,0,-1,0,423.30876)" d="M58.45 195.11832H54.95"/>
<path transform="matrix(1,0,0,-1,0,423.30876)" stroke-width=".8" stroke-linecap="butt" stroke-linejoin="round" fill="none" stroke="#000000" d="M58.45 195.11832H54.95"/>
<use data-text="0" xlink:href="#font_102_48" transform="matrix(10,0,0,-10,22.825,231.9873)"/>
<use data-text="." xlink:href="#font_102_46" transform="matrix(10,0,0,-10,29.185002,231.9873)"/>
<use data-text="0" xlink:href="#font_102_48" transform="matrix(10,0,0,-10,32.365,231.9873)"/>
<use data-text="0" xlink:href="#font_102_48" transform="matrix(10,0,0,-10,38.725004,231.9873)"/>
<use data-text="4" xlink:href="#font_102_52" transform="matrix(10,0,0,-10,45.085004,231.9873)"/>
<g clip-path="url(#clip_115)">
<path transform="matrix(1,0,0,-1,0,423.30876)" stroke-width=".5" stroke-linecap="square" stroke-linejoin="round" fill="none" stroke="#b0b0b0" stroke-opacity=".3" d="M58.45 272.8431H703.97"/>
</g>
<path transform="matrix(1,0,0,-1,0,423.30876)" d="M58.45 272.8431H54.95"/>
<path transform="matrix(1,0,0,-1,0,423.30876)" stroke-width=".8" stroke-linecap="butt" stroke-linejoin="round" fill="none" stroke="#000000" d="M58.45 272.8431H54.95"/>
<use data-text="0" xlink:href="#font_102_48" transform="matrix(10,0,0,-10,22.825,154.26251)"/>
<use data-text="." xlink:href="#font_102_46" transform="matrix(10,0,0,-10,29.185002,154.26251)"/>
<use data-text="0" xlink:href="#font_102_48" transform="matrix(10,0,0,-10,32.365,154.26251)"/>
<use data-text="0" xlink:href="#font_102_48" transform="matrix(10,0,0,-10,38.725004,154.26251)"/>
<use data-text="6" xlink:href="#font_102_54" transform="matrix(10,0,0,-10,45.085004,154.26251)"/>
<g clip-path="url(#clip_116)">
<path transform="matrix(1,0,0,-1,0,423.30876)" stroke-width=".5" stroke-linecap="square" stroke-linejoin="round" fill="none" stroke="#b0b0b0" stroke-opacity=".3" d="M58.45 350.5679H703.97"/>
</g>
<path transform="matrix(1,0,0,-1,0,423.30876)" d="M58.45 350.5679H54.95"/>
<path transform="matrix(1,0,0,-1,0,423.30876)" stroke-width=".8" stroke-linecap="butt" stroke-linejoin="round" fill="none" stroke="#000000" d="M58.45 350.5679H54.95"/>
<use data-text="0" xlink:href="#font_102_48" transform="matrix(10,0,0,-10,22.825,76.53772)"/>
<use data-text="." xlink:href="#font_102_46" transform="matrix(10,0,0,-10,29.185002,76.53772)"/>
<use data-text="0" xlink:href="#font_102_48" transform="matrix(10,0,0,-10,32.365,76.53772)"/>
<use data-text="0" xlink:href="#font_102_48" transform="matrix(10,0,0,-10,38.725004,76.53772)"/>
<use data-text="8" xlink:href="#font_102_56" transform="matrix(10,0,0,-10,45.085004,76.53772)"/>
<use data-text="D" xlink:href="#font_102_68" transform="matrix(0,-12,-12,-0,16.153126,226.39656)"/>
<use data-text="e" xlink:href="#font_102_101" transform="matrix(0,-12,-12,-0,16.153126,216.77256)"/>
<use data-text="n" xlink:href="#font_102_110" transform="matrix(0,-12,-12,-0,16.153126,209.66857)"/>
<use data-text="s" xlink:href="#font_102_115" transform="matrix(0,-12,-12,-0,16.153126,201.94055)"/>
<use data-text="i" xlink:href="#font_102_105" transform="matrix(0,-12,-12,-0,16.153126,195.78456)"/>
<use data-text="t" xlink:href="#font_102_116" transform="matrix(0,-12,-12,-0,16.153126,191.94455)"/>
<use data-text="y" xlink:href="#font_102_121" transform="matrix(0,-12,-12,-0,16.153126,187.12056)"/>
<g clip-path="url(#clip_117)">
<path transform="matrix(1,0,0,-1,0,423.30876)" stroke-width="1.5" stroke-linecap="butt" stroke-dasharray="5.55,2.4" stroke-linejoin="round" fill="none" stroke="#dc2626" d="M60.64592 39.66875V400.23377"/>
</g>
<g clip-path="url(#clip_118)">
<path transform="matrix(1,0,0,-1,0,423.30876)" stroke-width="1.5" stroke-linecap="butt" stroke-dasharray="5.55,2.4" stroke-linejoin="round" fill="none" stroke="#f59e0b" d="M74.41946 39.66875V400.23377"/>
</g>
<path transform="matrix(1,0,0,-1,0,423.30876)" stroke-width=".8" stroke-linecap="square" stroke-miterlimit="10" stroke-linejoin="miter" fill="none" stroke="#000000" d="M58.45 39.66875V400.23377"/>
<path transform="matrix(1,0,0,-1,0,423.30876)" stroke-width=".8" stroke-linecap="square" stroke-miterlimit="10" stroke-linejoin="miter" fill="none" stroke="#000000" d="M58.45 39.66875H703.97"/>
<use data-text="T" xlink:href="#font_102_84" transform="matrix(13,0,0,-13,227.2725,17.074982)"/>
<use data-text="i" xlink:href="#font_102_105" transform="matrix(13,0,0,-13,235.94351,17.074982)"/>
<use data-text="m" xlink:href="#font_102_109" transform="matrix(13,0,0,-13,240.10352,17.074982)"/>
<use data-text="e" xlink:href="#font_102_101" transform="matrix(13,0,0,-13,252.4275,17.074982)"/>
<use data-text="-" xlink:href="#font_102_45" transform="matrix(13,0,0,-13,260.1235,17.074982)"/>
<use data-text="t" xlink:href="#font_102_116" transform="matrix(13,0,0,-13,264.51753,17.074982)"/>
<use data-text="o" xlink:href="#font_102_111" transform="matrix(13,0,0,-13,269.7435,17.074982)"/>
<use data-text="-" xlink:href="#font_102_45" transform="matrix(13,0,0,-13,277.56953,17.074982)"/>
<use data-text="L" xlink:href="#font_102_76" transform="matrix(13,0,0,-13,281.9635,17.074982)"/>
<use data-text="i" xlink:href="#font_102_105" transform="matrix(13,0,0,-13,290.59553,17.074982)"/>
<use data-text="q" xlink:href="#font_102_113" transform="matrix(13,0,0,-13,294.75553,17.074982)"/>
<use data-text="u" xlink:href="#font_102_117" transform="matrix(13,0,0,-13,303.0755,17.074982)"/>
<use data-text="i" xlink:href="#font_102_105" transform="matrix(13,0,0,-13,311.4475,17.074982)"/>
<use data-text="d" xlink:href="#font_102_100" transform="matrix(13,0,0,-13,315.6075,17.074982)"/>
<use data-text="a" xlink:href="#font_102_97" transform="matrix(13,0,0,-13,323.92753,17.074982)"/>
<use data-text="t" xlink:href="#font_102_116" transform="matrix(13,0,0,-13,331.67555,17.074982)"/>
<use data-text="i" xlink:href="#font_102_105" transform="matrix(13,0,0,-13,336.90153,17.074982)"/>
<use data-text="o" xlink:href="#font_102_111" transform="matrix(13,0,0,-13,341.06153,17.074982)"/>
<use data-text="n" xlink:href="#font_102_110" transform="matrix(13,0,0,-13,348.8875,17.074982)"/>
<use data-text=" " xlink:href="#font_102_32" transform="matrix(13,0,0,-13,357.25953,17.074982)"/>
<use data-text="D" xlink:href="#font_102_68" transform="matrix(13,0,0,-13,361.39353,17.074982)"/>
<use data-text="i" xlink:href="#font_102_105" transform="matrix(13,0,0,-13,371.81953,17.074982)"/>
<use data-text="s" xlink:href="#font_102_115" transform="matrix(13,0,0,-13,375.97953,17.074982)"/>
<use data-text="t" xlink:href="#font_102_116" transform="matrix(13,0,0,-13,382.64854,17.074982)"/>
<use data-text="r" xlink:href="#font_102_114" transform="matrix(13,0,0,-13,387.8745,17.074982)"/>
<use data-text="i" xlink:href="#font_102_105" transform="matrix(13,0,0,-13,394.08854,17.074982)"/>
<use data-text="b" xlink:href="#font_102_98" transform="matrix(13,0,0,-13,398.24855,17.074982)"/>
<use data-text="u" xlink:href="#font_102_117" transform="matrix(13,0,0,-13,406.56855,17.074982)"/>
<use data-text="t" xlink:href="#font_102_116" transform="matrix(13,0,0,-13,414.94056,17.074982)"/>
<use data-text="i" xlink:href="#font_102_105" transform="matrix(13,0,0,-13,420.16654,17.074982)"/>
<use data-text="o" xlink:href="#font_102_111" transform="matrix(13,0,0,-13,424.32655,17.074982)"/>
<use data-text="n" xlink:href="#font_102_110" transform="matrix(13,0,0,-13,432.15254,17.074982)"/>
<use data-text=" " xlink:href="#font_102_32" transform="matrix(13,0,0,-13,440.52455,17.074982)"/>
<use data-text="(" xlink:href="#font_102_40" transform="matrix(13,0,0,-13,444.65855,17.074982)"/>
<use data-text="o" xlink:href="#font_102_111" transform="matrix(13,0,0,-13,449.72856,17.074982)"/>
<use data-text="r" xlink:href="#font_102_114" transform="matrix(13,0,0,-13,457.55458,17.074982)"/>
<use data-text="a" xlink:href="#font_102_97" transform="matrix(13,0,0,-13,463.76856,17.074982)"/>
<use data-text="c" xlink:href="#font_102_99" transform="matrix(13,0,0,-13,471.51655,17.074982)"/>
<use data-text="l" xlink:href="#font_102_108" transform="matrix(13,0,0,-13,478.79658,17.074982)"/>
<use data-text="e" xlink:href="#font_102_101" transform="matrix(13,0,0,-13,482.95655,17.074982)"/>
<use data-text=" " xlink:href="#font_102_32" transform="matrix(13,0,0,-13,490.6526,17.074982)"/>
<use data-text="d" xlink:href="#font_102_100" transform="matrix(13,0,0,-13,494.78657,17.074982)"/>
<use data-text="e" xlink:href="#font_102_101" transform="matrix(13,0,0,-13,503.10658,17.074982)"/>
<use data-text="l" xlink:href="#font_102_108" transform="matrix(13,0,0,-13,510.8026,17.074982)"/>
<use data-text="a" xlink:href="#font_102_97" transform="matrix(13,0,0,-13,514.9626,17.074982)"/>
<use data-text="y" xlink:href="#font_102_121" transform="matrix(13,0,0,-13,522.7106,17.074982)"/>
<use data-text=")" xlink:href="#font_102_41" transform="matrix(13,0,0,-13,530.0556,17.074982)"/>
<g>
<path transform="matrix(1,0,0,-1,0,423.30876)" d="M583.345 362.89H696.97C698.30337 362.89 698.97 363.55668 698.97 364.89V393.23377C698.97 394.56709 698.30337 395.23377 696.97 395.23377H583.345C582.01168 395.23377 581.345 394.56709 581.345 393.23377V364.89C581.345 363.55668 582.01168 362.89 583.345 362.89Z" fill="#ffffff" fill-opacity=".8"/>
<path transform="matrix(1,0,0,-1,0,423.30876)" stroke-width="1" stroke-linecap="butt" stroke-miterlimit="10" stroke-linejoin="miter" fill="none" stroke="#cccccc" stroke-opacity=".8" d="M583.345 362.89H696.97C698.30337 362.89 698.97 363.55668 698.97 364.89V393.23377C698.97 394.56709 698.30337 395.23377 696.97 395.23377H583.345C582.01168 395.23377 581.345 394.56709 581.345 393.23377V364.89C581.345 363.55668 582.01168 362.89 583.345 362.89Z"/>
</g>
<path transform="matrix(1,0,0,-1,0,423.30876)" stroke-width="1.5" stroke-linecap="butt" stroke-dasharray="5.55,2.4" stroke-linejoin="round" fill="none" stroke="#dc2626" d="M585.345 387.14H595.345 605.345"/>
<use data-text="M" xlink:href="#font_102_77" transform="matrix(10,0,0,-10,613.345,39.66873)"/>
<use data-text="e" xlink:href="#font_102_101" transform="matrix(10,0,0,-10,623.58499,39.66873)"/>
<use data-text="d" xlink:href="#font_102_100" transform="matrix(10,0,0,-10,629.50497,39.66873)"/>
<use data-text="i" xlink:href="#font_102_105" transform="matrix(10,0,0,-10,635.90499,39.66873)"/>
<use data-text="a" xlink:href="#font_102_97" transform="matrix(10,0,0,-10,639.105,39.66873)"/>
<use data-text="n" xlink:href="#font_102_110" transform="matrix(10,0,0,-10,645.06497,39.66873)"/>
<use data-text=" " xlink:href="#font_102_32" transform="matrix(10,0,0,-10,651.505,39.66873)"/>
<use data-text="=" xlink:href="#font_102_61" transform="matrix(10,0,0,-10,654.685,39.66873)"/>
<use data-text=" " xlink:href="#font_102_32" transform="matrix(10,0,0,-10,663.065,39.66873)"/>
<use data-text="3" xlink:href="#font_102_51" transform="matrix(10,0,0,-10,666.245,39.66873)"/>
<use data-text="0" xlink:href="#font_102_48" transform="matrix(10,0,0,-10,672.605,39.66873)"/>
<use data-text="." xlink:href="#font_102_46" transform="matrix(10,0,0,-10,678.96499,39.66873)"/>
<use data-text="0" xlink:href="#font_102_48" transform="matrix(10,0,0,-10,682.14498,39.66873)"/>
<use data-text="h" xlink:href="#font_102_104" transform="matrix(10,0,0,-10,688.505,39.66873)"/>
<path transform="matrix(1,0,0,-1,0,423.30876)" stroke-width="1.5" stroke-linecap="butt" stroke-dasharray="5.55,2.4" stroke-linejoin="round" fill="none" stroke="#f59e0b" d="M585.345 372.46815H595.345 605.345"/>
<use data-text="M" xlink:href="#font_102_77" transform="matrix(10,0,0,-10,613.345,54.340608)"/>
<use data-text="e" xlink:href="#font_102_101" transform="matrix(10,0,0,-10,623.58499,54.340608)"/>
<use data-text="a" xlink:href="#font_102_97" transform="matrix(10,0,0,-10,629.50497,54.340608)"/>
<use data-text="n" xlink:href="#font_102_110" transform="matrix(10,0,0,-10,635.46499,54.340608)"/>
<use data-text=" " xlink:href="#font_102_32" transform="matrix(10,0,0,-10,641.90499,54.340608)"/>
<use data-text="=" xlink:href="#font_102_61" transform="matrix(10,0,0,-10,645.08499,54.340608)"/>
<use data-text=" " xlink:href="#font_102_32" transform="matrix(10,0,0,-10,653.46499,54.340608)"/>
<use data-text="2" xlink:href="#font_102_50" transform="matrix(10,0,0,-10,656.64498,54.340608)"/>
<use data-text="1" xlink:href="#font_102_49" transform="matrix(10,0,0,-10,663.005,54.340608)"/>
<use data-text="8" xlink:href="#font_102_56" transform="matrix(10,0,0,-10,669.365,54.340608)"/>
<use data-text="." xlink:href="#font_102_46" transform="matrix(10,0,0,-10,675.725,54.340608)"/>
<use data-text="2" xlink:href="#font_102_50" transform="matrix(10,0,0,-10,678.90499,54.340608)"/>
<use data-text="h" xlink:href="#font_102_104" transform="matrix(10,0,0,-10,685.26498,54.340608)"/>
</svg>
